<svg width="30" height="30" viewBox="0 0 30 30" fill="none" xmlns="http://www.w3.org/2000/svg">
<path d="M15 30C23.2843 30 30 23.2843 30 15C30 6.71573 23.2843 0 15 0C6.71573 0 0 6.71573 0 15C0 23.2843 6.71573 30 15 30Z" fill="#FFD71B"/>
<path d="M10.0545 24.1471C10.0426 24.194 10.0418 24.243 10.0522 24.2903C10.0626 24.3376 10.0838 24.3818 10.1143 24.4194C10.1447 24.457 10.1836 24.4869 10.2276 24.5069C10.2717 24.5269 10.3198 24.5363 10.3682 24.5344H19.6331C19.6815 24.5363 19.7296 24.5269 19.7737 24.5069C19.8178 24.4869 19.8566 24.457 19.887 24.4194C19.9175 24.3818 19.9387 24.3376 19.9491 24.2903C19.9595 24.243 19.9587 24.194 19.9469 24.1471C19.6886 23.2433 17.3427 22.3693 15.0007 22.3693C12.6586 22.3693 10.3165 23.2459 10.0545 24.1471Z" fill="#4E2408"/>
<path d="M11.8841 9.95418L11.8415 9.97871L11.8092 9.99549L11.7485 10.0265L11.6336 10.0846C11.5587 10.1207 11.4851 10.1556 11.4102 10.1892C11.263 10.255 11.1159 10.3183 10.9674 10.3751C10.673 10.4913 10.3748 10.592 10.0739 10.6811C9.4742 10.8609 8.86053 10.9904 8.23929 11.0684C7.92942 11.1084 7.61698 11.1317 7.30324 11.1459C6.9895 11.1601 6.67705 11.1549 6.36332 11.1381C5.73697 11.1038 5.1153 11.01 4.50672 10.8579C4.28666 10.8065 4.09526 10.6714 3.97301 10.4813C3.85077 10.2912 3.80727 10.061 3.85172 9.83946C3.89617 9.61788 4.02508 9.42228 4.21118 9.29405C4.39728 9.16582 4.62597 9.11502 4.84886 9.1524H4.86951C5.37326 9.23175 5.88328 9.26416 6.39301 9.24924C6.65123 9.2402 6.90171 9.21954 7.15476 9.18985C7.40782 9.16015 7.65958 9.11496 7.90876 9.06074C8.40813 8.953 8.89781 8.80445 9.37287 8.6166C9.61043 8.52364 9.84283 8.42164 10.0675 8.30932C10.1798 8.2538 10.2908 8.1957 10.3967 8.13631L10.5529 8.04722L10.6252 8.00203L10.6575 7.98138L10.6704 7.97234C10.6704 7.97234 10.6808 7.96588 10.6704 7.97234C10.8005 7.88319 10.9474 7.82147 11.1022 7.79092C11.2569 7.76038 11.4162 7.76165 11.5704 7.79466C11.7247 7.82768 11.8705 7.89174 11.9992 7.98295C12.1279 8.07416 12.2366 8.19061 12.3188 8.3252C12.4011 8.45979 12.455 8.60971 12.4774 8.76583C12.4998 8.92195 12.4902 9.08099 12.4492 9.23327C12.4081 9.38556 12.3365 9.52789 12.2387 9.65161C12.1409 9.77532 12.0189 9.87783 11.8802 9.95289L11.8841 9.95418Z" fill="#E69900"/>
<path d="M18.1188 9.95403L18.1601 9.97857L18.1924 9.99535L18.2531 10.0263L18.368 10.0844L18.5914 10.189C18.7398 10.2549 18.887 10.3181 19.0342 10.3749C19.3299 10.4911 19.6268 10.5918 19.9277 10.6809C20.5274 10.8607 21.1411 10.9903 21.7623 11.0683C22.0735 11.1083 22.3859 11.1315 22.6983 11.1457C23.0108 11.1599 23.3258 11.1548 23.6383 11.138C24.2646 11.1037 24.8863 11.0098 25.4949 10.8578C25.7149 10.8063 25.9063 10.6713 26.0286 10.4812C26.1508 10.2911 26.1943 10.0609 26.1499 9.83932C26.1054 9.61774 25.9765 9.42214 25.7904 9.29391C25.6043 9.16568 25.3756 9.11488 25.1527 9.15226H25.1334C24.6292 9.23156 24.1187 9.26398 23.6086 9.2491C23.3504 9.24006 23.0999 9.2194 22.8481 9.18971C22.5964 9.16001 22.3433 9.11482 22.0928 9.0606C21.5935 8.95286 21.1038 8.80431 20.6287 8.61646C20.3924 8.5235 20.1588 8.4215 19.9341 8.30918C19.8218 8.25366 19.712 8.19556 19.6049 8.13617C19.5519 8.10647 19.499 8.07678 19.4499 8.04708L19.3776 8.0019L19.3454 7.98124L19.3312 7.9722C19.3312 7.9722 19.3221 7.96574 19.3312 7.9722C19.2011 7.88214 19.0539 7.8196 18.8988 7.78842C18.7437 7.75723 18.5838 7.75806 18.429 7.79084C18.2742 7.82363 18.1278 7.88769 17.9986 7.97909C17.8694 8.07049 17.7603 8.1873 17.6779 8.32237C17.5955 8.45745 17.5415 8.60793 17.5193 8.76459C17.4971 8.92126 17.5071 9.08081 17.5488 9.23346C17.5904 9.38611 17.6628 9.52865 17.7615 9.65233C17.8602 9.77602 17.9831 9.87824 18.1227 9.95274L18.1188 9.95403Z" fill="#E69900"/>
<path d="M9.03084 17.9964C7.84948 18.0054 6.87858 16.8073 6.86825 15.3277C6.85792 13.8481 7.81075 12.6357 8.99211 12.628C10.1735 12.6202 11.1444 13.8171 11.1547 15.2967C11.165 16.7763 10.2122 17.9886 9.03084 17.9964Z" fill="url(#paint0_linear)"/>
<path d="M9.00677 18.0267C10.1569 18.0186 11.0809 16.8081 11.0705 15.3228C11.0601 13.8376 10.1193 12.64 8.96922 12.6481C7.81908 12.6561 6.89512 13.8666 6.90549 15.3519C6.91586 16.8372 7.85664 18.0347 9.00677 18.0267Z" fill="#4E2408"/>
<path d="M21.0102 17.909C22.1938 17.9005 23.1448 16.6919 23.1342 15.2095C23.1236 13.7271 22.1554 12.5322 20.9718 12.5407C19.7881 12.5492 18.8372 13.7578 18.8478 15.2402C18.8584 16.7226 19.8266 17.9174 21.0102 17.909Z" fill="url(#paint1_linear)"/>
<path d="M20.9887 17.9401C22.1388 17.9319 23.0625 16.7212 23.0519 15.2359C23.0413 13.7506 22.1003 12.5533 20.9502 12.5615C19.8 12.5697 18.8763 13.7805 18.8869 15.2657C18.8975 16.751 19.8385 17.9483 20.9887 17.9401Z" fill="#4E2408"/>
<defs>
<linearGradient id="paint0_linear" x1="314.459" y1="652.36" x2="316.057" y2="875.575" gradientUnits="userSpaceOnUse">
<stop stop-color="#FFD71B"/>
<stop offset="1" stop-color="#E69900"/>
</linearGradient>
<linearGradient id="paint1_linear" x1="724.113" y1="649.333" x2="725.71" y2="872.546" gradientUnits="userSpaceOnUse">
<stop stop-color="#FFD71B"/>
<stop offset="1" stop-color="#E69900"/>
</linearGradient>
</defs>
</svg>
