<svg width="30" height="30" viewBox="0 0 30 30" fill="none" xmlns="http://www.w3.org/2000/svg">
<path d="M15 30C23.2843 30 30 23.2843 30 15C30 6.71573 23.2843 0 15 0C6.71573 0 0 6.71573 0 15C0 23.2843 6.71573 30 15 30Z" fill="#FFD71B"/>
<path d="M9.00019 13.4937C10.1838 13.4852 11.1348 12.2766 11.1242 10.7942C11.1136 9.3118 10.1454 8.11694 8.96178 8.12541C7.77814 8.13388 6.8272 9.34247 6.83781 10.8249C6.84842 12.3073 7.81655 13.5021 9.00019 13.4937Z" fill="url(#paint0_linear)"/>
<path d="M6.87706 10.8494C6.86544 9.3646 7.78987 8.15484 8.94282 8.1458C10.0958 8.13677 11.0331 9.33491 11.0434 10.8197C11.0538 12.3044 10.1306 13.5155 8.97768 13.5232C7.82473 13.531 6.88739 12.3341 6.87706 10.8494Z" fill="#4E2408"/>
<path d="M20.9786 13.4097C19.7959 13.4174 18.8263 12.2206 18.816 10.741C18.8057 9.26139 19.7585 8.04904 20.9399 8.0413C22.1212 8.03355 23.0921 9.2304 23.1025 10.71C23.1128 12.1896 22.16 13.4019 20.9786 13.4097Z" fill="url(#paint1_linear)"/>
<path d="M20.9577 13.4379C22.1078 13.4297 23.0315 12.219 23.0209 10.7337C23.0103 9.24845 22.0693 8.05109 20.9192 8.05932C19.769 8.06755 18.8453 9.27826 18.8559 10.7635C18.8665 12.2488 19.8075 13.4461 20.9577 13.4379Z" fill="#4E2408"/>
<path d="M15.2034 25.8895C12.8658 25.9083 10.5878 25.1529 8.72464 23.7411C7.59664 22.885 6.6196 21.8464 5.83386 20.6683C5.24512 19.7994 4.41365 17.6781 4.91589 16.7214C4.99711 16.565 5.12159 16.4352 5.27451 16.3475C5.42742 16.2598 5.60231 16.218 5.77835 16.2269H5.78868C5.85645 16.2269 5.92415 16.2312 5.99138 16.2398C6.46521 16.2992 6.97778 16.3999 7.57298 16.5174C10.0902 17.0475 12.6568 17.3072 15.2292 17.2921C17.8029 17.2709 20.367 16.9744 22.8777 16.4077C23.4716 16.2786 23.9829 16.174 24.4567 16.1081C24.5269 16.0983 24.5976 16.0926 24.6684 16.0913H24.6788C24.853 16.0818 25.0263 16.1221 25.1784 16.2077C25.3305 16.2932 25.455 16.4204 25.5373 16.5742C26.0538 17.5245 25.252 19.6574 24.6762 20.534C23.9094 21.7226 22.9493 22.7747 21.8358 23.6469C19.9687 25.1036 17.6671 25.8924 15.2989 25.8869L15.2034 25.8895Z" fill="#4E2408"/>
<path d="M15.2832 25.3833C13.0257 25.4199 10.8211 24.699 9.02135 23.3356C7.93878 22.5135 7.00104 21.5164 6.24678 20.3855C5.65029 19.5049 5.00087 17.6354 5.35721 16.9563C5.39617 16.8808 5.45715 16.8189 5.53208 16.7787C5.60701 16.7386 5.69235 16.7222 5.77682 16.7317C5.82559 16.7317 5.87432 16.7347 5.92271 16.7407C6.37976 16.7988 6.88458 16.8982 7.47203 17.0131C10.0223 17.5508 12.6227 17.814 15.229 17.7981C17.8357 17.7771 20.4327 17.4771 22.9756 16.9034C23.5591 16.7743 24.064 16.6736 24.5249 16.609C24.5765 16.6026 24.6256 16.5987 24.6708 16.5974C24.7551 16.5866 24.8408 16.6018 24.9162 16.641C24.9917 16.6802 25.0534 16.7416 25.093 16.8169C25.4596 17.4908 24.8347 19.3694 24.2525 20.2577C23.5146 21.3999 22.5908 22.4106 21.5192 23.2478C19.7379 24.6372 17.5422 25.3891 15.2832 25.3833Z" fill="#4E2408"/>
<path d="M25.0896 16.8183C25.1136 16.8622 25.1247 16.9121 25.1217 16.9621C25.1188 17.012 25.1018 17.0602 25.0728 17.101C24.4686 17.9338 23.3298 19.2894 21.8967 19.9789C19.7527 20.9826 17.4209 21.5225 15.0539 21.5631C12.6849 21.5563 10.3439 21.0499 8.18392 20.077C7.08003 19.5657 6.14269 18.6658 5.49714 17.9028C5.39555 17.7874 5.32618 17.6473 5.29603 17.4966C5.26588 17.3458 5.27602 17.1898 5.32543 17.0442C5.33555 17.014 5.34807 16.9846 5.36287 16.9564C5.40154 16.8806 5.46247 16.8185 5.53748 16.7784C5.61248 16.7382 5.69797 16.7219 5.78248 16.7318C5.83125 16.7318 5.87997 16.7348 5.92837 16.7408C6.38542 16.7989 6.89153 16.8983 7.47769 17.0132C10.028 17.5508 12.6284 17.8144 15.2346 17.7995C17.8414 17.7775 20.4383 17.4771 22.9812 16.9035C23.5648 16.7744 24.0696 16.6737 24.5305 16.6091C24.5785 16.6026 24.6268 16.5992 24.6751 16.5988C24.7594 16.5875 24.8451 16.6023 24.9206 16.6414C24.9961 16.6804 25.0578 16.7417 25.0973 16.817L25.0896 16.8183Z" fill="white"/>
<defs>
<linearGradient id="paint0_linear" x1="8.96178" y1="8.12541" x2="9.00019" y2="13.4937" gradientUnits="userSpaceOnUse">
<stop stop-color="#FFD71B"/>
<stop offset="1" stop-color="#E69900"/>
</linearGradient>
<linearGradient id="paint1_linear" x1="755.805" y1="398.635" x2="757.402" y2="621.85" gradientUnits="userSpaceOnUse">
<stop stop-color="#FFD71B"/>
<stop offset="1" stop-color="#E69900"/>
</linearGradient>
</defs>
</svg>
