<svg xmlns="http://www.w3.org/2000/svg" width="70" height="57" fill="none" xmlns:v="https://vecta.io/nano"><path fill="gray" fill-opacity=".2" d="M0 0h70v57H0z"/><mask id="A" mask-type="alpha" maskUnits="userSpaceOnUse" x="5" y="5" width="29" height="22"><path fill="#b3b3b3" d="M5 5h29v22H5z"/></mask><g mask="url(#A)"><path fill="#b3b3b3" d="M5 5h29v22H5z"/><path d="M7.762 27.401l4.436-4.085c.485-.363 2.125-.808 2.269-.866l2.897-1.074 4.585-.505 1.418.604 3.529 1.064a3.97 3.97 0 0 1 2.285 1.799l2.811 4.816-4.98 2.266.596 5.413 2.418 8.32-15.194 2.136-1.523-16.383-1.533.571-4.012-4.075z" fill="gray"/><path d="M26.481 26.712l.035-.005.098-.019.359-.08a9.62 9.62 0 0 0 2.259-.866l.321-.18.088-.052.03-.019-.032.016-.088.049-.324.175a10.34 10.34 0 0 1-2.259.865l-.357.086-.098.022-.032.008zm-4.011-4.84a2.25 2.25 0 0 0 .145.153 2.43 2.43 0 0 0 .457.346 3.57 3.57 0 0 0 .785.332 7.29 7.29 0 0 0 1.022.218l1.032.157a5.77 5.77 0 0 1 .827.203 3.35 3.35 0 0 1 .528.222c.061.029.104.059.136.076l.048.026s-.062-.043-.181-.109a3.37 3.37 0 0 0-.527-.229 5.77 5.77 0 0 0-.828-.207l-1.032-.159a7.52 7.52 0 0 1-1.02-.216 3.68 3.68 0 0 1-.783-.326 2.51 2.51 0 0 1-.463-.337c-.051-.044-.084-.083-.111-.109s-.035-.042-.035-.042zm-9.248 2.009s.013-.008.037-.027l.103-.078a2.88 2.88 0 0 1 .407-.248 4.91 4.91 0 0 1 .656-.27l.832-.25 1.518-.437.457-.135.125-.038.043-.015-.044.011-.126.034-.458.128-1.52.432-.833.251a4.67 4.67 0 0 0-.655.275c-.143.073-.279.158-.406.255l-.137.112zm2.26.734l.107.032.31.081 1.16.226a12.32 12.32 0 0 0 1.747.136c.661.008 1.383-.093 2.131-.224l2.122-.314c.581-.053 1.167-.029 1.742.071a4.28 4.28 0 0 1 1.118.366l.279.157.096.058-.093-.061-.279-.161a4.19 4.19 0 0 0-1.118-.372 6.6 6.6 0 0 0-1.747-.075c-.66.05-1.373.183-2.123.313s-1.469.233-2.129.226c-.584-.004-1.167-.049-1.745-.136l-1.159-.218-.311-.078-.108-.024zm2.016 3.344l1.208.038 1.312-.024 1.603-.117 1.589-.214 1.289-.247 1.174-.285-.081.018-.234.057-.862.196-1.289.242-1.589.213-1.603.119-1.311.027-.884-.015-.24-.008h-.082zm-8.456-1.59s.037.07.116.19a3.77 3.77 0 0 0 .378.477 6.85 6.85 0 0 0 .658.617l.86.694a6.88 6.88 0 0 1 .802.758c.201.224.373.472.512.739a2.5 2.5 0 0 1 .215.574c.019.069.024.125.032.162s.008.057.008.057a1.89 1.89 0 0 0-.037-.221 2.38 2.38 0 0 0-.207-.573 3.57 3.57 0 0 0-.511-.743 6.86 6.86 0 0 0-.803-.762l-.859-.693a7.06 7.06 0 0 1-.658-.613 3.88 3.88 0 0 1-.382-.472l-.091-.139-.033-.052zm4.529 1.004l-.035-.019-.102-.05-.369-.195-.523-.33a7.17 7.17 0 0 1-.594-.468l-.537-.534-.39-.48-.239-.347-.062-.095-.023-.033c.095.167.199.328.312.484.103.144.234.308.389.483a6.73 6.73 0 0 0 .537.537c.19.167.39.323.597.468l.523.328c.168.093.341.177.518.251z" fill="#fff"/><path d="M14.14 26.826c.009-.048.014-.098.015-.147l.006-.173-.006-.23-.026-.282-.052-.317a4.13 4.13 0 0 0-.546-1.352l-.181-.26-.174-.217-.155-.169a1.61 1.61 0 0 0-.125-.12.9.9 0 0 0-.109-.096.85.85 0 0 0 .1.109l.118.125.149.17.169.219.176.261c.255.413.438.867.541 1.341l.056.311.031.275.012.228.002.173a.78.78 0 0 0 0 .151zm12.043-1.296c.008.004.062-.14.171-.362a4.73 4.73 0 0 1 1.176-1.513l.309-.255c-.033.015-.064.033-.093.055a3.2 3.2 0 0 0-.237.174 4.22 4.22 0 0 0-.682.693 4.24 4.24 0 0 0-.503.833l-.11.274a.51.51 0 0 0-.03.101zm-3.976-1.692c.001-.032-.003-.063-.013-.093a.78.78 0 0 0-.279-.437l-.006-.005.001.007c-.005.014-.008.028-.009.043 0 0 .009-.014.018-.04l-.008.001a.92.92 0 0 1 .18.218 1.19 1.19 0 0 1 .117.306zm-1.147.816a.28.28 0 0 0 .006-.096.89.89 0 0 0-.038-.229.9.9 0 0 0-.095-.211c-.015-.028-.035-.054-.058-.076.056.092.102.191.136.293.027.104.044.211.049.319zm-1.363.081a1.53 1.53 0 0 1-.001-.264c.014-.087.037-.173.068-.256a.25.25 0 0 0-.038.069.71.71 0 0 0-.049.184.77.77 0 0 0 .001.19.23.23 0 0 0 .019.076zm-1.25-.35c.028-.089.064-.175.107-.257a1.65 1.65 0 0 1 .169-.221c-.024.014-.046.031-.064.052a.79.79 0 0 0-.122.159.81.81 0 0 0-.077.185.26.26 0 0 0-.013.082zm-.925-.687a.58.58 0 0 1 .126-.279.56.56 0 0 1 .258-.161l-.025.004a.37.37 0 0 0-.065.018.47.47 0 0 0-.183.129.46.46 0 0 0-.103.198.3.3 0 0 0-.01.067c-.001.008 0 .016.002.024zm-.642-1.417a.61.61 0 0 1 .229-.152c.089-.027.183-.032.275-.016-.091-.032-.189-.033-.281-.003s-.17.09-.224.169v.002zm5.997.446a.25.25 0 0 0-.031-.078.55.55 0 0 0-.305-.25.23.23 0 0 0-.082-.015c.09.025.173.068.245.127s.131.133.172.216zm.157-1.026c-.015-.026-.035-.049-.057-.068a.67.67 0 0 0-.177-.125c-.065-.032-.135-.055-.207-.066a.27.27 0 0 0-.089-.003.88.88 0 0 1 .53.259v.003z" fill="#455a64"/><path d="M14.967 8.734c.787-.241 1.603.464 2.414.306.491-.094.86-.488 1.297-.731.652-.364 1.574-.423 2.24-.085s1.097.699 1.187 1.441c.607-.348 1.618.415 1.962 1.152s.258 1.497.063 2.286c-.339 1.361-.942 2.643-1.775 3.773-.074.1-.189.21-.303.158-.035-.025-.064-.057-.084-.095s-.031-.08-.033-.123c-.116-.722-.025-1.458.039-2.186s.094-1.479-.137-2.169-.773-1.326-1.49-1.468c-.53-.105-1.08.067-1.551.332s-.885.618-1.333.919-.952.555-1.491.577-1.119-.23-1.348-.719.027-1.183.556-1.295a1.06 1.06 0 0 1-.964-.949 1.06 1.06 0 0 1 .751-1.126v.003z" fill="#000"/><path d="M17.393 21.387l.076-1.559s-2.058-.394-2.012-2.465c.023-.999.238-3.054.453-4.911a3.86 3.86 0 0 1 3.968-3.414l.2.007c2.148.202 3.178 2.139 2.916 4.281l-.495 8.338c-.04.674-.345 1.305-.849 1.756s-1.165.683-1.84.647a2.56 2.56 0 0 1-2.418-2.679z" fill="#ffbe9d"/><path d="M17.467 19.828s1.304.152 2.725-.672c0 0-.691 1.468-2.748 1.208l.024-.536z" fill="#eb996e"/><path d="M16.607 13.853c-.003.077.024.152.075.209s.123.093.2.098c.037.004.075.001.112-.01s.07-.028.099-.052.053-.053.071-.087.029-.07.032-.107c.004-.077-.023-.152-.074-.21a.29.29 0 0 0-.2-.098.28.28 0 0 0-.212.062c-.029.024-.054.053-.071.087s-.028.07-.032.108zm-.287-.377c.036.04.265-.118.583-.106s.545.179.581.142c.018-.017-.017-.088-.116-.165a.81.81 0 0 0-.463-.161c-.165-.007-.329.04-.466.133-.101.071-.136.14-.119.158zm3.412.598c-.003.077.023.152.075.21s.123.093.2.098c.037.004.075.001.112-.01a.28.28 0 0 0 .099-.052c.029-.024.053-.053.071-.086a.27.27 0 0 0 .032-.107c.003-.077-.023-.152-.075-.21s-.123-.093-.2-.098c-.038-.004-.076-.001-.112.01a.28.28 0 0 0-.17.138c-.017.033-.029.07-.032.107zm-.288-.429c.035.04.265-.118.583-.106s.545.179.581.141c.018-.017-.017-.088-.116-.165a.81.81 0 0 0-.464-.161c-.168-.004-.328.04-.465.133-.101.072-.137.14-.119.157zm-1.237 2.316c0-.019-.194-.059-.513-.111-.081-.011-.157-.03-.17-.087a.42.42 0 0 1 .063-.239l.261-.609.596-1.603c-.036-.019-.358.678-.723 1.547l-.252.614a.47.47 0 0 0-.054.317c.011.029.028.055.05.077s.049.037.079.047a.54.54 0 0 0 .138.024c.322.037.522.045.523.025zm.929.256c-.052-.006-.065.34-.369.574s-.67.184-.674.232c-.006.022.079.07.235.079.203.011.404-.05.566-.174a.75.75 0 0 0 .283-.483c.018-.144-.017-.231-.041-.229zm.332-4.201c.028.087.347.058.719.115s.67.171.722.094c.023-.037-.026-.12-.144-.207a1.26 1.26 0 0 0-1.098-.16c-.138.048-.209.117-.198.159zm-2.999.549c.054.074.275.007.539.012s.485.066.54-.008c.024-.036-.009-.109-.105-.181-.127-.089-.278-.135-.433-.133-.154-.005-.306.037-.435.122-.095.075-.129.147-.106.189z" fill="#263238"/><path d="M22.77 14.851c.036-.014 1.436-.371 1.342 1.037s-1.494 1.026-1.494.986.152-2.023.152-2.023z" fill="#ffbe9d"/><path d="M23.088 16.372c.007 0 .024.019.064.041.056.03.122.037.183.019.154-.045.295-.273.319-.528.012-.121-.004-.243-.045-.357-.01-.045-.031-.087-.061-.122s-.068-.062-.111-.079c-.028-.009-.058-.009-.085.002s-.05.03-.065.056c-.022.039-.014.067-.022.069s-.029-.025-.013-.083a.16.16 0 0 1 .061-.085c.041-.027.091-.036.139-.027.057.015.11.045.152.086s.074.093.09.15a.84.84 0 0 1 .058.4c-.028.283-.189.54-.4.586-.039.009-.079.008-.117-.001s-.075-.027-.105-.051c-.041-.04-.046-.072-.041-.075z" fill="#eb996e"/><path d="M15.488 12a2.99 2.99 0 0 0 2.676-.505c.519-.409.928-1.009 1.566-1.182.217-.05.442-.056.662-.018s.429.119.617.239c.375.242.696.558.943.929-.437 1.037-.209 2.221.024 3.322.013.125.067.242.154.333.162.134.417.042.566-.105.242-.237.345-.579.416-.909a5.81 5.81 0 0 0 .069-2.294 3.96 3.96 0 0 0-1.019-2.037c-.692-.687-1.624-1.077-2.599-1.088-.97-.004-1.916.298-2.705.862-.366.257-.706.566-.904.971" fill="#000"/><path d="M14.355 9.212c-.006.041-.003.083.008.124a.57.57 0 0 0 .189.298.9.9 0 0 0 .522.196 1.53 1.53 0 0 0 .351-.009c.133-.018.26-.072.365-.156a.5.5 0 0 0 .189-.393.44.44 0 0 0-.283-.372.56.56 0 0 0-.254-.041c-.09.009-.176.044-.246.101a.62.62 0 0 0-.167.218c-.039.084-.06.176-.061.268a.75.75 0 0 0 .205.527 1.13 1.13 0 0 0 .503.308c.389.122.822.063 1.213-.089a5.31 5.31 0 0 0 1.072-.593 6.76 6.76 0 0 1 .971-.573 2.1 2.1 0 0 1 .98-.203 2 2 0 0 1 .835.251 2.51 2.51 0 0 1 .909.887 3.24 3.24 0 0 1 .173.303.9.9 0 0 0 .056.109c-.002-.01-.005-.021-.009-.03l-.033-.085a2.58 2.58 0 0 0-.159-.315c-.216-.38-.529-.696-.907-.916a2.04 2.04 0 0 0-.859-.261 2.15 2.15 0 0 0-1.011.201 6.85 6.85 0 0 0-.985.579c-.329.234-.683.431-1.055.586-.382.147-.799.204-1.169.089a1.08 1.08 0 0 1-.47-.297c-.122-.127-.19-.296-.189-.472a.58.58 0 0 1 .202-.44c.061-.048.135-.079.212-.089s.156.003.227.035c.068.024.129.067.174.124s.073.125.082.197a.46.46 0 0 1-.044.196c-.029.062-.072.115-.124.157a.71.71 0 0 1-.341.148 1.51 1.51 0 0 1-.341.014.89.89 0 0 1-.517-.181c-.089-.074-.155-.172-.189-.283a.94.94 0 0 1-.02-.118zm9.924 2.832a2.41 2.41 0 0 1-.436.094 1.24 1.24 0 0 1-.472-.066 2.1 2.1 0 0 1-.522-.274 1.66 1.66 0 0 1-.601-.865 3.53 3.53 0 0 1-.078-.441.39.39 0 0 0-.011.123 1.35 1.35 0 0 0 .042.332 1.61 1.61 0 0 0 .607.909 2 2 0 0 0 .542.283 1.2 1.2 0 0 0 .497.054 1.15 1.15 0 0 0 .325-.087c.038-.014.074-.035.106-.061zm-.101 1.022c0-.013-.168.018-.435-.007-.347-.03-.68-.152-.963-.354a1.95 1.95 0 0 1-.649-.795c-.11-.244-.135-.411-.148-.408a.37.37 0 0 0 .011.118 1.57 1.57 0 0 0 .094.309 1.87 1.87 0 0 0 .652.833c.293.209.64.33.999.347a1.65 1.65 0 0 0 .323-.015c.04-.003.079-.013.115-.028z" fill="#455a64"/><path d="M20.453 15.035c.019-.001.023-.003.027-.006.012-.014.014-.019.015-.024.001-.019 0-.024-.002-.028-.013-.014-.018-.016-.022-.017s-.019.002-.026.007-.013.013-.015.023-.001.019.003.027.011.015.02.018zm-.608-.16c.01 0 .02-.004.028-.01s.014-.015.016-.025.001-.02-.003-.03-.012-.017-.021-.021-.021.002-.029.009-.014.016-.015.026-.003.021.002.03.013.017.023.021zm-.404-.025c.02 0 .039-.02.044-.051s-.007-.059-.025-.062-.039.02-.044.051.007.059.025.062zm.699.556c.019 0 .036-.008.036-.021s-.015-.024-.034-.024-.036.008-.036.021.014.023.034.024zm-.552-.15c.01.001.019-.003.027-.009s.012-.016.013-.026c-.001-.02-.003-.024-.006-.028-.015-.013-.019-.015-.024-.016s-.02.003-.027.01-.012.016-.013.026.001.02.006.028.014.014.024.016zm-2.888-.448c.02-.001.024-.003.028-.006.013-.015.015-.019.015-.024.002-.019 0-.024-.002-.028-.013-.014-.018-.016-.022-.018s-.019.001-.027.007-.014.014-.016.023a.04.04 0 0 0 .003.028c.005.009.012.015.021.019zm-.413-.051c.01-.001.02-.005.027-.012s.012-.017.014-.027-.001-.021-.006-.029-.014-.016-.023-.019c-.019 0-.037.015-.041.039-.002.01-.001.021.005.03s.014.016.024.019zm.779.072c.023-.006.027-.01.03-.015.004-.023.002-.029-.002-.034-.02-.013-.026-.014-.032-.012-.02.012-.023.018-.024.024s.001.017.006.024.013.012.021.013zm-.321.407c.009.003.02.003.029-.001s.016-.011.02-.02c.005-.019.005-.024.004-.029-.01-.017-.014-.021-.018-.023s-.019-.002-.028.003-.016.011-.02.02-.005.019-.003.028.008.018.016.023zm-.352-.084c.016-.006.019-.009.021-.013.006-.016.007-.02.006-.024s-.009-.015-.017-.018-.017-.004-.025-.001-.016.006-.021.012-.007.015-.006.024.009.015.017.019.017.005.025.002z" fill="#eb996e"/></g><path d="M36 5h29v22H36zm0 24h29v23H36zM5 29h29v23H5z" fill="#b3b3b3"/><g fill="gray"><circle cx="50.5" cy="15.5" r="5.5"/><circle cx="50.5" cy="40.5" r="5.5"/><circle cx="19.5" cy="40.5" r="5.5"/></g></svg>