<svg width="150" height="150" viewBox="0 0 150 150" fill="none" xmlns="http://www.w3.org/2000/svg">
<mask id="mask0" mask-type="alpha" maskUnits="userSpaceOnUse" x="0" y="0" width="150" height="150">
<circle cx="75" cy="75" r="75" fill="#222222"/>
</mask>
<g mask="url(#mask0)">
<path fill-rule="evenodd" clip-rule="evenodd" d="M75 0C116.42 0 150 33.5782 150 75C150 116.422 116.42 150 75 150C33.5782 150 0 116.422 0 75C0 33.5782 33.5782 0 75 0Z" fill="#B38F8F" fill-opacity="0.15"/>
<path opacity="0.3" fill-rule="evenodd" clip-rule="evenodd" d="M128 128.991C127.351 129.655 126.686 130.288 126.006 130.92C125.261 131.631 124.486 132.311 123.711 132.975C111.003 143.869 94.6401 150.574 76.6931 150.984C76.1073 151 75.5228 151 74.937 151C74.3511 151 73.781 151 73.1966 150.984C55.3284 150.574 38.9972 143.916 26.3202 133.118C25.5295 132.454 24.7703 131.758 24.0097 131.047C23.3293 130.415 22.6646 129.766 22 129.118C23.3293 125.671 25.0224 122.841 26.9691 120.88C31.0372 116.185 47.9385 111.685 55.2496 108.539C60.8667 106.402 62.9676 104.835 62.9676 99.6998C62.9733 98.1323 62.9504 96.8655 62.9676 96.5648C59.216 95.6001 47.2337 92.8479 45.6351 84.5473C43.8317 75.1395 48.5024 67.1533 50.4648 59.5809C52.4273 52.007 56.7207 43.7535 64.5232 39.6423C72.3099 35.5156 80.5707 37.3025 82.0891 37.9038C83.119 38.3142 83.4986 39.1835 83.6404 39.7065C85.4295 39.1835 88.356 38.9626 92.013 42.2045C95.6686 45.4449 98.0937 51.0973 100.247 57.5403C102.387 63.9439 103.113 66.179 104.986 74.0974C106.5 80.5 107.5 86 101.737 91.2029C96.5 95.9307 87.1279 96.5648 87.1279 96.5648C87.1279 96.5648 87.1279 97.6098 87.1279 99.6998C87.1279 104.835 88.1784 106.402 94.6716 108.539C101.413 111.449 117.27 115.662 121.891 119.805C124.313 121.718 126.433 124.911 128 128.991Z" fill="#E65C5C"/>
</g>
</svg>
