<svg width="30" height="30" viewBox="0 0 30 30" fill="none" xmlns="http://www.w3.org/2000/svg">
<path d="M14.9993 30C23.2835 30 29.9993 23.2843 29.9993 15C29.9993 6.71573 23.2835 0 14.9993 0C6.715 0 -0.000732422 6.71573 -0.000732422 15C-0.000732422 23.2843 6.715 30 14.9993 30Z" fill="#FFD71B"/>
<path d="M14.997 23.5806H14.8227C14.7026 23.5806 14.5787 23.5806 14.456 23.569L14.1862 23.5535C14.0816 23.5535 13.9938 23.5419 13.9112 23.5328L13.6439 23.5057L13.4619 23.4812L13.3728 23.4708C13.2153 23.4515 13.0487 23.4244 12.8331 23.3831C12.766 23.3727 12.704 23.3572 12.6304 23.343L12.4768 23.3095L12.2986 23.2694C12.1178 23.2255 11.9423 23.1816 11.7692 23.1274C11.5962 23.0732 11.4039 23.0151 11.2528 22.9634C11.196 22.9441 11.1379 22.9221 11.0811 22.9002L10.9972 22.8692C10.9003 22.8343 10.8164 22.8008 10.7389 22.7685C10.0644 22.4944 9.4216 22.1481 8.82166 21.7356C8.52123 21.5286 8.23365 21.3035 7.9605 21.0617C7.81719 20.9325 7.68549 20.8034 7.56155 20.6743C7.49054 20.6007 7.43244 20.5323 7.36918 20.4665L7.27492 20.358L7.17164 20.2289C7.00602 20.0582 6.91437 19.8291 6.91654 19.5913C6.91872 19.3535 7.01455 19.1261 7.18326 18.9585C7.25581 18.8856 7.34247 18.8283 7.43793 18.7901C7.5334 18.752 7.63565 18.7337 7.73843 18.7364C7.99714 18.7518 8.2477 18.8326 8.46661 18.9714L8.50534 18.9933L8.59443 19.0488L8.77647 19.1547C8.90558 19.2296 9.03469 19.3006 9.1638 19.3639C9.44268 19.5085 9.7009 19.6324 9.95138 19.7409C11.0117 20.2018 12.1311 20.5129 13.2772 20.6653L13.4348 20.6847C13.5226 20.6963 13.6142 20.7079 13.7046 20.7156L13.7859 20.7234L13.9151 20.7363L14.132 20.7492C14.2249 20.7582 14.3179 20.7621 14.4083 20.766H14.5671H14.8253H15.161H15.4269H15.5819C15.6722 20.766 15.7652 20.7582 15.8556 20.7505L16.0764 20.7363L16.2055 20.7234L16.2868 20.7156C16.3772 20.7079 16.4688 20.6963 16.5579 20.6847L16.7167 20.6653C17.862 20.5125 18.9804 20.2014 20.04 19.7409C20.2905 19.6324 20.5487 19.5085 20.8289 19.3639C20.9477 19.3006 21.0871 19.2283 21.2162 19.1547C21.2795 19.1198 21.3453 19.0837 21.4008 19.0488L21.4886 18.9946L21.5287 18.9714C21.7431 18.8276 21.9926 18.7451 22.2504 18.7325C22.3555 18.7309 22.4598 18.7506 22.557 18.7906C22.6543 18.8305 22.7423 18.8898 22.8159 18.9649C22.9846 19.1325 23.0804 19.3599 23.0826 19.5977C23.0848 19.8356 22.9931 20.0647 22.8275 20.2354L22.7255 20.3645L22.63 20.4742C22.5693 20.5426 22.5073 20.6098 22.4376 20.6834C22.3085 20.8125 22.1794 20.9416 22.0374 21.0707C21.7646 21.3125 21.4774 21.5375 21.1775 21.7446C20.5763 22.1566 19.9327 22.5029 19.2576 22.7775C19.1827 22.8085 19.0988 22.8421 18.9994 22.8769L18.9142 22.9092C18.8574 22.9299 18.8006 22.9518 18.7425 22.9712C18.5901 23.0228 18.4081 23.0835 18.226 23.1365C18.044 23.1894 17.8787 23.2333 17.6993 23.2772L17.5198 23.3172L17.3752 23.3417C17.3094 23.3559 17.2461 23.3714 17.1712 23.3831C16.9582 23.4231 16.7916 23.4502 16.6328 23.4696L16.5437 23.4812L16.363 23.5057L16.0931 23.5328C16.0118 23.5419 15.9253 23.5483 15.8194 23.5535L15.5509 23.569C15.4218 23.5754 15.303 23.578 15.1829 23.5806C15.1248 23.5806 15.0667 23.5806 15.0099 23.5806H14.997Z" fill="#4E2408"/>
<path d="M9.15731 13.8367C8.00694 13.8457 7.06315 12.6747 7.05282 11.2377C7.04249 9.80073 7.97079 8.62325 9.12116 8.61033C10.2715 8.59742 11.2153 9.77232 11.2257 11.2093C11.236 12.6463 10.309 13.829 9.15731 13.8367Z" fill="url(#paint0_linear)"/>
<path d="M9.13816 13.8641C10.2576 13.8561 11.1567 12.678 11.1464 11.2326C11.1361 9.78731 10.2202 8.62214 9.10071 8.63015C7.98124 8.63816 7.08211 9.81632 7.09246 11.2616C7.1028 12.707 8.01869 13.8721 9.13816 13.8641Z" fill="#4E2408"/>
<path d="M20.8218 13.7521C21.974 13.7438 22.8998 12.5672 22.8894 11.124C22.8791 9.68085 21.9366 8.5176 20.7844 8.52584C19.6321 8.53409 18.7064 9.71071 18.7167 11.1539C18.727 12.5971 19.6695 13.7603 20.8218 13.7521Z" fill="url(#paint1_linear)"/>
<path d="M18.7528 11.1796C18.7424 9.73361 19.6423 8.55612 20.7617 8.54838C21.8811 8.54063 22.7978 9.71037 22.8068 11.1512C22.8159 12.5921 21.9185 13.7748 20.7992 13.7877C19.6798 13.8006 18.7631 12.6257 18.7528 11.1796Z" fill="#4E2408"/>
<defs>
<linearGradient id="paint0_linear" x1="342.639" y1="471.08" x2="344.153" y2="682.645" gradientUnits="userSpaceOnUse">
<stop stop-color="#FFD71B"/>
<stop offset="1" stop-color="#E69900"/>
</linearGradient>
<linearGradient id="paint1_linear" x1="731.211" y1="468.204" x2="732.725" y2="679.814" gradientUnits="userSpaceOnUse">
<stop stop-color="#FFD71B"/>
<stop offset="1" stop-color="#E69900"/>
</linearGradient>
</defs>
</svg>
