<svg xmlns="http://www.w3.org/2000/svg" width="70" height="57" fill="none" xmlns:v="https://vecta.io/nano"><path fill="gray" fill-opacity=".2" d="M0 0h70v57H0z"/><mask id="A" mask-type="alpha" maskUnits="userSpaceOnUse" x="5" y="5" width="60" height="47"><path fill="#b3b3b3" d="M5 5h60v47H5z"/></mask><g mask="url(#A)"><path fill="#b3b3b3" d="M5 5h60v47H5z"/><path d="M9.614 52.227l9.426-8.68c1.031-.772 4.515-1.718 4.822-1.84l6.156-2.282 9.742-1.074 3.014 1.283 7.499 2.261c2.044.614 3.778 1.981 4.855 3.823L61.1 55.951l-10.583 4.815 1.267 11.502 5.139 17.68-32.288 4.539-3.236-34.813-3.258 1.213-8.526-8.66z" fill="gray"/><path d="M49.393 50.764l.073-.01.209-.04.763-.17a20.44 20.44 0 0 0 4.801-1.841l.683-.383.187-.111.063-.041-.068.034-.188.103-.688.372a21.96 21.96 0 0 1-4.801 1.839l-.758.183-.208.047-.068.018zm-8.525-10.286s.102.123.309.325a5.16 5.16 0 0 0 .972.736 7.6 7.6 0 0 0 1.668.705 15.78 15.78 0 0 0 2.172.464l2.192.333c.595.1 1.183.244 1.757.431a7.24 7.24 0 0 1 1.123.472c.13.063.22.125.29.162l.103.054s-.132-.091-.385-.231a7.19 7.19 0 0 0-1.121-.486 12.24 12.24 0 0 0-1.76-.439l-2.193-.337a15.99 15.99 0 0 1-2.167-.458 7.82 7.82 0 0 1-1.664-.693 5.34 5.34 0 0 1-.985-.716c-.108-.094-.179-.177-.235-.232s-.075-.089-.075-.089zm-19.651 4.27s.028-.018.079-.058l.22-.166a6.08 6.08 0 0 1 .865-.526 10.42 10.42 0 0 1 1.393-.574l1.769-.532 3.225-.929.972-.286.266-.08.091-.031-.094.023-.267.072-.974.272-3.229.917-1.771.534a9.91 9.91 0 0 0-1.391.584 5.74 5.74 0 0 0-.863.542l-.291.237zm4.802 1.559l.228.067.66.172 2.464.479c1.229.184 2.469.28 3.712.288 1.405.017 2.939-.199 4.53-.477l4.509-.668a14.07 14.07 0 0 1 3.703.151 9.09 9.09 0 0 1 2.376.777l.593.334.203.123-.198-.13-.593-.342c-.751-.374-1.551-.641-2.376-.791a14.03 14.03 0 0 0-3.712-.16c-1.402.106-2.919.388-4.511.665s-3.122.495-4.525.48a26.27 26.27 0 0 1-3.708-.288l-2.464-.463-.661-.166-.23-.051zm4.284 7.105l2.568.08 2.788-.05 3.406-.248 3.377-.454 2.74-.525 2.495-.606-.173.038-.497.12-1.832.417-2.739.514-3.377.453-3.405.252-2.787.058-1.879-.031-.511-.017-.174-.002zm-17.967-3.379a6.06 6.06 0 0 0 .247.404c.24.359.508.698.802 1.015.437.467.904.905 1.399 1.311l1.827 1.476a14.63 14.63 0 0 1 1.704 1.61 7.64 7.64 0 0 1 1.089 1.569 5.3 5.3 0 0 1 .457 1.219c.041.146.052.266.069.344s.017.121.017.121a4.13 4.13 0 0 0-.078-.469 5.06 5.06 0 0 0-.44-1.217c-.294-.571-.659-1.101-1.086-1.58-.524-.585-1.095-1.127-1.707-1.62l-1.826-1.472a14.86 14.86 0 0 1-1.398-1.303 8.24 8.24 0 0 1-.811-1.003l-.193-.295-.07-.111zm9.621 2.135l-.074-.04-.218-.107-.785-.414-1.111-.702a15.21 15.21 0 0 1-1.263-.994c-.4-.358-.78-.737-1.141-1.135l-.829-1.019-.509-.738-.132-.202-.048-.07a11.07 11.07 0 0 0 .663 1.028c.219.305.497.655.826 1.025a14.26 14.26 0 0 0 1.14 1.141 14.56 14.56 0 0 0 1.269.995l1.11.698a10.86 10.86 0 0 0 1.101.533z" fill="#fff"/><path d="M23.167 51.005a2.03 2.03 0 0 0 .031-.312l.013-.368-.012-.488-.056-.599-.111-.673a8.78 8.78 0 0 0-1.161-2.873l-.385-.553-.371-.462-.33-.358a3.37 3.37 0 0 0-.265-.256 2.03 2.03 0 0 0-.231-.204c.064.083.135.161.213.231l.25.267.316.36.359.466.373.555a9.13 9.13 0 0 1 1.149 2.85l.119.661.066.584.026.484.005.368a1.67 1.67 0 0 0 .001.322zm25.592-2.753c.017.008.132-.298.364-.77a10.02 10.02 0 0 1 2.499-3.215l.657-.542a1.05 1.05 0 0 0-.198.117c-.124.08-.297.206-.505.37-.538.433-1.024.927-1.449 1.473a8.9 8.9 0 0 0-1.069 1.769l-.234.581a1.11 1.11 0 0 0-.065.216zm-8.448-3.597c.002-.067-.007-.135-.028-.199-.086-.368-.296-.696-.594-.928l-.014-.01.002.014a.38.38 0 0 0-.02.092s.018-.029.039-.084l-.018.003c.15.134.279.29.383.462a2.52 2.52 0 0 1 .249.651zm-2.439 1.735a.61.61 0 0 0 .014-.204 1.9 1.9 0 0 0-.081-.486 1.89 1.89 0 0 0-.203-.449.65.65 0 0 0-.124-.161c.119.197.216.406.29.623a3.22 3.22 0 0 1 .103.678zm-2.895.172c-.017-.186-.017-.374-.002-.56.03-.186.079-.368.144-.544a.57.57 0 0 0-.081.147 1.52 1.52 0 0 0-.105.391 1.63 1.63 0 0 0 .002.404c.004.056.018.111.041.162zm-2.656-.745c.06-.188.136-.371.227-.546a3.48 3.48 0 0 1 .359-.469c-.051.029-.097.067-.136.11a1.67 1.67 0 0 0-.258.338 1.69 1.69 0 0 0-.163.393.55.55 0 0 0-.028.174zm-1.966-1.458a1.23 1.23 0 0 1 .267-.592c.148-.163.338-.281.549-.342l-.054.008a.78.78 0 0 0-.138.038 1 1 0 0 0-.389.273.98.98 0 0 0-.218.421.6.6 0 0 0-.02.143c-.001.017 0 .035.003.052zm-1.364-3.012a1.3 1.3 0 0 1 .487-.323 1.26 1.26 0 0 1 .584-.034.92.92 0 0 0-1.072.353l.001.004zm12.743.947a.5.5 0 0 0-.066-.165 1.17 1.17 0 0 0-.648-.532c-.056-.021-.115-.032-.175-.032.191.053.369.145.521.27s.278.282.367.459zm.333-2.179a.56.56 0 0 0-.121-.145 1.43 1.43 0 0 0-.375-.265 1.51 1.51 0 0 0-.441-.141.57.57 0 0 0-.189-.006c.427.048.825.242 1.126.55l.001.006z" fill="#455a64"/><path d="M24.925 12.56c1.672-.511 3.407.986 5.131.649 1.042-.2 1.828-1.036 2.756-1.553 1.385-.774 3.345-.9 4.76-.18s2.331 1.485 2.521 3.063c1.289-.74 3.437.882 4.169 2.447s.549 3.181.134 4.858c-.721 2.893-2.002 5.617-3.772 8.017-.156.212-.401.447-.643.335-.075-.052-.136-.121-.179-.202s-.067-.17-.069-.261c-.247-1.533-.052-3.099.082-4.646s.2-3.143-.291-4.61-1.643-2.818-3.167-3.119c-1.126-.223-2.295.142-3.295.706s-1.88 1.313-2.832 1.952-2.022 1.179-3.169 1.227-2.377-.489-2.864-1.527.058-2.513 1.181-2.752c-.523-.046-1.013-.272-1.387-.64s-.608-.855-.661-1.377.076-1.046.367-1.483.725-.758 1.228-.909v.006z" fill="#000"/><path d="M30.081 39.447l.162-3.313s-4.373-.838-4.275-5.237c.048-2.123.505-6.49.962-10.436a8.2 8.2 0 0 1 8.432-7.255l.425.014c4.564.429 6.752 4.546 6.197 9.097l-1.052 17.718c-.085 1.433-.733 2.774-1.803 3.73s-2.475 1.451-3.909 1.374-2.781-.719-3.744-1.785-1.464-2.471-1.395-3.907z" fill="#ffbe9d"/><path d="M30.238 36.134s2.772.323 5.79-1.429c0 0-1.467 3.119-5.841 2.567l.05-1.138z" fill="#eb996e"/><path d="M28.41 23.438a.63.63 0 0 0 .583.653.6.6 0 0 0 .667-.543.63.63 0 0 0-.157-.446.62.62 0 0 0-.424-.209.6.6 0 0 0-.669.545zm-.61-.801c.076.084.563-.251 1.239-.224s1.158.381 1.235.301c.038-.036-.036-.186-.247-.351-.285-.213-.629-.333-.984-.343a1.65 1.65 0 0 0-.99.283c-.214.15-.289.297-.253.335zm7.25 1.271a.63.63 0 0 0 .583.655.61.61 0 0 0 .237-.02.6.6 0 0 0 .362-.295.59.59 0 0 0 .068-.228.63.63 0 0 0-.583-.655.61.61 0 0 0-.237.02.6.6 0 0 0-.43.523zm-.612-.912c.074.084.563-.25 1.239-.224s1.158.381 1.235.301c.038-.036-.036-.186-.247-.351a1.73 1.73 0 0 0-.986-.343 1.64 1.64 0 0 0-.988.283c-.214.152-.291.297-.253.335zm-2.629 4.921c0-.04-.413-.126-1.09-.236-.172-.024-.335-.064-.361-.184a.89.89 0 0 1 .134-.507l.555-1.295 1.267-3.407c-.076-.04-.762 1.441-1.535 3.287l-.535 1.305a1 1 0 0 0-.114.674c.023.062.059.117.107.163a.43.43 0 0 0 .168.1 1.16 1.16 0 0 0 .293.05c.683.078 1.108.096 1.112.052zm1.975.544c-.11-.012-.138.721-.784 1.221s-1.423.391-1.433.493c-.012.046.168.148.499.168a1.82 1.82 0 0 0 1.203-.369 1.59 1.59 0 0 0 .601-1.026c.038-.307-.036-.491-.086-.487zm.707-8.928c.06.184.738.122 1.527.245s1.423.363 1.533.2c.05-.078-.054-.255-.307-.441a2.68 2.68 0 0 0-2.333-.341c-.293.102-.445.248-.421.337zm-6.375 1.168c.114.156.585.014 1.145.026s1.03.14 1.146-.018c.05-.076-.02-.232-.223-.385a1.56 1.56 0 0 0-.92-.283 1.58 1.58 0 0 0-.924.259c-.202.158-.275.313-.225.401z" fill="#263238"/><path d="M41.505 25.559c.076-.03 3.052-.788 2.852 2.205s-3.175 2.181-3.175 2.095.323-4.299.323-4.299z" fill="#ffbe9d"/><path d="M42.183 28.791c.014 0 .05.04.136.086.119.064.259.078.389.04.327-.096.627-.581.677-1.122.025-.257-.008-.515-.096-.758a.6.6 0 0 0-.367-.429c-.059-.02-.123-.019-.181.003s-.107.064-.137.119c-.046.082-.03.142-.046.146s-.062-.054-.028-.176a.34.34 0 0 1 .13-.18.4.4 0 0 1 .295-.056c.122.032.233.095.323.183s.156.197.192.318c.11.269.153.561.124.85-.06.601-.401 1.148-.85 1.245a.56.56 0 0 1-.473-.11c-.088-.084-.098-.152-.088-.158z" fill="#eb996e"/><path d="M26.034 19.499c.965.284 1.984.335 2.972.149s1.919-.605 2.714-1.221c1.102-.87 1.972-2.145 3.327-2.511.462-.105.94-.118 1.406-.037s.912.254 1.312.508a6.89 6.89 0 0 1 2.004 1.974c-.928 2.205-.445 4.72.052 7.059.027.266.142.515.327.708.345.285.886.09 1.203-.223.515-.503.734-1.231.884-1.932a12.35 12.35 0 0 0 .146-4.874 8.42 8.42 0 0 0-2.165-4.329 7.98 7.98 0 0 0-5.524-2.313c-2.061-.009-4.072.632-5.748 1.832-.778.545-1.499 1.203-1.92 2.062" fill="#000"/><path d="M23.625 13.577a.63.63 0 0 0 .018.263 1.21 1.21 0 0 0 .401.633 1.91 1.91 0 0 0 1.108.417c.248.022.499.015.746-.02.284-.038.552-.153.776-.331.126-.1.227-.227.297-.372a1.05 1.05 0 0 0 .104-.464c-.016-.175-.081-.342-.187-.481a.93.93 0 0 0-.414-.308 1.19 1.19 0 0 0-.539-.088.99.99 0 0 0-.523.214 1.37 1.37 0 0 0-.485 1.034 1.59 1.59 0 0 0 .435 1.12 2.4 2.4 0 0 0 1.068.655c.826.259 1.748.134 2.578-.188a11.28 11.28 0 0 0 2.277-1.261 14.29 14.29 0 0 1 2.062-1.217 4.45 4.45 0 0 1 2.082-.431 4.26 4.26 0 0 1 1.774.533c.795.453 1.46 1.101 1.932 1.884a6.92 6.92 0 0 1 .367.643 1.88 1.88 0 0 0 .118.232.24.24 0 0 0-.02-.064l-.07-.18a5.35 5.35 0 0 0-.339-.669 5.26 5.26 0 0 0-1.928-1.946 4.34 4.34 0 0 0-1.826-.555c-.74-.034-1.478.112-2.149.427a14.25 14.25 0 0 0-2.092 1.231 11.38 11.38 0 0 1-2.243 1.245c-.812.313-1.698.433-2.483.188a2.29 2.29 0 0 1-.998-.631 1.44 1.44 0 0 1-.401-1.002c0-.178.038-.353.112-.515s.182-.305.317-.421a.9.9 0 0 1 .934-.114.82.82 0 0 1 .543.681.96.96 0 0 1-.359.749 1.52 1.52 0 0 1-.726.315 3.15 3.15 0 0 1-.726.03 1.88 1.88 0 0 1-1.098-.385c-.19-.156-.33-.366-.401-.601a2 2 0 0 1-.042-.251zm21.088 6.017a5.13 5.13 0 0 1-.926.2 2.64 2.64 0 0 1-1.002-.14 4.38 4.38 0 0 1-1.108-.583 3.53 3.53 0 0 1-1.277-1.838c-.075-.309-.131-.622-.166-.938a.82.82 0 0 0-.024.261 2.87 2.87 0 0 0 .09.706c.192.775.649 1.458 1.291 1.932.351.258.74.461 1.153.601.34.112.7.151 1.056.114a2.43 2.43 0 0 0 .69-.184.74.74 0 0 0 .224-.13zm-.214 2.171c0-.028-.357.038-.924-.014a4.13 4.13 0 0 1-3.425-2.441c-.234-.519-.287-.874-.315-.868a.78.78 0 0 0 .024.25 3.34 3.34 0 0 0 .2.657 3.98 3.98 0 0 0 3.509 2.507c.229.012.459.001.685-.032a.8.8 0 0 0 .245-.06z" fill="#455a64"/><path d="M36.582 25.949c.01.002.02.002.03 0a.07.07 0 0 0 .028-.012c.008-.006.016-.013.021-.022s.009-.018.011-.028.005-.02.004-.03-.004-.02-.009-.029-.012-.017-.02-.023-.017-.011-.027-.013a.08.08 0 0 0-.056.015c-.016.012-.028.029-.032.048s-.002.04.007.057.024.031.043.039zm-1.291-.34c.022 0 .043-.008.059-.021a.1.1 0 0 0 .034-.053c.005-.021.002-.043-.007-.063s-.025-.035-.044-.045c-.022-.002-.044.005-.062.019a.09.09 0 0 0-.033.056c-.004.022-.006.044.004.065s.027.036.048.044zm-.858-.052c.042 0 .082-.042.094-.108s-.014-.126-.054-.132-.082.042-.094.108.014.126.054.132zm1.485 1.18c.04 0 .076-.018.076-.044s-.032-.05-.072-.05-.076.018-.076.044.03.048.072.05zm-1.174-.317c.021.001.042-.006.057-.02s.026-.033.027-.054c.002-.01.002-.021 0-.032s-.006-.02-.012-.029a.08.08 0 0 0-.052-.034c-.021-.001-.042.007-.057.021s-.025.034-.027.055a.08.08 0 0 0 .064.092zm-6.136-.953c.01.002.021.002.031 0s.02-.006.029-.012.016-.014.021-.023.009-.019.011-.029.005-.02.004-.031a.08.08 0 0 0-.009-.03c-.005-.01-.012-.017-.02-.024s-.018-.011-.028-.014c-.02-.003-.041.002-.058.014s-.029.029-.034.049-.002.041.007.059.026.032.045.04zm-.878-.109c.022-.002.042-.011.058-.026s.026-.035.029-.057-.002-.044-.013-.062-.029-.033-.05-.04c-.04 0-.078.032-.086.082-.005.022-.001.045.01.064s.03.034.052.04zm1.654.153c.013.001.026-.001.037-.007s.021-.015.027-.026.009-.024.009-.036-.005-.025-.012-.035-.018-.018-.03-.023-.025-.006-.037-.003-.024.009-.033.018-.015.02-.018.033.002.037.013.052.027.025.045.029zm-.681.865c.02.007.042.006.061-.003s.035-.024.043-.043c.005-.009.009-.019.01-.03a.08.08 0 0 0-.002-.032c-.003-.01-.008-.02-.014-.028s-.015-.015-.024-.021c-.02-.005-.041-.003-.059.006a.09.09 0 0 0-.042.042c-.009.019-.011.039-.006.059s.017.037.033.049zm-.747-.179c.009-.001.018-.004.025-.009s.015-.011.02-.018.009-.016.012-.024.002-.018.001-.027a.07.07 0 0 0-.088-.042c-.018.003-.034.012-.045.026s-.016.032-.013.05a.07.07 0 0 0 .088.044z" fill="#eb996e"/></g></svg>