<svg width="173" height="100" viewBox="0 0 173 100" fill="none" xmlns="http://www.w3.org/2000/svg">
<g clip-path="url(#clip0_2939_12202)">
<path d="M86.3068 31.4402C65.0686 31.4402 62.0513 14.1724 62.0513 14.1724C64.7878 16.5859 68.1729 18.6105 72.2066 20.2462C76.2403 21.8819 80.9404 22.6988 86.3068 22.6971" fill="#124FA1"/>
<path d="M86.3068 22.6971C91.6714 22.6971 96.3715 21.8801 100.407 20.2462C104.442 18.6123 107.828 16.5877 110.562 14.1724C110.562 14.1724 107.542 31.4402 86.3068 31.4402" fill="#124FA1"/>
<path d="M86.3068 18.8289C91.5091 18.8289 95.7264 14.6139 95.7264 9.41446C95.7264 4.215 91.5091 0 86.3068 0C81.1045 0 76.8871 4.215 76.8871 9.41446C76.8871 14.6139 81.1045 18.8289 86.3068 18.8289Z" fill="#124FA1"/>
<path d="M15.5128 72.9925C12.492 72.9925 9.8177 72.3709 7.48988 71.1277C5.19367 69.9168 3.28934 68.0782 1.99908 65.8264C0.666359 63.5354 0 60.8093 0 57.6481V35.0576C2.02157 35.0583 3.96014 35.8613 5.3896 37.2899C6.81906 38.7186 7.62245 40.6561 7.62316 42.6766V58.1276C7.60529 59.5441 7.93472 60.9435 8.58271 62.2034C9.2131 63.4193 10.162 64.4414 11.3281 65.1604C12.6049 65.9302 14.0755 66.3185 15.5662 66.2793C16.9812 66.3217 18.3791 65.961 19.5967 65.2393C20.8144 64.5177 21.8015 63.4647 22.443 62.2034C23.091 60.9435 23.4204 59.5441 23.4025 58.1276V42.6766C23.4025 40.6559 24.2057 38.718 25.6353 37.2892C27.0649 35.8603 29.0039 35.0576 31.0257 35.0576V57.6481C31.0257 60.8111 30.3593 63.5372 29.0266 65.8264C27.7356 68.0776 25.8315 69.916 23.5358 71.1277C21.2062 72.3727 18.5319 72.9943 15.5128 72.9925Z" fill="#124FA1"/>
<path d="M90.1104 72.9925H82.5005V35.0576H90.1104V72.9925Z" fill="#124FA1"/>
<path d="M56.7631 35.0576C59.7839 35.0576 62.4582 35.6792 64.786 36.9224C67.0811 38.1349 68.9851 39.9731 70.2768 42.2237C71.6096 44.5147 72.2759 47.2408 72.2759 50.4021V72.9925H64.6528V49.9226C64.6706 48.506 64.3412 47.1066 63.6932 45.8467C63.0628 44.6308 62.1139 43.6087 60.9478 42.8897C59.6708 42.1204 58.2003 41.7322 56.7098 41.7708C55.2948 41.7284 53.8969 42.0891 52.6792 42.8108C51.4616 43.5325 50.4744 44.5854 49.8329 45.8467C49.185 47.1066 48.8555 48.506 48.8734 49.9226V72.9925H41.2502V50.4021C41.2502 47.2408 41.9166 44.5147 43.2493 42.2237C44.5411 39.9731 46.445 38.1349 48.7401 36.9224C51.0679 35.681 53.7423 35.0594 56.7631 35.0576Z" fill="#124FA1"/>
<path d="M112.036 72.9925V41.7708H100.338V35.0576H131.361V41.7708H119.662V72.9925H112.036Z" fill="#124FA1"/>
<path d="M152.884 72.9337C150.881 72.9576 148.91 72.4344 147.183 71.4206C145.493 70.4362 144.087 69.031 143.102 67.342C142.088 65.6157 141.564 63.6455 141.588 61.6438C141.58 60.1671 141.912 58.7084 142.561 57.3815C143.208 56.0503 144.106 54.8571 145.208 53.8677C144.105 52.8805 143.206 51.6878 142.561 50.3566C141.916 49.0463 141.583 47.6049 141.588 46.1448C141.561 44.1886 142.075 42.2629 143.073 40.5798C144.047 38.9388 145.423 37.572 147.071 36.6078C148.748 35.6184 150.664 35.1054 152.612 35.124H172.603V41.9305H153.468C152.735 41.924 152.014 42.1204 151.386 42.4979C150.763 42.8679 150.244 43.3882 149.875 44.011C149.492 44.6554 149.296 45.393 149.307 46.1422C149.301 46.8739 149.497 47.5932 149.875 48.2201C150.244 48.843 150.763 49.3632 151.386 49.7332C152.014 50.1107 152.735 50.3071 153.468 50.3006H166.331V57.1071H153.804C153.004 57.0996 152.217 57.3145 151.533 57.7278C150.86 58.1297 150.302 58.6975 149.912 59.3768C149.524 60.0684 149.32 60.8481 149.32 61.6412C149.32 62.4342 149.524 63.2139 149.912 63.9055C150.298 64.581 150.857 65.1411 151.533 65.5279C152.223 65.9257 153.007 66.1308 153.804 66.122H172.614V72.9284L152.884 72.9337Z" fill="#124FA1"/>
<path d="M2.27106 96.3466V99.9124H4.10743V96.3466L6.37849 87.4233H4.54213L3.20255 92.7547L1.83637 87.4233H0L2.27106 96.3466Z" fill="#124FA1"/>
<path d="M13.5057 88.2148C14.038 87.6872 14.6797 87.4233 15.4308 87.4233C16.1819 87.4233 16.8236 87.6872 17.3559 88.2148C17.8882 88.7366 18.1543 89.3657 18.1543 90.102V97.225C18.1543 97.9613 17.8882 98.5904 17.3559 99.1123C16.8236 99.6341 16.1819 99.895 15.4308 99.895C14.6797 99.895 14.038 99.6341 13.5057 99.1123C12.9734 98.5904 12.7073 97.9613 12.7073 97.225V90.102C12.7073 89.3657 12.9734 88.7366 13.5057 88.2148ZM16.0784 89.4672C15.901 89.2932 15.6851 89.2062 15.4308 89.2062C15.1765 89.2062 14.9606 89.2932 14.7832 89.4672C14.6117 89.6411 14.5259 89.8527 14.5259 90.102V97.225C14.5259 97.4743 14.6117 97.6859 14.7832 97.8599C14.9606 98.028 15.1765 98.1121 15.4308 98.1121C15.6851 98.1121 15.901 98.028 16.0784 97.8599C16.2558 97.6859 16.3446 97.4743 16.3446 97.225V90.102C16.3446 89.8527 16.2558 89.6411 16.0784 89.4672Z" fill="#124FA1"/>
<path d="M25.2372 87.4233H27.0558V97.225C27.0558 97.4743 27.1416 97.6859 27.3131 97.8599C27.4905 98.028 27.7064 98.1121 27.9607 98.1121C28.2209 98.1121 28.4368 98.028 28.6083 97.8599C28.7857 97.6859 28.8744 97.4743 28.8744 97.225V87.4233H30.6931V97.225C30.6931 97.9613 30.424 98.5904 29.8858 99.1123C29.3535 99.6341 28.7118 99.895 27.9607 99.895C27.2155 99.895 26.5738 99.6341 26.0356 99.1123C25.5033 98.5904 25.2372 97.9613 25.2372 97.225V87.4233Z" fill="#124FA1"/>
<path d="M46.7129 87.4407H50.3502C50.847 87.4407 51.2698 87.6147 51.6188 87.9626C51.9736 88.3046 52.1511 88.725 52.1511 89.2236V92.9982C52.1511 93.1779 52.0831 93.3345 51.947 93.4678C51.8169 93.5954 51.6602 93.6592 51.4768 93.6592V93.6766C51.6602 93.6766 51.8169 93.7432 51.947 93.8766C52.0831 94.0042 52.1511 94.1578 52.1511 94.3375V98.1295C52.1511 98.6165 51.9736 99.034 51.6188 99.3819C51.2698 99.724 50.847 99.895 50.3502 99.895H46.7129V87.4407ZM48.5138 89.2062V92.7895H49.6582C49.8534 92.7895 50.016 92.7257 50.1461 92.5981C50.2822 92.4648 50.3502 92.3024 50.3502 92.1111V89.8846C50.3502 89.6933 50.2822 89.5338 50.1461 89.4063C50.016 89.2729 49.8534 89.2062 49.6582 89.2062H48.5138ZM48.5138 94.555V98.1295H49.6582C49.8534 98.1295 50.016 98.0657 50.1461 97.9381C50.2822 97.8048 50.3502 97.6424 50.3502 97.4511V95.2246C50.3502 95.0333 50.2822 94.8739 50.1461 94.7463C50.016 94.6187 49.8534 94.555 49.6582 94.555H48.5138Z" fill="#124FA1"/>
<path d="M59.3315 99.895V87.4233H64.7874V89.2062H61.1502V92.7721H63.8737V94.555H61.1502V98.1121H64.7874V99.895H59.3315Z" fill="#124FA1"/>
<path d="M71.4356 99.895V87.4233H73.2542V98.1121H76.8915V99.895H71.4356Z" fill="#124FA1"/>
<path d="M84.2316 88.2148C84.7639 87.6872 85.4056 87.4233 86.1567 87.4233C86.9078 87.4233 87.5495 87.6872 88.0818 88.2148C88.6141 88.7366 88.8802 89.3657 88.8802 90.102V97.225C88.8802 97.9613 88.6141 98.5904 88.0818 99.1123C87.5495 99.6341 86.9078 99.895 86.1567 99.895C85.4056 99.895 84.7639 99.6341 84.2316 99.1123C83.6993 98.5904 83.4332 97.9613 83.4332 97.225V90.102C83.4332 89.3657 83.6993 88.7366 84.2316 88.2148ZM86.8043 89.4672C86.6269 89.2932 86.411 89.2062 86.1567 89.2062C85.9024 89.2062 85.6865 89.2932 85.5091 89.4672C85.3376 89.6411 85.2518 89.8527 85.2518 90.102V97.225C85.2518 97.4743 85.3376 97.6859 85.5091 97.8599C85.6865 98.028 85.9024 98.1121 86.1567 98.1121C86.411 98.1121 86.6269 98.028 86.8043 97.8599C86.9817 97.6859 87.0704 97.4743 87.0704 97.225V90.102C87.0704 89.8527 86.9817 89.6411 86.8043 89.4672Z" fill="#124FA1"/>
<path d="M95.8921 87.4233H97.7107L99.5294 93.6592V87.4233H101.348V99.895H99.5294L97.7107 93.6592V99.895H95.8921V87.4233Z" fill="#124FA1"/>
<path d="M109.149 88.2148C109.682 87.6872 110.323 87.4233 111.075 87.4233C111.826 87.4233 112.467 87.6872 113 88.2148C113.532 88.7366 113.798 89.3657 113.798 90.102H111.988C111.988 89.8527 111.9 89.6411 111.722 89.4672C111.545 89.2932 111.329 89.2062 111.075 89.2062C110.82 89.2062 110.604 89.2932 110.427 89.4672C110.255 89.6411 110.17 89.8527 110.17 90.102V97.225C110.17 97.4743 110.255 97.6859 110.427 97.8599C110.604 98.028 110.82 98.1121 111.075 98.1121C111.329 98.1121 111.545 98.028 111.722 97.8599C111.9 97.6859 111.988 97.4743 111.988 97.225V94.555H111.075V92.7721H113.798V97.225C113.798 97.9613 113.532 98.5904 113 99.1123C112.467 99.6341 111.826 99.895 111.075 99.895C110.323 99.895 109.682 99.6341 109.149 99.1123C108.617 98.5904 108.351 97.9613 108.351 97.225V90.102C108.351 89.3657 108.617 88.7366 109.149 88.2148Z" fill="#124FA1"/>
<path d="M129.703 87.4233H131.521V92.7721H133.34V87.4233H135.158V99.895H133.34V94.555H131.521V99.895H129.703V87.4233Z" fill="#124FA1"/>
<path d="M142.357 99.895V87.4233H147.813V89.2062H144.175V92.7721H146.899V94.555H144.175V98.1121H147.813V99.895H142.357Z" fill="#124FA1"/>
<path d="M154.461 87.4407L158.098 87.4581C158.595 87.4581 159.018 87.6321 159.367 87.98C159.721 88.322 159.899 88.7366 159.899 89.2236V92.7895C159.899 93.4678 159.6 93.9781 159.003 94.3201L159.899 99.895H158.098L157.193 94.555H156.262V99.895H154.461V87.4407ZM156.262 89.2062V92.8069H157.406C157.601 92.8069 157.764 92.7402 157.894 92.6068C158.03 92.4677 158.098 92.3082 158.098 92.1285V89.902C158.098 89.7107 158.03 89.5483 157.894 89.415C157.764 89.2758 157.601 89.2062 157.406 89.2062H156.262Z" fill="#124FA1"/>
<path d="M166.902 99.895V87.4233H172.358V89.2062H168.72V92.7721H171.444V94.555H168.72V98.1121H172.358V99.895H166.902Z" fill="#124FA1"/>
</g>
<defs>
<clipPath id="clip0_2939_12202">
<rect width="172.358" height="100" fill="white"/>
</clipPath>
</defs>
</svg>
