<svg width="279" height="74" viewBox="0 0 279 74" fill="none" xmlns="http://www.w3.org/2000/svg">
<path d="M19.5205 9.23438L30.6289 43.8584L41.7031 9.23438H57.4941V59H45.4629V47.3789L46.625 23.5898L34.5938 59H26.6641L14.5986 23.5557L15.7607 47.3789V59H3.76367V9.23438H19.5205ZM63.168 40.167C63.168 36.4756 63.8857 33.1943 65.3213 30.3232C66.7568 27.4294 68.819 25.2077 71.5078 23.6582C74.1966 22.1087 77.3525 21.334 80.9756 21.334C86.5127 21.334 90.8763 23.0544 94.0664 26.4951C97.2565 29.9131 98.8516 34.5729 98.8516 40.4746V40.8848C98.8516 46.6497 97.2451 51.2298 94.0322 54.625C90.8421 57.9974 86.5127 59.6836 81.0439 59.6836C75.7803 59.6836 71.5534 58.1113 68.3633 54.9668C65.1732 51.7995 63.4528 47.5156 63.2021 42.1152L63.168 40.167ZM74.6865 40.8848C74.6865 44.3027 75.222 46.8092 76.293 48.4043C77.3639 49.9993 78.9476 50.7969 81.0439 50.7969C85.1455 50.7969 87.2419 47.641 87.333 41.3291V40.167C87.333 33.5361 85.2139 30.2207 80.9756 30.2207C77.1247 30.2207 75.0397 33.0804 74.7207 38.7998L74.6865 40.8848ZM126.298 32.4424L122.504 32.1689C118.881 32.1689 116.557 33.3083 115.531 35.5869V59H104.013V22.0176H114.813L115.189 26.7686C117.126 23.1455 119.826 21.334 123.29 21.334C124.521 21.334 125.591 21.4707 126.503 21.7441L126.298 32.4424ZM164.784 40.7822C164.784 46.5244 163.485 51.1159 160.888 54.5566C158.313 57.9746 154.826 59.6836 150.429 59.6836C147.034 59.6836 144.242 58.4417 142.055 55.958V73.2188H130.536V22.0176H141.303L141.645 25.4355C143.855 22.7012 146.76 21.334 150.36 21.334C154.918 21.334 158.461 23.0202 160.99 26.3926C163.52 29.7422 164.784 34.3564 164.784 40.2354V40.7822ZM153.266 40.0645C153.266 33.502 151.352 30.2207 147.523 30.2207C144.789 30.2207 142.966 31.2005 142.055 33.1602V47.7207C143.057 49.7715 144.903 50.7969 147.592 50.7969C151.26 50.7969 153.152 47.6296 153.266 41.2949V40.0645ZM181.156 25.9824C183.617 22.8835 186.762 21.334 190.59 21.334C194.669 21.334 197.745 22.5417 199.818 24.957C201.892 27.3724 202.951 30.9385 202.997 35.6553V59H191.444V35.9287C191.444 33.9691 191.046 32.5335 190.248 31.6221C189.451 30.6878 188.095 30.2207 186.181 30.2207C183.811 30.2207 182.136 30.9727 181.156 32.4766V59H169.638V6.5H181.156V25.9824Z" fill="#FEF4F4"/>
<path d="M260.651 35.5926L278.647 12H263.867L253.293 25.8962L246.428 16.8791C244.078 13.7911 240.43 12 236.596 12H228L259.971 54.1209C262.321 57.2089 265.97 59 269.804 59H278.461L260.651 35.5926Z" fill="#FEF4F4"/>
<path d="M244.017 38.0012L228 58.9381H236.534C240.43 58.9381 244.078 57.1471 246.366 54.059L251.314 47.5742L244.017 38.0012Z" fill="#FEF4F4"/>
<circle cx="220.5" cy="35.5" r="7.5" fill="#FEF4F4"/>
</svg>
