<svg xmlns="http://www.w3.org/2000/svg" width="70" height="57" fill="none" xmlns:v="https://vecta.io/nano"><path fill="gray" fill-opacity=".2" d="M0 0h70v57H0z"/><path fill="#b3b3b3" d="M5 42h18v10H5z"/><circle cx="14" cy="47" r="3" fill="gray"/><path fill="#b3b3b3" d="M26 42h18v10H26z"/><circle cx="35" cy="47" r="3" fill="gray"/><path fill="#b3b3b3" d="M47 42h18v10H47z"/><circle cx="56" cy="47" r="3" fill="gray"/><mask id="A" mask-type="alpha" maskUnits="userSpaceOnUse" x="5" y="5" width="60" height="34"><path fill="#b3b3b3" d="M5 5h60v34H5z"/></mask><g mask="url(#A)"><path fill="#b3b3b3" d="M5 5h60v34H5z"/><path d="M15.291 41.981l7.541-6.944c.825-.618 3.612-1.374 3.857-1.472l4.925-1.826 7.794-.859 2.411 1.026 5.999 1.809a6.75 6.75 0 0 1 3.884 3.058l4.778 8.187-8.466 3.852 1.013 9.202 4.111 14.144-25.83 3.631-2.589-27.85-2.606.97-6.821-6.928z" fill="gray"/><path d="M47.114 40.811l.059-.008.167-.032.611-.136c1.337-.327 2.628-.822 3.841-1.473l.546-.307.149-.089.05-.033-.054.027-.15.083-.551.298a17.54 17.54 0 0 1-3.841 1.471l-.606.147-.166.038-.055.014zm-6.82-8.229a3.77 3.77 0 0 0 .247.26c.235.226.496.424.777.588.421.241.868.43 1.334.564a12.6 12.6 0 0 0 1.738.371l1.754.267a9.81 9.81 0 0 1 1.405.345 5.79 5.79 0 0 1 .898.377c.104.05.176.1.232.129l.082.044s-.106-.073-.308-.185c-.287-.155-.587-.285-.897-.389a9.8 9.8 0 0 0-1.408-.351l-1.754-.27a12.67 12.67 0 0 1-1.734-.367 6.28 6.28 0 0 1-1.331-.554 4.28 4.28 0 0 1-.788-.572c-.087-.075-.143-.142-.188-.186s-.06-.071-.06-.071zm-15.72 3.416s.022-.014.063-.046l.176-.133a4.93 4.93 0 0 1 .692-.421 8.31 8.31 0 0 1 1.114-.459l1.415-.426 2.58-.743.777-.229.213-.064.073-.025-.075.019-.214.058-.779.218-2.583.734-1.417.427a7.94 7.94 0 0 0-1.113.467 4.52 4.52 0 0 0-.69.434l-.232.19zm3.841 1.248l.182.054.528.138 1.971.384a20.95 20.95 0 0 0 2.97.23c1.124.014 2.351-.159 3.624-.381l3.607-.535a11.26 11.26 0 0 1 2.962.121 7.27 7.27 0 0 1 1.901.622l.475.267.163.099-.159-.104-.474-.273c-.601-.299-1.241-.513-1.901-.633a11.24 11.24 0 0 0-2.97-.128c-1.122.085-2.335.31-3.609.532s-2.498.397-3.62.384c-.993-.007-1.984-.084-2.966-.231l-1.971-.371-.529-.133-.184-.041zm-3.249 4.688l-.06-.032-.174-.086-.628-.331-.888-.562a12.18 12.18 0 0 1-1.011-.795 12.57 12.57 0 0 1-.913-.908l-.663-.815-.407-.59-.105-.162-.039-.056a8.65 8.65 0 0 0 .53.822 10.25 10.25 0 0 0 .661.82c.287.321.591.626.912.913a11.68 11.68 0 0 0 1.015.796l.888.558c.285.159.579.301.881.427z" fill="#fff"/><path d="M26.133 41.004a1.62 1.62 0 0 0 .025-.25l.01-.294-.009-.391-.045-.48-.089-.538c-.171-.815-.485-1.593-.929-2.298l-.308-.442-.296-.37-.264-.287a2.74 2.74 0 0 0-.212-.205 1.64 1.64 0 0 0-.185-.163c.051.066.108.128.17.185l.2.213.253.288.287.372.299.444a7.3 7.3 0 0 1 .92 2.28l.095.529.053.467.02.387.004.294a1.38 1.38 0 0 0 0 .257zm20.474-2.203c.014.006.106-.238.291-.616.483-.985 1.164-1.861 1.999-2.572l.525-.433a.84.84 0 0 0-.158.093c-.099.064-.237.165-.404.296a7.14 7.14 0 0 0-1.159 1.178 7.22 7.22 0 0 0-.855 1.416l-.187.465a.88.88 0 0 0-.052.172zm-6.759-2.877c.002-.054-.006-.108-.022-.159-.069-.295-.237-.557-.475-.743l-.011-.008.002.011c-.008.024-.013.048-.016.073 0 0 .015-.023.031-.067l-.014.002a1.6 1.6 0 0 1 .306.37 2.07 2.07 0 0 1 .2.521zm-1.95 1.388a.48.48 0 0 0 .011-.163 1.52 1.52 0 0 0-.064-.389c-.038-.126-.093-.247-.162-.359-.026-.048-.059-.091-.099-.129.095.157.173.324.232.498.047.177.075.359.083.542zm-2.317.138a2.6 2.6 0 0 1-.002-.448c.024-.149.063-.294.115-.436-.027.036-.049.075-.064.118a1.21 1.21 0 0 0-.084.313c-.014.108-.012.216.002.324a.39.39 0 0 0 .033.13zm-2.126-.596c.048-.151.108-.297.181-.437a2.8 2.8 0 0 1 .287-.376.46.46 0 0 0-.109.088 1.35 1.35 0 0 0-.206.27 1.36 1.36 0 0 0-.131.315.44.44 0 0 0-.023.139zm-1.572-1.167c.027-.174.101-.338.214-.474a.95.95 0 0 1 .439-.274l-.043.006a.7.7 0 0 0-.111.03.8.8 0 0 0-.311.219.77.77 0 0 0-.174.337.44.44 0 0 0-.016.114c-.001.014 0 .028.003.042zm-1.091-2.41a1.04 1.04 0 0 1 .39-.259 1.01 1.01 0 0 1 .467-.027c-.154-.055-.322-.057-.477-.006s-.289.153-.38.288v.003zm10.195.759c-.01-.047-.027-.091-.053-.132a.94.94 0 0 0-.518-.426.42.42 0 0 0-.14-.026 1.13 1.13 0 0 1 .71.584zm.266-1.744a.45.45 0 0 0-.097-.116 1.14 1.14 0 0 0-.3-.212 1.21 1.21 0 0 0-.353-.112.45.45 0 0 0-.151-.005 1.49 1.49 0 0 1 .901.44v.005z" fill="#455a64"/><path d="M27.539 10.248c1.337-.409 2.726.789 4.105.52.834-.16 1.462-.829 2.205-1.243 1.108-.619 2.676-.72 3.808-.144s1.865 1.188 2.017 2.45c1.031-.592 2.75.705 3.335 1.958s.439 2.545.107 3.887c-.577 2.315-1.602 4.494-3.018 6.414-.125.17-.321.358-.515.268-.06-.042-.109-.097-.143-.162s-.053-.136-.055-.209c-.197-1.227-.042-2.479.066-3.717s.16-2.514-.233-3.688-1.315-2.254-2.533-2.495c-.901-.178-1.836.114-2.636.564s-1.504 1.05-2.266 1.562-1.618.943-2.535.981-1.902-.391-2.291-1.222.046-2.011.944-2.202c-.418-.037-.81-.218-1.11-.512s-.486-.684-.529-1.102.061-.837.294-1.186.58-.606.982-.727v.005z" fill="#000"/><path d="M31.664 31.758l.13-2.65s-3.499-.67-3.42-4.19c.039-1.698.404-5.192.77-8.349a6.56 6.56 0 0 1 6.746-5.804l.34.011c3.651.343 5.402 3.637 4.958 7.278l-.842 14.174c-.068 1.146-.587 2.219-1.443 2.984a4.35 4.35 0 0 1-6.123-.329 4.35 4.35 0 0 1-1.116-3.125z" fill="#ffbe9d"/><path d="M31.79 29.107s2.218.258 4.632-1.143c0 0-1.174 2.495-4.672 2.054l.04-.911z" fill="#eb996e"/><path d="M30.329 18.95c-.005.131.04.258.127.356s.209.157.339.167a.48.48 0 0 0 .533-.435.5.5 0 0 0-.465-.524c-.064-.008-.129-.002-.191.016a.48.48 0 0 0-.291.237c-.03.057-.049.119-.054.183zm-.489-.64c.061.067.451-.2.991-.18s.927.305.988.241c.03-.029-.029-.149-.197-.281a1.38 1.38 0 0 0-.787-.274 1.32 1.32 0 0 0-.792.226c-.172.12-.231.237-.202.268zm5.8 1.016c-.006.131.04.259.127.357s.209.158.34.168a.48.48 0 0 0 .533-.435c.006-.131-.04-.259-.127-.357s-.209-.158-.34-.168a.48.48 0 0 0-.533.435zm-.49-.729c.059.067.451-.2.991-.18s.927.305.988.24c.03-.029-.029-.149-.197-.281a1.38 1.38 0 0 0-.789-.274 1.33 1.33 0 0 0-.791.226c-.172.122-.233.237-.202.268zm-2.102 3.936c0-.032-.33-.101-.872-.189-.138-.019-.268-.051-.289-.148a.71.71 0 0 1 .107-.406l.444-1.036 1.013-2.726c-.061-.032-.609 1.153-1.228 2.63l-.428 1.044a.8.8 0 0 0-.091.539.35.35 0 0 0 .22.21.89.89 0 0 0 .234.04c.547.063.887.077.89.042zm1.579.436c-.088-.01-.111.577-.627.977s-1.138.313-1.146.394c-.01.037.135.119.399.135.346.019.687-.085.962-.295.26-.201.433-.495.481-.821.03-.245-.029-.393-.069-.39zm.565-7.143c.048.148.59.098 1.222.196s1.139.29 1.227.16c.04-.062-.043-.204-.245-.353a2.14 2.14 0 0 0-.902-.353 2.15 2.15 0 0 0-.965.08c-.234.082-.356.199-.337.269zm-5.099.935c.091.125.468.011.916.021s.824.112.917-.014c.04-.061-.016-.186-.178-.308a1.25 1.25 0 0 0-.736-.226c-.262-.009-.52.063-.739.207-.162.127-.22.25-.18.321z" fill="#263238"/><path d="M40.804 20.647c.061-.024 2.442-.63 2.282 1.764s-2.54 1.744-2.54 1.676.258-3.439.258-3.439z" fill="#ffbe9d"/><path d="M41.346 23.233c.011 0 .04.032.109.069a.41.41 0 0 0 .311.032c.261-.077.502-.465.542-.898a1.38 1.38 0 0 0-.077-.606.48.48 0 0 0-.294-.343c-.047-.016-.099-.015-.145.003s-.086.052-.11.095c-.037.066-.024.114-.037.117s-.05-.043-.022-.141a.27.27 0 0 1 .104-.144.32.32 0 0 1 .236-.045.59.59 0 0 1 .412.401 1.43 1.43 0 0 1 .099.68c-.048.481-.321.919-.68.996a.45.45 0 0 1-.378-.088c-.071-.067-.079-.122-.071-.127z" fill="#eb996e"/><path d="M28.426 15.799c.772.227 1.587.268 2.378.119s1.535-.484 2.171-.977c.882-.696 1.578-1.716 2.662-2.009a2.86 2.86 0 0 1 2.174.377 5.51 5.51 0 0 1 1.603 1.579c-.742 1.764-.356 3.776.042 5.647.022.212.114.412.261.566.276.228.709.072.962-.178.412-.402.587-.985.707-1.546a9.88 9.88 0 0 0 .117-3.899c-.226-1.299-.828-2.503-1.732-3.463a6.38 6.38 0 0 0-4.419-1.85c-1.649-.007-3.258.506-4.599 1.466-.622.436-1.199.962-1.536 1.65" fill="#000"/><path d="M26.5 11.061a.5.5 0 0 0 .014.21.97.97 0 0 0 .321.507 1.53 1.53 0 0 0 .887.334c.199.018.399.012.597-.016a1.27 1.27 0 0 0 .62-.264.85.85 0 0 0 .238-.297.84.84 0 0 0 .083-.371c-.013-.14-.064-.273-.15-.385s-.2-.197-.331-.247a.95.95 0 0 0-.431-.071.79.79 0 0 0-.419.172 1.1 1.1 0 0 0-.285.371 1.09 1.09 0 0 0-.103.456 1.27 1.27 0 0 0 .348.896 1.92 1.92 0 0 0 .855.524c.661.207 1.398.107 2.062-.151a9.03 9.03 0 0 0 1.822-1.009c.522-.37 1.074-.696 1.65-.973a3.56 3.56 0 0 1 1.666-.345c.499.036.983.182 1.419.426a4.28 4.28 0 0 1 1.546 1.507c.107.166.205.338.294.515a1.48 1.48 0 0 0 .095.186c-.003-.018-.008-.035-.016-.051l-.056-.144c-.078-.185-.168-.364-.271-.535a4.21 4.21 0 0 0-1.542-1.557 3.47 3.47 0 0 0-1.461-.444c-.592-.028-1.182.09-1.719.341a11.47 11.47 0 0 0-1.674.985c-.559.399-1.16.733-1.794.996-.649.25-1.358.346-1.987.151a1.83 1.83 0 0 1-.798-.505 1.15 1.15 0 0 1-.321-.802c0-.142.031-.283.09-.412a.99.99 0 0 1 .253-.337c.104-.082.229-.134.361-.151a.71.71 0 0 1 .386.059c.116.041.219.114.296.21s.125.213.139.335a.77.77 0 0 1-.287.6 1.21 1.21 0 0 1-.58.252 2.57 2.57 0 0 1-.58.024c-.318-.007-.626-.115-.879-.308-.152-.125-.264-.292-.321-.481-.015-.066-.027-.133-.034-.2zm16.87 4.814a4.06 4.06 0 0 1-.741.16 2.11 2.11 0 0 1-.802-.112 3.51 3.51 0 0 1-.887-.467 2.82 2.82 0 0 1-1.021-1.47 6.02 6.02 0 0 1-.133-.751.66.66 0 0 0-.019.209 2.33 2.33 0 0 0 .072.564 2.74 2.74 0 0 0 1.033 1.546 3.4 3.4 0 0 0 .922.481c.272.09.56.121.845.091a1.98 1.98 0 0 0 .551-.147.59.59 0 0 0 .18-.104zm-.171 1.737c0-.022-.285.03-.739-.011-.59-.05-1.155-.258-1.637-.602a3.31 3.31 0 0 1-1.103-1.351c-.188-.415-.229-.699-.252-.694a.63.63 0 0 0 .019.2c.035.18.089.357.16.526.226.569.611 1.06 1.109 1.416a3.18 3.18 0 0 0 1.699.59 2.79 2.79 0 0 0 .548-.026.64.64 0 0 0 .196-.048z" fill="#455a64"/><path d="M36.866 20.959a.06.06 0 0 0 .024 0c.008-.002.016-.005.022-.009s.012-.011.017-.017.007-.015.009-.023a.06.06 0 0 0-.004-.048c-.004-.007-.009-.014-.016-.019s-.014-.009-.022-.011c-.016-.002-.032.003-.045.012s-.022.023-.026.038-.002.032.006.046.02.025.034.031zm-1.033-.272c.017 0 .034-.006.048-.017s.023-.026.027-.043.002-.035-.005-.05-.02-.028-.035-.036c-.018-.001-.035.004-.049.015s-.023.027-.026.044-.005.036.003.052.022.029.038.035zm-.687-.041c.034 0 .066-.034.075-.087s-.011-.101-.043-.106-.066.034-.075.087.011.101.043.106zm1.189.943c.032 0 .061-.015.061-.035s-.026-.04-.058-.04-.061.014-.061.035.024.039.058.04zm-.94-.253c.017.001.033-.005.046-.016s.02-.027.022-.043c.002-.008.002-.017 0-.025s-.005-.016-.01-.023-.011-.013-.018-.018-.015-.008-.023-.009c-.017 0-.033.006-.046.017s-.02.027-.021.044.001.034.011.047.024.023.041.026zm-4.909-.762c.008.002.017.002.025 0s.016-.005.023-.01.013-.011.017-.018.007-.015.009-.023.004-.016.003-.025-.003-.016-.007-.024-.009-.014-.016-.019-.014-.009-.022-.011c-.016-.002-.033.002-.047.011s-.023.023-.027.039-.002.033.006.047.021.026.036.032zm-.701-.087c.017-.002.034-.009.047-.021s.021-.028.023-.046-.002-.035-.011-.05-.023-.026-.04-.032c-.032 0-.062.026-.069.066-.004.018-.001.036.008.052s.024.027.042.032zm1.323.122c.01.001.02-.001.029-.006s.017-.012.022-.021a.05.05 0 0 0 .007-.029c-.001-.01-.004-.02-.01-.028s-.014-.015-.024-.018-.02-.005-.03-.002-.019.007-.026.014-.012.016-.015.026.002.029.011.041.021.02.036.023zm-.546.692c.016.005.033.005.049-.002s.028-.019.034-.035c.004-.007.007-.015.008-.024s0-.017-.002-.025-.006-.016-.011-.023-.012-.012-.019-.017c-.016-.004-.033-.002-.047.005s-.027.019-.034.034a.07.07 0 0 0 .022.087zm-.597-.143c.007-.001.014-.003.02-.007s.012-.009.016-.014.007-.012.009-.02.002-.014.001-.021c-.005-.014-.015-.025-.028-.031s-.028-.007-.042-.003-.027.01-.036.021-.013.026-.011.04.015.026.028.032.029.008.043.003z" fill="#eb996e"/></g></svg>