<!-- Generated by IcoMoon.io -->
<svg version="1.1" xmlns="http://www.w3.org/2000/svg" width="121" height="32" viewBox="0 0 121 32">
<title>fullCompanyName</title>
<path d="M17.189 1.783v17.829c-0.091 2.514-2.149 4.571-4.663 4.571s-4.571-2.057-4.571-4.571v-17.829h-6.446v17.829c0 6.080 4.937 11.063 11.063 11.063s11.063-4.937 11.063-11.063v-17.829h-6.446z"></path>
<path d="M36.526 30.674v-17.829c0.091-2.514 2.149-4.571 4.663-4.571s4.571 2.057 4.571 4.571v17.829h6.446v-17.829c0-6.080-4.937-11.063-11.063-11.063s-11.063 4.937-11.063 11.063v17.829h6.446z"></path>
<path d="M98.194 1.783h-22.080v6.446h7.771v22.446h6.446v-22.446h7.863z"></path>
<path d="M113.509 8.229h6.583v-6.446h-6.629c-4.846 0.046-8.777 3.931-8.777 8.823 0 2.149 0.731 4.069 2.011 5.623-1.234 1.509-2.011 3.474-2.011 5.577 0 4.891 3.886 8.777 8.777 8.823v0h6.629v-6.446h-6.583c-1.326-0.091-2.331-1.143-2.331-2.423s1.051-2.331 2.331-2.331h6.583v-6.446h-6.583c-1.326-0.046-2.331-1.097-2.331-2.423-0.046-1.28 1.006-2.331 2.331-2.331z"></path>
<path d="M63.269 12.846v17.829h6.446v-17.829c0-6.080-4.937-11.063-11.063-11.063v6.491h0.046c2.514 0 4.571 2.057 4.571 4.571z"></path>
</svg>
