<!-- Generated by IcoMoon.io -->
<svg version="1.1" xmlns="http://www.w3.org/2000/svg" width="39" height="32" viewBox="0 0 39 32">
<title>logo</title>
<path d="M12.973-0.062v17.714h-7.566v-17.714h7.566z"></path>
<path d="M31.282-0.062v17.714h-7.566v-17.714h7.566z"></path>
<path d="M18.345 23.024c-2.971 0-5.371-2.4-5.371-5.371h-7.566c0 7.154 5.783 12.937 12.937 12.937s12.937-5.783 12.937-12.937h-7.566c0 2.971-2.423 5.371-5.371 5.371z"></path>
<path d="M38.825 26.818c0 2.083-1.689 3.771-3.771 3.771s-3.771-1.689-3.771-3.771c0-2.083 1.689-3.771 3.771-3.771s3.771 1.689 3.771 3.771z"></path>
<path d="M0.013 23.047v7.566c7.177 0 12.96-5.783 12.96-12.96h-7.566c-0.023 2.949-2.469 5.394-5.394 5.394z"></path>
</svg>
