<?xml version="1.0" standalone="no"?>
<!DOCTYPE svg PUBLIC "-//W3C//DTD SVG 20010904//EN"
 "http://www.w3.org/TR/2001/REC-SVG-20010904/DTD/svg10.dtd">
<svg version="1.0" xmlns="http://www.w3.org/2000/svg"
 width="1200.000000pt" height="1200.000000pt" viewBox="0 0 1200.000000 1200.000000"
 preserveAspectRatio="xMidYMid meet">
<metadata>
Created by potrace 1.14, written by Peter Selinger 2001-2017
</metadata>
<g transform="translate(0.000000,1200.000000) scale(0.100000,-0.100000)"
fill="#000000" stroke="none">
<path d="M5698 11995 c-1 -1 -55 -6 -118 -9 -63 -4 -126 -9 -140 -11 -14 -2
-56 -6 -93 -10 -37 -3 -76 -8 -85 -10 -9 -1 -42 -6 -73 -9 -31 -4 -67 -9 -80
-11 -13 -3 -44 -8 -69 -11 -25 -3 -52 -7 -60 -9 -8 -3 -33 -7 -55 -10 -22 -4
-47 -8 -55 -10 -8 -2 -29 -7 -46 -9 -16 -3 -91 -19 -165 -36 -469 -107 -906
-264 -1349 -486 -202 -101 -526 -287 -595 -341 -6 -4 -50 -35 -99 -68 -148
-100 -214 -148 -371 -273 -34 -27 -215 -180 -240 -203 -16 -15 -48 -44 -70
-64 -164 -151 -401 -398 -521 -545 -16 -19 -31 -37 -35 -40 -13 -11 -189 -241
-253 -330 -133 -185 -336 -505 -336 -529 0 -6 -4 -11 -8 -11 -4 0 -13 -12 -20
-27 -6 -16 -30 -62 -53 -103 -22 -41 -59 -111 -81 -155 -22 -44 -51 -101 -65
-127 -13 -27 -21 -48 -17 -48 4 0 -1 -9 -11 -20 -10 -11 -16 -20 -12 -20 3 0
-7 -26 -22 -57 -15 -32 -41 -92 -57 -133 -15 -41 -32 -78 -37 -81 -5 -3 -8
-10 -8 -15 1 -12 -18 -71 -35 -109 -12 -29 -92 -264 -99 -295 -2 -8 -13 -46
-25 -85 -44 -144 -120 -467 -144 -615 -3 -19 -8 -46 -11 -60 -3 -14 -8 -41
-11 -60 -2 -19 -7 -46 -9 -60 -3 -14 -7 -47 -11 -75 -3 -27 -7 -61 -10 -75 -2
-14 -6 -61 -10 -105 -3 -44 -7 -82 -9 -85 -10 -17 -20 -299 -19 -565 0 -276 6
-450 19 -540 2 -16 7 -60 10 -97 3 -37 8 -77 10 -90 2 -13 6 -43 9 -68 3 -25
8 -54 10 -65 4 -25 18 -113 21 -142 2 -12 6 -34 9 -50 3 -15 8 -43 11 -60 3
-18 12 -61 20 -95 8 -35 16 -76 19 -93 18 -97 111 -433 168 -599 17 -49 31
-94 32 -100 2 -6 8 -22 13 -36 15 -34 38 -94 38 -100 0 -3 6 -15 13 -27 7 -13
9 -23 5 -23 -4 0 -2 -5 5 -12 7 -7 12 -20 12 -30 0 -10 5 -18 10 -18 6 0 9 -3
8 -7 -2 -10 3 -21 60 -153 97 -224 394 -776 424 -788 4 -2 8 -8 8 -12 0 -8 35
-66 57 -95 5 -6 28 -39 52 -75 65 -96 105 -154 111 -160 3 -3 17 -21 30 -40
14 -19 32 -44 41 -55 10 -11 57 -69 105 -130 294 -369 683 -745 1070 -1032
100 -74 256 -183 263 -183 4 0 16 -9 26 -20 10 -11 22 -20 26 -20 5 0 28 -13
51 -29 70 -46 149 -96 203 -126 171 -96 220 -122 353 -189 172 -86 388 -180
557 -242 66 -25 136 -51 155 -59 33 -13 186 -61 335 -104 89 -26 302 -78 350
-85 21 -4 40 -8 44 -10 3 -2 22 -7 41 -10 19 -3 60 -10 90 -16 109 -21 364
-58 455 -66 28 -2 66 -6 85 -9 214 -27 991 -27 1130 0 9 2 47 6 85 10 39 3 81
8 95 10 14 2 45 7 70 10 25 3 72 10 105 15 33 5 78 12 100 16 107 16 398 81
555 124 153 42 468 143 525 169 11 5 90 37 175 71 426 172 890 434 1290 731
113 84 161 121 300 239 530 447 988 1002 1351 1635 30 54 227 439 227 445 0 3
12 32 27 65 15 33 34 76 42 95 8 19 18 44 23 55 30 67 43 101 41 108 -1 5 5
20 13 35 17 31 94 242 100 275 2 12 8 33 14 47 6 14 18 52 27 85 10 33 22 65
26 71 5 6 6 13 4 16 -3 3 1 25 9 49 35 107 126 520 139 634 3 22 10 69 16 105
5 36 13 92 16 125 4 33 8 71 11 85 2 14 7 61 10 105 4 44 8 91 9 105 2 14 3
56 4 93 1 38 4 66 9 63 4 -2 8 9 9 26 0 23 -2 27 -9 17 -7 -10 -7 -8 -2 6 12
29 15 465 4 465 -6 0 -10 5 -10 11 0 5 4 8 9 5 9 -6 9 -1 -2 44 -3 14 -9 70
-12 125 -8 138 -20 256 -41 410 -5 39 -41 261 -49 300 -5 25 -23 112 -30 145
-3 14 -7 36 -10 50 -3 14 -9 40 -15 59 -5 19 -8 37 -5 39 3 3 0 11 -6 19 -6 7
-9 13 -5 13 3 0 1 12 -5 28 -6 15 -12 34 -14 42 -5 24 -25 102 -36 135 -5 17
-27 89 -50 160 -22 72 -42 135 -43 140 -1 6 -4 15 -7 20 -4 6 -12 28 -19 50
-13 40 -117 302 -161 405 -27 63 -221 450 -248 495 -17 29 -39 66 -80 138 -49
87 -254 402 -271 417 -3 3 -22 27 -41 55 -18 27 -39 56 -46 65 -139 178 -181
229 -318 388 -33 39 -93 102 -190 202 -242 250 -511 482 -795 684 -74 53 -139
99 -145 104 -42 32 -261 166 -396 242 -90 50 -171 95 -179 100 -76 44 -462
222 -520 241 -14 4 -59 22 -100 39 -138 58 -387 138 -635 205 -100 27 -115 31
-169 41 -16 2 -32 7 -36 9 -6 4 -24 8 -95 21 -16 3 -61 11 -100 19 -59 12
-149 28 -230 40 -19 3 -163 21 -235 30 -19 2 -67 7 -105 10 -39 4 -90 9 -115
11 -50 6 -726 14 -732 9z"/>
</g>
</svg>
