<?xml version="1.0" encoding="utf-8"?>
<!-- Generator: Adobe Illustrator 19.1.0, SVG Export Plug-In . SVG Version: 6.00 Build 0) -->
<svg version="1.1" id="Layer_1" xmlns="http://www.w3.org/2000/svg" xmlns:xlink="http://www.w3.org/1999/xlink" x="0px" y="0px"
     width="512px" height="512px" viewBox="-223 25 512 512" style="enable-background:new -223 25 512 512;" xml:space="preserve">
<g>
<path d="M-62.4,256.9v39c-0.2,5.5-4.7,10-10.2,10s-10-4.5-10-10v-39h-14.1v39c0,13.3,10.8,24.2,24.2,24.2s24.2-10.8,24.2-24.2v-39
H-62.4z"/>
  <path d="M-20.1,320.1v-39c0.2-5.5,4.7-10,10.2-10s10,4.5,10,10v39h14.1v-39c0-13.3-10.8-24.2-24.2-24.2s-24.2,10.8-24.2,24.2v39
H-20.1z"/>
  <polygon points="114.8,256.9 66.5,256.9 66.5,271 83.5,271 83.5,320.1 97.6,320.1 97.6,271 114.8,271 "/>
  <path d="M148.3,271h14.4v-14.1h-14.5l0,0c-10.6,0.1-19.2,8.6-19.2,19.3c0,4.7,1.6,8.9,4.4,12.3c-2.7,3.3-4.4,7.6-4.4,12.2
c0,10.7,8.5,19.2,19.2,19.3l0,0h14.5v-14.1h-14.4l0,0c-2.9-0.2-5.1-2.5-5.1-5.3s2.3-5.1,5.1-5.1h14.4v-14.1h-14.4
c-2.9-0.1-5.1-2.4-5.1-5.3C143.1,273.3,145.4,271,148.3,271z"/>
  <path d="M38.4,281.1v39h14.1v-39c0-13.3-10.8-24.2-24.2-24.2v14.2h0.1C33.9,271.1,38.4,275.6,38.4,281.1z"/>
</g>
</svg>