<svg width="65" height="70" viewBox="0 0 65 70" fill="none" xmlns="http://www.w3.org/2000/svg">
<path d="M46.4198 13.7188L5.63184 18.0129L11.1051 70L51.893 65.7058L46.4198 13.7188Z" fill="#E0E0E0"/>
<path d="M47.9759 14.831L7.59485 20.8876L14.7258 68.4317L55.1068 62.375L47.9759 14.831Z" fill="#EBEBEB"/>
<path d="M63.8588 19.1238C63.8588 19.1238 62.2548 18.0666 60.3117 21.8879C58.3686 25.7092 57.6252 27.9106 57.6252 27.9106C57.6252 27.9106 57.1101 28.7031 56.5602 28.188C56.0102 27.6729 55.2558 26.1783 54.3207 26.4446C53.3507 26.7219 53.0305 27.8045 53.2112 29.3957C53.3919 30.987 53.674 34.4866 53.6978 34.8035C53.7215 35.1205 53.5393 35.5722 53.1113 35.279C52.6834 34.9858 50.1935 32.2153 48.9509 33.4738C47.7083 34.7322 48.9509 39.0781 49.0793 39.5568C49.2076 40.0354 49.1126 40.2383 48.8843 40.3492C48.6561 40.4602 47.9096 39.4585 47.171 38.7009C46.4324 37.9433 45.4418 37.1936 44.7857 37.9782C44.1295 38.7627 43.9203 42.0261 47.0236 47.3293L48.6244 49.6956L51.4773 49.5371C57.5761 48.8255 60.0549 46.6937 60.2864 45.6952C60.5178 44.6967 59.3243 44.3607 58.2735 44.226C57.2227 44.0913 55.9674 44.1039 55.9246 43.8519C55.8818 43.5999 55.9896 43.4018 56.4476 43.218C56.9057 43.0341 61.1248 41.4064 61.38 39.6566C61.6351 37.9068 57.9296 37.5962 57.4319 37.4234C56.9342 37.2507 57.1941 36.8402 57.4557 36.6706C57.7172 36.501 60.6842 34.6102 62.0662 33.8019C63.4483 32.9935 64.1187 32.0854 63.7574 31.1439C63.4071 30.2357 61.7667 30.529 61.017 30.4053C60.2673 30.2817 60.597 29.3878 60.597 29.3878C60.597 29.3878 61.9141 27.47 63.7922 23.6123C65.6704 19.7546 63.816 19.1063 63.816 19.1063" fill="#E0E0E0"/>
<path d="M62.1091 22.5441C62.1091 22.5441 62.098 22.5726 62.0727 22.6265L61.9617 22.8658L61.5243 23.7898C61.1439 24.5823 60.5844 25.7314 59.8886 27.1451C58.4971 29.9711 56.5492 33.8558 54.3715 38.1446C52.1938 42.4334 50.2348 46.3229 48.8242 49.1425L47.1632 52.4851L46.7226 53.3933L46.6021 53.6294C46.5752 53.6817 46.5593 53.7071 46.5593 53.7071C46.5593 53.7071 46.5704 53.6786 46.5942 53.6247L46.7067 53.3853L47.1442 52.4708C47.5246 51.6784 48.0824 50.5293 48.7782 49.1155C50.1698 46.288 52.124 42.397 54.297 38.105C56.4699 33.813 58.4321 29.9299 59.8443 27.1087C60.5432 25.6997 61.1122 24.5601 61.5037 23.7661C61.6986 23.3746 61.8508 23.0687 61.957 22.8579L62.0758 22.6233C62.0965 22.571 62.1091 22.5441 62.1091 22.5441Z" fill="#EBEBEB"/>
<path d="M55.2904 28.5747C55.3223 28.636 55.3468 28.7009 55.3633 28.7681C55.4045 28.8933 55.4584 29.0851 55.5218 29.3054C55.6518 29.7618 55.8134 30.3958 55.9799 31.0979C56.1463 31.8001 56.2873 32.4198 56.3999 32.9C56.4522 33.1155 56.495 33.2978 56.5298 33.4452C56.5501 33.5108 56.5639 33.5782 56.571 33.6465C56.5389 33.5851 56.5139 33.5202 56.4965 33.4531C56.4553 33.3279 56.4014 33.1441 56.3381 32.9158C56.2128 32.4578 56.0591 31.8222 55.8927 31.1185C55.7263 30.4148 55.5757 29.7999 55.46 29.3212C55.4077 29.1057 55.3633 28.9234 55.3269 28.7776C55.3086 28.7112 55.2964 28.6433 55.2904 28.5747Z" fill="#EBEBEB"/>
<path d="M56.8345 33.6973C56.8345 33.6735 58.1199 33.282 59.7206 32.8208C61.3214 32.3596 62.6258 32.0077 62.6322 32.0283C62.6385 32.0489 61.3468 32.4452 59.746 32.9048C58.1452 33.3644 56.8408 33.721 56.8345 33.6973Z" fill="#EBEBEB"/>
<path d="M53.1998 40.1353C53.2695 40.1242 53.3402 40.121 53.4106 40.1258H53.9828C54.4662 40.1258 55.1335 40.1258 55.8689 40.0973C56.6043 40.0687 57.2715 40.0228 57.7518 39.9847L58.3223 39.9404C58.3923 39.9317 58.4631 39.9317 58.5331 39.9404C58.4658 39.9599 58.3969 39.9731 58.3271 39.98C58.1924 40.0006 57.999 40.0259 57.7581 40.0529C57.2826 40.1084 56.6106 40.1654 55.872 40.1924C55.1335 40.2193 54.4662 40.213 53.9812 40.1924C53.7403 40.1828 53.5453 40.1733 53.409 40.1622C53.3385 40.1607 53.2684 40.1517 53.1998 40.1353Z" fill="#EBEBEB"/>
<path d="M50.7861 35.8083C50.829 35.8568 50.8663 35.91 50.8971 35.9668C50.9716 36.0889 51.0635 36.241 51.1729 36.4185C51.4027 36.8021 51.5897 37.4599 52.0541 37.9242C52.3933 38.5154 52.6976 39.0527 52.9131 39.4442C53.0114 39.6265 53.0954 39.7834 53.1651 39.9086C53.1996 39.964 53.2268 40.0237 53.246 40.0861C53.203 40.0377 53.1658 39.9845 53.135 39.9276C53.0589 39.8061 52.967 39.6555 52.8592 39.4759C52.6294 39.0939 52.3172 38.5614 51.978 37.9702C51.6388 37.379 51.3345 36.8417 51.119 36.4518L50.867 35.9938C50.8318 35.9359 50.8046 35.8735 50.7861 35.8083Z" fill="#EBEBEB"/>
<path d="M46.8556 41.0846C46.9092 41.1485 46.9564 41.2176 46.9967 41.2906L47.3517 41.8676C47.6496 42.3573 48.0538 43.0372 48.4976 43.7901C48.9414 44.5429 49.336 45.2276 49.6197 45.7237C49.7529 45.963 49.8654 46.1611 49.951 46.3165C49.9944 46.387 50.0316 46.4613 50.0619 46.5384C50.0087 46.4747 49.9615 46.4063 49.9209 46.3339L49.5658 45.7554C49.2679 45.2672 48.8637 44.5873 48.4215 43.8345C47.9793 43.0816 47.5815 42.3969 47.2978 41.8993C47.1647 41.6615 47.0537 41.4618 46.9665 41.3081C46.9232 41.2369 46.8861 41.1621 46.8556 41.0846Z" fill="#EBEBEB"/>
<path d="M50.0225 46.3863C50.1106 46.3731 50.1996 46.3667 50.2887 46.3673L51.0146 46.3451C51.6264 46.3229 52.4728 46.2912 53.4047 46.231C54.3367 46.1708 55.1814 46.0947 55.7916 46.0344L56.5144 45.9647C56.6025 45.9516 56.6916 45.9463 56.7806 45.9489C56.6947 45.9713 56.6073 45.9877 56.5191 45.998C56.3495 46.0249 56.1023 46.0598 55.798 46.0963C55.1894 46.1723 54.3462 46.2548 53.4111 46.3182C52.4759 46.3816 51.6296 46.4022 51.0146 46.4069C50.7087 46.4069 50.4599 46.4069 50.2887 46.4069C50.1995 46.4087 50.1103 46.4018 50.0225 46.3863Z" fill="#EBEBEB"/>
<path d="M2.64839 45.1991C2.93071 45.0557 3.2391 44.9709 3.55503 44.9496C3.87097 44.9284 4.18794 44.9712 4.48691 45.0755C5.08573 45.2874 5.62795 45.6339 6.07185 46.0883C6.9499 46.9378 7.49829 48.2327 7.81528 49.4166C6.48393 49.6829 5.10662 48.919 4.43303 48.4879C3.36636 47.8063 1.85275 45.9282 2.64997 45.2023" fill="#C1C1C1"/>
<path d="M10.1276 49.6924C9.81155 49.5352 9.54253 49.2974 9.34773 49.003C9.15293 48.7085 9.03926 48.3679 9.01819 48.0155C9.00268 47.6621 9.0576 47.3092 9.17978 46.9772C9.30195 46.6453 9.48893 46.3409 9.72983 46.0819C9.94855 45.8394 10.2386 45.6175 10.5635 45.6334C10.7156 45.6503 10.8605 45.7074 10.9833 45.7987C11.1061 45.8901 11.2025 46.0124 11.2625 46.1532C11.378 46.4378 11.4157 46.7479 11.3718 47.0519C11.272 48.0932 10.9851 49.0822 10.1356 49.6924" fill="#C1C1C1"/>
<path d="M12.2784 53.0034C12.2145 52.9491 12.1561 52.8885 12.1041 52.8227L11.6445 52.3139C11.2673 51.8797 10.7157 51.2726 10.3607 50.4485C10.0462 49.7504 9.92263 48.9815 10.0025 48.22C10.0282 47.9915 10.0814 47.7669 10.161 47.5512C10.1828 47.4924 10.2077 47.4347 10.2355 47.3784C10.2529 47.3404 10.264 47.3198 10.2672 47.3214C10.1676 47.6158 10.098 47.9195 10.0595 48.228C10.0001 48.9783 10.1321 49.7314 10.4431 50.4168C10.7886 51.2251 11.3259 51.8337 11.692 52.2775C11.8775 52.4994 12.0296 52.6785 12.1295 52.8053C12.1853 52.8664 12.2352 52.9328 12.2784 53.0034Z" fill="#263238"/>
<path d="M3.92896 46.5272C3.96232 46.5433 3.99415 46.5624 4.02405 46.5843L4.2824 46.7602C4.50746 46.9187 4.8292 47.1422 5.22385 47.4259C6.01632 47.9949 7.09566 48.7953 8.26851 49.7066C9.44136 50.6179 10.4874 51.4675 11.2339 52.0919C11.6064 52.4089 11.9059 52.6593 12.112 52.8384L12.3466 53.0461C12.4004 53.0952 12.4274 53.1206 12.4242 53.1237C12.3927 53.1054 12.363 53.0842 12.3355 53.0603L12.0898 52.8654L11.1943 52.1411C10.4272 51.5261 9.38431 50.6877 8.20828 49.7827C7.03226 48.8777 5.96084 48.0646 5.18105 47.4829L4.25704 46.7951L4.00662 46.6049C3.97782 46.5821 3.95176 46.556 3.92896 46.5272Z" fill="#263238"/>
<path d="M9.63476 51.5468C8.97598 51.1958 8.24312 51.0068 7.49679 50.9952C6.75046 50.9836 6.0121 51.1499 5.34275 51.4802C5.00516 51.6514 4.64855 51.9398 4.67866 52.3171C4.70878 52.6943 5.10977 52.9241 5.47113 53.0319C6.23555 53.2411 7.04482 53.2193 7.79684 52.9691C8.54886 52.7189 9.20991 52.2516 9.69657 51.626" fill="#C1C1C1"/>
<path d="M6.3573 52.0524C6.42224 52.0071 6.49184 51.9688 6.56493 51.9383C6.64695 51.8944 6.73165 51.8558 6.81852 51.8226C6.93119 51.7738 7.04655 51.7315 7.16403 51.6958C7.30487 51.6477 7.44827 51.6075 7.59355 51.5753C7.76039 51.5364 7.92915 51.5062 8.09914 51.485C8.48993 51.4412 8.88438 51.4412 9.27517 51.485C9.66558 51.5335 10.0491 51.6271 10.4179 51.7639C10.5803 51.8244 10.7391 51.8943 10.8934 51.9731C11.0271 52.0403 11.1572 52.1144 11.2833 52.195C11.4022 52.2632 11.4957 52.344 11.5844 52.4058C11.6598 52.46 11.7318 52.5187 11.8 52.5818C11.8619 52.6291 11.9192 52.6822 11.9711 52.7403C11.9569 52.7561 11.7112 52.5231 11.25 52.2426C11.1244 52.166 10.9947 52.0962 10.8617 52.0334C10.7102 51.9582 10.5546 51.8916 10.3957 51.8337C10.0321 51.7037 9.65525 51.6144 9.272 51.5674C8.88743 51.5262 8.49956 51.5262 8.11499 51.5674C7.94727 51.5863 7.78063 51.6138 7.61574 51.6498C7.45725 51.6768 7.31777 51.7211 7.18781 51.756C6.66478 51.9113 6.36522 52.0698 6.3573 52.0524Z" fill="#263238"/>
<path d="M50.7797 57.763C49.6702 57.0497 49.2708 56.1352 49.0965 54.8276C49.014 54.1716 49.073 53.5056 49.2696 52.8743C49.4661 52.2431 49.7957 51.6612 50.236 51.168C50.9746 50.3534 52.0112 49.7971 52.5485 48.8366C53.119 47.8127 53.0461 46.4592 53.8608 45.6112C54.4218 45.0327 55.2666 44.8521 55.9576 44.44C56.5235 44.104 56.9799 43.6174 57.4919 43.2069C58.0038 42.7964 58.6188 42.4477 59.2749 42.4715C60.2655 42.5079 61.0722 43.4478 61.1562 44.4352C61.2402 45.4226 60.7267 46.3895 59.9961 47.0599C59.4667 47.5449 58.8058 47.9268 58.4714 48.564C57.8374 49.7574 58.6092 51.3551 57.9293 52.5263C57.4332 53.3774 56.2509 53.8212 56.1225 54.7991C56.0749 55.1589 56.1906 55.5187 56.2017 55.8816C56.2366 57.0149 55.2127 57.9674 54.1049 58.2115C52.997 58.4556 51.8463 58.1497 50.7765 57.7677" fill="#455A64"/>
<path d="M57.2892 46.5352C57.2572 46.583 57.2206 46.6276 57.1798 46.6683L56.8454 47.0281C56.698 47.1866 56.5173 47.372 56.3224 47.6034C56.1274 47.8348 55.8865 48.0789 55.6551 48.3864C55.4237 48.6938 55.1511 49.0061 54.8944 49.3738C54.766 49.5576 54.6218 49.7383 54.4918 49.9396L54.0876 50.5546C53.5047 51.478 52.9919 52.4438 52.5534 53.4439C52.1269 54.4491 51.7797 55.4862 51.5153 56.5456C51.4028 57.0369 51.2934 57.4966 51.23 57.9467C51.1666 58.3968 51.1032 58.801 51.0604 59.1798C51.0176 59.5586 51.0034 59.9025 50.978 60.2052C50.9526 60.508 50.951 60.7679 50.9479 60.9819C50.9447 61.1958 50.94 61.3464 50.9368 61.4732C50.9382 61.5306 50.9334 61.588 50.9225 61.6444C50.9118 61.588 50.9076 61.5305 50.9098 61.4732C50.9098 61.3464 50.9019 61.1831 50.8956 60.9803C50.8892 60.7774 50.8845 60.5048 50.8956 60.2021C50.9067 59.8993 50.9114 59.5507 50.9574 59.1703C51.0033 58.7899 51.0319 58.3778 51.1159 57.9277C51.1999 57.4776 51.2744 57.0116 51.3901 56.5171C51.6513 55.4484 51.9985 54.4027 52.4282 53.39C52.8699 52.383 53.3898 51.4122 53.983 50.4864L54.3935 49.8714C54.5267 49.6717 54.6725 49.4895 54.804 49.3072C55.0671 48.9411 55.3381 48.6209 55.5822 48.3261C55.8263 48.0313 56.0577 47.7793 56.2653 47.5527C56.473 47.326 56.6536 47.1406 56.8074 46.9916C56.9611 46.8426 57.0689 46.7364 57.1608 46.6493C57.1997 46.607 57.2427 46.5688 57.2892 46.5352Z" fill="#263238"/>
<path d="M51.7683 17.6322H10.9355V65.7081H51.7683V17.6322Z" fill="#FAFAFA"/>
<path d="M51.7702 65.7081C51.7702 65.3912 51.7543 46.2784 51.7321 17.6323L51.7702 17.6687H10.9406L10.9818 17.6275C10.9818 35.3788 10.9818 51.9113 10.9818 65.7034L10.947 65.6685L51.7813 65.7034L10.947 65.7383H10.9026V65.7034C10.9026 51.9144 10.9026 35.3772 10.9026 17.6275V17.5863H10.9486H51.7781H51.8145V17.6243C51.7844 46.2784 51.7702 65.3896 51.7702 65.7081Z" fill="#263238"/>
<path d="M33.6572 25.4888H32.8647L32.6935 25.8708H32.535L33.188 24.4443H33.337L33.99 25.8708H33.8315L33.6572 25.4888ZM33.6033 25.3668L33.2594 24.5997L32.917 25.3747L33.6033 25.3668Z" fill="black"/>
<path d="M35.1646 24.3556V25.8708H35.0252V25.6584C34.9821 25.7288 34.9211 25.7865 34.8484 25.8255C34.7757 25.8645 34.6939 25.8834 34.6115 25.8803C34.4718 25.8728 34.3402 25.812 34.244 25.7104C34.1478 25.6088 34.0941 25.4742 34.0941 25.3343C34.0941 25.1944 34.1478 25.0598 34.244 24.9582C34.3402 24.8566 34.4718 24.7958 34.6115 24.7883C34.6918 24.7864 34.7713 24.8049 34.8425 24.842C34.9137 24.8792 34.9744 24.9337 35.0188 25.0007V24.3556H35.1646ZM35.0204 25.3335C35.0167 25.2554 34.9901 25.18 34.9439 25.1169C34.8978 25.0537 34.8341 25.0055 34.7608 24.9782C34.6874 24.9509 34.6077 24.9458 34.5315 24.9634C34.4553 24.981 34.3859 25.0206 34.332 25.0773C34.2781 25.134 34.242 25.2053 34.2283 25.2823C34.2145 25.3593 34.2237 25.4387 34.2546 25.5105C34.2856 25.5824 34.337 25.6436 34.4024 25.6865C34.4678 25.7294 34.5444 25.7521 34.6226 25.7519C34.6768 25.7527 34.7306 25.7422 34.7806 25.7212C34.8306 25.7002 34.8757 25.669 34.913 25.6297C34.9504 25.5904 34.9792 25.5438 34.9977 25.4928C35.0162 25.4419 35.0239 25.3876 35.0204 25.3335Z" fill="black"/>
<path d="M36.5483 24.3556V25.8708H36.4088V25.6584C36.3658 25.7288 36.3048 25.7865 36.2321 25.8255C36.1594 25.8645 36.0776 25.8834 35.9952 25.8803C35.8554 25.8728 35.7239 25.812 35.6277 25.7104C35.5314 25.6088 35.4778 25.4742 35.4778 25.3343C35.4778 25.1944 35.5314 25.0598 35.6277 24.9582C35.7239 24.8566 35.8554 24.7958 35.9952 24.7883C36.0755 24.7864 36.1549 24.8049 36.2262 24.842C36.2974 24.8792 36.3581 24.9337 36.4025 25.0007V24.3556H36.5483ZM36.4041 25.3335C36.4003 25.2554 36.3738 25.18 36.3276 25.1169C36.2814 25.0537 36.2177 25.0055 36.1444 24.9782C36.0711 24.9509 35.9914 24.9458 35.9152 24.9634C35.8389 24.981 35.7696 25.0206 35.7157 25.0773C35.6618 25.134 35.6257 25.2053 35.6119 25.2823C35.5982 25.3593 35.6074 25.4387 35.6383 25.5105C35.6693 25.5824 35.7206 25.6436 35.786 25.6865C35.8514 25.7294 35.928 25.7521 36.0063 25.7519C36.0605 25.7527 36.1143 25.7422 36.1643 25.7212C36.2142 25.7002 36.2593 25.669 36.2967 25.6297C36.3341 25.5904 36.3629 25.5438 36.3814 25.4928C36.3998 25.4419 36.4076 25.3876 36.4041 25.3335Z" fill="black"/>
<path d="M38.4534 24.7961V25.8707H38.3218V25.6742C38.2824 25.7403 38.2257 25.7944 38.1579 25.8307C38.09 25.8671 38.0135 25.8842 37.9367 25.8802C37.8749 25.8863 37.8126 25.8785 37.7543 25.8574C37.696 25.8362 37.6432 25.8023 37.5997 25.7581C37.5562 25.7138 37.5232 25.6604 37.5031 25.6017C37.4829 25.5431 37.4762 25.4806 37.4834 25.419V24.7961H37.6292V25.4048C37.6292 25.633 37.7465 25.7503 37.9462 25.7503C37.997 25.7529 38.0478 25.7444 38.0951 25.7254C38.1423 25.7064 38.1848 25.6774 38.2197 25.6402C38.2545 25.6031 38.2809 25.5589 38.2969 25.5105C38.3129 25.4622 38.3181 25.411 38.3123 25.3604V24.7961H38.4534Z" fill="black"/>
<path d="M38.7102 25.7487L38.7752 25.633C38.8865 25.7127 39.0203 25.7549 39.1572 25.7535C39.3616 25.7535 39.4456 25.6853 39.4456 25.5792C39.4456 25.2986 38.7482 25.5189 38.7482 25.1037C38.7482 24.9277 38.9067 24.7962 39.173 24.7962C39.3065 24.7946 39.4379 24.8291 39.5534 24.896L39.49 25.0133C39.3961 24.9511 39.2856 24.9191 39.173 24.9214C38.9796 24.9214 38.8941 24.9975 38.8941 25.0989C38.8941 25.389 39.5898 25.1702 39.5898 25.5744C39.5898 25.7598 39.4313 25.8803 39.1476 25.8803C38.9915 25.8848 38.838 25.8386 38.7102 25.7487Z" fill="black"/>
<path d="M40.7926 25.3746H39.8939C39.8969 25.427 39.9103 25.4782 39.9333 25.5254C39.9563 25.5725 39.9883 25.6146 40.0277 25.6493C40.0671 25.6839 40.1129 25.7104 40.1626 25.7272C40.2123 25.744 40.2648 25.7507 40.3171 25.7471C40.3788 25.7491 40.4402 25.7375 40.4969 25.7132C40.5536 25.6888 40.6042 25.6522 40.6452 25.606L40.726 25.7011C40.6743 25.759 40.6103 25.8046 40.5388 25.8348C40.4672 25.8649 40.3899 25.8788 40.3123 25.8755C40.2386 25.8799 40.1648 25.8689 40.0956 25.8432C40.0264 25.8175 39.9633 25.7777 39.9103 25.7262C39.8574 25.6748 39.8158 25.6129 39.7881 25.5444C39.7604 25.4759 39.7474 25.4025 39.7497 25.3287C39.7458 25.2577 39.7564 25.1866 39.7809 25.1198C39.8053 25.0531 39.8432 24.992 39.8921 24.9404C39.9409 24.8887 39.9998 24.8476 40.0651 24.8195C40.1305 24.7914 40.2008 24.7769 40.2719 24.7769C40.343 24.7769 40.4134 24.7914 40.4787 24.8195C40.544 24.8476 40.6029 24.8887 40.6518 24.9404C40.7007 24.992 40.7385 25.0531 40.763 25.1198C40.7875 25.1866 40.7981 25.2577 40.7942 25.3287C40.7942 25.3461 40.7926 25.3619 40.7926 25.3746ZM39.8939 25.2653H40.6547C40.646 25.1704 40.6022 25.0822 40.5318 25.0179C40.4614 24.9537 40.3696 24.9181 40.2743 24.9181C40.179 24.9181 40.0872 24.9537 40.0168 25.0179C39.9464 25.0822 39.9026 25.1704 39.8939 25.2653Z" fill="black"/>
<path d="M41.6312 24.7882V24.9293H41.5963C41.5451 24.9266 41.4939 24.9354 41.4465 24.9549C41.3991 24.9744 41.3566 25.0041 41.322 25.042C41.2875 25.0799 41.2617 25.125 41.2467 25.174C41.2316 25.223 41.2276 25.2747 41.2349 25.3255V25.8723H41.0891V24.7977H41.2286V25.0085C41.2658 24.9356 41.3241 24.8756 41.3959 24.8363C41.4677 24.797 41.5497 24.7802 41.6312 24.7882Z" fill="black"/>
<path d="M30.6872 39.8436C30.6872 39.8436 30.6872 39.8119 30.6872 39.7549C30.6872 39.6978 30.6872 39.6091 30.6872 39.4981C30.6872 39.2699 30.6872 38.9371 30.6872 38.506C30.6872 37.6422 30.6777 36.3869 30.6714 34.8083L30.6983 34.8337L14.6762 34.8495L14.7174 34.8083C14.7174 36.5517 14.7174 38.2476 14.7174 39.8436L14.6778 39.804L26.129 39.8215L29.4827 39.8325H30.3845H30.6191H30.6999H30.6238H30.3813H29.489L26.1448 39.8452L14.6651 39.8627H14.6239V34.7671H14.6651L30.6872 34.7814H30.7142V34.8083C30.7142 36.3932 30.7031 37.6612 30.6999 38.5218C30.6999 38.9497 30.6999 39.281 30.6999 39.5076C30.6999 39.617 30.6999 39.701 30.6999 39.7596C30.6999 39.8183 30.6872 39.8436 30.6872 39.8436Z" fill="#263238"/>
<path d="M48.4227 46.6636C48.4227 46.6636 48.4227 46.5511 48.4227 46.3323C48.4227 46.1136 48.4227 45.7903 48.4227 45.3639C48.4227 44.5128 48.4227 43.256 48.4116 41.6282L48.4322 41.6488L14.673 41.6695L14.7142 41.6282V46.6636L14.673 46.624L38.6912 46.6414L45.8234 46.6525H47.7522H48.2531H48.4258C48.4258 46.6525 48.3704 46.6525 48.2594 46.6525H47.7633H45.844L38.7118 46.6652L14.6651 46.6826H14.6239V41.587H14.6667L48.4258 41.6076H48.4464V41.6282C48.4464 43.2623 48.4369 44.5223 48.4338 45.3766C48.4338 45.7993 48.4338 46.1205 48.4338 46.3403C48.4258 46.5558 48.4227 46.6636 48.4227 46.6636Z" fill="#263238"/>
<path d="M48.4227 53.4375C48.4227 53.4375 48.4227 53.3234 48.4227 53.1063C48.4227 52.8891 48.4227 52.5626 48.4227 52.1379C48.4227 51.2852 48.4227 50.0299 48.4116 48.4022L48.4322 48.4212L14.673 48.4434L14.7142 48.4022V53.4375L14.673 53.3963L38.6912 53.4137L45.8234 53.4264H47.7522H48.2531H48.4258H48.2594H47.7633H45.844L38.7118 53.4375L14.6651 53.4565H14.6239V48.3562H14.6667L48.4258 48.3784H48.4464V48.399C48.4464 50.0315 48.4369 51.2915 48.4338 52.1458C48.4338 52.5684 48.4338 52.8896 48.4338 53.1094C48.4258 53.3297 48.4227 53.4375 48.4227 53.4375Z" fill="#263238"/>
<path d="M48.4226 39.8435C48.4226 39.8435 48.4226 39.8118 48.4226 39.7547C48.4226 39.6977 48.4226 39.6089 48.4226 39.498C48.4226 39.2697 48.4226 38.9369 48.4226 38.5058C48.4226 37.642 48.4226 36.3867 48.4083 34.8082L48.4353 34.8335L32.4131 34.8494L32.4544 34.8082V39.8435L32.4131 39.8039L43.8659 39.8213L47.2196 39.8324H48.1214H48.356H48.4368H48.3608H48.1167H47.2244L43.8802 39.8451L32.3989 39.8625H32.3593V39.8229C32.3593 38.2269 32.3593 36.5326 32.3593 34.7875V34.7463H32.402L48.4242 34.7606H48.4511V34.7875C48.4511 36.3725 48.44 37.6404 48.4353 38.5011C48.4353 38.929 48.4353 39.2602 48.4353 39.4869C48.4353 39.5962 48.4353 39.6802 48.4353 39.7389C48.4353 39.7975 48.4226 39.8435 48.4226 39.8435Z" fill="#263238"/>
<path d="M18.0204 38.0542C17.9799 38.0596 17.9392 38.0622 17.8984 38.0621L17.537 38.0732C17.22 38.0827 16.7667 38.0954 16.2215 38.1017H16.1708L16.1866 38.0542C16.2327 37.8929 16.3201 37.7465 16.4402 37.6294C16.5757 37.5075 16.7446 37.4291 16.9252 37.4044L16.9157 37.482C16.8142 37.4376 16.7267 37.3663 16.6628 37.2758C16.5988 37.1853 16.5608 37.079 16.5527 36.9685C16.5418 36.8444 16.5684 36.7198 16.6292 36.611C16.69 36.5021 16.7821 36.4141 16.8935 36.3583C16.9999 36.3096 17.1192 36.2967 17.2335 36.3216C17.3478 36.3464 17.451 36.4077 17.5275 36.4962C17.5955 36.5743 17.6433 36.6679 17.6668 36.7687C17.6903 36.8695 17.6887 36.9746 17.6622 37.0747C17.6405 37.1617 17.599 37.2426 17.541 37.311C17.483 37.3795 17.4101 37.4336 17.3278 37.4694V37.4139C17.4691 37.4347 17.6033 37.489 17.7193 37.5724C17.8044 37.6363 17.8765 37.7159 17.9316 37.807C17.9814 37.8826 18.0143 37.968 18.0283 38.0574C18.0283 38.0574 18.0156 38.0336 17.9982 37.9956C17.9716 37.9361 17.9403 37.8789 17.9047 37.8244C17.8387 37.7264 17.7519 37.644 17.6506 37.5832C17.5493 37.5224 17.4358 37.4846 17.3183 37.4725L17.2121 37.4598L17.3119 37.4171C17.3843 37.3833 17.448 37.3335 17.4983 37.2714C17.5485 37.2093 17.584 37.1367 17.602 37.0589C17.6244 36.9702 17.6249 36.8773 17.6033 36.7884C17.5818 36.6994 17.5389 36.6171 17.4783 36.5485C17.4113 36.4746 17.3228 36.4237 17.2252 36.403C17.1276 36.3822 17.026 36.3926 16.9347 36.4328C16.8388 36.4818 16.7597 36.5584 16.7077 36.6528C16.6557 36.7471 16.6332 36.8549 16.6431 36.9622C16.6499 37.0586 16.6831 37.1512 16.739 37.23C16.7949 37.3088 16.8714 37.3708 16.9601 37.4091L17.0948 37.463L16.9506 37.4868C16.7853 37.5084 16.6306 37.5797 16.5068 37.6912C16.3948 37.7979 16.3124 37.9316 16.2675 38.0796L16.2326 38.0336C16.7604 38.0336 17.2042 38.0336 17.5227 38.0447H17.8936C17.936 38.0451 17.9784 38.0482 18.0204 38.0542Z" fill="#C1C1C1"/>
<path d="M36.8035 38.0542C36.7636 38.0597 36.7233 38.0623 36.683 38.0621L36.3201 38.0732C36.0031 38.0827 35.5514 38.0954 35.0046 38.1018H34.9554L34.9697 38.0542C35.0158 37.8929 35.1032 37.7465 35.2233 37.6295C35.3584 37.5064 35.5274 37.4269 35.7083 37.4012L35.6988 37.4789C35.5975 37.4344 35.5102 37.363 35.4465 37.2725C35.3828 37.182 35.3451 37.0758 35.3374 36.9654C35.3257 36.8413 35.3518 36.7166 35.4123 36.6076C35.4729 36.4987 35.565 36.4107 35.6766 36.3552C35.783 36.3067 35.9022 36.2939 36.0165 36.3188C36.1307 36.3436 36.2339 36.4048 36.3106 36.4931C36.3783 36.5713 36.4258 36.6649 36.449 36.7658C36.4722 36.8666 36.4704 36.9716 36.4437 37.0716C36.422 37.1586 36.3805 37.2394 36.3225 37.3079C36.2645 37.3763 36.1916 37.4305 36.1093 37.4662V37.4107C36.2506 37.4315 36.3848 37.4859 36.5008 37.5692C36.5863 37.6327 36.6585 37.7124 36.7131 37.8038C36.7629 37.8794 36.7958 37.9648 36.8098 38.0542C36.8098 38.0542 36.7971 38.0304 36.7797 37.9924C36.7543 37.9324 36.723 37.875 36.6862 37.8212C36.6205 37.7232 36.5341 37.6409 36.433 37.5801C36.3319 37.5193 36.2187 37.4815 36.1014 37.4694L35.9952 37.4567L36.0934 37.4139C36.1658 37.3799 36.2296 37.3301 36.2801 37.2681C36.3306 37.2061 36.3665 37.1335 36.3851 37.0557C36.4072 36.9669 36.4073 36.874 36.3855 36.7851C36.3637 36.6962 36.3206 36.6139 36.2598 36.5454C36.1939 36.4704 36.1056 36.4186 36.008 36.3978C35.9103 36.3769 35.8086 36.3881 35.7178 36.4297C35.6214 36.4782 35.5419 36.5547 35.4896 36.6491C35.4373 36.7436 35.4146 36.8515 35.4246 36.959C35.4314 37.0554 35.4646 37.148 35.5205 37.2269C35.5764 37.3057 35.6529 37.3676 35.7416 37.406L35.8763 37.4599L35.7321 37.4836C35.5668 37.5053 35.4121 37.5766 35.2883 37.6881C35.1768 37.7948 35.0949 37.9286 35.0505 38.0764L35.0157 38.0304C35.5435 38.0304 35.9872 38.0304 36.3042 38.0415H36.6767C36.7192 38.0429 36.7616 38.0471 36.8035 38.0542Z" fill="#C1C1C1"/>
<path d="M19.8985 36.9447V37.3695H20.4564V37.4677H19.8985V37.9258H19.7781V36.8464H20.5182V36.9447H19.8985Z" fill="#263238"/>
<path d="M20.6956 36.8575C20.696 36.8368 20.7045 36.817 20.7193 36.8025C20.7341 36.788 20.7541 36.7798 20.7748 36.7799C20.7851 36.7794 20.7954 36.7811 20.8051 36.7847C20.8148 36.7883 20.8237 36.7938 20.8312 36.8009C20.8387 36.808 20.8448 36.8165 20.849 36.826C20.8532 36.8354 20.8554 36.8456 20.8556 36.8559C20.858 36.8677 20.8577 36.8798 20.8548 36.8914C20.8519 36.903 20.8465 36.9138 20.8389 36.9231C20.8313 36.9323 20.8218 36.9398 20.811 36.9449C20.8002 36.95 20.7884 36.9527 20.7764 36.9527C20.7644 36.9527 20.7526 36.95 20.7418 36.9449C20.731 36.9398 20.7214 36.9323 20.7139 36.9231C20.7063 36.9138 20.7008 36.903 20.698 36.8914C20.6951 36.8798 20.6948 36.8677 20.6971 36.8559L20.6956 36.8575ZM20.7193 37.1127H20.8287V37.9242H20.7193V37.1127Z" fill="#263238"/>
<path d="M21.5422 37.1033V37.2111H21.5216C21.4831 37.209 21.4445 37.2156 21.4088 37.2302C21.3731 37.2449 21.341 37.2672 21.315 37.2957C21.2889 37.3242 21.2695 37.3581 21.2581 37.395C21.2467 37.4319 21.2436 37.4708 21.249 37.509V37.9227H21.1396V37.1112H21.2443V37.2697C21.2716 37.2154 21.3146 37.1705 21.3677 37.1408C21.4208 37.1111 21.4816 37.0981 21.5422 37.1033Z" fill="#263238"/>
<path d="M21.6323 37.8307L21.6815 37.7451C21.7657 37.8048 21.8667 37.8364 21.9699 37.8354C22.1284 37.8354 22.1871 37.7831 22.1871 37.7039C22.1871 37.4915 21.6624 37.6579 21.6624 37.3378C21.6624 37.2062 21.7766 37.1064 21.9794 37.1064C22.0802 37.1052 22.1794 37.1315 22.2663 37.1824L22.2188 37.2712C22.1482 37.2236 22.0645 37.1992 21.9794 37.2015C21.8336 37.2015 21.7686 37.2585 21.7686 37.3346C21.7686 37.5533 22.2932 37.3885 22.2932 37.7007C22.2932 37.8402 22.1712 37.9305 21.9588 37.9305C21.8421 37.9332 21.7276 37.8982 21.6323 37.8307Z" fill="#263238"/>
<path d="M22.9256 37.8735C22.8772 37.9123 22.8164 37.9326 22.7544 37.9305C22.7226 37.9343 22.6903 37.9308 22.66 37.9204C22.6296 37.91 22.602 37.8928 22.5792 37.8703C22.5564 37.8478 22.5389 37.8204 22.5281 37.7903C22.5173 37.7601 22.5134 37.7279 22.5167 37.696V37.2062H22.3724V37.1127H22.5167V36.9447H22.6308V37.1206H22.8764V37.2141H22.6308V37.6975C22.6281 37.7168 22.6298 37.7365 22.6357 37.7551C22.6417 37.7736 22.6517 37.7906 22.6651 37.8048C22.6785 37.8189 22.6949 37.8299 22.7131 37.8368C22.7313 37.8438 22.7508 37.8466 22.7703 37.8449C22.8141 37.8461 22.8568 37.8315 22.8907 37.8037L22.9256 37.8735Z" fill="#263238"/>
<path d="M24.2714 37.4535V37.929H24.1621V37.4693C24.1672 37.4356 24.1647 37.4011 24.1546 37.3685C24.1445 37.3359 24.1271 37.306 24.1037 37.2811C24.0803 37.2562 24.0516 37.237 24.0197 37.2248C23.9878 37.2127 23.9536 37.208 23.9196 37.211C23.8808 37.208 23.8419 37.2135 23.8056 37.2273C23.7693 37.241 23.7364 37.2625 23.7094 37.2903C23.6823 37.3182 23.6617 37.3516 23.649 37.3883C23.6363 37.425 23.6318 37.464 23.6359 37.5026V37.929H23.5265V37.1175H23.6311V37.2617C23.6635 37.2099 23.7094 37.1678 23.7638 37.1399C23.8182 37.112 23.8791 37.0993 23.9402 37.1032C23.9859 37.1009 24.0316 37.1085 24.0742 37.1256C24.1167 37.1426 24.155 37.1687 24.1865 37.202C24.218 37.2353 24.2419 37.275 24.2566 37.3184C24.2712 37.3619 24.2763 37.4079 24.2714 37.4535Z" fill="#263238"/>
<path d="M25.1796 37.4202V37.9226H25.075V37.7958C25.0446 37.8409 25.0027 37.877 24.9537 37.9004C24.9046 37.9238 24.8502 37.9337 24.796 37.9289C24.6138 37.9289 24.5012 37.8339 24.5012 37.6944C24.5012 37.5549 24.5805 37.4646 24.8182 37.4646H25.075V37.4202C25.075 37.2807 24.9973 37.2062 24.8467 37.2062C24.7484 37.2045 24.6528 37.2382 24.5773 37.3013L24.5266 37.2205C24.6178 37.1456 24.7319 37.1042 24.8499 37.1032C24.8936 37.0966 24.9382 37.1002 24.9804 37.1136C25.0225 37.127 25.0609 37.1499 25.0928 37.1805C25.1247 37.2111 25.1491 37.2487 25.1641 37.2902C25.1791 37.3318 25.1844 37.3763 25.1796 37.4202ZM25.0702 37.6785V37.5454H24.8166C24.6581 37.5454 24.609 37.6072 24.609 37.6912C24.609 37.7752 24.6835 37.8497 24.8135 37.8497C24.8688 37.8527 24.9236 37.8378 24.9698 37.8073C25.0161 37.7768 25.0513 37.7322 25.0702 37.6801V37.6785Z" fill="#263238"/>
<path d="M26.8136 37.4534V37.9289H26.7043V37.4692C26.7043 37.2981 26.6187 37.2109 26.4713 37.2109C26.4334 37.209 26.3956 37.2154 26.3604 37.2297C26.3253 37.244 26.2937 37.2658 26.2678 37.2936C26.242 37.3213 26.2226 37.3545 26.2109 37.3906C26.1992 37.4267 26.1956 37.4649 26.2003 37.5025V37.9289H26.0909V37.4692C26.0909 37.2981 26.0053 37.2109 25.8579 37.2109C25.82 37.209 25.7822 37.2154 25.747 37.2297C25.7119 37.244 25.6803 37.2658 25.6545 37.2936C25.6286 37.3213 25.6092 37.3545 25.5975 37.3906C25.5859 37.4267 25.5822 37.4649 25.5869 37.5025V37.9289H25.4839V37.1174H25.5885V37.2616C25.6188 37.2107 25.6624 37.169 25.7146 37.1411C25.7668 37.1131 25.8257 37.1 25.8849 37.1031C25.9448 37.0983 26.0047 37.1121 26.0564 37.1428C26.108 37.1734 26.1489 37.2194 26.1733 37.2743C26.206 37.22 26.2526 37.1754 26.3084 37.1453C26.3642 37.1152 26.427 37.1006 26.4903 37.1031C26.536 37.1 26.5817 37.1072 26.6242 37.1241C26.6667 37.141 26.7048 37.1672 26.7359 37.2008C26.7669 37.2344 26.79 37.2746 26.8034 37.3183C26.8169 37.362 26.8204 37.4082 26.8136 37.4534Z" fill="#263238"/>
<path d="M27.8185 37.5518H27.1417C27.1439 37.5912 27.1539 37.6297 27.1711 37.6652C27.1882 37.7007 27.2122 37.7325 27.2416 37.7587C27.2711 37.7849 27.3054 37.8051 27.3427 37.818C27.3799 37.8309 27.4193 37.8363 27.4587 37.8339C27.5052 37.8355 27.5514 37.8267 27.5941 37.8084C27.6369 37.79 27.675 37.7625 27.7059 37.7278L27.7678 37.7991C27.7096 37.8599 27.6348 37.9023 27.5527 37.9208C27.4706 37.9393 27.3849 37.9333 27.3062 37.9033C27.2275 37.8734 27.1594 37.8209 27.1105 37.7525C27.0615 37.684 27.0337 37.6027 27.0308 37.5185C27.0308 37.4135 27.0725 37.3127 27.1468 37.2384C27.2211 37.1641 27.3219 37.1223 27.427 37.1223C27.5321 37.1223 27.6329 37.1641 27.7072 37.2384C27.7815 37.3127 27.8232 37.4135 27.8232 37.5185C27.8201 37.5281 27.8185 37.5407 27.8185 37.5518ZM27.1417 37.471H27.7155C27.7122 37.3973 27.6801 37.3278 27.6262 37.2774C27.5723 37.2271 27.5008 37.1998 27.427 37.2016C27.3535 37.1998 27.2824 37.2272 27.229 37.2776C27.1755 37.3281 27.1442 37.3976 27.1417 37.471Z" fill="#263238"/>
<path d="M20.702 44.8694V44.9676H19.9365V43.8899H20.6767V43.9882H20.0427V44.3717H20.6006V44.4684H20.0427V44.8694H20.702Z" fill="#263238"/>
<path d="M22.2821 44.5032V44.9787H22.1728V44.5191C22.1728 44.3479 22.0872 44.2607 21.9398 44.2607C21.9018 44.2588 21.8638 44.2652 21.8285 44.2796C21.7932 44.294 21.7615 44.3159 21.7356 44.3439C21.7098 44.3718 21.6904 44.4052 21.6788 44.4415C21.6673 44.4778 21.6638 44.5162 21.6688 44.5539V44.9787H21.5594V44.5191C21.5594 44.3479 21.4738 44.2607 21.3264 44.2607C21.2885 44.2591 21.2506 44.2657 21.2154 44.2801C21.1803 44.2946 21.1487 44.3166 21.1229 44.3445C21.0971 44.3724 21.0777 44.4056 21.0661 44.4418C21.0544 44.4779 21.0508 44.5162 21.0554 44.5539V44.9787H20.946V44.1688H21.0459V44.3162C21.0764 44.2655 21.1201 44.224 21.1723 44.1961C21.2244 44.1682 21.2832 44.1549 21.3423 44.1577C21.4022 44.1528 21.4621 44.1667 21.5138 44.1974C21.5654 44.228 21.6063 44.274 21.6307 44.3289C21.6634 44.2745 21.71 44.23 21.7658 44.1999C21.8216 44.1697 21.8844 44.1552 21.9477 44.1577C21.9939 44.1526 22.0405 44.1582 22.0842 44.1739C22.1278 44.1897 22.1673 44.2152 22.1996 44.2486C22.2318 44.2819 22.256 44.3222 22.2704 44.3663C22.2847 44.4104 22.2887 44.4573 22.2821 44.5032Z" fill="#263238"/>
<path d="M23.1902 44.4716V44.974H23.0856V44.8472C23.0554 44.8926 23.0136 44.929 22.9645 44.9527C22.9155 44.9764 22.8609 44.9865 22.8066 44.9819C22.6228 44.9819 22.5103 44.8868 22.5103 44.7458C22.5103 44.6047 22.5911 44.516 22.8272 44.516H23.084V44.4668C23.084 44.3289 23.0048 44.2529 22.8542 44.2529C22.7559 44.2514 22.6603 44.2851 22.5847 44.348L22.5356 44.2671C22.6293 44.1931 22.746 44.1544 22.8653 44.1578C22.9083 44.1521 22.9521 44.1562 22.9934 44.1698C23.0346 44.1834 23.0722 44.2061 23.1035 44.2362C23.1347 44.2664 23.1587 44.3032 23.1737 44.344C23.1888 44.3847 23.1944 44.4284 23.1902 44.4716ZM23.0808 44.7299V44.5984H22.8272C22.6687 44.5984 22.618 44.6602 22.618 44.7426C22.618 44.825 22.6941 44.9011 22.8241 44.9011C22.8795 44.9037 22.9344 44.8885 22.9806 44.8577C23.0268 44.8269 23.0619 44.7821 23.0808 44.7299Z" fill="#263238"/>
<path d="M23.4629 43.9073C23.4666 43.889 23.4765 43.8725 23.4909 43.8607C23.5054 43.8489 23.5235 43.8424 23.5421 43.8424C23.5608 43.8424 23.5789 43.8489 23.5934 43.8607C23.6078 43.8725 23.6177 43.889 23.6214 43.9073C23.6237 43.919 23.6235 43.9312 23.6206 43.9428C23.6177 43.9544 23.6123 43.9652 23.6047 43.9745C23.5971 43.9837 23.5875 43.9912 23.5767 43.9963C23.5659 44.0014 23.5541 44.0041 23.5421 44.0041C23.5302 44.0041 23.5184 44.0014 23.5075 43.9963C23.4967 43.9912 23.4872 43.9837 23.4796 43.9745C23.472 43.9652 23.4666 43.9544 23.4637 43.9428C23.4608 43.9312 23.4605 43.919 23.4629 43.9073ZM23.4867 44.1641H23.596V44.974H23.4867V44.1641Z" fill="#263238"/>
<path d="M23.8987 43.8312H24.008V44.9739H23.8987V43.8312Z" fill="#263238"/>
<path d="M20.2535 51.0078C20.2535 51.2377 20.095 51.3755 19.8129 51.3755H19.5228V51.7163H19.4087V50.6385H19.8129C20.0839 50.6385 20.2535 50.7764 20.2535 51.0078ZM20.1393 51.0078C20.1393 50.8351 20.0252 50.7368 19.8097 50.7368H19.5228V51.2757H19.8097C20.0221 51.2757 20.1362 51.1774 20.1362 51.0078H20.1393Z" fill="#263238"/>
<path d="M21.0776 51.2091V51.7115H20.9715V51.5847C20.9417 51.6301 20.9001 51.6666 20.8513 51.6903C20.8025 51.714 20.7482 51.7241 20.6941 51.7195C20.5102 51.7195 20.3977 51.6244 20.3977 51.4833C20.3977 51.3423 20.477 51.2535 20.7147 51.2535H20.973V51.2091C20.973 51.0712 20.8938 50.9952 20.7432 50.9952C20.6447 50.994 20.5491 51.0283 20.4738 51.0918L20.4246 51.0094C20.5183 50.9354 20.635 50.8967 20.7543 50.9001C20.7968 50.8947 20.84 50.899 20.8806 50.9124C20.9213 50.9258 20.9584 50.9482 20.9894 50.9778C21.0204 51.0074 21.0443 51.0435 21.0596 51.0835C21.0749 51.1235 21.081 51.1664 21.0776 51.2091ZM20.9683 51.469V51.3359H20.7131C20.5546 51.3359 20.5055 51.3977 20.5055 51.4801C20.5055 51.5626 20.5816 51.6386 20.7099 51.6386C20.7649 51.6418 20.8194 51.6276 20.8658 51.598C20.9122 51.5684 20.948 51.525 20.9683 51.4738V51.469Z" fill="#263238"/>
<path d="M21.2614 51.6243L21.3105 51.5372C21.3946 51.5973 21.4955 51.6295 21.5989 51.6291C21.7574 51.6291 21.8161 51.5768 21.8161 51.496C21.8161 51.2852 21.2899 51.4516 21.2899 51.1314C21.2899 50.9983 21.404 50.9 21.6069 50.9C21.7077 50.8979 21.8072 50.9242 21.8937 50.9761L21.8462 51.0633C21.7754 51.0163 21.6919 50.9919 21.6069 50.9935C21.4611 50.9935 21.3961 51.0506 21.3961 51.1283C21.3961 51.347 21.9223 51.1821 21.9223 51.4928C21.9223 51.6339 21.7986 51.7242 21.5878 51.7242C21.4711 51.7271 21.3565 51.692 21.2614 51.6243Z" fill="#263238"/>
<path d="M22.0144 51.6243L22.0635 51.5372C22.1477 51.5973 22.2486 51.6295 22.352 51.6291C22.5105 51.6291 22.5691 51.5768 22.5691 51.4959C22.5691 51.2851 22.0429 51.4516 22.0429 51.1314C22.0429 50.9983 22.157 50.9 22.3599 50.9C22.4608 50.898 22.5602 50.9244 22.6468 50.9761L22.5992 51.0633C22.5284 51.0162 22.4449 50.9919 22.3599 50.9935C22.2141 50.9935 22.1491 51.0506 22.1491 51.1282C22.1491 51.347 22.6753 51.1821 22.6753 51.4928C22.6753 51.6338 22.5517 51.7242 22.3409 51.7242C22.2241 51.727 22.1096 51.692 22.0144 51.6243Z" fill="#263238"/>
<path d="M24.0574 50.9065L23.7404 51.7164H23.6374L23.387 51.0507L23.1318 51.7148H23.0288L22.7229 50.9049H22.8291L23.0827 51.5928L23.3426 50.9049H23.4377L23.6961 51.5928L23.9528 50.9049L24.0574 50.9065Z" fill="#263238"/>
<path d="M24.1128 51.3106C24.1131 51.2292 24.1375 51.1497 24.183 51.0821C24.2284 51.0146 24.2929 50.962 24.3682 50.9311C24.4436 50.9001 24.5264 50.8922 24.6062 50.9083C24.686 50.9243 24.7593 50.9637 24.8168 51.0214C24.8742 51.0791 24.9133 51.1525 24.9291 51.2324C24.9449 51.3123 24.9366 51.3951 24.9054 51.4703C24.8742 51.5455 24.8213 51.6098 24.7536 51.655C24.6859 51.7002 24.6063 51.7243 24.5248 51.7243C24.47 51.7263 24.4154 51.717 24.3644 51.6969C24.3134 51.6768 24.2671 51.6464 24.2284 51.6075C24.1897 51.5687 24.1595 51.5223 24.1396 51.4712C24.1197 51.4201 24.1105 51.3654 24.1128 51.3106ZM24.826 51.3106C24.8229 51.2519 24.8026 51.1953 24.7677 51.1479C24.7328 51.1005 24.6847 51.0644 24.6295 51.044C24.5743 51.0236 24.5143 51.0199 24.457 51.0332C24.3996 51.0465 24.3475 51.0764 24.3069 51.1191C24.2664 51.1618 24.2392 51.2154 24.2288 51.2733C24.2185 51.3313 24.2253 51.391 24.2485 51.4451C24.2716 51.4992 24.3102 51.5453 24.3593 51.5778C24.4084 51.6102 24.466 51.6276 24.5248 51.6276C24.566 51.6284 24.6068 51.6206 24.6447 51.6047C24.6826 51.5888 24.7169 51.5652 24.7452 51.5354C24.7735 51.5056 24.7953 51.4702 24.8092 51.4315C24.8231 51.3928 24.8288 51.3517 24.826 51.3106Z" fill="#263238"/>
<path d="M25.5676 50.9001V51.0063H25.5407C25.502 51.0042 25.4633 51.0108 25.4274 51.0255C25.3916 51.0402 25.3594 51.0627 25.3333 51.0914C25.3072 51.1201 25.2878 51.1542 25.2766 51.1913C25.2653 51.2284 25.2624 51.2675 25.2681 51.3058V51.7179H25.1666V50.908H25.2712V51.0665C25.2986 51.0126 25.3414 50.968 25.3942 50.9383C25.4469 50.9087 25.5073 50.8954 25.5676 50.9001Z" fill="#263238"/>
<path d="M26.4949 50.5752V51.7179H26.3903V51.5594C26.3577 51.6135 26.3109 51.6577 26.2551 51.6873C26.1993 51.7169 26.1364 51.7308 26.0733 51.7274C25.964 51.7274 25.8592 51.684 25.782 51.6067C25.7047 51.5295 25.6613 51.4247 25.6613 51.3154C25.6613 51.2061 25.7047 51.1013 25.782 51.024C25.8592 50.9467 25.964 50.9033 26.0733 50.9033C26.1339 50.9008 26.1941 50.9141 26.248 50.9419C26.3019 50.9697 26.3477 51.011 26.3808 51.0618V50.5752H26.4949ZM26.3872 51.3122C26.3841 51.2533 26.3638 51.1967 26.3288 51.1493C26.2938 51.1018 26.2456 51.0657 26.1903 51.0454C26.135 51.0251 26.0749 51.0214 26.0176 51.0349C25.9602 51.0484 25.908 51.0784 25.8676 51.1212C25.8271 51.164 25.8001 51.2178 25.7899 51.2759C25.7796 51.3339 25.7867 51.3937 25.8101 51.4477C25.8335 51.5018 25.8723 51.5478 25.9216 51.5801C25.971 51.6123 26.0287 51.6294 26.0876 51.6292C26.1287 51.6297 26.1695 51.6217 26.2074 51.6057C26.2452 51.5896 26.2794 51.5658 26.3075 51.5359C26.3357 51.5059 26.3573 51.4704 26.371 51.4316C26.3848 51.3928 26.3902 51.3516 26.3872 51.3106V51.3122Z" fill="#263238"/>
<path d="M38.0049 36.9971H38.1174V37.9781H38.7229V38.0764H38.0049V36.9971Z" fill="#263238"/>
<path d="M39.4949 37.5786V38.0811H39.3903V37.9543C39.3601 37.9996 39.3183 38.0361 39.2692 38.0598C39.2202 38.0835 39.1656 38.0936 39.1113 38.089C38.9275 38.089 38.8149 37.9923 38.8149 37.8528C38.8149 37.7134 38.8958 37.623 39.1319 37.623H39.3887V37.5739C39.3887 37.436 39.3094 37.3599 39.1589 37.3599C39.0606 37.3585 38.965 37.3922 38.8894 37.455L38.8403 37.3742C38.934 37.3002 39.0507 37.2615 39.17 37.2648C39.213 37.2591 39.2568 37.2632 39.298 37.2768C39.3393 37.2904 39.3769 37.3131 39.4082 37.3433C39.4394 37.3735 39.4634 37.4103 39.4784 37.4511C39.4935 37.4918 39.4991 37.5354 39.4949 37.5786ZM39.3855 37.837V37.7054H39.1319C38.9734 37.7054 38.9227 37.7672 38.9227 37.8497C38.9227 37.9321 38.9988 38.0082 39.1288 38.0082C39.1848 38.0105 39.2401 37.9946 39.2864 37.9629C39.3327 37.9312 39.3674 37.8853 39.3855 37.8322V37.837Z" fill="#263238"/>
<path d="M39.6786 37.9844L39.7277 37.8973C39.812 37.9569 39.9129 37.9885 40.0162 37.9876C40.1747 37.9876 40.2333 37.9353 40.2333 37.856C40.2333 37.6453 39.7087 37.8117 39.7087 37.4899C39.7087 37.3584 39.8212 37.2601 40.0257 37.2601C40.1258 37.2582 40.2246 37.284 40.311 37.3346L40.2634 37.4234C40.1932 37.3764 40.1102 37.352 40.0257 37.3536C39.8783 37.3536 39.8149 37.4107 39.8149 37.4883C39.8149 37.7071 40.3395 37.5406 40.3395 37.8529C40.3395 37.9924 40.2159 38.0843 40.0051 38.0843C39.8885 38.0861 39.7742 38.0512 39.6786 37.9844Z" fill="#263238"/>
<path d="M40.9701 38.0271C40.9216 38.0657 40.861 38.086 40.799 38.0842C40.7671 38.0877 40.7348 38.084 40.7046 38.0734C40.6743 38.0628 40.6469 38.0455 40.6242 38.0228C40.6015 38.0001 40.5842 37.9727 40.5736 37.9424C40.563 37.9122 40.5593 37.8799 40.5628 37.848V37.3583H40.417V37.2616H40.5628V37.0841H40.6722V37.2616H40.9178V37.3535H40.6722V37.837C40.6695 37.8563 40.6712 37.8759 40.6771 37.8945C40.6831 37.913 40.6931 37.93 40.7065 37.9442C40.7199 37.9583 40.7363 37.9693 40.7545 37.9762C40.7727 37.9832 40.7922 37.986 40.8116 37.9843C40.8555 37.9858 40.8983 37.9712 40.9321 37.9431L40.9701 38.0271Z" fill="#263238"/>
<path d="M42.3173 37.6056V38.0811H42.2079V37.6214C42.2132 37.5875 42.2106 37.5529 42.2004 37.5202C42.1902 37.4874 42.1727 37.4575 42.1491 37.4325C42.1256 37.4076 42.0966 37.3884 42.0645 37.3764C42.0324 37.3643 41.998 37.3598 41.9639 37.3631C41.9251 37.3603 41.8863 37.3661 41.85 37.38C41.8138 37.3939 41.781 37.4156 41.7541 37.4436C41.7272 37.4716 41.7067 37.5051 41.6942 37.5419C41.6817 37.5786 41.6775 37.6177 41.6817 37.6563V38.0811H41.5724V37.2617H41.677V37.4201C41.7094 37.3687 41.7551 37.3269 41.8091 37.299C41.8632 37.2711 41.9237 37.2582 41.9845 37.2617C42.0298 37.2592 42.0751 37.2665 42.1173 37.2831C42.1596 37.2997 42.1977 37.3251 42.2293 37.3577C42.2608 37.3903 42.285 37.4293 42.3002 37.4721C42.3154 37.5149 42.3212 37.5604 42.3173 37.6056Z" fill="#263238"/>
<path d="M43.2255 37.5786V38.0811H43.1209V37.9543C43.0908 37.9998 43.049 38.0363 42.9999 38.06C42.9508 38.0837 42.8962 38.0937 42.8419 38.089C42.6581 38.089 42.5455 37.9923 42.5455 37.8528C42.5455 37.7134 42.6264 37.623 42.8625 37.623H43.1193V37.5739C43.1193 37.436 43.04 37.3599 42.8895 37.3599C42.7912 37.3585 42.6956 37.3922 42.62 37.455L42.5709 37.3742C42.6647 37.3004 42.7813 37.2617 42.9006 37.2648C42.9436 37.2591 42.9874 37.2632 43.0286 37.2768C43.0699 37.2904 43.1075 37.3131 43.1388 37.3433C43.17 37.3735 43.194 37.4103 43.209 37.4511C43.224 37.4918 43.2297 37.5354 43.2255 37.5786ZM43.1161 37.837V37.7054H42.8625C42.704 37.7054 42.6533 37.7672 42.6533 37.8497C42.6533 37.9321 42.7294 38.0082 42.8594 38.0082C42.9154 38.0105 42.9707 37.9946 43.017 37.9629C43.0633 37.9312 43.098 37.8853 43.1161 37.8322V37.837Z" fill="#263238"/>
<path d="M44.8595 37.6057V38.0812H44.7502V37.6215C44.7502 37.4504 44.6646 37.3632 44.5172 37.3632C44.4791 37.3612 44.4411 37.3677 44.4059 37.3821C44.3706 37.3964 44.3389 37.4184 44.313 37.4463C44.2872 37.4743 44.2678 37.5076 44.2562 37.5439C44.2447 37.5802 44.2412 37.6186 44.2462 37.6564V38.0812H44.1368V37.6215C44.1368 37.4504 44.0512 37.3632 43.9022 37.3632C43.8643 37.3615 43.8264 37.3682 43.7912 37.3826C43.7561 37.3971 43.7245 37.419 43.6987 37.4469C43.6729 37.4749 43.6535 37.508 43.6419 37.5442C43.6302 37.5804 43.6266 37.6187 43.6312 37.6564V38.0812H43.5219V37.2618H43.6265V37.4202C43.6571 37.3693 43.701 37.3277 43.7535 37.2997C43.806 37.2718 43.8651 37.2587 43.9244 37.2618C43.9843 37.2571 44.0441 37.2711 44.0957 37.3017C44.1474 37.3324 44.1883 37.3782 44.2129 37.4329C44.2453 37.3784 44.2919 37.3336 44.3477 37.3035C44.4035 37.2733 44.4665 37.2589 44.5299 37.2618C44.5754 37.2578 44.6212 37.2641 44.664 37.2803C44.7068 37.2964 44.7454 37.3219 44.777 37.3548C44.8086 37.3878 44.8324 37.4275 44.8467 37.4709C44.861 37.5143 44.8654 37.5604 44.8595 37.6057Z" fill="#263238"/>
<path d="M45.8644 37.7056H45.1861C45.1914 37.7846 45.2276 37.8584 45.287 37.9109C45.3463 37.9634 45.4239 37.9904 45.5031 37.9861C45.5498 37.9879 45.5964 37.9792 45.6394 37.9609C45.6824 37.9425 45.7208 37.9149 45.7519 37.8799L45.8137 37.9512C45.7556 38.0126 45.6807 38.0554 45.5984 38.0743C45.516 38.0931 45.4299 38.0872 45.3509 38.0572C45.2719 38.0272 45.2036 37.9745 45.1545 37.9057C45.1054 37.8369 45.0778 37.7551 45.0751 37.6707C45.0723 37.6172 45.0805 37.5638 45.0992 37.5137C45.1179 37.4635 45.1468 37.4178 45.184 37.3793C45.2211 37.3407 45.2658 37.3103 45.3153 37.2898C45.3647 37.2693 45.4179 37.2593 45.4714 37.2602C45.5247 37.2592 45.5778 37.2693 45.627 37.2898C45.6763 37.3103 45.7208 37.3408 45.7578 37.3794C45.7947 37.418 45.8232 37.4638 45.8416 37.5139C45.8599 37.564 45.8677 37.6174 45.8644 37.6707C45.866 37.6802 45.8644 37.6929 45.8644 37.7056ZM45.1861 37.6231H45.7614C45.756 37.5505 45.7234 37.4827 45.67 37.4331C45.6167 37.3836 45.5466 37.3561 45.4737 37.3561C45.4009 37.3561 45.3308 37.3836 45.2775 37.4331C45.2241 37.4827 45.1915 37.5505 45.1861 37.6231Z" fill="#263238"/>
<path d="M17.7178 50.4832C17.7102 50.4493 17.7054 50.4148 17.7035 50.3802C17.7045 50.2964 17.6849 50.2137 17.6465 50.1393C17.6162 50.086 17.5743 50.0403 17.5237 50.0057C17.4732 49.9711 17.4154 49.9485 17.3548 49.9396C17.2817 49.9298 17.2072 49.941 17.1402 49.9718C17.0731 50.0027 17.0162 50.052 16.976 50.1139C16.9411 50.1669 16.9203 50.2281 16.9158 50.2914C16.9158 50.358 16.9158 50.4214 16.9158 50.4848L16.8778 50.4452C17.1603 50.4436 17.4428 50.4563 17.7241 50.4832C17.4431 50.5142 17.1604 50.5274 16.8778 50.5228H16.8381V50.4832C16.8381 50.4198 16.8381 50.358 16.8381 50.2851C16.8424 50.2082 16.8671 50.1338 16.9095 50.0695C16.9578 49.9943 17.027 49.9349 17.1087 49.8985C17.1904 49.8622 17.2809 49.8506 17.3691 49.8651C17.4401 49.8766 17.5073 49.9051 17.565 49.9481C17.6227 49.9911 17.6691 50.0475 17.7003 50.1123C17.7411 50.1987 17.7539 50.2957 17.7368 50.3897C17.7305 50.4578 17.7178 50.4879 17.7178 50.4832Z" fill="#C1C1C1"/>
<path d="M17.4434 51.5134C17.4137 51.4535 17.3883 51.3915 17.3673 51.328V51.3106L17.3848 51.2979C17.41 51.2781 17.4272 51.2498 17.433 51.2183C17.4388 51.1868 17.433 51.1542 17.4165 51.1267C17.4082 51.1095 17.396 51.0945 17.3809 51.0828C17.3657 51.0712 17.348 51.0633 17.3293 51.0597C17.3105 51.0562 17.2912 51.057 17.2728 51.0623C17.2545 51.0676 17.2376 51.0771 17.2236 51.0901C17.2096 51.103 17.1988 51.1191 17.1921 51.137C17.1855 51.1549 17.1831 51.1741 17.1852 51.1931C17.1873 51.2121 17.1939 51.2303 17.2043 51.2463C17.2147 51.2623 17.2288 51.2756 17.2453 51.2852L17.2707 51.2995L17.2627 51.3264L17.2152 51.515L17.1851 51.477C17.2734 51.4811 17.3613 51.4912 17.4482 51.5071C17.3627 51.5314 17.2739 51.5421 17.1851 51.5388H17.147V51.4976C17.1597 51.4342 17.1708 51.3708 17.1819 51.3058L17.1993 51.347C17.1741 51.3316 17.1526 51.3108 17.1364 51.2861C17.1202 51.2614 17.1097 51.2335 17.1056 51.2042C17.1015 51.1749 17.1039 51.1451 17.1127 51.1169C17.1216 51.0887 17.1365 51.0628 17.1566 51.0411C17.1785 51.0167 17.2063 50.9982 17.2374 50.9874C17.2684 50.9766 17.3017 50.9738 17.3341 50.9793C17.3638 50.9841 17.3921 50.9956 17.4168 51.0129C17.4415 51.0302 17.462 51.0528 17.4767 51.0792C17.5006 51.1222 17.5069 51.1729 17.4942 51.2205C17.4814 51.2681 17.4508 51.3089 17.4086 51.3343L17.4212 51.3042C17.4416 51.372 17.4491 51.4429 17.4434 51.5134Z" fill="#C1C1C1"/>
<path d="M17.8365 50.4848C17.8595 50.4803 17.8832 50.4803 17.9062 50.4848C17.9638 50.5022 18.0152 50.5356 18.0544 50.581C18.0937 50.6265 18.1193 50.6822 18.1281 50.7416C18.1281 50.7971 18.1281 50.851 18.1281 50.9128C18.1281 51.038 18.1281 51.1759 18.1281 51.328C18.1281 51.4057 18.1281 51.4865 18.1281 51.5689C18.1342 51.6594 18.131 51.7502 18.1186 51.84C18.1047 51.8903 18.0793 51.9367 18.0444 51.9755C18.0094 52.0143 17.9659 52.0444 17.9173 52.0634C17.8671 52.0836 17.8129 52.0923 17.7588 52.0888H17.6003H16.9664H16.7984C16.7497 52.0912 16.701 52.0832 16.6557 52.0653C16.6103 52.0475 16.5692 52.0202 16.5352 51.9853C16.5012 51.9504 16.475 51.9086 16.4583 51.8628C16.4417 51.817 16.4349 51.7681 16.4386 51.7195C16.4386 51.4754 16.4386 51.244 16.4386 51.0063V50.8367C16.4337 50.7761 16.4412 50.7152 16.4608 50.6576C16.4822 50.6006 16.5185 50.5505 16.5659 50.5123C16.6133 50.4741 16.67 50.4493 16.7302 50.4405L16.6985 50.4769C16.6985 50.4008 16.6985 50.3327 16.6985 50.255C16.7059 50.1806 16.7279 50.1084 16.7635 50.0426C16.8382 49.9163 16.9584 49.8233 17.0995 49.7827C17.2058 49.7443 17.3212 49.7388 17.4307 49.7671C17.5401 49.7954 17.6385 49.8561 17.7129 49.9412C17.7611 49.9944 17.7981 50.0568 17.8218 50.1246C17.8455 50.1924 17.8553 50.2642 17.8508 50.3359C17.8493 50.3858 17.8445 50.4355 17.8365 50.4848C17.8287 50.4361 17.8255 50.3868 17.827 50.3374C17.8262 50.2011 17.7735 50.0702 17.6796 49.9713C17.6235 49.9123 17.5543 49.8674 17.4775 49.8405C17.4007 49.8135 17.3186 49.8051 17.2379 49.8161C17.1572 49.8271 17.0804 49.8571 17.0136 49.9037C16.9468 49.9502 16.8921 50.012 16.8538 50.0839C16.8233 50.142 16.8045 50.2055 16.7984 50.2709C16.7984 50.3359 16.7984 50.4151 16.7984 50.488V50.5197H16.7667C16.7202 50.5271 16.6764 50.5467 16.64 50.5765C16.6035 50.6063 16.5756 50.6452 16.559 50.6893C16.5436 50.7406 16.5382 50.7944 16.5432 50.8478V51.0174C16.5432 51.2472 16.5432 51.4929 16.5432 51.7306C16.5388 51.7816 16.5491 51.8328 16.573 51.878C16.5969 51.9233 16.6333 51.9607 16.6779 51.9858C16.7219 52.0088 16.7709 52.0203 16.8206 52.0191H17.6257C17.72 52.028 17.8151 52.0227 17.9078 52.0032C17.9461 51.9882 17.9803 51.9645 18.0078 51.934C18.0354 51.9034 18.0554 51.8669 18.0663 51.8273C18.0779 51.7438 18.0821 51.6595 18.079 51.5753C18.079 51.4929 18.079 51.4168 18.079 51.3344C18.079 51.1759 18.079 51.0443 18.079 50.9191C18.079 50.8589 18.079 50.7987 18.079 50.7511C18.0749 50.7066 18.0602 50.6636 18.0362 50.6259C17.9882 50.5569 17.9176 50.507 17.8365 50.4848Z" fill="#C1C1C1"/>
<path d="M18.5291 45.2134C18.5244 45.1728 18.5218 45.1321 18.5212 45.0913C18.5212 45.0057 18.5212 44.8948 18.5101 44.7601C18.5022 44.4684 18.4927 44.0675 18.48 43.584L18.5133 43.6173L16.0978 43.649L16.1327 43.6015V43.8139C16.1327 43.8852 16.1327 43.9565 16.1327 44.0278C16.1327 44.1689 16.1327 44.3084 16.1327 44.4447C16.1327 44.7157 16.1327 44.9788 16.1327 45.226L16.0947 45.1896C16.7984 45.1896 17.3975 45.1896 17.8238 45.1896H18.3247C18.3866 45.1881 18.4485 45.1907 18.5101 45.1975C18.4544 45.2051 18.3983 45.2083 18.3421 45.207L17.8492 45.2229C17.4244 45.234 16.8158 45.2482 16.0947 45.2577H16.0582V45.2197C16.0582 44.9709 16.0582 44.7094 16.0487 44.4367C16.0487 44.3004 16.0487 44.161 16.0487 44.0199C16.0487 43.9502 16.0487 43.8788 16.0487 43.8075V43.5936L16.0899 43.5508L18.5054 43.5349H18.5386V43.5682C18.5386 44.0595 18.5386 44.4669 18.5386 44.7648C18.5386 44.8964 18.5386 45.0041 18.5386 45.0818C18.5414 45.1259 18.5382 45.1701 18.5291 45.2134Z" fill="#C1C1C1"/>
<path d="M18.5099 43.584C18.4086 43.6885 18.2965 43.782 18.1755 43.8629C17.9631 44.0214 17.6667 44.2481 17.3355 44.4874H17.28L17.2642 44.4763L17.2325 44.4541L17.1707 44.4113L17.0502 44.3273L16.8236 44.1688L16.4416 43.893C16.3202 43.8131 16.2066 43.7218 16.1024 43.6204C16.2335 43.6833 16.3582 43.7587 16.4749 43.8455L16.8664 44.107L17.0962 44.2655L17.2182 44.3495L17.28 44.3923L17.3101 44.4129L17.326 44.424H17.3339H17.2895C17.6208 44.1847 17.9235 43.9707 18.1454 43.8186C18.2596 43.7295 18.3816 43.651 18.5099 43.584Z" fill="#C1C1C1"/>
<path d="M16.1613 45.2355C16.2608 45.0419 16.385 44.8618 16.5305 44.6998C16.6549 44.5201 16.8014 44.3566 16.9664 44.2133C16.8668 44.4078 16.7421 44.5884 16.5955 44.7506C16.4717 44.9298 16.3258 45.0927 16.1613 45.2355Z" fill="#C1C1C1"/>
<path d="M17.754 44.2133C17.9139 44.353 18.0551 44.5128 18.174 44.6887C18.3148 44.8479 18.4342 45.0248 18.5291 45.2149C18.369 45.0754 18.2278 44.9155 18.1091 44.7395C17.968 44.5805 17.8486 44.4035 17.754 44.2133Z" fill="#C1C1C1"/>
<path d="M48.001 56.0416H15.0866C14.8538 56.0416 14.665 56.2304 14.665 56.4632V60.7663C14.665 60.9992 14.8538 61.1879 15.0866 61.1879H48.001C48.2338 61.1879 48.4226 60.9992 48.4226 60.7663V56.4632C48.4226 56.2304 48.2338 56.0416 48.001 56.0416Z" fill="#C1C1C1"/>
<g opacity="0.3">
<path opacity="0.3" d="M48.001 56.0416H15.0866C14.8538 56.0416 14.665 56.2304 14.665 56.4632V60.7663C14.665 60.9992 14.8538 61.1879 15.0866 61.1879H48.001C48.2338 61.1879 48.4226 60.9992 48.4226 60.7663V56.4632C48.4226 56.2304 48.2338 56.0416 48.001 56.0416Z" fill="black"/>
</g>
<path d="M48.001 55.3252H15.0866C14.8538 55.3252 14.665 55.5139 14.665 55.7468V60.0499C14.665 60.2827 14.8538 60.4715 15.0866 60.4715H48.001C48.2338 60.4715 48.4226 60.2827 48.4226 60.0499V55.7468C48.4226 55.5139 48.2338 55.3252 48.001 55.3252Z" fill="#C1C1C1"/>
<path d="M28.6934 58.0086C28.6925 57.9343 28.7067 57.8605 28.7353 57.7919C28.7639 57.7233 28.8062 57.6613 28.8596 57.6096C28.9131 57.558 28.9765 57.5178 29.046 57.4915C29.1156 57.4653 29.1897 57.4536 29.264 57.457C29.3404 57.454 29.4167 57.4674 29.4875 57.4964C29.5583 57.5254 29.6221 57.5692 29.6745 57.625L29.5746 57.7217C29.5173 57.661 29.4431 57.6189 29.3616 57.6008C29.2802 57.5828 29.1951 57.5896 29.1175 57.6204C29.04 57.6512 28.9734 57.7046 28.9266 57.7737C28.8797 57.8428 28.8546 57.9243 28.8546 58.0078C28.8546 58.0912 28.8797 58.1728 28.9266 58.2419C28.9734 58.3109 29.04 58.3643 29.1175 58.3952C29.1951 58.426 29.2802 58.4328 29.3616 58.4147C29.4431 58.3967 29.5173 58.3546 29.5746 58.2939L29.6745 58.3905C29.622 58.4467 29.558 58.491 29.4869 58.5202C29.4158 58.5495 29.3392 58.5631 29.2624 58.5601C29.1883 58.5634 29.1143 58.5514 29.0449 58.5251C28.9756 58.4988 28.9124 58.4585 28.8591 58.4069C28.8058 58.3553 28.7637 58.2933 28.7352 58.2248C28.7067 58.1563 28.6925 58.0827 28.6934 58.0086Z" fill="white"/>
<path d="M30.6141 58.5474L30.3811 58.2161H30.3145H30.0467V58.5442H29.8882V57.4664H30.3098C30.5887 57.4664 30.7583 57.6075 30.7583 57.8421C30.7619 57.9169 30.7407 57.9909 30.698 58.0525C30.6553 58.1141 30.5935 58.1599 30.5222 58.1828L30.7773 58.5442L30.6141 58.5474ZM30.6141 57.8452C30.6141 57.6867 30.5111 57.6043 30.3145 57.6043H30.0514V58.0893H30.3145C30.5063 58.0893 30.6093 57.999 30.6093 57.8452H30.6141Z" fill="white"/>
<path d="M31.7948 58.4142V58.5474H31.0118V57.4696H31.7726V57.6043H31.1656V57.9356H31.7076V58.0655H31.1656V58.4142H31.7948Z" fill="white"/>
<path d="M32.7318 58.2779H32.1581L32.0392 58.5474H31.8807L32.3689 57.4696H32.5274L33.0171 58.5474H32.8586L32.7318 58.2779ZM32.678 58.1559L32.445 57.6265L32.212 58.1559H32.678Z" fill="white"/>
<path d="M33.3311 57.6043H32.9618V57.4696H33.8541V57.6043H33.4832V58.5474H33.3247L33.3311 57.6043Z" fill="white"/>
<path d="M34.8032 58.4142V58.5474H34.0203V57.4696H34.781V57.6043H34.174V57.9356H34.7145V58.0655H34.174V58.4142H34.8032Z" fill="white"/>
<path d="M26.7031 25.7776C31.0574 21.4232 31.0574 14.3634 26.7031 10.0091C22.3487 5.65469 15.2889 5.65469 10.9346 10.0091C6.5802 14.3634 6.5802 21.4232 10.9346 25.7776C15.2889 30.1319 22.3487 30.1319 26.7031 25.7776Z" fill="#E0E0E0"/>
<path d="M25.2071 2.8227C25.0121 3.06736 24.8932 3.36383 24.865 3.67541C24.8368 3.98698 24.9007 4.29998 25.0486 4.57564C25.1881 4.82606 25.4004 5.05112 25.4321 5.33483C25.4844 5.79604 25.0375 6.2113 25.1152 6.67093C25.1643 6.98791 25.4321 7.20505 25.578 7.48558C25.6681 7.66803 25.7044 7.87234 25.6828 8.07467C25.6612 8.277 25.5825 8.46902 25.4559 8.62832C25.253 8.87557 24.9345 9.03248 24.8029 9.3257C24.7047 9.54125 24.7284 9.80118 24.6444 10.0183C24.5696 10.1883 24.452 10.3361 24.3031 10.4471C24.1543 10.5582 23.9792 10.6289 23.7949 10.6523C23.4243 10.6968 23.0488 10.6759 22.6855 10.5905L22.7663 10.1895C22.6975 10.296 22.6039 10.3841 22.4934 10.4462C22.383 10.5084 22.259 10.5427 22.1323 10.5461C21.8785 10.5512 21.6256 10.5137 21.3842 10.4352C21.2337 9.75521 21.0863 9.03724 21.2986 8.37473C21.492 7.7788 21.9485 7.31283 22.3288 6.81516C22.7512 6.26261 23.0893 5.65051 23.3321 4.99882C23.5064 4.53126 23.6317 4.04786 23.8757 3.60408C24.1198 3.16029 24.5097 2.77674 24.9979 2.68323" fill="#263238"/>
<path d="M32.4581 12.1881L30.2519 12.3466L30.2297 11.7792C30.2003 11.498 30.2673 11.2152 30.4199 10.9772C30.4443 10.9353 30.4619 10.8898 30.4722 10.8425C30.4881 10.6745 30.2408 9.83128 30.1552 9.52222C30.0474 9.15134 30.2582 8.95481 30.3407 9.10696C30.4896 9.38433 30.8843 10.5746 31.0079 10.6919C31.1315 10.8092 31.0602 10.1863 31.0602 10.1863C30.8669 8.87556 30.7829 8.68537 31.0158 8.63624C31.2837 8.57918 31.5785 10.5302 31.5785 10.5302C31.5785 10.5302 31.5389 10.2576 31.7481 10.2022C31.9573 10.1467 32.054 10.4145 32.054 10.4145C32.027 10.2766 32.2251 10.256 32.2251 10.256C32.7196 10.3242 32.4629 12.2055 32.4629 12.2055L30.2567 12.364L29.1995 19.7419L28.071 18.0127L25.1262 20.1143L27.781 23.2842C28.0116 23.5586 28.3018 23.7768 28.6294 23.9221C28.9571 24.0674 29.3136 24.136 29.6718 24.1227C30.2574 24.1014 30.814 23.862 31.2321 23.4514C31.6503 23.0409 31.8999 22.4889 31.9319 21.9037L32.4581 12.1881Z" fill="#EB996E"/>
<path d="M30.732 12.2087C30.7225 12.1976 30.8397 12.0946 30.9967 11.9012C31.0878 11.7881 31.1704 11.6683 31.2439 11.543C31.2879 11.469 31.3281 11.3928 31.3644 11.3148C31.4089 11.2419 31.435 11.1592 31.4404 11.0739C31.4398 11.0541 31.4335 11.0349 31.4223 11.0186C31.411 11.0023 31.3953 10.9896 31.377 10.982C31.3337 10.9747 31.2891 10.9819 31.2502 11.0026C31.1636 11.0433 31.0813 11.0927 31.0046 11.15C30.8806 11.2437 30.7734 11.3579 30.6876 11.4876L30.6622 11.524L30.6432 11.486C30.5978 11.4042 30.5389 11.3308 30.4689 11.2688C30.4689 11.2688 30.5893 11.2974 30.6923 11.4685H30.648C30.7292 11.3268 30.8368 11.202 30.965 11.1008C31.045 11.0387 31.1316 10.9855 31.2233 10.9423C31.2797 10.9125 31.3448 10.9035 31.4072 10.917C31.4406 10.9288 31.47 10.9501 31.4916 10.9782C31.5133 11.0063 31.5263 11.0401 31.5292 11.0755C31.5263 11.1774 31.4968 11.2769 31.4436 11.3639C31.405 11.4428 31.3622 11.5195 31.3152 11.5937C31.2369 11.721 31.1473 11.8409 31.0474 11.9519C30.9569 12.0541 30.8504 12.1409 30.732 12.2087Z" fill="#D1734A"/>
<path d="M31.6054 10.6348C31.6188 10.7697 31.6188 10.9056 31.6054 11.0405C31.6054 11.1737 31.5912 11.3211 31.5817 11.478C31.5754 11.5613 31.5754 11.645 31.5817 11.7284C31.5817 11.8061 31.6562 11.8726 31.7116 11.8409C31.7671 11.8092 31.7988 11.7141 31.8226 11.6301C31.8463 11.5461 31.8654 11.4621 31.8828 11.3813C31.9177 11.2228 31.943 11.0738 31.9668 10.9518C31.9824 10.817 32.0138 10.6846 32.0603 10.5571C32.0601 10.6927 32.0479 10.8279 32.0239 10.9613C32.008 11.0849 31.989 11.2323 31.9573 11.3971C31.943 11.478 31.924 11.5636 31.9002 11.6523C31.8927 11.7045 31.8747 11.7547 31.8475 11.7999C31.8203 11.845 31.7843 11.8843 31.7417 11.9154C31.7128 11.9286 31.6805 11.9329 31.6491 11.9275C31.6178 11.9221 31.5887 11.9074 31.5658 11.8853C31.5253 11.847 31.5005 11.7951 31.4961 11.7395C31.4911 11.6506 31.4942 11.5615 31.5056 11.4732C31.5214 11.3168 31.5357 11.171 31.5484 11.0358C31.5534 10.9005 31.5726 10.7661 31.6054 10.6348Z" fill="#D1734A"/>
<path d="M31.9826 11.1974C31.9953 11.1974 31.9636 11.2894 31.9731 11.432C31.976 11.5107 31.9995 11.5872 32.0413 11.6539C32.0682 11.6808 32.0872 11.6824 32.1126 11.6539C32.1411 11.6108 32.1655 11.5652 32.1855 11.5176C32.2861 11.2675 32.3651 11.0093 32.4217 10.7457C32.4464 11.0242 32.3914 11.304 32.2632 11.5525C32.2404 11.6079 32.2123 11.661 32.1792 11.711C32.1675 11.726 32.1526 11.7382 32.1356 11.7467C32.1186 11.7552 32.0999 11.7598 32.0809 11.7601C32.0628 11.7594 32.0451 11.7548 32.0289 11.7466C32.0128 11.7384 31.9986 11.7268 31.9874 11.7125C31.9557 11.6703 31.9355 11.6206 31.9287 11.5683C31.9205 11.5266 31.9168 11.4841 31.9176 11.4415C31.9129 11.2767 31.9684 11.1927 31.9826 11.1974Z" fill="#D1734A"/>
<path d="M22.6915 25.0672L22.8975 28.2751C16.6228 30.6795 11.9615 26.6902 11.9615 26.6902L12.8998 23.8199L13.0583 18.8083L11.8537 20.1444L11.2847 19.6689L8.41439 17.2788L7.79785 16.7637L10.7823 13.6144C14.556 9.55225 17.4929 10.7933 17.4929 10.7933L21.9054 11.2069C21.9054 11.2069 24.958 11.6396 26.4351 14.315C27.6381 16.4927 28.9472 18.7988 28.9472 18.7988L25.1656 21.4932L23.9626 19.2838L22.6915 25.0672Z" fill="#455A64"/>
<path d="M7.66943 17.851C7.66943 18.0396 7.66943 18.2266 7.68053 18.4168C7.70656 19.161 7.80745 19.9007 7.98167 20.6247V20.6453C8.00386 20.7356 8.02921 20.8244 8.05457 20.9131C8.15284 21.2618 8.2828 21.5693 8.40643 21.9069C8.42228 21.9497 8.43813 21.9909 8.45556 22.0337C8.85497 21.9291 9.91529 20.9242 11.2102 19.6135L8.33669 17.217C7.9674 17.6196 7.79306 17.8035 7.66943 17.851Z" fill="#EB996E"/>
<path d="M21.5045 11.6238C21.663 10.5302 21.8421 9.38268 21.8421 9.38268C21.8421 9.38268 23.2828 9.34305 23.828 7.54574C24.3479 5.83084 24.6205 1.74328 24.6205 1.74328C23.6762 1.20379 22.5895 0.965972 21.5062 1.06173C20.4229 1.15748 19.3947 1.58223 18.5597 2.27899L17.4503 11.1784C17.3219 12.2102 18.108 13.1437 19.2159 13.2737C20.3333 13.4037 21.3635 12.6651 21.5045 11.6238Z" fill="#EB996E"/>
<path d="M23.6601 4.83245C23.6522 4.894 23.6207 4.95007 23.5722 4.98881C23.5237 5.02754 23.462 5.04593 23.4002 5.04007C23.3698 5.03828 23.34 5.03041 23.3127 5.01693C23.2854 5.00345 23.261 4.98463 23.2411 4.96159C23.2211 4.93854 23.206 4.91174 23.1966 4.88275C23.1872 4.85377 23.1837 4.82319 23.1863 4.79282C23.1946 4.73155 23.2263 4.67588 23.2747 4.63747C23.3232 4.59906 23.3846 4.5809 23.4462 4.58678C23.4765 4.58858 23.5061 4.5964 23.5333 4.60978C23.5605 4.62317 23.5848 4.64184 23.6047 4.66471C23.6246 4.68758 23.6398 4.7142 23.6493 4.743C23.6588 4.7718 23.6625 4.80221 23.6601 4.83245Z" fill="#263238"/>
<path d="M24.0785 4.62152C24.0452 4.64847 23.8851 4.49156 23.6315 4.46303C23.3779 4.4345 23.1735 4.53118 23.1561 4.49631C23.1386 4.46144 23.1814 4.42816 23.2702 4.38061C23.3906 4.32003 23.5267 4.2979 23.6601 4.31721C23.7923 4.3353 23.9154 4.39465 24.0119 4.4868C24.0769 4.5502 24.0943 4.61201 24.0785 4.62152Z" fill="#263238"/>
<path d="M21.0575 4.52017C21.0495 4.58161 21.0179 4.63752 20.9694 4.67601C20.9208 4.71449 20.8592 4.7325 20.7976 4.72621C20.7672 4.72462 20.7375 4.71694 20.7102 4.70363C20.6828 4.69032 20.6585 4.67165 20.6385 4.64873C20.6185 4.62581 20.6034 4.59911 20.594 4.57022C20.5845 4.54132 20.581 4.51083 20.5836 4.48054C20.5915 4.41899 20.6231 4.36292 20.6716 4.32418C20.7201 4.28545 20.7817 4.26706 20.8435 4.27292C20.8739 4.27492 20.9035 4.28293 20.9307 4.29648C20.958 4.31003 20.9822 4.32885 21.0022 4.35185C21.0221 4.37485 21.0372 4.40157 21.0467 4.43046C21.0562 4.45935 21.0599 4.48985 21.0575 4.52017Z" fill="#263238"/>
<path d="M21.4189 4.34901C21.3857 4.37595 21.2256 4.21904 20.972 4.19051C20.7184 4.16198 20.5139 4.25708 20.4965 4.22221C20.4791 4.18734 20.5219 4.15564 20.6106 4.1081C20.7311 4.04761 20.8671 4.02549 21.0005 4.0447C21.1331 4.0616 21.2566 4.12112 21.3524 4.21429C21.4158 4.27768 21.4348 4.33791 21.4189 4.34901Z" fill="#263238"/>
<path d="M22.0798 6.35557C22.2196 6.3321 22.3618 6.32625 22.503 6.33814C22.568 6.33814 22.6314 6.33814 22.6488 6.29376C22.6625 6.22744 22.6564 6.15857 22.6314 6.09564C22.5918 5.93715 22.5506 5.75647 22.5078 5.57579C22.3382 4.83721 22.2256 4.23334 22.2558 4.22542C22.2859 4.2175 22.4475 4.81343 22.6155 5.55201C22.6567 5.73428 22.6948 5.90704 22.7312 6.07346C22.7614 6.15693 22.7614 6.24832 22.7312 6.3318C22.7187 6.3533 22.7016 6.37172 22.681 6.38571C22.6604 6.3997 22.637 6.4089 22.6124 6.41263C22.575 6.41742 22.5372 6.41742 22.4998 6.41263C22.358 6.41093 22.217 6.39176 22.0798 6.35557Z" fill="#263238"/>
<path d="M21.839 9.38267C20.9695 9.27795 20.1463 8.93331 19.4615 8.38733C19.4615 8.38733 19.8847 9.73136 21.747 9.81377L21.839 9.38267Z" fill="#D1734A"/>
<path d="M22.7155 1.17592C22.8343 1.46596 22.6473 1.80989 22.3826 1.96838C22.1034 2.1131 21.7977 2.19939 21.484 2.22197C21.1699 2.24665 20.8695 2.36108 20.6186 2.55164C20.1875 2.94312 20.3016 3.5026 19.8658 4.01137C19.7644 4.15433 19.625 4.26604 19.4633 4.33383C19.3017 4.40162 19.1243 4.42279 18.9513 4.39492C18.6026 4.34579 18.1509 4.42662 17.9749 4.82919C17.799 5.23177 18.0114 5.52815 18.2063 5.89744C18.4013 6.26673 18.349 6.64553 18.238 7.04969C18.1588 7.34132 17.9084 7.56955 17.8529 7.86752C17.7641 8.343 18.1699 8.87236 17.8957 9.26226C17.6215 9.65215 16.9257 9.4794 16.6198 9.84235C16.5089 9.97073 16.4455 10.1593 16.2822 10.2101C16.1807 10.2243 16.0773 10.2054 15.9874 10.1562L14.561 9.5523C14.5974 9.4049 14.6355 9.25592 14.6735 9.10852C14.5681 9.21666 14.4384 9.29814 14.2952 9.3462C14.1521 9.39427 13.9995 9.40755 13.8502 9.38493C13.7009 9.36232 13.5591 9.30446 13.4366 9.21615C13.314 9.12785 13.2143 9.01163 13.1456 8.87712C13.4445 8.70354 13.7212 8.49439 13.9698 8.25424C14.2152 8.0098 14.3643 7.68514 14.3898 7.33973C14.4041 6.92131 14.1774 6.49813 14.3042 6.10031C14.4865 5.53132 15.2552 5.38868 15.5944 4.90052C15.9113 4.44405 15.8052 3.78155 16.1332 3.32984C16.5152 2.80681 17.3219 2.78304 17.7594 2.30439C18.0558 1.9874 18.1239 1.51192 18.3395 1.12678C18.6186 0.674053 19.0548 0.340026 19.5646 0.1885C20.0711 0.0407096 20.5989 -0.0209044 21.1258 0.00623226C21.5213 -0.0123815 21.9154 0.0665398 22.2733 0.236048C22.6172 0.427825 22.8771 0.82089 22.7963 1.20761" fill="#263238"/>
<path d="M18.951 4.39973C18.7602 4.33035 18.5538 4.31553 18.355 4.35694C18.2557 4.3774 18.1614 4.41735 18.0776 4.47448C17.9938 4.53161 17.9222 4.60479 17.8669 4.68978C17.7654 4.86747 17.7349 5.07693 17.7813 5.2762C17.8289 5.47387 17.9198 5.65849 18.0476 5.81667C18.1294 5.9353 18.238 6.03302 18.3646 6.10196C18.4288 6.13664 18.5007 6.15479 18.5738 6.15479C18.6468 6.15479 18.7187 6.13664 18.783 6.10196" fill="#EB996E"/>
<path d="M18.6784 5.57579C18.7006 5.58688 18.5976 5.69466 18.4248 5.62016C18.3347 5.57586 18.2649 5.49873 18.2299 5.40461C18.19 5.29562 18.1722 5.17978 18.1776 5.06385C18.1797 4.94046 18.2258 4.82188 18.3075 4.72943C18.3421 4.6901 18.3852 4.65922 18.4336 4.63916C18.4819 4.6191 18.5342 4.6104 18.5865 4.61373C18.7719 4.63433 18.8115 4.77222 18.7909 4.77222C18.7703 4.77222 18.7117 4.71041 18.5865 4.72151C18.5089 4.74011 18.4404 4.78572 18.3934 4.85019C18.3463 4.91466 18.3238 4.99377 18.3297 5.07336C18.3297 5.2794 18.3757 5.47435 18.4771 5.53616C18.5786 5.59798 18.6689 5.56311 18.6784 5.57579Z" fill="#D1734A"/>
<path d="M22.7216 1.28366C22.6494 1.48187 22.6478 1.69893 22.7171 1.89818C22.7864 2.09742 22.9224 2.26665 23.102 2.37727C23.308 2.49614 23.5616 2.53576 23.736 2.69425C23.8982 2.87038 23.9926 3.09845 24.0022 3.33774C24.0104 3.57449 24.0548 3.8086 24.1338 4.03194C24.1772 4.14213 24.2548 4.23547 24.3553 4.29824C24.4557 4.36101 24.5736 4.38989 24.6917 4.38063L25.0895 3.20619C25.2353 2.77508 25.3827 2.31387 25.2781 1.8685C25.1291 1.23453 24.5015 0.819273 23.8739 0.646515C23.5863 0.544372 23.272 0.547179 22.9863 0.654439C22.7137 0.782819 22.5283 1.12992 22.6693 1.39936" fill="#263238"/>
<path d="M15.071 9.74253C15.071 9.74253 15.1091 9.71401 15.1646 9.64268C15.24 9.5363 15.2849 9.41136 15.2945 9.28132C15.3015 9.07359 15.2898 8.86566 15.2597 8.66002C15.2461 8.52673 15.259 8.39207 15.2977 8.26379C15.3431 8.12011 15.4193 7.98811 15.5212 7.87706C15.7288 7.64091 16.0188 7.45706 16.2693 7.20505C16.4018 7.0801 16.5005 6.9236 16.5561 6.75017C16.6028 6.56286 16.6082 6.36763 16.572 6.17801C16.5419 5.97831 16.4911 5.77544 16.4658 5.56147C16.434 5.33926 16.4557 5.11266 16.5292 4.90055C16.6087 4.67799 16.7435 4.47931 16.921 4.32321C17.0984 4.16711 17.3127 4.05872 17.5435 4.00823C18.0095 3.90521 18.4945 3.96861 18.8749 3.77208C19.06 3.6718 19.2066 3.51293 19.2917 3.32037C19.3734 3.1313 19.4407 2.93632 19.493 2.73711C19.5446 2.5418 19.623 2.35458 19.726 2.1808C19.8324 2.01699 19.9861 1.88932 20.1666 1.81468C20.4897 1.70585 20.8328 1.66959 21.1715 1.70849C21.4449 1.73528 21.7208 1.71924 21.9893 1.66094C22.1898 1.61338 22.3748 1.51516 22.5266 1.37566C22.6125 1.27751 22.6676 1.15624 22.6851 1.02697C22.7009 0.939798 22.7009 0.890664 22.7057 0.892249C22.7106 0.938082 22.7106 0.984307 22.7057 1.03014C22.6922 1.16617 22.6369 1.29467 22.5472 1.39784C22.3942 1.54707 22.2045 1.65316 21.9972 1.70532C21.7248 1.76952 21.4439 1.78986 21.1651 1.76555C20.8354 1.7311 20.5021 1.76951 20.1888 1.87808C20.022 1.94839 19.8804 2.06779 19.7831 2.22043C19.6847 2.38902 19.6101 2.57035 19.5612 2.7593C19.5085 2.96274 19.4407 3.16195 19.3583 3.35524C19.3117 3.45636 19.2508 3.55029 19.1776 3.63419C19.1005 3.71894 19.0094 3.78972 18.9082 3.8434C18.4866 4.0542 18.0032 3.98763 17.5562 4.08907C17.3404 4.13829 17.1405 4.24104 16.9749 4.38784C16.8092 4.53464 16.6832 4.72078 16.6084 4.92908C16.5384 5.12935 16.5172 5.34344 16.5466 5.55355C16.5704 5.76117 16.6195 5.96405 16.6496 6.1685C16.6873 6.36885 16.6803 6.57505 16.629 6.77236C16.5679 6.95405 16.4622 7.11752 16.3216 7.24784C16.06 7.50619 15.77 7.68529 15.5671 7.91035C15.4737 8.00845 15.4024 8.12538 15.3578 8.2533C15.3132 8.38123 15.2965 8.51719 15.3088 8.6521C15.3365 8.86223 15.3434 9.07458 15.3294 9.28607C15.3158 9.42055 15.2648 9.54851 15.182 9.65536C15.1508 9.69117 15.1132 9.72075 15.071 9.74253Z" fill="#455A64"/>
<path d="M23.5664 10.6649C23.5929 10.6385 23.6177 10.6104 23.6408 10.5809C23.6994 10.4911 23.7323 10.387 23.7359 10.2798C23.7486 10.1403 23.7122 9.9628 23.7217 9.7631C23.7495 9.52872 23.8466 9.30797 24.0006 9.12912C24.148 8.92467 24.3446 8.71229 24.3969 8.427C24.4492 8.14171 24.3271 7.83581 24.2669 7.50298C24.2319 7.3279 24.2389 7.14701 24.2875 6.9752C24.3464 6.80388 24.4291 6.64169 24.5332 6.49337C24.6346 6.33488 24.7471 6.19224 24.8343 6.03057C24.9293 5.8719 24.9837 5.69226 24.9928 5.50754C24.9853 5.32291 24.9242 5.14447 24.8169 4.99402C24.7083 4.83912 24.6204 4.67076 24.5554 4.49319C24.4476 4.12389 24.5316 3.76253 24.5554 3.43445C24.5727 3.27621 24.5695 3.11639 24.5458 2.95897C24.5226 2.81133 24.4639 2.67154 24.3747 2.55164C24.1958 2.34642 23.9761 2.18071 23.7296 2.06506C23.522 1.96607 23.3246 1.84717 23.14 1.71004C22.9981 1.60577 22.8789 1.47364 22.7897 1.32173C22.7347 1.22464 22.7027 1.11618 22.6962 1.00474C22.6933 0.966519 22.696 0.928074 22.7041 0.890625C22.7041 0.890625 22.7041 0.930248 22.7137 1.00316C22.7259 1.11001 22.7617 1.21284 22.8183 1.30429C22.9086 1.44803 23.0259 1.5729 23.1638 1.672C23.3488 1.8035 23.5457 1.91758 23.7518 2.01276C24.0091 2.12821 24.2388 2.29735 24.4254 2.50884C24.5238 2.63516 24.5897 2.78376 24.6172 2.94153C24.6434 3.10611 24.6482 3.27339 24.6314 3.4392C24.6092 3.77362 24.5316 4.12865 24.6314 4.46783C24.6952 4.63654 24.7805 4.79634 24.885 4.94331C25.0014 5.10608 25.067 5.29964 25.0736 5.49962C25.0646 5.69833 25.0063 5.89168 24.904 6.06227C24.8121 6.23028 24.6996 6.37926 24.5997 6.53775C24.4976 6.68076 24.4164 6.83768 24.3588 7.00372C24.312 7.16333 24.3044 7.33188 24.3366 7.49505C24.3905 7.81204 24.5189 8.12903 24.4587 8.44602C24.428 8.59125 24.3681 8.72875 24.2827 8.85017C24.2035 8.96746 24.1243 9.07048 24.0434 9.16716C23.8939 9.33487 23.7964 9.54249 23.7629 9.76468C23.7486 9.96122 23.7803 10.1371 23.7629 10.2814C23.7553 10.3927 23.7157 10.4995 23.6488 10.5889C23.6277 10.6203 23.5994 10.6464 23.5664 10.6649Z" fill="#455A64"/>
<path d="M13.4531 8.99922C13.4531 8.99922 13.5054 8.99922 13.6037 9.01032C13.7473 9.01335 13.89 8.9858 14.0221 8.92949C14.2339 8.84308 14.4164 8.69789 14.5483 8.51106C14.7164 8.26151 14.8144 7.9714 14.832 7.67105C14.8701 7.33821 14.7861 6.97684 14.7765 6.57269C14.7655 6.36085 14.8121 6.14999 14.9113 5.96248C15.043 5.7815 15.2143 5.63297 15.4121 5.52821C15.6093 5.42562 15.7698 5.26451 15.8717 5.067C15.9445 4.84461 15.9788 4.61146 15.9732 4.37755C15.9757 4.12527 16.0241 3.87556 16.1158 3.64055C16.1656 3.51859 16.2383 3.40724 16.3298 3.31247C16.4323 3.22177 16.5589 3.16285 16.6943 3.14288C16.9574 3.09692 17.2126 3.12386 17.4583 3.09692C17.6967 3.07974 17.9213 2.97867 18.0922 2.81163C18.2563 2.64507 18.3913 2.45221 18.4916 2.24105C18.5978 2.03501 18.6802 1.82263 18.7817 1.61976C18.8757 1.41999 18.9956 1.23348 19.1383 1.06503C19.2741 0.901622 19.4532 0.779698 19.655 0.713175C19.8461 0.658434 20.0487 0.658434 20.2398 0.713175C20.4111 0.76168 20.5781 0.824233 20.7391 0.900198C21.0045 1.04287 21.2942 1.13478 21.5934 1.17122C21.8205 1.1823 22.0474 1.14725 22.2606 1.0682C22.4427 1.00003 22.6132 0.904346 22.7662 0.784497C22.7325 0.822277 22.6947 0.856289 22.6537 0.885933C22.5368 0.974026 22.4082 1.0455 22.2717 1.09831C22.0557 1.18453 21.8242 1.225 21.5918 1.21719C21.2862 1.18514 20.9894 1.09589 20.7169 0.954085C20.5582 0.879991 20.3932 0.82006 20.224 0.774988C20.0448 0.723467 19.8548 0.723467 19.6756 0.774988C19.4866 0.839593 19.3193 0.95536 19.1922 1.10941C19.0553 1.27465 18.9402 1.45683 18.8498 1.65146C18.6581 2.04452 18.5091 2.51366 18.1477 2.8671C18.055 2.95634 17.9478 3.02922 17.8307 3.08265C17.7123 3.13339 17.5866 3.16495 17.4583 3.17617C17.2031 3.20311 16.9463 3.17617 16.7007 3.22054C16.5829 3.23895 16.473 3.29064 16.3837 3.36953C16.3002 3.45694 16.2335 3.55904 16.1871 3.67067C16.1007 3.89706 16.0546 4.13683 16.0508 4.37913C16.0558 4.62244 16.0188 4.86477 15.9415 5.09552C15.8328 5.30686 15.6611 5.47913 15.4501 5.58844C15.2633 5.68706 15.1008 5.82624 14.9747 5.99577C14.8811 6.17199 14.8367 6.3702 14.8463 6.56951C14.8463 6.95941 14.9335 7.33187 14.8922 7.67897C14.8696 7.98789 14.7645 8.28508 14.5879 8.53959C14.4495 8.72933 14.2598 8.87559 14.0411 8.96118C13.9044 9.01614 13.757 9.03944 13.61 9.02934C13.5566 9.02613 13.5039 9.01601 13.4531 8.99922Z" fill="#455A64"/>
<path d="M25.1008 2.95737C25.0877 2.79798 25.043 2.64279 24.9692 2.50091C24.8823 2.35167 24.7678 2.22041 24.6316 2.11419C24.4617 1.9868 24.277 1.88037 24.0816 1.7972C23.874 1.70052 23.6696 1.61493 23.4936 1.51666C23.3349 1.4309 23.1883 1.3243 23.0578 1.19968C22.97 1.11555 22.8966 1.01756 22.8406 0.909634C22.8158 0.872195 22.8005 0.829181 22.7963 0.784424C22.8793 0.921668 22.9806 1.04697 23.0974 1.15688C23.2297 1.26901 23.3749 1.3648 23.5301 1.44217C23.7028 1.5341 23.9057 1.61652 24.1165 1.7132C24.3179 1.80184 24.5074 1.91524 24.6808 2.05079C24.8218 2.16501 24.9374 2.30756 25.0199 2.46921C25.0768 2.57822 25.1092 2.69828 25.115 2.82107C25.1203 2.867 25.1154 2.91352 25.1008 2.95737Z" fill="#455A64"/>
<path d="M21.5219 3.71815C21.5061 3.73717 21.4506 3.71815 21.3634 3.69121C21.2465 3.66422 21.1269 3.6504 21.0068 3.65C20.8863 3.64867 20.7661 3.66144 20.6486 3.68804C20.5583 3.70864 20.5028 3.73242 20.4901 3.71498C20.4774 3.69755 20.5107 3.63574 20.6074 3.58026C20.7321 3.51667 20.87 3.48352 21.01 3.48352C21.1499 3.48352 21.2879 3.51667 21.4126 3.58026C21.495 3.64049 21.5298 3.70389 21.5219 3.71815Z" fill="#263238"/>
<path d="M23.8295 4.03037C23.8216 4.07474 23.6568 4.08901 23.4587 4.06048C23.2606 4.03195 23.1068 3.97806 23.1068 3.92576C23.1068 3.87346 23.2796 3.8687 23.4777 3.89723C23.6758 3.92576 23.8359 3.98599 23.8295 4.03037Z" fill="#263238"/>
<path d="M18.2821 6.05115C18.2821 6.05115 18.298 6.06224 18.3218 6.09077C18.3559 6.13244 18.3847 6.17823 18.4074 6.22708C18.4894 6.40876 18.5137 6.61122 18.4771 6.80716C18.4256 7.09237 18.3299 7.36777 18.1934 7.6234C18.1177 7.76965 18.0931 7.93705 18.1237 8.09889C18.1795 8.2688 18.2562 8.43116 18.3519 8.58229C18.4478 8.74104 18.4897 8.92654 18.4714 9.11109C18.4531 9.29564 18.3756 9.46931 18.2504 9.60616C18.1437 9.72814 18.0021 9.81443 17.8447 9.85341C17.7117 9.88101 17.5764 9.89587 17.4405 9.89779C17.2499 9.89257 17.0615 9.94089 16.8969 10.0373C16.8404 10.0785 16.7907 10.1282 16.7495 10.1847C16.7495 10.1847 16.7495 10.1641 16.7701 10.1324C16.7977 10.0854 16.8343 10.0445 16.8779 10.0119C17.041 9.90097 17.2338 9.84186 17.431 9.84231C17.5628 9.83655 17.6938 9.81905 17.8225 9.79001C17.967 9.75191 18.0964 9.67063 18.1934 9.55703C18.2997 9.43321 18.368 9.2813 18.3899 9.11958C18.4073 8.94508 18.3684 8.7696 18.279 8.61874C18.1811 8.46073 18.1038 8.29081 18.0492 8.11315C18.0177 7.93689 18.0456 7.7552 18.1284 7.59646C18.1966 7.43797 18.2711 7.31276 18.317 7.17804C18.3642 7.0547 18.4003 6.9274 18.4248 6.79765C18.4642 6.61142 18.4493 6.4178 18.382 6.23975C18.3265 6.11454 18.2758 6.0559 18.2821 6.05115Z" fill="#263238"/>
<path d="M25.6428 10.3178C25.611 10.3324 25.5762 10.3389 25.5413 10.3368C25.4909 10.3337 25.4416 10.3205 25.3964 10.2979C25.3512 10.2752 25.311 10.2438 25.2782 10.2053C25.2238 10.146 25.1837 10.075 25.1612 9.99777C25.1386 9.92052 25.1342 9.83912 25.1483 9.75989C25.1977 9.55524 25.3043 9.36889 25.4557 9.22259C25.6368 9.05765 25.7965 8.87077 25.9312 8.66628C25.9957 8.55019 26.027 8.41858 26.0216 8.28589C26.0123 8.14449 25.979 8.00568 25.9233 7.8754C25.7809 7.59351 25.6539 7.3041 25.5429 7.00844C25.4937 6.8408 25.4937 6.66255 25.5429 6.49492C25.6056 6.33297 25.6847 6.17789 25.7791 6.03211C25.8693 5.89586 25.9055 5.73083 25.8805 5.56931C25.8377 5.41568 25.7532 5.27689 25.6364 5.16832C25.5271 5.05104 25.4066 4.94168 25.3052 4.81647C25.203 4.69362 25.1294 4.54963 25.0896 4.39488C25.0278 4.11029 25.0321 3.81531 25.1023 3.53267C25.1578 3.26957 25.2339 3.03183 25.2814 2.81152C25.3813 2.46476 25.3634 2.09468 25.2307 1.75913C25.1754 1.64154 25.1004 1.53432 25.0088 1.44214C25.0088 1.44214 25.0088 1.44214 25.031 1.4564C25.0515 1.47095 25.0706 1.48741 25.088 1.50554C25.1603 1.57874 25.2183 1.66472 25.2592 1.75913C25.3273 1.90091 25.3687 2.05404 25.3813 2.21083C25.3955 2.41756 25.3795 2.62527 25.3337 2.82737C25.2877 3.05085 25.2164 3.29017 25.1641 3.5501C25.1014 3.82285 25.1014 4.10628 25.1641 4.37903C25.1996 4.52286 25.2673 4.65673 25.3622 4.77051C25.4589 4.88938 25.5778 4.99557 25.6919 5.11602C25.8188 5.23324 25.9114 5.38283 25.9598 5.54871C25.9874 5.72901 25.9486 5.91323 25.8504 6.06698C25.7573 6.20769 25.6788 6.35743 25.6158 6.51394C25.5702 6.66915 25.5702 6.8342 25.6158 6.98942C25.7243 7.28205 25.8481 7.56879 25.9867 7.84845C26.0453 7.98731 26.0791 8.13537 26.0865 8.28589C26.0914 8.43099 26.0563 8.57464 25.9851 8.70115C25.8452 8.90874 25.6796 9.0978 25.4922 9.2638C25.3453 9.40042 25.2398 9.57563 25.1879 9.76939C25.1723 9.84234 25.174 9.91793 25.193 9.99007C25.212 10.0622 25.2477 10.1289 25.2972 10.1846C25.3562 10.2598 25.442 10.3093 25.5366 10.3225C25.6079 10.3178 25.6428 10.3083 25.6428 10.3178Z" fill="#263238"/>
<path d="M31.8618 12.4543C31.7586 12.3206 31.6435 12.1964 31.5179 12.0835C31.3762 11.9921 31.2272 11.9126 31.0725 11.8457C31.1625 11.8403 31.2527 11.8527 31.3379 11.8824C31.423 11.912 31.5014 11.9583 31.5686 12.0185C31.6445 12.0675 31.7096 12.1313 31.76 12.2063C31.8104 12.2812 31.8451 12.3656 31.8618 12.4543Z" fill="#D1734A"/>
<path d="M29.4989 21.1398C29.385 20.914 29.3074 20.6717 29.2691 20.4218C29.2052 20.1763 29.1821 19.9219 29.2009 19.6689C29.2641 19.9111 29.3139 20.1567 29.3499 20.4044C29.4141 20.6463 29.4639 20.8919 29.4989 21.1398Z" fill="#D1734A"/>
<path d="M19.3919 19.3631C19.6699 19.2704 19.9146 19.0984 20.096 18.8683C20.2774 18.6382 20.3875 18.3601 20.4126 18.0682C20.4982 17.2424 19.9372 16.5086 19.178 16.4278C18.4188 16.3469 17.7198 16.954 17.6342 17.7797C17.599 18.0732 17.6512 18.3705 17.7843 18.6344C17.9174 18.8983 18.1254 19.1171 18.3823 19.2632C17.1936 19.325 16.6183 20.0557 16.3378 20.7087C16.7773 21.3275 17.4248 21.7674 18.162 21.9481L19.0179 22.0368C19.7869 22.0104 20.5197 21.7037 21.0783 21.1746C20.9373 20.4789 20.5236 19.6531 19.3919 19.3631Z" fill="white"/>
<g opacity="0.3">
<path opacity="0.3" d="M13.071 18.8084L13.7747 18.0825C13.7747 18.0825 13.4704 23.3287 13.2628 23.9595C13.0552 24.5903 11.9679 26.6903 11.9679 26.6903L12.9062 23.82L13.071 18.8084Z" fill="black"/>
</g>
<path d="M14.629 17.1933C14.6449 17.2091 14.0268 17.8796 13.247 18.691C12.4672 19.5025 11.8205 20.1492 11.8031 20.1333C11.7857 20.1175 12.407 19.4471 13.1867 18.634C13.9665 17.8209 14.6132 17.1774 14.629 17.1933Z" fill="#263238"/>
<path d="M24.4668 16.7827C24.4697 16.8357 24.4671 16.8888 24.4589 16.9412C24.4494 17.0458 24.432 17.198 24.4066 17.3866C24.3559 17.7606 24.2703 18.2773 24.153 18.8415C24.0357 19.4058 23.9073 19.9146 23.8043 20.2791C23.752 20.4614 23.7076 20.6072 23.6744 20.7086C23.6619 20.764 23.6417 20.8174 23.6141 20.8671C23.6182 20.8134 23.6278 20.7603 23.6427 20.7086C23.6728 20.5881 23.7061 20.4439 23.7473 20.2743C23.836 19.9066 23.9549 19.3994 24.0722 18.8352C24.1895 18.271 24.283 17.759 24.3495 17.3866C24.3797 17.2154 24.405 17.0696 24.4272 16.946C24.4327 16.89 24.446 16.835 24.4668 16.7827Z" fill="#263238"/>
<path d="M21.2761 6.78344C21.3118 6.75303 21.3536 6.7304 21.3986 6.71702C21.4436 6.70363 21.4908 6.69978 21.5374 6.7057C21.584 6.71163 21.6288 6.7272 21.669 6.75143C21.7092 6.77566 21.744 6.80801 21.771 6.84641C21.798 6.88481 21.8167 6.92843 21.8259 6.97447C21.8351 7.0205 21.8345 7.06795 21.8244 7.11378C21.8142 7.15962 21.7946 7.20282 21.7667 7.24064C21.7389 7.27845 21.7035 7.31005 21.6628 7.33342C21.6213 7.35563 21.5756 7.369 21.5287 7.37269C21.4818 7.37638 21.4346 7.3703 21.3901 7.35485C21.3457 7.3394 21.3049 7.3149 21.2704 7.2829C21.2359 7.2509 21.2083 7.2121 21.1896 7.16893C21.1708 7.12577 21.1611 7.07918 21.1613 7.03211C21.1614 6.98504 21.1712 6.9385 21.1902 6.89543C21.2092 6.85237 21.237 6.8137 21.2716 6.78188C21.3063 6.75006 21.3472 6.72576 21.3918 6.71054" fill="#C1C1C1"/>
<path d="M21.3094 6.42994C21.3506 6.42994 21.3094 6.70889 21.5218 6.93553C21.7342 7.16218 22.029 7.17486 22.0258 7.2129C22.0227 7.25093 21.9529 7.25727 21.8277 7.24301C21.666 7.22358 21.5165 7.14716 21.4061 7.02746C21.3006 6.9128 21.2438 6.76163 21.2476 6.60586C21.2508 6.48858 21.2904 6.42518 21.3094 6.42994Z" fill="#263238"/>
<path d="M17.7926 2.325C17.974 2.10064 18.0907 1.83102 18.1302 1.54521C18.1313 1.34074 18.0579 1.14288 17.9237 0.988582C17.7895 0.834287 17.6038 0.734115 17.4011 0.706777C17.1965 0.692397 16.9931 0.749244 16.8256 0.86768C16.658 0.986117 16.5366 1.15885 16.4819 1.3566C16.4388 1.55732 16.4618 1.76659 16.5475 1.95314C16.6332 2.13969 16.777 2.29349 16.9573 2.39156C17.1415 2.48209 17.349 2.51406 17.5518 2.48318C17.7547 2.45229 17.9433 2.36003 18.0922 2.21881" fill="#263238"/>
<path d="M18.1555 1.50244C18.177 1.70931 18.1205 1.91678 17.997 2.08411C17.8952 2.26587 17.7289 2.40277 17.531 2.46767C17.6774 2.33836 17.8101 2.19444 17.9272 2.03815C18.0215 1.86787 18.0979 1.68835 18.1555 1.50244Z" fill="#455A64"/>
<path d="M17.6672 2.39318C17.6735 2.096 17.6383 1.79939 17.5626 1.51195C17.4617 1.22948 17.3213 0.962686 17.1458 0.719482C17.1458 0.719482 17.2345 0.774956 17.3391 0.90492C17.475 1.07555 17.5777 1.27016 17.6418 1.47867C17.7074 1.68652 17.7342 1.90462 17.7211 2.12215C17.7233 2.21536 17.7049 2.3079 17.6672 2.39318Z" fill="#455A64"/>
<path d="M23.2558 31.3831C25.4783 31.3831 27.28 29.5815 27.28 27.359C27.28 25.1365 25.4783 23.3348 23.2558 23.3348C21.0334 23.3348 19.2317 25.1365 19.2317 27.359C19.2317 29.5815 21.0334 31.3831 23.2558 31.3831Z" fill="#C1C1C1"/>
<g opacity="0.3">
<path opacity="0.3" d="M23.2558 31.3831C25.4783 31.3831 27.28 29.5815 27.28 27.359C27.28 25.1365 25.4783 23.3348 23.2558 23.3348C21.0334 23.3348 19.2317 25.1365 19.2317 27.359C19.2317 29.5815 21.0334 31.3831 23.2558 31.3831Z" fill="black"/>
</g>
<path d="M23.2557 30.6367C25.4782 30.6367 27.2799 28.835 27.2799 26.6125C27.2799 24.3901 25.4782 22.5884 23.2557 22.5884C21.0332 22.5884 19.2316 24.3901 19.2316 26.6125C19.2316 28.835 21.0332 30.6367 23.2557 30.6367Z" fill="#C1C1C1"/>
<path d="M23.2556 28.9931C23.1415 28.9931 23.048 27.9264 23.048 26.6157C23.048 25.3049 23.1415 24.2383 23.2556 24.2383C23.3697 24.2383 23.4616 25.3049 23.4616 26.6157C23.4616 27.9264 23.3681 28.9931 23.2556 28.9931Z" fill="white"/>
<path d="M25.6427 26.6125C25.6427 26.7267 24.5777 26.8186 23.2653 26.8186C21.953 26.8186 20.8879 26.7267 20.8879 26.6125C20.8879 26.4984 21.953 26.4065 23.2653 26.4065C24.5777 26.4065 25.6427 26.4984 25.6427 26.6125Z" fill="white"/>
</svg>
