<svg width="79" height="70" viewBox="0 0 79 70" fill="none" xmlns="http://www.w3.org/2000/svg">
<path d="M23.0128 2.73816H5.95642V20.5167H23.0128V2.73816Z" fill="#E0E0E0"/>
<path d="M21.8575 2.73816H4.80109V20.5167H21.8575V2.73816Z" fill="#FAFAFA"/>
<path d="M21.8626 20.5167H4.79779V2.73315H21.8626V20.5167ZM4.80619 20.5167H21.8525V2.74491H4.80619V20.5167Z" fill="#E0E0E0"/>
<path d="M19.5636 5.12952H7.09326V18.1288H19.5636V5.12952Z" fill="#FAFAFA"/>
<path d="M7.09347 18.2144C7.00582 18.3455 6.90264 18.4656 6.78617 18.572C6.58801 18.782 6.30757 19.0758 5.99355 19.3764C5.67952 19.677 5.39237 19.9608 5.1791 20.1556C5.07066 20.2693 4.94952 20.3702 4.81805 20.4562C4.90866 20.3253 5.01465 20.2058 5.13376 20.1002C5.33191 19.8903 5.61235 19.5964 5.92806 19.2941C6.24376 18.9919 6.53092 18.7081 6.74418 18.5133C6.84888 18.4007 6.96607 18.3004 7.09347 18.2144Z" fill="#E0E0E0"/>
<path d="M19.5638 18.1825C19.6944 18.2708 19.8145 18.3739 19.9215 18.4898C20.1331 18.6896 20.4169 18.9701 20.7258 19.2824C21.0348 19.5948 21.3102 19.8853 21.505 20.0985C21.6197 20.2055 21.7206 20.3262 21.8056 20.4579C21.6753 20.3704 21.5558 20.2678 21.4496 20.1523C21.2397 19.9525 20.9542 19.672 20.6436 19.358C20.3329 19.044 20.0592 18.7534 19.8627 18.5419C19.7493 18.4342 19.649 18.3136 19.5638 18.1825Z" fill="#E0E0E0"/>
<path d="M19.5302 5.16313C19.6185 5.03247 19.7217 4.91245 19.8375 4.80544C20.0374 4.59553 20.3178 4.31174 20.6301 4.00275C20.9425 3.69376 21.233 3.41836 21.4463 3.22188C21.5535 3.10803 21.6742 3.00765 21.8056 2.92297C21.7181 3.05325 21.6155 3.17275 21.5 3.27898C21.3002 3.48889 21.0197 3.77437 20.7057 4.08335C20.3917 4.39234 20.1012 4.66942 19.8896 4.8659C19.7823 4.97915 19.6616 5.07896 19.5302 5.16313Z" fill="#E0E0E0"/>
<path d="M7.05989 5.19498C6.92872 5.10732 6.80862 5.00414 6.7022 4.88767C6.49229 4.68951 6.2085 4.40907 5.89951 4.09505C5.59052 3.78102 5.31512 3.49387 5.11864 3.2806C5.00495 3.17217 4.90409 3.05102 4.81805 2.91956C4.94847 3.00563 5.0685 3.1065 5.17574 3.22015C5.38565 3.4183 5.67952 3.69874 5.98011 4.01444C6.2807 4.33015 6.56618 4.6173 6.76098 4.83057C6.87559 4.93894 6.97603 5.06138 7.05989 5.19498Z" fill="#E0E0E0"/>
<path d="M19.5301 18.1288C19.5301 18.1288 19.5301 18.1053 19.5301 18.065C19.5301 18.0247 19.5301 17.9609 19.5301 17.8836C19.5301 17.7157 19.5301 17.4856 19.5301 17.1817C19.5301 16.5654 19.5301 15.6703 19.5167 14.5318C19.5167 12.2564 19.5033 9.012 19.4915 5.12784L19.5402 5.17486H7.11358L7.16731 5.11944C7.16731 9.89027 7.16731 14.3555 7.16731 18.1187L7.1203 18.07L16.1246 18.0952L18.6536 18.107H19.3253H19.4932H19.5537H19.4982H19.3303H18.6704L16.1514 18.1187L7.11694 18.1439H7.06824V18.0969C7.06824 14.332 7.06824 9.86844 7.06824 5.09761V5.06738H7.12365H19.5503H19.5755V5.11608C19.5654 9.012 19.557 12.2664 19.5503 14.5503C19.5503 15.6821 19.5402 16.5755 19.5385 17.1884C19.5385 17.489 19.5385 17.7207 19.5385 17.8803C19.5385 17.9558 19.5385 18.0146 19.5385 18.0566C19.5381 18.0809 19.5353 18.1051 19.5301 18.1288Z" fill="#E0E0E0"/>
<path d="M15.4092 9.54773H11.2479V13.709H15.4092V9.54773Z" fill="#EBEBEB"/>
<path d="M64.1986 3.05664L62.5512 3.06555L62.5956 11.2653L64.2429 11.2564L64.1986 3.05664Z" fill="#E0E0E0"/>
<path d="M52.5413 3.07933L48.2744 3.10242L48.2988 7.62968L52.5658 7.60659L52.5413 3.07933Z" fill="#EBEBEB"/>
<path d="M56.7913 3.05637L52.5226 3.07947L52.5471 7.60673L56.8158 7.58364L56.7913 3.05637Z" fill="#F5F5F5"/>
<path d="M48.2809 4.35545C51.1166 4.37896 53.9551 4.36609 56.7965 4.31683C56.8085 4.31683 56.82 4.31205 56.8285 4.30355C56.837 4.29505 56.8418 4.28351 56.8418 4.27149C56.8418 4.25946 56.837 4.24793 56.8285 4.23943C56.82 4.23093 56.8085 4.22615 56.7965 4.22615C53.9602 4.21103 51.1155 4.22615 48.2809 4.27821C48.2706 4.27821 48.2608 4.28227 48.2536 4.28952C48.2463 4.29676 48.2422 4.30659 48.2422 4.31683C48.2422 4.32707 48.2463 4.3369 48.2536 4.34414C48.2608 4.35138 48.2706 4.35545 48.2809 4.35545Z" fill="#E0E0E0"/>
<path d="M53.3664 7.53166L45.6133 7.57361L45.6332 11.2629L53.3864 11.221L53.3664 7.53166Z" fill="#EBEBEB"/>
<path d="M61.084 7.48991L53.3309 7.53186L53.3508 11.2212L61.1039 11.1792L61.084 7.48991Z" fill="#F5F5F5"/>
<path d="M45.6194 8.60221C50.7698 8.66099 55.9386 8.60221 61.0906 8.52496C61.1026 8.52496 61.1142 8.52019 61.1227 8.51168C61.1312 8.50318 61.136 8.49165 61.136 8.47962C61.136 8.4676 61.1312 8.45607 61.1227 8.44756C61.1142 8.43906 61.1026 8.43428 61.0906 8.43428C55.9403 8.40742 50.7698 8.41077 45.6194 8.52496C45.6092 8.52496 45.5994 8.52903 45.5921 8.53628C45.5849 8.54352 45.5808 8.55334 45.5808 8.56359C45.5808 8.57383 45.5849 8.58366 45.5921 8.5909C45.5994 8.59814 45.6092 8.60221 45.6194 8.60221Z" fill="#E0E0E0"/>
<path d="M72.7597 11.2655H42.7191V12.5871H72.7597V11.2655Z" fill="#E0E0E0"/>
<path d="M48.8568 11.9004H47.6376V14.5536H48.8568V11.9004Z" fill="#E0E0E0"/>
<path d="M67.0618 11.9004H65.8427V14.5536H67.0618V11.9004Z" fill="#E0E0E0"/>
<path d="M65.8076 -1.95293e-06L64.1602 0.00891113L64.2212 11.2868L65.8686 11.2779L65.8076 -1.95293e-06Z" fill="#EBEBEB"/>
<path d="M68.3832 2.10016L65.8224 2.11401L65.8718 11.2542L68.4327 11.2403L68.3832 2.10016Z" fill="#F5F5F5"/>
<path d="M68.3652 3.86336C67.9403 3.90871 67.5127 3.92386 67.0856 3.9087C66.658 3.92384 66.2298 3.90869 65.8043 3.86336C66.657 3.80515 67.5126 3.80515 68.3652 3.86336Z" fill="#E0E0E0"/>
<path d="M68.3652 3.4804C67.9401 3.52362 67.5126 3.53821 67.0856 3.52406C66.658 3.53816 66.23 3.52357 65.8043 3.4804C66.6569 3.41994 67.5127 3.41994 68.3652 3.4804Z" fill="#E0E0E0"/>
<path d="M68.3652 9.86846C67.5126 9.92668 66.657 9.92668 65.8043 9.86846C66.6569 9.80801 67.5127 9.80801 68.3652 9.86846Z" fill="#E0E0E0"/>
<path d="M68.3652 9.48385C67.5126 9.54206 66.657 9.54206 65.8043 9.48385C66.657 9.42563 67.5126 9.42563 68.3652 9.48385Z" fill="#E0E0E0"/>
<path d="M67.1274 8.646C67.1022 8.646 67.0821 7.72408 67.0821 6.58721C67.0821 5.45034 67.1022 4.52673 67.1274 4.52673C67.1526 4.52673 67.1711 5.44866 67.1711 6.58721C67.1711 7.72576 67.1509 8.646 67.1274 8.646Z" fill="#E0E0E0"/>
<path d="M71.1814 4.34692H68.3938V11.2454H71.1814V4.34692Z" fill="#EBEBEB"/>
<path d="M65.4331 1.92888C65.4331 2.02254 65.4053 2.1141 65.3533 2.19197C65.3012 2.26985 65.2273 2.33054 65.1407 2.36639C65.0542 2.40223 64.959 2.41161 64.8671 2.39333C64.7753 2.37506 64.6909 2.32996 64.6247 2.26373C64.5584 2.1975 64.5133 2.11312 64.4951 2.02126C64.4768 1.9294 64.4862 1.83419 64.522 1.74766C64.5579 1.66112 64.6186 1.58717 64.6964 1.53513C64.7743 1.4831 64.8659 1.45532 64.9595 1.45532C65.0851 1.45532 65.2056 1.50521 65.2944 1.59402C65.3832 1.68283 65.4331 1.80328 65.4331 1.92888Z" fill="#E0E0E0"/>
<path d="M65.1057 3.23193H64.8135V9.94064H65.1057V3.23193Z" fill="#E0E0E0"/>
<path d="M64.6021 18.8206C64.9398 18.5243 65.3153 18.2741 65.7188 18.0767L65.7541 16.834L67.7692 16.436L68.273 17.5729C68.7216 17.6018 69.1644 17.6905 69.5896 17.8366L70.493 16.9818L72.2025 18.1287L71.7541 19.2891C72.0512 19.6262 72.3014 20.0019 72.4981 20.4058L73.7424 20.4411L74.1404 22.4562L73.0018 22.96C72.9735 23.408 72.8854 23.8502 72.7399 24.2749L73.593 25.1783L72.4527 26.8979L71.2974 26.4462C70.9595 26.743 70.5833 26.9932 70.179 27.1901L70.1454 28.4328L68.1303 28.8308L67.6265 27.6939C67.1779 27.665 66.7351 27.5764 66.3099 27.4303L65.4065 28.285L63.697 27.1381L64.1453 25.9777C63.8483 25.6406 63.5981 25.265 63.4014 24.861L62.1571 24.8257L61.7591 22.8106L62.896 22.3068C62.9257 21.8588 63.0143 21.4167 63.1596 20.9919L62.3065 20.0885L63.4518 18.379L64.6122 18.8256L64.6021 18.8206ZM66.1655 21.3261C65.9222 21.6889 65.7919 22.1156 65.7912 22.5524C65.7905 22.9892 65.9193 23.4164 66.1614 23.78C66.4035 24.1436 66.7479 24.4272 67.1512 24.595C67.5545 24.7628 67.9985 24.8072 68.427 24.7226C68.8556 24.638 69.2494 24.4283 69.5587 24.1198C69.868 23.8114 70.0789 23.4182 70.1647 22.9899C70.2505 22.5616 70.2073 22.1175 70.0407 21.7137C69.8741 21.3099 69.5914 20.9647 69.2285 20.7215C68.7421 20.3957 68.1462 20.2763 67.5719 20.3897C66.9975 20.5031 66.4916 20.8399 66.1655 21.3261Z" fill="#C1C1C1"/>
<path d="M55.324 18.0162C55.5137 17.9011 55.7182 17.8124 55.9319 17.7526L56.0562 17.1514L57.0721 17.1329L57.2182 17.7291C57.4337 17.782 57.641 17.8639 57.8345 17.9726L58.3484 17.6367L59.0805 18.3437L58.7615 18.8676C58.8763 19.0575 58.965 19.2619 59.0251 19.4755L59.6263 19.6015L59.6448 20.6174L59.0486 20.7635C58.9943 20.9786 58.9125 21.1857 58.8051 21.3798L59.141 21.8937L58.434 22.6242L57.9101 22.3051C57.72 22.4198 57.5156 22.509 57.3022 22.5704L57.1762 23.1716L56.1603 23.1884L56.0142 22.5923C55.7989 22.5393 55.5917 22.458 55.3979 22.3504L54.884 22.6863L54.1535 21.981L54.4726 21.4554C54.3569 21.2658 54.2676 21.0613 54.2073 20.8475L53.6061 20.7232L53.5893 19.7073L54.1854 19.5612C54.2378 19.3457 54.3191 19.1384 54.4273 18.9449L54.0914 18.431L54.7967 17.6988L55.3223 18.0179L55.324 18.0162ZM55.8647 19.3697C55.7151 19.5248 55.6147 19.7208 55.5764 19.9329C55.5381 20.145 55.5636 20.3636 55.6495 20.5613C55.7355 20.7589 55.8781 20.9266 56.0594 21.0432C56.2407 21.1598 56.4524 21.22 56.6679 21.2162C56.8834 21.2125 57.0929 21.1449 57.27 21.0221C57.4471 20.8993 57.5838 20.7267 57.6629 20.5262C57.7419 20.3257 57.7597 20.1062 57.714 19.8956C57.6684 19.685 57.5613 19.4926 57.4063 19.3429C57.3033 19.2434 57.1818 19.1651 57.0486 19.1126C56.9153 19.0601 56.7731 19.0344 56.6299 19.0369C56.4868 19.0394 56.3455 19.07 56.2142 19.1272C56.0829 19.1843 55.9641 19.2667 55.8647 19.3697Z" fill="#455A64"/>
<path d="M55.8646 19.3697C55.922 19.2996 55.9906 19.2394 56.0678 19.1917C56.2786 19.0553 56.5302 18.9959 56.7798 19.0238C56.9519 19.041 57.1176 19.0985 57.2634 19.1917C57.4301 19.3012 57.5645 19.453 57.653 19.6317C57.7022 19.7276 57.7356 19.8308 57.7521 19.9373C57.7706 20.0485 57.7706 20.162 57.7521 20.2732C57.7214 20.5101 57.6154 20.7308 57.4498 20.9029C57.2833 21.0736 57.0669 21.1871 56.8318 21.227C56.7206 21.2455 56.6072 21.2455 56.496 21.227C56.3891 21.2138 56.2849 21.1844 56.187 21.1397C56.0046 21.0576 55.8479 20.9276 55.7336 20.7635C55.6112 20.5903 55.5417 20.3852 55.5337 20.1733C55.5256 19.9613 55.5793 19.7516 55.6882 19.5696C55.7329 19.4918 55.7896 19.4215 55.8562 19.3613C55.8562 19.3613 55.7907 19.4336 55.7067 19.583C55.5902 19.7955 55.5476 20.0406 55.5858 20.2799C55.6144 20.4555 55.6864 20.6211 55.7952 20.7619C55.904 20.9026 56.0461 21.014 56.2088 21.086C56.302 21.1282 56.4011 21.1559 56.5027 21.1682C56.6077 21.1858 56.715 21.1858 56.8201 21.1682C57.0424 21.1307 57.2469 21.0228 57.4034 20.8605C57.56 20.6982 57.6604 20.49 57.6899 20.2665C57.7067 20.1613 57.7067 20.0542 57.6899 19.9491C57.6748 19.8482 57.6442 19.7502 57.5993 19.6586C57.5334 19.5249 57.4405 19.4063 57.3265 19.3103C57.2125 19.2142 57.0798 19.1429 56.9369 19.1008C56.7939 19.0587 56.6437 19.0466 56.4959 19.0655C56.348 19.0843 56.2057 19.1336 56.0778 19.2102C55.9351 19.3009 55.8713 19.3748 55.8646 19.3697Z" fill="#455A64"/>
<path d="M55.324 18.0164L55.2904 17.9979L55.1897 17.9408L54.7934 17.7057H54.8051L54.1049 18.4395V18.4211L54.4407 18.9249V18.9333V18.9433C54.3339 19.1359 54.2537 19.3421 54.2023 19.5563V19.568H54.1905L53.5944 19.7175L53.6112 19.694C53.6179 20.0141 53.6246 20.3528 53.6313 20.7099L53.6112 20.6864L54.214 20.8107H54.2291V20.8258C54.2923 21.0423 54.385 21.2491 54.5045 21.4404L54.5129 21.4538L54.5045 21.4673L54.1872 21.9929V21.9593L54.9176 22.6646H54.8824L55.3962 22.3287L55.4097 22.3187L55.4265 22.3271C55.6182 22.4336 55.8232 22.5143 56.036 22.5672H56.0528V22.5857L56.1989 23.1818L56.1687 23.1583L57.1847 23.1398L57.1544 23.165C57.1947 22.9753 57.2367 22.7704 57.2804 22.5638V22.5454H57.2989C57.5091 22.485 57.7107 22.3975 57.8984 22.2851H57.9151H57.9303L58.4559 22.6041H58.4173L59.1226 21.8737V21.9123L58.7867 21.3984L58.7766 21.3816L58.785 21.3665C58.8923 21.1751 58.9731 20.9701 59.0252 20.7569V20.7402H59.0419L59.6398 20.5941L59.6163 20.6243C59.6163 20.2767 59.6045 19.9391 59.5995 19.6083L59.623 19.6352L59.0218 19.5092H59.005V19.4941C58.9457 19.2824 58.8581 19.0796 58.7447 18.8913V18.8778V18.8644L59.0638 18.3405V18.3724L58.3333 17.6637H58.3635L57.8497 17.9996H57.8379H57.8261C57.634 17.8923 57.4284 17.811 57.2149 17.7578H57.2031V17.746C57.1511 17.5294 57.1041 17.3346 57.0604 17.1499L57.0772 17.1633L56.0612 17.1767L56.0747 17.165C56.0243 17.4051 55.9823 17.6016 55.947 17.7662C55.787 17.8108 55.6318 17.8709 55.4836 17.9458L55.3744 18.0029L55.3375 18.0214C55.3481 18.0128 55.3593 18.0049 55.371 17.9979L55.4785 17.9358C55.6263 17.8578 55.7816 17.7947 55.942 17.7477C55.9756 17.5798 56.0142 17.3866 56.0629 17.1465V17.1347H56.0747L57.0906 17.1129H57.1057V17.1263C57.1511 17.3111 57.1998 17.5059 57.2535 17.7225L57.2384 17.7074C57.456 17.7603 57.6656 17.8422 57.8614 17.9509H57.8379L58.3501 17.615L58.3669 17.6049L58.3803 17.6184L59.1125 18.322L59.1276 18.3371L59.1175 18.3556C59.0134 18.5235 58.9093 18.6998 58.8001 18.8795V18.8526C58.916 19.0442 59.0058 19.2503 59.0671 19.4656L59.047 19.4471L59.6482 19.5714H59.67V19.5932C59.6767 19.9291 59.6834 20.2677 59.6901 20.6092V20.6327H59.6666L59.0705 20.7788L59.0923 20.7569C59.0393 20.9753 58.9568 21.1855 58.8471 21.3816V21.3564L59.183 21.8686L59.1964 21.8905L59.1796 21.9073L58.4744 22.6394L58.4559 22.6562L58.4357 22.6445L57.9101 22.3254H57.942C57.7505 22.4424 57.5436 22.5322 57.3274 22.5924L57.3492 22.5689C57.3073 22.7754 57.2636 22.9803 57.225 23.1701V23.1953H57.1998L56.1838 23.212H56.1586V23.1885C56.1082 22.982 56.0579 22.7788 56.0125 22.5907L56.0344 22.6125C55.8167 22.5589 55.6072 22.4765 55.4113 22.3674H55.4416L54.9277 22.7032L54.9076 22.7167L54.8908 22.6999L54.162 21.9946L54.1452 21.9778L54.1569 21.9593L54.476 21.4354V21.4622C54.3517 21.2733 54.2539 21.0682 54.1855 20.8527L54.2039 20.8711L53.6028 20.7452H53.5843V20.725C53.5843 20.369 53.5725 20.0281 53.5675 19.7091V19.6906H53.586L54.1821 19.5462L54.167 19.5613C54.2213 19.3441 54.3043 19.1352 54.4139 18.94V18.9601L54.078 18.4446V18.4345L54.0864 18.4244L54.7967 17.6973L55.1846 17.9391L55.2837 18.0013C55.2975 18.0053 55.311 18.0103 55.324 18.0164Z" fill="#455A64"/>
<path d="M58.8489 48.4096L55.3828 47.8772L55.2334 45.7664C54.5342 45.4629 53.8785 45.0676 53.2837 44.5909L51.3425 45.4305L49.2669 42.6026L50.6523 41.0056C50.3736 40.2948 50.1912 39.5499 50.1099 38.7907L48.1384 38.0148L48.6708 34.5488L50.7799 34.3994C51.0839 33.7004 51.4791 33.0448 51.9554 32.4497L51.1158 30.5085L53.9437 28.4329L55.539 29.8183C56.2501 29.5404 56.9949 29.358 57.754 29.2759L58.5348 27.296L62.0009 27.8284L62.1503 29.9375C62.8494 30.2413 63.505 30.6366 64.1 31.113L66.0429 30.2734L68.1269 33.1114L66.7415 34.7067C67.0194 35.4177 67.2013 36.1625 67.2822 36.9216L69.2537 37.6975L68.7196 41.1719L66.6088 41.3197C66.3051 42.0187 65.9098 42.6744 65.4333 43.2693L66.2729 45.2122L63.4383 47.2845L61.8413 45.899C61.1304 46.1772 60.3855 46.3591 59.6264 46.4398L58.8489 48.4096ZM55.3879 47.8688L58.8438 48.4012L59.6196 46.4314C60.3801 46.3509 61.1262 46.1685 61.838 45.889L63.435 47.2744L66.2595 45.2021L65.4199 43.2626C65.8968 42.6674 66.2922 42.0111 66.5954 41.3113L68.7045 41.1635L69.2352 37.7075L67.2671 36.9284C67.1864 36.1685 67.0039 35.423 66.7247 34.7117L68.1101 33.1164L66.0412 30.2969L64.1016 31.1365C63.5068 30.6569 62.8505 30.2587 62.1503 29.9526L62.0025 27.8435L58.5449 27.3128L57.7708 29.2826C57.0112 29.3647 56.2658 29.5471 55.5541 29.825L53.9588 28.4396L51.1393 30.5085L51.9789 32.448C51.4984 33.0429 51.1002 33.6998 50.795 34.401L48.6859 34.5505L48.1552 38.0064L50.125 38.7823C50.2035 39.5433 50.3831 40.2904 50.659 41.004L49.2736 42.5993L51.3425 45.4171L53.2821 44.5775C53.8778 45.0546 54.5346 45.4499 55.2351 45.753L55.3879 47.8688ZM58.827 41.5212C58.6348 41.5208 58.4428 41.5062 58.2527 41.4775C57.7047 41.3925 57.1823 41.1874 56.7228 40.8768C56.2634 40.5662 55.8783 40.1579 55.5951 39.6811C55.3119 39.2042 55.1377 38.6707 55.0849 38.1186C55.0321 37.5666 55.102 37.0097 55.2896 36.4878C55.4772 35.9659 55.7779 35.492 56.1701 35.1C56.5623 34.7079 57.0364 34.4074 57.5584 34.22C58.0803 34.0327 58.6372 33.963 59.1893 34.0161C59.7413 34.0691 60.2748 34.2436 60.7515 34.527C61.3948 34.9101 61.9089 35.4768 62.2279 36.1542C62.5468 36.8316 62.6561 37.5889 62.5416 38.3289C62.428 39.0698 62.0955 39.7598 61.5868 40.3104C61.0781 40.861 60.4165 41.247 59.6868 41.4187C59.4052 41.4866 59.1167 41.521 58.827 41.5212ZM56.6003 34.7285C56.0065 35.1666 55.5548 35.7698 55.3016 36.4629C55.0484 37.1561 55.0048 37.9084 55.1763 38.6261C55.4071 39.5949 56.013 40.4325 56.861 40.9548C57.7089 41.4772 58.7295 41.6416 59.6986 41.412C60.2398 41.2834 60.7458 41.0361 61.1797 40.688C61.6137 40.3399 61.965 39.8997 62.208 39.3993C62.4511 38.8989 62.5799 38.3507 62.5851 37.7944C62.5904 37.238 62.4719 36.6875 62.2384 36.1826C62.0048 35.6776 61.662 35.2309 61.2346 34.8747C60.8073 34.5185 60.3061 34.2616 59.7674 34.1228C59.2287 33.984 58.6658 33.9666 58.1195 34.0719C57.5732 34.1773 57.0572 34.4027 56.6087 34.7319L56.6003 34.7285Z" fill="#E0E0E0"/>
<path d="M56.6 34.7284C56.8354 34.5234 57.1033 34.3588 57.3926 34.2414C58.0661 33.9578 58.8072 33.8746 59.5269 34.0018C60.2465 34.129 60.9142 34.4612 61.4497 34.9585C61.9546 35.4272 62.3246 36.0228 62.5211 36.6831C62.7394 37.4147 62.7335 38.195 62.5043 38.9232C62.2618 39.7094 61.7728 40.3967 61.1097 40.8835C60.4465 41.3704 59.6443 41.631 58.8216 41.6269C58.4335 41.6292 58.0475 41.5697 57.678 41.4506C57.3221 41.3425 56.985 41.1799 56.6789 40.9686C56.108 40.5836 55.651 40.0524 55.3556 39.4304C55.1001 38.8899 54.9758 38.2967 54.9929 37.6991C55.0141 36.8347 55.3333 36.0042 55.8963 35.3481C56.096 35.1073 56.3336 34.9008 56.6 34.7368C56.6167 34.757 56.3346 34.9417 55.9618 35.4085C55.4404 36.0634 55.1532 36.8738 55.1457 37.7108C55.1386 38.324 55.2853 38.9292 55.5725 39.4711C55.8597 40.0129 56.2782 40.4741 56.7897 40.8124C57.3922 41.2128 58.0999 41.4255 58.8233 41.4237C59.6 41.4252 60.3568 41.1781 60.9829 40.7185C61.609 40.2589 62.0715 39.611 62.3028 38.8695C62.4169 38.5205 62.4736 38.1553 62.4707 37.7881C62.4757 37.4358 62.4276 37.0848 62.328 36.7469C62.1446 36.117 61.7969 35.5472 61.3204 35.0962C60.906 34.7028 60.405 34.4123 59.8577 34.2481C59.0575 34.0038 58.1985 34.0346 57.4178 34.3355C57.1388 34.4527 56.8658 34.5838 56.6 34.7284Z" fill="#263238"/>
<path d="M55.5489 29.8132C55.5111 29.7898 55.4757 29.7628 55.4431 29.7326L55.1358 29.4757L53.9268 28.4513H53.9704L51.1576 30.542L51.1761 30.4765L52.0275 32.4144L52.0426 32.448L52.0191 32.4782C51.5452 33.0709 51.1527 33.7243 50.852 34.4211L50.8335 34.4597H50.7915L48.679 34.6142L48.7495 34.5504C48.5816 35.6403 48.4137 36.7973 48.2256 38.0131L48.1735 37.9224L50.1383 38.6966L50.1887 38.7167V38.7705C50.271 39.5228 50.4529 40.2608 50.7294 40.9653L50.7512 41.0173L50.7143 41.0593L49.3289 42.6597V42.5404L51.4213 45.37L51.3004 45.3381L53.2399 44.4985L53.297 44.4733L53.3457 44.5119C53.9343 44.9879 54.5837 45.3832 55.2769 45.6874L55.334 45.7126V45.7747C55.381 46.4363 55.4314 47.1584 55.4834 47.8872L55.3944 47.7898L58.8705 48.2987L58.7547 48.3658C58.9998 47.7428 59.2585 47.0711 59.5305 46.396L59.554 46.3339H59.6195C60.3677 46.253 61.1019 46.0728 61.8026 45.7982L61.8647 45.7747L61.9134 45.8167L63.5104 47.2055H63.3777L66.2023 45.1349L66.167 45.2625L65.3274 43.3213L65.3022 43.2625L65.3425 43.2121C65.8184 42.6248 66.2137 41.9764 66.518 41.2843L66.5432 41.2256H66.6053L68.7178 41.0778L68.6238 41.1651C68.8074 39.9829 68.9859 38.8287 69.1595 37.7024L69.2199 37.8099L67.2518 37.0307L67.1964 37.0106V36.9518C67.1163 36.1998 66.9367 35.4617 66.6624 34.757L66.6422 34.7049L66.6792 34.6613L68.0696 33.0659V33.1785L66.0024 30.3489L66.1015 30.3757L64.1586 31.2154L64.1166 31.2339L64.0797 31.2053C63.4906 30.7292 62.8405 30.3339 62.1468 30.0298L62.1065 30.0113V29.9694C62.0545 29.2019 62.0074 28.5101 61.9638 27.8568L62.0175 27.9156L58.5347 27.348L58.5867 27.3178C58.271 28.102 58.0124 28.7468 57.7975 29.2825L57.7891 29.3027H57.7689C57.1996 29.3596 56.6371 29.4721 56.0897 29.6385L55.685 29.7678C55.6414 29.7856 55.5965 29.7996 55.5506 29.8098C55.592 29.7871 55.6353 29.768 55.6799 29.7527C55.7672 29.7175 55.8999 29.6654 56.0796 29.605C56.6278 29.4233 57.1934 29.2989 57.7673 29.2338L57.7387 29.2557C57.9469 28.7166 58.1972 28.0701 58.5011 27.2808L58.5145 27.2439H58.5532L62.0192 27.7611H62.0679V27.8115C62.1166 28.4647 62.167 29.1549 62.2241 29.924L62.1821 29.8636C62.8896 30.1707 63.5531 30.5705 64.1552 31.0525L64.0763 31.0407L66.0142 30.2011L66.0746 30.1742L66.1133 30.228L68.1922 33.0475L68.2342 33.1063L68.1872 33.16L66.8034 34.7603L66.8186 34.6646C67.1015 35.3846 67.2873 36.1391 67.371 36.9081L67.3106 36.8275L69.2821 37.6084L69.3559 37.6369L69.3425 37.7159C69.1712 38.8421 68.9955 39.9963 68.8152 41.1785L68.8035 41.2608H68.7212L66.6086 41.412L66.696 41.3498C66.3875 42.0591 65.9854 42.7239 65.5003 43.3263L65.5154 43.2189C65.7942 43.8581 66.0741 44.5046 66.3551 45.1584L66.3887 45.2373L66.3198 45.2877L63.4953 47.3616L63.4264 47.412L63.3626 47.3549C62.8331 46.8959 62.3002 46.4335 61.7639 45.9678L61.8731 45.9863C61.1545 46.2714 60.4012 46.4595 59.6329 46.5455L59.7219 46.4767C59.4549 47.1484 59.1913 47.8201 58.9461 48.4481L58.9142 48.527L58.8302 48.5136L55.3676 47.9813L55.2836 47.9678V47.8839C55.2316 47.1551 55.1812 46.433 55.1358 45.7714L55.198 45.8587C54.4885 45.5492 53.8237 45.1459 53.2215 44.6597L53.3272 44.6748L51.3843 45.5144L51.3138 45.5379L51.2651 45.4741C50.548 44.4917 49.8461 43.5346 49.1962 42.6462L49.1509 42.5841L49.2013 42.527L50.5917 40.9317L50.5749 41.0257C50.2948 40.3053 50.1118 39.5509 50.0308 38.7822L50.0862 38.8561L48.1181 38.0769L48.0543 38.0517L48.0644 37.9845C48.2542 36.7704 48.4355 35.6134 48.6051 34.5236L48.6135 34.4614H48.6757L50.7882 34.3187L50.7277 34.3607C51.0386 33.6555 51.4418 32.9948 51.9267 32.3959L51.9183 32.4614L51.0787 30.5168L51.0619 30.4765L51.0972 30.4513L53.9335 28.3942L53.9553 28.3774L53.9755 28.3959L55.1509 29.4387L55.4532 29.7124C55.4871 29.744 55.5191 29.7777 55.5489 29.8132Z" fill="#263238"/>
<path d="M72.5684 54.8463C72.7971 53.7238 72.899 52.5792 72.8724 51.434C72.8506 50.2988 72.602 49.1485 72.0059 48.1846C71.3416 49.2301 71.0395 50.4651 71.1461 51.6993C71.2233 52.8885 71.7071 54.0151 72.5164 54.8899" fill="#C1C1C1"/>
<path d="M71.1057 57.8824C71.1208 56.6615 71.1057 55.4273 70.8219 54.2417C70.5381 53.0561 69.9386 51.9075 68.9747 51.1636C68.621 52.4174 68.6567 53.7492 69.0772 54.9822C69.4987 56.2064 70.0629 57.12 71.1091 57.8824" fill="#C1C1C1"/>
<path d="M69.2552 61.4911C69.4231 60.3996 69.5541 59.2947 69.4365 58.1981C69.319 57.1015 68.9327 56.005 68.1485 55.2224C67.6823 56.3027 67.5552 57.4991 67.7841 58.6532C68.0159 59.7968 68.4105 60.6834 69.2552 61.4911Z" fill="#C1C1C1"/>
<path d="M67.9099 64.0704C67.8511 62.8311 67.7638 61.5818 67.3977 60.3979C67.0316 59.214 66.3582 58.0855 65.3305 57.392C65.0473 58.6836 65.1645 60.0309 65.6664 61.2543C66.1701 62.4684 66.7982 63.3601 67.9032 64.0688" fill="#C1C1C1"/>
<path d="M65.9083 67.1133C65.9469 65.9764 65.9637 64.8278 65.7185 63.7178C65.4733 62.6078 64.9444 61.5263 64.0577 60.8143C63.7035 61.9744 63.7099 63.2147 64.0762 64.371C64.4439 65.5197 64.9511 66.3862 65.9083 67.1133Z" fill="#C1C1C1"/>
<path d="M64.2441 69.7195C64.2844 68.5827 64.2996 67.434 64.0561 66.324C63.8126 65.214 63.4062 64.2384 62.5212 63.5264C62.1652 64.6767 62.046 65.8303 62.4137 66.9773C62.7815 68.1242 63.287 68.9924 64.2441 69.7195Z" fill="#C1C1C1"/>
<path d="M71.1107 57.8487C71.8783 57.3322 72.704 56.9078 73.5709 56.5842C74.249 56.3157 74.9554 56.1252 75.6767 56.0166C76.4019 55.9086 77.1429 56.0075 77.8144 56.3021C76.9687 57.1843 75.884 57.8006 74.6932 58.0753C73.5025 58.35 72.2574 58.2713 71.1107 57.8487Z" fill="#C1C1C1"/>
<path d="M65.9048 67.1335C66.5293 66.7131 67.2012 66.3676 67.9065 66.1041C68.458 65.8854 69.0327 65.7305 69.6193 65.6423C70.209 65.5546 70.8114 65.6349 71.3574 65.8741C70.6695 66.5916 69.7873 67.0929 68.8188 67.3166C67.8503 67.5403 66.8377 67.4766 65.9048 67.1335Z" fill="#C1C1C1"/>
<path d="M64.6001 69.2006C65.2718 68.9386 66.1736 68.3979 66.889 68.3072C67.4749 68.2167 68.0693 68.193 68.6606 68.2367C69.2555 68.2831 69.8252 68.4961 70.3046 68.8513C69.4731 69.3949 68.5021 69.6865 67.5086 69.691C66.5212 69.691 65.4263 69.738 64.6001 69.1989" fill="#C1C1C1"/>
<path d="M69.5286 61.2661C70.2964 60.7488 71.1228 60.3244 71.9904 60.0016C72.6679 59.7323 73.3738 59.5413 74.0946 59.4323C74.82 59.3255 75.5608 59.425 76.2323 59.7195C75.386 60.6008 74.3013 61.2164 73.1108 61.491C71.9202 61.7657 70.6755 61.6875 69.5286 61.2661Z" fill="#C1C1C1"/>
<path d="M67.3993 64.9471C68.0959 64.3375 68.8619 63.8122 69.6815 63.382C70.3193 63.0299 70.9954 62.7521 71.6966 62.5541C72.4022 62.3553 73.1497 62.3599 73.8528 62.5675C73.1251 63.5493 72.1267 64.2974 70.9801 64.7201C69.8335 65.1428 68.5884 65.2217 67.3976 64.9471" fill="#C1C1C1"/>
<path d="M72.4103 55.2257C73.6628 55.1275 74.8734 54.7302 75.9405 54.0672C77.0077 53.4042 77.9001 52.4948 78.543 51.4154C77.6211 51.5313 76.6958 51.7513 75.8931 52.2097C74.5497 52.9872 73.6513 54.297 72.4103 55.2324" fill="#C1C1C1"/>
<path d="M73.8161 52.371C74.7345 51.9309 75.4584 51.1678 75.8497 50.2277C76.2409 49.2875 76.272 48.2361 75.9371 47.2744C75.1263 47.8382 74.4952 48.6236 74.119 49.5367C73.7429 50.4497 73.6377 51.4518 73.8161 52.4231" fill="#C1C1C1"/>
<path d="M64.0881 69.9295C64.0976 69.9115 64.1083 69.8941 64.12 69.8774C64.1435 69.8388 64.1771 69.7901 64.2174 69.728C64.3097 69.5936 64.439 69.4022 64.6036 69.1587C64.7682 68.9152 64.9781 68.6113 65.2065 68.2553C65.4349 67.8993 65.7103 67.4996 65.9857 67.0445C66.2611 66.5894 66.5801 66.0991 66.8992 65.56C67.2182 65.021 67.5591 64.4433 67.9067 63.832C68.602 62.6062 69.3492 61.2476 70.0898 59.8018C71.5877 56.9101 72.8438 54.2434 73.7456 52.3105L74.8237 50.02C74.9496 49.7547 75.047 49.5448 75.1159 49.3987C75.1478 49.3315 75.173 49.2778 75.1931 49.2307C75.2133 49.1837 75.2217 49.177 75.2217 49.177C75.2172 49.1968 75.2104 49.2159 75.2015 49.2341C75.1847 49.2761 75.1612 49.3298 75.131 49.402L74.8556 50.0318C74.6138 50.5758 74.2611 51.3651 73.8161 52.334C72.9295 54.2753 71.6801 56.947 70.1822 59.8404C69.4349 61.2863 68.6859 62.6448 67.984 63.8707C67.6297 64.4803 67.2938 65.0613 66.9647 65.5953C66.6355 66.1293 66.3282 66.6264 66.0411 67.0764C65.7539 67.5265 65.4852 67.9278 65.2501 68.2805C65.015 68.6331 64.8085 68.9337 64.6338 69.1772L64.2359 69.7364L64.1301 69.8808C64.1032 69.9144 64.0898 69.9312 64.0881 69.9295Z" fill="#263238"/>
<path d="M6.17822 58.7219C5.73826 57.7411 5.40878 56.7143 5.19585 55.6606C4.95476 54.6168 4.9965 53.5276 5.31675 52.5052C6.14079 53.3255 6.6719 54.3943 6.8281 55.5464C6.99959 56.647 6.78859 57.7732 6.23028 58.737" fill="#C1C1C1"/>
<path d="M8.1463 61.2006C7.8793 60.0856 7.64252 58.9537 7.65259 57.8068C7.66267 56.6598 7.98845 55.4877 8.71222 54.6061C9.29646 55.6838 9.53839 56.9139 9.40576 58.1326C9.2731 59.34 8.94564 60.2938 8.1463 61.209" fill="#C1C1C1"/>
<path d="M10.5862 64.126C10.2151 63.1604 9.85909 62.1763 9.74658 61.1486C9.63406 60.1209 9.76169 59.0344 10.3108 58.1578C10.9594 59.0511 11.3208 60.1206 11.3469 61.2242C11.3721 62.3191 11.1924 63.2125 10.5862 64.126Z" fill="#C1C1C1"/>
<path d="M12.3543 66.2048C12.1528 65.0595 11.9748 63.8958 12.0654 62.7354C12.1561 61.575 12.539 60.4046 13.3366 59.5565C13.8598 60.6845 14.0273 61.9449 13.8169 63.1703C13.607 64.3844 13.2157 65.3315 12.3492 66.2081" fill="#C1C1C1"/>
<path d="M14.8129 68.5777C14.5409 67.545 14.289 66.4954 14.2839 65.4291C14.2789 64.3628 14.5409 63.2628 15.2042 62.4282C15.7692 63.4171 16.0199 64.5546 15.9229 65.6894C15.8238 66.8145 15.5367 67.7045 14.8129 68.5777Z" fill="#C1C1C1"/>
<path d="M8.13434 61.1704C7.32328 60.8552 6.47776 60.6371 5.61543 60.5206C4.93914 60.4141 4.25289 60.3854 3.57007 60.4349C2.88399 60.4865 2.22633 60.7303 1.67249 61.1385C2.62885 61.7717 3.7492 62.1119 4.89614 62.1176C6.04307 62.1232 7.16673 61.7941 8.1293 61.1704" fill="#C1C1C1"/>
<path d="M14.8195 68.5944C14.1609 68.3386 13.4743 68.1616 12.7741 68.0671C12.2239 67.98 11.6656 67.9563 11.11 67.9966C10.5517 68.0375 10.0165 68.2361 9.56671 68.5692C10.3448 69.0841 11.2563 69.3607 12.1893 69.3652C13.1224 69.3697 14.0365 69.1018 14.8195 68.5944Z" fill="#C1C1C1"/>
<path d="M10.2891 63.9714C9.47793 63.6568 8.63243 63.4392 7.77018 63.3232C7.09446 63.2167 6.40876 63.188 5.7265 63.2375C5.04057 63.2885 4.3829 63.5318 3.82892 63.9395C4.78529 64.5726 5.90564 64.9129 7.05257 64.9185C8.1995 64.9242 9.32316 64.595 10.2857 63.9714" fill="#C1C1C1"/>
<path d="M12.9975 66.9018C12.2343 66.4879 11.4249 66.1654 10.5861 65.9413C9.92915 65.7539 9.25316 65.6412 8.57096 65.6054C7.8838 65.5702 7.2006 65.729 6.59949 66.0638C7.46915 66.8113 8.53798 67.2889 9.67501 67.4381C10.812 67.5872 11.9679 67.4014 13.0009 66.9035" fill="#C1C1C1"/>
<path d="M6.40308 59.0377C5.23577 59.2062 4.04508 59.0922 2.93093 58.7053C1.81678 58.3185 0.811686 57.67 0 56.8143C0.866498 56.7011 1.74689 56.7622 2.58944 56.994C3.97989 57.4273 5.07309 58.4415 6.40308 59.0377Z" fill="#C1C1C1"/>
<path d="M4.53064 56.712C3.5987 56.4995 2.77783 55.9509 2.2251 55.171C1.67237 54.3912 1.42659 53.4349 1.53481 52.4852C2.39193 52.834 3.13053 53.4221 3.66237 54.1794C4.19421 54.9367 4.4968 55.831 4.534 56.7556" fill="#C1C1C1"/>
<path d="M15.4058 69.241C15.3912 69.2314 15.3777 69.2201 15.3655 69.2075L15.2547 69.105L14.8365 68.7121C14.6552 68.5441 14.4335 68.3225 14.1833 68.0672C13.9331 67.812 13.6426 67.5282 13.3437 67.2007C12.0943 65.906 10.4284 64.0605 8.6803 61.9446C6.93218 59.8287 5.41243 57.8606 4.32594 56.4282C3.78185 55.7111 3.34692 55.1284 3.04801 54.7254L2.71215 54.2585L2.62483 54.1359C2.61379 54.1228 2.60474 54.1081 2.59796 54.0923L2.63155 54.1292L2.72559 54.2468L3.08159 54.7035C3.39226 55.1066 3.83559 55.6826 4.38303 56.3828C5.48128 57.8068 7.00606 59.7682 8.74915 61.8808C10.4922 63.9933 12.153 65.8472 13.389 67.152C13.6946 67.4879 13.9818 67.77 14.2286 68.0269C14.4755 68.2839 14.6921 68.5022 14.8701 68.6802L15.2782 69.0933L15.3823 69.2007L15.4058 69.241Z" fill="#263238"/>
<path d="M64.8521 69.9295L66.9798 47.402C67.0209 46.9819 66.9746 46.5578 66.8439 46.1564C66.7132 45.755 66.5009 45.385 66.2204 45.0696C65.9398 44.7542 65.597 44.5002 65.2136 44.3236C64.8302 44.147 64.4144 44.0516 63.9924 44.0435L40.2994 43.5733C39.5192 43.5575 38.7623 43.8401 38.1834 44.3635C37.6044 44.8869 37.2471 45.6115 37.1844 46.3894L35.3691 69.9194L64.8521 69.9295Z" fill="#455A64"/>
<path d="M61.4903 69.9244C61.4972 69.8986 61.5017 69.8722 61.5038 69.8455C61.5038 69.7884 61.5189 69.7112 61.5306 69.6104C61.5525 69.4005 61.5861 69.0982 61.6264 68.7103C61.7053 67.9244 61.8195 66.7943 61.9622 65.3988C62.2359 62.5961 62.6138 58.7337 63.0302 54.4667C63.3476 51.1417 63.6432 48.0636 63.8816 45.5581C63.8816 45.4327 63.8783 45.3085 63.8715 45.1853C63.8738 45.0622 63.8608 44.9392 63.8329 44.8192C63.7694 44.5858 63.6322 44.379 63.4417 44.2298C63.2603 44.089 63.0396 44.0081 62.8102 43.9981L62.1872 43.9863L60.11 43.9544L58.7817 43.9376H58.434C58.3551 43.9376 58.3148 43.9376 58.3148 43.9376C58.3148 43.9376 58.3551 43.9376 58.434 43.946L58.7817 43.9595L60.11 43.9964L62.1856 44.0468L62.8069 44.0636C63.0274 44.0739 63.2389 44.1544 63.4105 44.2934C63.5821 44.4323 63.7048 44.6225 63.7607 44.836C63.7871 44.9511 63.799 45.069 63.796 45.187C63.796 45.3079 63.796 45.4305 63.8044 45.5548C63.5609 48.0602 63.2603 51.1384 62.9362 54.4633C62.5298 58.7304 62.162 62.5944 61.8967 65.3971C61.7674 66.7943 61.6633 67.916 61.5911 68.712C61.5575 69.0999 61.5323 69.4039 61.5138 69.6138C61.5054 69.7145 61.5004 69.7918 61.4954 69.8489C61.4921 69.8739 61.4904 69.8992 61.4903 69.9244Z" fill="#263238"/>
<path d="M34.6298 30.4649C34.5059 30.3384 34.3532 30.2439 34.1848 30.1894H34.2167C34.1862 30.1832 34.1553 30.1787 34.1243 30.176C34.0679 30.161 34.0091 30.1576 33.9514 30.166C33.8937 30.1743 33.8382 30.1943 33.7885 30.2247C33.6015 30.2963 33.4481 30.4353 33.3586 30.6143C33.2898 30.773 33.2658 30.9476 33.2892 31.119C33.3125 31.2904 33.3824 31.4521 33.4912 31.5866C33.5707 31.7092 33.6855 31.8049 33.8204 31.861C33.9553 31.9172 34.104 31.9312 34.247 31.9012C34.39 31.8712 34.5206 31.7987 34.6216 31.6931C34.7226 31.5874 34.7893 31.4537 34.8128 31.3095C34.8555 31.1647 34.8611 31.0114 34.8291 30.8638C34.7971 30.7162 34.7286 30.5791 34.6298 30.4649Z" fill="#455A64"/>
<path d="M33.283 26.3808C32.7208 26.2268 32.2039 25.9396 31.7763 25.5435C31.3486 25.1474 31.0227 24.6541 30.8262 24.1053C30.6376 23.5515 30.5833 22.9608 30.6677 22.3819C30.752 21.8029 30.9727 21.2523 31.3115 20.7753C30.6163 20.9533 29.9244 20.3068 29.7817 19.5998C29.6389 18.8929 29.8908 18.1607 30.1595 17.4873C30.7741 15.9508 31.5432 14.4092 32.8245 13.3764C34.1058 12.3437 36.0151 11.9507 37.3989 12.8391C37.4106 12.2362 38.1176 11.934 38.7053 11.8315C41.2679 11.4083 44.0119 12.08 46.0304 13.7325C48.0488 15.3849 49.2831 18.0129 49.1622 20.6393C50.0321 22.0029 49.4745 24.0751 48.0421 24.8073C48.2966 26.3887 48.0002 28.0095 47.2025 29.3984C46.3998 30.7742 45.1436 31.828 43.6491 32.3791" fill="#C1C1C1"/>
<path d="M34.0438 24.9013C34.1999 22.6562 35.7062 19.9122 37.9414 20.1641L44.9137 21.9777C45.2424 22.0134 45.5457 22.1714 45.7635 22.4202C45.9812 22.669 46.0975 22.9906 46.0892 23.3211L45.2193 40.1643L45.268 40.1744C45.268 40.1744 43.6543 44.9099 39.0547 43.4389C38.1395 43.1467 37.7264 42.1442 37.5434 41.1131H37.4963C37.4963 40.9905 37.4963 40.878 37.4963 40.7604C37.41 39.9923 37.4044 39.2173 37.4796 38.4481C37.4796 37.0879 37.4796 36.5303 37.4796 36.5438C37.4796 36.5572 34.6147 36.04 34.0454 32.3019C33.7549 30.4446 33.8691 27.4018 34.0438 24.9013Z" fill="#B78876"/>
<path d="M35.2879 27.2825C35.2856 27.4078 35.3325 27.5289 35.4186 27.62C35.5046 27.711 35.6229 27.7647 35.748 27.7695C35.8096 27.7757 35.8718 27.7694 35.9309 27.751C35.9899 27.7325 36.0446 27.7023 36.0917 27.6621C36.1388 27.622 36.1772 27.5727 36.2048 27.5172C36.2323 27.4618 36.2483 27.4014 36.2518 27.3396C36.2537 27.2148 36.2069 27.0941 36.1213 27.0032C36.0357 26.9123 35.9181 26.8583 35.7934 26.8526C35.7318 26.8466 35.6696 26.8531 35.6105 26.8716C35.5515 26.8902 35.4967 26.9204 35.4496 26.9605C35.4024 27.0006 35.3638 27.0498 35.336 27.1051C35.3083 27.1604 35.2919 27.2207 35.2879 27.2825Z" fill="#263238"/>
<path d="M34.6886 26.4916C34.7473 26.5555 35.1134 26.2884 35.6306 26.2935C36.1479 26.2985 36.5223 26.5588 36.5794 26.4967C36.6063 26.4681 36.5475 26.3556 36.383 26.2347C36.161 26.0777 35.8957 25.9938 35.6239 25.9946C35.3549 25.9919 35.0921 26.0748 34.8733 26.2313C34.7188 26.3506 34.6651 26.4648 34.6886 26.4916Z" fill="#263238"/>
<path d="M40.2688 27.3683C40.2665 27.4935 40.3134 27.6146 40.3995 27.7057C40.4855 27.7967 40.6038 27.8504 40.7289 27.8552C40.7905 27.8615 40.8527 27.8552 40.9118 27.8367C40.9708 27.8182 41.0255 27.788 41.0726 27.7479C41.1197 27.7077 41.1581 27.6584 41.1857 27.603C41.2132 27.5476 41.2292 27.4871 41.2327 27.4253C41.2342 27.3006 41.1872 27.1802 41.1017 27.0894C41.0162 26.9986 40.8989 26.9444 40.7743 26.9384C40.7126 26.9321 40.6503 26.9384 40.5912 26.9569C40.532 26.9753 40.4772 27.0055 40.43 27.0457C40.3828 27.0858 40.3442 27.1351 40.3165 27.1905C40.2888 27.2459 40.2726 27.3064 40.2688 27.3683Z" fill="#263238"/>
<path d="M39.7684 26.6226C39.8288 26.6864 40.1949 26.4194 40.7104 26.4245C41.226 26.4295 41.6038 26.6898 41.6592 26.6277C41.6878 26.5991 41.6273 26.4866 41.4627 26.3657C41.2409 26.2085 40.9756 26.1246 40.7037 26.1256C40.4352 26.1229 40.1729 26.2058 39.9548 26.3623C39.7952 26.4816 39.7398 26.5958 39.7684 26.6226Z" fill="#263238"/>
<path d="M37.8691 30.4396C37.8691 30.4111 37.5517 30.354 37.0295 30.2834C36.8985 30.2683 36.7725 30.2415 36.7524 30.1508C36.7411 30.0146 36.7728 29.8784 36.8431 29.7612C36.969 29.4421 37.1 29.1096 37.2394 28.7536C37.7902 27.3279 38.1899 26.1541 38.1328 26.1323C38.0757 26.1104 37.582 27.249 37.0312 28.6747C36.8985 29.0273 36.7709 29.3615 36.65 29.6823C36.5663 29.841 36.5408 30.0239 36.5777 30.1995C36.5969 30.2461 36.6263 30.2879 36.6638 30.3216C36.7013 30.3553 36.746 30.3802 36.7944 30.3943C36.8672 30.4143 36.9422 30.425 37.0177 30.4262C37.5433 30.4648 37.8674 30.4698 37.8691 30.4396Z" fill="#263238"/>
<path d="M37.4712 36.5488C39.2327 36.5878 40.9704 36.1366 42.4905 35.2457C42.4905 35.2457 41.258 37.8083 37.5149 37.4288L37.4712 36.5488Z" fill="#AA6550"/>
<path d="M38.0792 31.6857C38.1791 31.563 38.3086 31.4678 38.4555 31.4091C38.6024 31.3503 38.7619 31.3299 38.9188 31.3498C39.0328 31.3603 39.1435 31.3941 39.244 31.4489C39.3445 31.5038 39.4327 31.5786 39.5032 31.6689C39.5714 31.7553 39.6115 31.8605 39.6181 31.9704C39.6247 32.0803 39.5975 32.1895 39.5402 32.2835C39.457 32.3742 39.349 32.4385 39.2295 32.4684C39.1101 32.4982 38.9845 32.4923 38.8684 32.4514C38.6254 32.3626 38.4023 32.2268 38.2119 32.0517C38.1541 32.0103 38.1045 31.9585 38.0658 31.8989C38.0459 31.8706 38.0352 31.8369 38.0352 31.8024C38.0352 31.7678 38.0459 31.7341 38.0658 31.7058" fill="#AA6550"/>
<path d="M39.3907 30.8073C39.3068 30.8073 39.3017 31.3632 38.8181 31.7578C38.3345 32.1524 37.74 32.0936 37.735 32.1642C37.7266 32.1994 37.8676 32.275 38.1195 32.2834C38.4477 32.2901 38.7677 32.1807 39.023 31.9744C39.269 31.7772 39.4282 31.4915 39.4663 31.1784C39.4865 30.9433 39.4243 30.804 39.3907 30.8073Z" fill="#263238"/>
<path d="M39.5433 25.7225C39.5936 25.8636 40.1092 25.7998 40.7188 25.877C41.3283 25.9543 41.8136 26.1239 41.8942 25.9979C41.9312 25.9375 41.8472 25.8048 41.6507 25.6621C41.3892 25.4917 41.0912 25.3852 40.7809 25.3514C40.4709 25.3117 40.1559 25.3469 39.8623 25.4538C39.6339 25.5412 39.5214 25.6503 39.5433 25.7225Z" fill="#263238"/>
<path d="M34.8934 24.9987C34.9841 25.1163 35.3401 24.9987 35.7683 24.9987C36.1965 24.9987 36.5576 25.0827 36.6416 24.9601C36.6785 24.9013 36.6231 24.7838 36.4736 24.6713C36.2641 24.5325 36.016 24.4637 35.765 24.4748C35.5133 24.4766 35.2684 24.557 35.0647 24.7048C34.9052 24.8207 34.8565 24.9416 34.8934 24.9987Z" fill="#263238"/>
<path d="M43.733 26.8527C43.7155 26.6311 43.6818 26.4111 43.6323 26.1944C43.5678 25.9432 43.4659 25.7032 43.33 25.4824C43.1521 25.1884 42.9196 24.9313 42.6449 24.725C42.289 24.4552 41.8711 24.2792 41.4295 24.2132C40.9879 24.1472 40.5367 24.1932 40.1175 24.3472C39.8766 24.4334 39.6501 24.5557 39.4458 24.7099C39.2287 24.8672 39.0386 25.0589 38.8833 25.2775C38.5463 25.7332 38.3645 26.2851 38.3645 26.8518C38.3645 27.4186 38.5463 27.9704 38.8833 28.4261C39.0386 28.6447 39.2287 28.8364 39.4458 28.9937C39.6501 29.1479 39.8766 29.2702 40.1175 29.3565C40.5655 29.5198 41.0489 29.5609 41.5181 29.4757C41.9281 29.3987 42.3141 29.2261 42.6449 28.9719C42.9196 28.7656 43.1521 28.5085 43.33 28.2146C43.4662 27.9939 43.5681 27.7538 43.6323 27.5025C43.6816 27.2864 43.7153 27.067 43.733 26.8459C43.7349 26.8604 43.7349 26.8751 43.733 26.8896C43.733 26.9232 43.733 26.9652 43.733 27.0189C43.7332 27.0887 43.7275 27.1583 43.7162 27.2271C43.7058 27.3228 43.6889 27.4176 43.6659 27.5109C43.6054 27.7673 43.5063 28.0131 43.372 28.2397C43.1955 28.5428 42.9616 28.8086 42.6835 29.0223C42.3201 29.3028 41.8917 29.4868 41.438 29.5573C40.9844 29.6278 40.5204 29.5824 40.089 29.4253C39.8396 29.338 39.6051 29.2128 39.3938 29.0542C39.2839 28.9727 39.1796 28.8841 39.0814 28.7889C38.9837 28.6898 38.8934 28.5837 38.8111 28.4715C38.4622 28.001 38.2739 27.4308 38.2739 26.8451C38.2739 26.2594 38.4622 25.6892 38.8111 25.2187C38.8934 25.1065 38.9837 25.0004 39.0814 24.9013C39.1796 24.8061 39.2839 24.7175 39.3938 24.636C39.6051 24.4774 39.8396 24.3522 40.089 24.2649C40.5508 24.0979 41.0491 24.0584 41.5315 24.1507C41.9143 24.2229 42.2773 24.3763 42.5959 24.6005C42.9145 24.8247 43.1814 25.1145 43.3787 25.4505C43.513 25.6771 43.6121 25.9229 43.6726 26.1793C43.6955 26.2727 43.7123 26.3675 43.723 26.4631C43.7342 26.5319 43.7398 26.6016 43.7397 26.6713C43.7397 26.725 43.7397 26.767 43.7397 26.8006C43.74 26.8182 43.7377 26.8357 43.733 26.8527Z" fill="#263238"/>
<path d="M48.0254 25.0038C48.0179 24.9873 48.0128 24.9698 48.0103 24.9518C48.0002 24.9131 47.9884 24.8628 47.975 24.799C47.9616 24.7351 47.9431 24.6461 47.9162 24.5487C47.8894 24.4513 47.8575 24.3371 47.8239 24.2129C47.6064 23.5013 47.2916 22.8232 46.8885 22.1977C46.2905 21.2701 45.5232 20.4634 44.6265 19.8199C43.521 19.0419 42.2667 18.5005 40.9422 18.2296C39.6164 17.9547 38.2532 17.9092 36.9119 18.0953C35.8165 18.2266 34.7474 18.5239 33.7415 18.9769C33.3575 19.1545 32.9886 19.3629 32.6382 19.5999C32.3747 19.7808 32.1239 19.9794 31.8875 20.1944L31.6323 20.4345L31.4644 20.6243L31.3569 20.7385C31.3449 20.7528 31.3314 20.7657 31.3166 20.7771C31.3261 20.7613 31.3374 20.7466 31.3502 20.7334L31.4509 20.6125L31.6189 20.4177L31.8691 20.1692C32.103 19.9487 32.3521 19.745 32.6147 19.5596C32.9655 19.3169 33.3356 19.1035 33.7213 18.9215C34.7313 18.4553 35.8077 18.1493 36.9119 18.0147C38.26 17.8235 39.6309 17.8672 40.964 18.144C42.2998 18.418 43.5641 18.9664 44.6769 19.7544C45.5798 20.4056 46.3503 21.2229 46.9473 22.1625C47.3491 22.7943 47.6574 23.481 47.8625 24.2011L47.9481 24.537C47.9733 24.6361 47.9851 24.7217 47.9985 24.7906C48.012 24.8594 48.0187 24.9064 48.0254 24.945C48.0285 24.9645 48.0285 24.9844 48.0254 25.0038Z" fill="#263238"/>
<path d="M48.9339 21.3934C48.9288 21.3811 48.926 21.368 48.9256 21.3547C48.9256 21.3228 48.9256 21.2859 48.9104 21.2389C48.9004 21.1381 48.8769 20.9903 48.8382 20.8006C48.7243 20.268 48.5307 19.7556 48.2639 19.2808C47.8666 18.5769 47.3514 17.9464 46.7408 17.4168C45.9891 16.7717 45.1666 16.214 44.2891 15.7543C42.7052 14.8963 41.0574 14.162 39.3604 13.5578C38.7088 13.3261 38.1748 13.1548 37.8054 13.0406L37.3755 12.9096L37.2663 12.8744C37.2411 12.8744 37.2277 12.8609 37.2294 12.8593C37.2311 12.8576 37.2428 12.8593 37.268 12.8593L37.3805 12.8861C37.4796 12.9113 37.6257 12.9483 37.8121 13.002C38.1849 13.1061 38.7206 13.2673 39.3772 13.4924C41.0847 14.0823 42.7405 14.8125 44.3277 15.6754C45.2109 16.1383 46.0375 16.7018 46.7912 17.3547C47.4051 17.8928 47.9205 18.5338 48.3143 19.2489C48.5791 19.7309 48.7661 20.2518 48.8685 20.7922C48.896 20.9387 48.915 21.0868 48.9256 21.2355C48.9256 21.2825 48.9256 21.3211 48.9256 21.3514C48.9308 21.3648 48.9336 21.379 48.9339 21.3934Z" fill="#263238"/>
<path d="M37.4325 21.2305C37.4325 21.2305 40.9439 21.1784 43.6022 25.1415C45.3536 27.7545 45.7231 31.0341 45.7231 31.0341L47.0783 24.7922L46.0707 21.9375L43.6441 20.5655L39.0396 20.3069L37.3015 21.1667" fill="#C1C1C1"/>
<path d="M44.3125 21.5545C38.7205 20.2111 34.2486 22.0583 33.4291 26.4463L31.9278 23.9962L35.2007 20.0566L38.3913 19.2271L44.8045 20.2027L44.3125 21.5545Z" fill="#C1C1C1"/>
<path d="M47.9282 21.1751C47.9214 21.1578 47.9169 21.1398 47.9147 21.1213C47.9147 21.081 47.8996 21.029 47.8879 20.9635C47.8765 20.8774 47.8597 20.7922 47.8375 20.7082C47.8106 20.6075 47.7888 20.4916 47.7435 20.3724C47.6451 20.0624 47.5157 19.7631 47.3572 19.479C47.1465 19.104 46.8923 18.7551 46.5999 18.4395C46.2459 18.0561 45.846 17.7177 45.4093 17.432C44.9066 17.1076 44.3649 16.848 43.7972 16.6595C42.5981 16.2514 41.1943 16.107 39.735 16.1373C38.2757 16.1675 36.8802 16.3052 35.6527 16.6293C35.0741 16.7793 34.5116 16.9857 33.9734 17.2456C33.5045 17.4738 33.0619 17.7525 32.6535 18.0768C32.0557 18.542 31.5543 19.1192 31.1774 19.7762C31.1119 19.8938 31.0548 19.9979 31.0095 20.092C30.9641 20.186 30.9272 20.2599 30.902 20.3287C30.8768 20.3976 30.8566 20.4396 30.8399 20.4782C30.8231 20.5168 30.818 20.5286 30.8163 20.5269C30.8976 20.26 31.0073 20.0027 31.1438 19.7595C31.5126 19.0907 32.0117 18.5025 32.6115 18.0298C33.021 17.7013 33.466 17.4197 33.9381 17.1902C34.4801 16.9242 35.0471 16.7127 35.6308 16.5588C36.8651 16.2229 38.2673 16.0919 39.7333 16.055C41.1993 16.018 42.6133 16.1725 43.8223 16.589C44.3962 16.7808 44.9431 17.0455 45.4496 17.3766C45.8894 17.6666 46.2911 18.0107 46.6452 18.4009C46.9382 18.7217 47.1919 19.0763 47.4009 19.4572C47.5569 19.7456 47.6824 20.0495 47.7754 20.364C47.8108 20.4776 47.8399 20.5931 47.8627 20.7099C47.8833 20.7949 47.8974 20.8814 47.9047 20.9685C47.9131 21.0357 47.9198 21.0878 47.9248 21.1365C47.9269 21.1492 47.928 21.1621 47.9282 21.1751Z" fill="#263238"/>
<path d="M33.8491 24.9535C33.7703 24.9477 33.6925 24.9325 33.6174 24.9081C33.4114 24.8424 33.2175 24.7437 33.0431 24.6159C32.7875 24.4205 32.57 24.1797 32.4016 23.9056C32.197 23.5699 32.0458 23.2045 31.9532 22.8225C31.7978 22.1277 31.7898 21.408 31.9297 20.7099C31.9708 20.4986 32.0321 20.2916 32.1128 20.092C32.1396 20.0214 32.1682 19.9694 32.185 19.9341C32.2018 19.8989 32.2152 19.8804 32.2169 19.8821C32.1207 20.156 32.0449 20.4366 31.9902 20.7217C31.8707 21.4118 31.8872 22.1186 32.0389 22.8023C32.1299 23.1751 32.2747 23.5326 32.4688 23.8636C32.6294 24.1319 32.8364 24.3695 33.08 24.5656C33.3123 24.7379 33.5725 24.8691 33.8491 24.9535Z" fill="#FAFAFA"/>
<path d="M45.6811 21.4084L45.6442 21.3967L45.5401 21.3514L45.3721 21.2775L45.137 21.1885C44.6368 21.0038 44.1166 20.8786 43.5871 20.8157C42.8015 20.7216 42.0074 20.725 41.2226 20.8257C40.7793 20.8778 40.3175 20.9618 39.8406 21.0592C39.3637 21.1566 38.875 21.2758 38.383 21.4286C36.3981 22.0029 34.8683 23.254 34.1848 24.4076C33.9084 24.8634 33.7008 25.3573 33.5685 25.8736C33.5198 26.0567 33.4912 26.1994 33.4711 26.2985C33.461 26.3422 33.4543 26.3791 33.4476 26.4093C33.4451 26.4221 33.4412 26.4345 33.4358 26.4463C33.4333 26.4335 33.4333 26.4204 33.4358 26.4077C33.4358 26.3774 33.4459 26.3405 33.4526 26.2951C33.4724 26.1505 33.4998 26.007 33.5349 25.8653C33.6542 25.3408 33.8548 24.8382 34.1294 24.3757C34.8145 23.2002 36.3595 21.924 38.3628 21.353C38.8666 21.2002 39.3502 21.0827 39.8288 20.9836C40.3074 20.8845 40.7709 20.8039 41.2176 20.7552C42.0087 20.6545 42.8094 20.6545 43.6005 20.7552C44.133 20.8248 44.6547 20.9602 45.1538 21.1582L45.3872 21.2556L45.5552 21.3379L45.6559 21.39C45.671 21.4001 45.6828 21.4068 45.6811 21.4084Z" fill="#263238"/>
<path d="M38.3628 21.4169C38.4035 21.4125 38.4446 21.4125 38.4854 21.4169C38.6014 21.4257 38.7169 21.4408 38.8313 21.4623C39.2533 21.5432 39.6627 21.6799 40.0488 21.8686C41.0295 22.3338 42.2537 23.2725 43.2293 24.6176C43.681 25.2541 44.0771 25.9283 44.4132 26.6327C44.699 27.1999 44.9518 27.783 45.1706 28.3792C45.32 28.7801 45.4395 29.1916 45.5283 29.6101C45.5568 29.7596 45.577 29.8754 45.5854 29.9544C45.593 29.9942 45.597 30.0347 45.5971 30.0753C45.583 30.0373 45.5734 29.9979 45.5686 29.9577C45.5551 29.8788 45.5299 29.7646 45.4947 29.6219C45.3932 29.2079 45.2659 28.8007 45.1135 28.4027C44.8869 27.8128 44.6291 27.2355 44.341 26.6731C44.0042 25.9777 43.611 25.311 43.1655 24.6797C42.3479 23.5333 41.2737 22.5936 40.0286 21.9358C39.6487 21.7443 39.2465 21.6005 38.8313 21.5076C38.6835 21.4774 38.5693 21.4555 38.4955 21.4455C38.4504 21.4404 38.4059 21.4309 38.3628 21.4169Z" fill="#263238"/>
<path d="M37.3939 26.8527C37.3775 26.631 37.3438 26.4109 37.2932 26.1944C37.2287 25.9433 37.1268 25.7033 36.9909 25.4824C36.813 25.1885 36.5805 24.9314 36.3057 24.7251C35.975 24.4708 35.589 24.2982 35.179 24.2213C34.7098 24.136 34.2264 24.1772 33.7784 24.3405C33.5375 24.4268 33.311 24.5491 33.1067 24.7032C32.8895 24.8605 32.6995 25.0523 32.5442 25.2708C32.2082 25.727 32.027 26.2786 32.027 26.8452C32.027 27.4117 32.2082 27.9633 32.5442 28.4195C32.6995 28.6381 32.8895 28.8298 33.1067 28.9871C33.311 29.1413 33.5375 29.2635 33.7784 29.3498C34.2269 29.5134 34.7109 29.5546 35.1806 29.469C35.5535 29.3987 35.9074 29.2506 36.2193 29.0345C36.5312 28.8184 36.7941 28.539 36.9909 28.2146C37.1271 27.9939 37.229 27.7539 37.2932 27.5026C37.3436 27.2866 37.3773 27.0671 37.3939 26.846C37.3966 26.8604 37.3966 26.8752 37.3939 26.8897C37.3939 26.9232 37.3939 26.9652 37.3939 27.019C37.3939 27.091 37.3877 27.1629 37.3754 27.2339C37.365 27.3295 37.3481 27.4243 37.3251 27.5177C37.2667 27.7719 37.1705 28.0159 37.0396 28.2415C36.8631 28.5445 36.6292 28.8103 36.3511 29.024C35.9877 29.3045 35.5593 29.4886 35.1057 29.559C34.652 29.6295 34.188 29.5841 33.7566 29.427C33.5072 29.3397 33.2727 29.2145 33.0614 29.0559C32.9515 28.9745 32.8472 28.8858 32.749 28.7906C32.6513 28.6915 32.561 28.5854 32.4787 28.4732C32.1298 28.0027 31.9415 27.4325 31.9415 26.8468C31.9415 26.2611 32.1298 25.6909 32.4787 25.2205C32.561 25.1082 32.6513 25.0022 32.749 24.9031C32.8472 24.8079 32.9515 24.7192 33.0614 24.6377C33.2727 24.4791 33.5072 24.354 33.7566 24.2666C34.3566 24.0493 35.0139 24.0495 35.6138 24.267C36.2138 24.4846 36.7183 24.9058 37.0396 25.4572C37.1739 25.6839 37.273 25.9296 37.3335 26.186C37.3564 26.2794 37.3732 26.3742 37.3838 26.4698C37.3951 26.5387 37.4007 26.6083 37.4006 26.6781C37.4006 26.7318 37.4006 26.7738 37.4006 26.8074C37.401 26.8228 37.3987 26.8381 37.3939 26.8527Z" fill="#263238"/>
<path d="M45.8375 30.2566C45.7161 30.1303 45.5656 30.0358 45.3992 29.9812H45.4328C45.4019 29.9737 45.3704 29.9686 45.3387 29.9661C45.2823 29.9509 45.2234 29.9476 45.1656 29.9562C45.1078 29.9649 45.0524 29.9854 45.0029 30.0164C44.8168 30.0887 44.6641 30.2275 44.5747 30.406C44.5055 30.5647 44.4813 30.7393 44.5047 30.9108C44.5281 31.0823 44.5982 31.244 44.7073 31.3783C44.7865 31.5012 44.9011 31.5971 45.036 31.6534C45.1708 31.7097 45.3196 31.7238 45.4626 31.6938C45.6056 31.6637 45.7362 31.591 45.837 31.4852C45.9378 31.3795 46.0041 31.2456 46.0272 31.1013C46.0695 30.9559 46.0742 30.8022 46.0411 30.6545C46.0079 30.5068 45.9378 30.3699 45.8375 30.2566Z" fill="#455A64"/>
<path d="M35.2058 23.2355C35.1466 23.2145 35.0902 23.1863 35.0379 23.1515C34.9749 23.1169 34.9143 23.0782 34.8565 23.0357C34.7776 22.9836 34.7013 22.9276 34.6281 22.8678C34.4349 22.7156 34.2551 22.547 34.0908 22.364C33.8899 22.1378 33.7101 21.8939 33.5534 21.6352C33.4011 21.3734 33.2724 21.0986 33.1688 20.814C33.0863 20.5812 33.0234 20.3419 32.9808 20.0986C32.9589 19.9962 32.9522 19.9005 32.9421 19.8182C32.9321 19.7475 32.927 19.6763 32.927 19.6049C32.9202 19.5441 32.9202 19.4827 32.927 19.4219C32.9438 19.4219 32.9539 19.6805 33.0378 20.0936C33.0888 20.3315 33.1567 20.5656 33.241 20.7938C33.3466 21.0717 33.4753 21.3402 33.6256 21.5965C33.7796 21.8506 33.9543 22.0915 34.1478 22.3169C34.3072 22.5003 34.4795 22.672 34.6634 22.8308C34.9908 23.0894 35.2142 23.2204 35.2058 23.2355Z" fill="#FAFAFA"/>
<path d="M35.4494 18.5117C35.4628 18.5117 35.3553 18.7569 35.2327 19.1599C35.0717 19.6834 34.9769 20.225 34.9506 20.772C34.9253 21.3198 34.9676 21.8686 35.0766 22.406C35.1622 22.8174 35.2445 23.0659 35.2327 23.0777C35.2011 23.0252 35.1768 22.9687 35.1605 22.9097C35.1028 22.7523 35.0552 22.5913 35.0178 22.4278C34.7587 21.3418 34.8129 20.2046 35.174 19.1482C35.2254 18.9847 35.2877 18.8248 35.3604 18.6696C35.3836 18.6136 35.4135 18.5606 35.4494 18.5117Z" fill="#FAFAFA"/>
<path d="M39.2529 20.9719C39.171 20.8164 39.0975 20.6567 39.0329 20.4933C38.6851 19.7244 38.2244 19.0118 37.6659 18.3791C37.5437 18.2532 37.4282 18.121 37.32 17.9828C37.3615 18.0064 37.3993 18.0358 37.4325 18.0701C37.503 18.1289 37.6004 18.2196 37.7113 18.3371C38.302 18.9541 38.7699 19.6778 39.09 20.4698C39.1504 20.6209 39.1941 20.7452 39.2209 20.8325C39.238 20.8773 39.2488 20.9242 39.2529 20.9719Z" fill="#FAFAFA"/>
<path d="M40.3613 18.2985C40.4146 18.4102 40.4492 18.5299 40.4638 18.6528C40.5725 19.2383 40.5531 19.8404 40.4067 20.4177C40.3832 20.5387 40.3413 20.6554 40.2824 20.7636C40.3642 20.3584 40.4203 19.9484 40.4503 19.5361C40.4467 19.1221 40.417 18.7087 40.3613 18.2985Z" fill="#FAFAFA"/>
<path d="M42.2453 18.9382C42.3029 19.2506 42.2889 19.572 42.2046 19.8782C42.1203 20.1845 41.9677 20.4676 41.7583 20.7065C41.9032 20.4335 42.0245 20.1487 42.121 19.8551C42.1884 19.5536 42.2299 19.2468 42.2453 18.9382Z" fill="#FAFAFA"/>
<path d="M43.8711 25.7713C43.8543 25.7713 43.8896 25.4808 43.8912 25.0139C43.8898 24.4041 43.8171 23.7966 43.6746 23.2037C43.5293 22.6134 43.3145 22.0423 43.0348 21.5026C42.8182 21.0895 42.6553 20.8493 42.667 20.8409C42.7158 20.8915 42.7581 20.9479 42.793 21.0089C42.9006 21.1603 42.9993 21.3178 43.0885 21.4807C43.3874 22.0182 43.6133 22.5931 43.7602 23.1903C43.9057 23.7874 43.9701 24.4013 43.9517 25.0156C43.9473 25.201 43.9328 25.386 43.908 25.5698C43.9024 25.638 43.89 25.7055 43.8711 25.7713Z" fill="#455A64"/>
<path d="M47.3386 22.9535C47.3524 23.0299 47.3585 23.1076 47.357 23.1852C47.357 23.2608 47.357 23.3532 47.357 23.4606C47.357 23.5681 47.357 23.689 47.3386 23.8234C47.3135 24.138 47.2669 24.4505 47.1992 24.7587C47.0305 25.514 46.7395 26.2367 46.3377 26.8981C46.1726 27.1671 45.9903 27.4251 45.7919 27.6706C45.7097 27.7764 45.624 27.8654 45.5535 27.9443C45.483 28.0232 45.4175 28.0904 45.3637 28.1425C45.3128 28.1992 45.2566 28.251 45.1958 28.297C45.2395 28.2328 45.2896 28.1731 45.3453 28.1189C45.3956 28.0635 45.4578 27.9947 45.5233 27.9124C45.5887 27.8301 45.671 27.7445 45.75 27.632C45.9408 27.3843 46.1163 27.1252 46.2756 26.8561C46.4668 26.5255 46.6351 26.1821 46.7794 25.8284C46.9198 25.4724 47.0354 25.1072 47.1253 24.7352C47.1967 24.4308 47.2494 24.1224 47.2831 23.8116C47.3016 23.6789 47.305 23.558 47.3134 23.4522C47.3218 23.3464 47.3268 23.2558 47.3268 23.1802C47.324 23.1044 47.3279 23.0286 47.3386 22.9535Z" fill="#FAFAFA"/>
<path d="M43.1238 16.5167C43.1474 16.6331 43.1474 16.753 43.1238 16.8694C43.0791 17.1526 42.9782 17.424 42.8271 17.6677C42.676 17.9114 42.4777 18.1224 42.2438 18.2884C42.1514 18.3648 42.0447 18.4219 41.9298 18.4563C41.9298 18.4445 42.0406 18.379 42.2069 18.2464C42.6409 17.8963 42.943 17.4089 43.0633 16.8643C43.0775 16.7475 43.0977 16.6315 43.1238 16.5167Z" fill="#FAFAFA"/>
<path d="M46.3965 18.3C46.4203 18.415 46.4174 18.5339 46.3882 18.6477C46.3377 18.9252 46.2226 19.1869 46.0523 19.4117C45.8805 19.6371 45.657 19.818 45.4007 19.939C45.2979 19.9972 45.1829 20.0305 45.0649 20.0364C45.0649 20.023 45.1875 19.9844 45.3705 19.8836C45.607 19.7512 45.8143 19.5724 45.9801 19.358C46.1449 19.143 46.2643 18.8968 46.3311 18.6342C46.3781 18.4327 46.3814 18.3 46.3965 18.3Z" fill="#FAFAFA"/>
<path d="M47.5719 19.7477C47.5272 19.8485 47.4626 19.9393 47.3821 20.0147C47.0171 20.4096 46.5148 20.65 45.9782 20.6864C45.8693 20.7018 45.7584 20.6943 45.6525 20.6646C46.0159 20.6385 46.3724 20.5517 46.7071 20.4076C47.0299 20.2371 47.3221 20.014 47.5719 19.7477Z" fill="#FAFAFA"/>
<path d="M39.8037 17.9491C39.6344 17.7087 39.543 17.422 39.5417 17.128C39.5098 16.8375 39.5684 16.5442 39.7096 16.2883C39.6504 16.5643 39.6211 16.8458 39.6223 17.128C39.6543 17.4072 39.7151 17.6824 39.8037 17.9491Z" fill="#FAFAFA"/>
<path d="M39.2914 18.0818C39.2914 18.0902 39.189 18.013 39.0614 17.8618C38.734 17.4608 38.535 16.9704 38.4904 16.4546C38.4738 16.3491 38.4773 16.2414 38.5005 16.1372C38.5476 16.4887 38.6315 16.8343 38.7507 17.1683C38.8975 17.4914 39.0788 17.7976 39.2914 18.0818Z" fill="#455A64"/>
<path d="M36.3377 16.5167C36.4179 17.098 36.2893 17.6888 35.975 18.1842C35.9498 18.1725 36.1194 17.8249 36.2185 17.3631C36.3176 16.9013 36.3108 16.5167 36.3377 16.5167Z" fill="#FAFAFA"/>
<path d="M33.8104 18.8829C33.8104 18.8929 33.7298 18.8678 33.6224 18.7955C33.4859 18.6971 33.3715 18.5713 33.2865 18.4261C33.1975 18.282 33.1403 18.1205 33.1186 17.9525C33.1051 17.8249 33.1186 17.7443 33.1303 17.746C33.178 17.9673 33.2548 18.1813 33.3587 18.3824C33.4861 18.5688 33.638 18.7372 33.8104 18.8829Z" fill="#455A64"/>
<path d="M35.1303 12.4008C35.1421 12.4108 34.9624 12.6023 34.7374 12.9633C34.4505 13.4331 34.2689 13.9596 34.2051 14.5063C34.1413 15.0531 34.1969 15.6072 34.3679 16.1304C34.4989 16.5335 34.6349 16.7602 34.6198 16.7686C34.5788 16.7214 34.5443 16.6688 34.5174 16.6124C34.4359 16.4642 34.3662 16.3098 34.3092 16.1506C34.1186 15.621 34.0536 15.0544 34.1195 14.4955C34.1854 13.9365 34.3802 13.4005 34.6887 12.9297C34.7811 12.7881 34.8844 12.654 34.9977 12.5284C35.0766 12.4411 35.1253 12.3957 35.1303 12.4008Z" fill="#FAFAFA"/>
<path d="M31.7466 14.2917C31.7617 14.2917 31.7097 14.5067 31.7097 14.8526C31.7074 15.3033 31.8129 15.748 32.0174 16.1497C32.2219 16.5513 32.5194 16.8983 32.8852 17.1616C33.1656 17.3648 33.3671 17.4454 33.3604 17.4605C33.3099 17.4524 33.2611 17.436 33.216 17.4118C33.0883 17.3562 32.9658 17.2893 32.8499 17.212C32.4629 16.9552 32.1478 16.6037 31.9347 16.191C31.7249 15.7752 31.6238 15.313 31.6408 14.8476C31.6459 14.7085 31.6639 14.5702 31.6946 14.4345C31.7037 14.3843 31.7213 14.336 31.7466 14.2917Z" fill="#455A64"/>
<path d="M38.2369 13.2656C38.2629 13.3 38.2827 13.3387 38.2956 13.3798C38.3427 13.488 38.3792 13.6005 38.4048 13.7157C38.494 14.0911 38.5042 14.4809 38.4348 14.8604C38.3654 15.24 38.218 15.601 38.0018 15.9206C37.9373 16.0176 37.8637 16.1081 37.7818 16.1909C37.7247 16.2497 37.6911 16.2799 37.6861 16.2749C37.681 16.2699 37.7986 16.1321 37.9497 15.887C38.3465 15.2417 38.4873 14.4713 38.3443 13.7274C38.2906 13.4403 38.215 13.2723 38.2369 13.2656Z" fill="#FAFAFA"/>
<path d="M39.9195 13.8231C39.9634 13.9406 39.984 14.0655 39.9799 14.1909C39.9989 14.8038 39.7901 15.4021 39.3938 15.8702C39.3176 15.9703 39.2237 16.0556 39.1168 16.1221C39.1879 16.0214 39.2641 15.9244 39.3451 15.8315C39.7021 15.3582 39.9023 14.7852 39.9178 14.1926C39.9228 13.9675 39.906 13.8248 39.9195 13.8231Z" fill="#455A64"/>
<path d="M42.6317 14.7821C42.6418 14.7821 42.6922 14.8493 42.7375 14.9819C42.7948 15.1572 42.8154 15.3424 42.798 15.526C42.7783 15.7103 42.7212 15.8886 42.6301 16.05C42.5595 16.1725 42.4974 16.233 42.489 16.2179C42.594 15.9932 42.6658 15.7545 42.7023 15.5092C42.7133 15.2647 42.6896 15.0199 42.6317 14.7821Z" fill="#FAFAFA"/>
<path d="M45.5064 16.6343C45.5215 16.6527 45.3889 16.7888 45.1705 16.8795C45.0486 16.9495 44.9067 16.9767 44.7675 16.9567C44.8848 16.893 45.008 16.8407 45.1353 16.8005C45.2537 16.7339 45.3779 16.6783 45.5064 16.6343Z" fill="#FAFAFA"/>
<path d="M47.206 17.9777C47.313 18.1562 47.3568 18.3656 47.3302 18.5721C47.3334 18.78 47.2679 18.983 47.1439 19.1498C47.1203 19.138 47.2278 18.8912 47.2429 18.5671C47.258 18.243 47.1808 17.9861 47.206 17.9777Z" fill="#455A64"/>
<path d="M44.5544 12.7367C44.5544 12.7367 44.588 12.7686 44.6283 12.8375C44.6857 12.935 44.7335 13.038 44.7711 13.1448C44.9002 13.4995 44.9352 13.8818 44.8725 14.2541C44.8098 14.6264 44.6516 14.9761 44.4134 15.269C44.3426 15.3577 44.2633 15.4393 44.1766 15.5125C44.1162 15.5646 44.0792 15.5881 44.0742 15.5831C44.0691 15.578 44.1984 15.4588 44.3647 15.2321C44.5814 14.9393 44.7258 14.5994 44.7862 14.2402C44.8466 13.8809 44.8213 13.5125 44.7123 13.1649C44.6317 12.8962 44.541 12.7434 44.5544 12.7367Z" fill="#455A64"/>
<path d="M46.7053 14.4999C46.7045 14.6252 46.677 14.7488 46.6247 14.8627C46.5132 15.1439 46.3369 15.395 46.1102 15.5954C45.8835 15.7958 45.6128 15.94 45.3199 16.0163C45.2008 16.0545 45.0749 16.0671 44.9505 16.0533C44.9505 16.0382 45.0899 16.0247 45.3031 15.9575C45.5796 15.8678 45.8346 15.722 46.0521 15.5293C46.2697 15.3366 46.4452 15.1011 46.5676 14.8375C46.6617 14.6393 46.6902 14.4966 46.7053 14.4999Z" fill="#FAFAFA"/>
<path d="M48.2907 16.5167C48.2977 16.5998 48.2826 16.6832 48.2471 16.7585C48.1773 16.9454 48.0668 17.1144 47.9236 17.2532C47.7804 17.3921 47.6081 17.4973 47.4192 17.5612C47.3428 17.5932 47.2598 17.6059 47.1774 17.5982C47.4285 17.5046 47.6606 17.3663 47.8625 17.1901C48.0459 16.9943 48.1912 16.7659 48.2907 16.5167Z" fill="#455A64"/>
<path d="M33.0632 41.1551L37.2227 38.7537L45.3941 37.9476L45.4478 39.145L43.2413 55.8386L45.0381 69.9244H31.9448L33.0632 41.1551Z" fill="#263238"/>
<path d="M36.9171 40.4598L36.6602 38.0568C36.6495 37.9563 36.6589 37.8547 36.6879 37.7579C36.7168 37.6611 36.7647 37.5711 36.8288 37.4929C36.8928 37.4148 36.9718 37.3502 37.061 37.3029C37.1503 37.2555 37.248 37.2264 37.3487 37.2172L44.9692 36.5287C45.0181 36.5243 45.0674 36.5299 45.1141 36.5453C45.1607 36.5606 45.2038 36.5853 45.2405 36.6178C45.2773 36.6504 45.3071 36.6901 45.328 36.7345C45.3489 36.7789 45.3605 36.8272 45.3622 36.8763L45.4478 39.731L43.2412 43.4758L40.9725 44.1945H38.2L36.6047 42.4918L36.9171 40.4598Z" fill="#263238"/>
<path d="M44.3225 38.8208C44.2207 38.8168 44.1192 38.8067 44.0186 38.7906C43.7423 38.7645 43.4644 38.7594 43.1873 38.7755C42.7766 38.8036 42.3685 38.8625 41.9665 38.9518C41.5114 39.0476 41.0177 39.1819 40.4938 39.3095C40.001 39.437 39.4991 39.5262 38.9925 39.5765C38.5765 39.615 38.1569 39.5867 37.7498 39.4926C37.4752 39.427 37.2128 39.3181 36.9723 39.1701C36.9084 39.1287 36.8467 39.0839 36.7876 39.0358C36.7473 39.0022 36.7272 38.9821 36.7305 38.9804C36.7339 38.9787 36.8212 39.0408 36.9925 39.1382C37.2347 39.2712 37.4949 39.3685 37.765 39.4271C38.1663 39.5105 38.5781 39.5315 38.9858 39.4892C39.4866 39.4348 39.9827 39.3438 40.4703 39.2172C40.9925 39.0895 41.4896 38.9569 41.9497 38.8662C42.3561 38.7796 42.7689 38.7268 43.184 38.7083C43.4647 38.6975 43.7457 38.7127 44.0236 38.7537C44.1227 38.7705 44.1915 38.7839 44.2486 38.7973C44.2739 38.8029 44.2987 38.8108 44.3225 38.8208Z" fill="#455A64"/>
<g opacity="0.3">
<path opacity="0.3" d="M37.0984 39.1954C36.8935 39.7563 36.8885 40.4515 37.3016 40.8747C37.6374 41.2257 38.1815 41.313 38.6584 41.2106C39.1306 41.0891 39.5787 40.8881 39.9834 40.6161C41.0329 39.9914 42.0976 39.3449 43.2899 39.0812C43.3679 39.0712 43.4417 39.0398 43.5031 38.9906C43.5178 38.9781 43.5298 38.9627 43.5382 38.9454C43.5467 38.9281 43.5515 38.9092 43.5523 38.89C43.553 38.8707 43.5498 38.8515 43.5428 38.8336C43.5358 38.8156 43.5252 38.7993 43.5115 38.7857C43.4818 38.7671 43.4475 38.7572 43.4125 38.7571C42.3579 38.6513 41.3436 39.0678 40.3108 39.2995C39.2781 39.5313 38.0908 39.7748 37.1454 39.2173" fill="black"/>
</g>
<path d="M38.5509 37.1416C38.4427 37.1999 38.3522 37.2864 38.2889 37.3918C38.1697 37.5849 38.1848 37.9124 38.1848 38.2667C38.205 38.9787 38.3225 39.5463 38.294 39.553C38.2419 39.4362 38.2074 39.3122 38.1915 39.1853C38.1326 38.8835 38.0989 38.5774 38.0908 38.2701C38.0832 38.1021 38.0866 37.9338 38.1009 37.7663C38.111 37.6228 38.156 37.4839 38.2318 37.3616C38.284 37.2788 38.3585 37.2124 38.4468 37.1702C38.514 37.1416 38.5509 37.1416 38.5509 37.1416Z" fill="#455A64"/>
<path d="M40.5663 39.2289C40.536 39.2289 40.6049 38.7016 40.5109 38.0669C40.4168 37.4321 40.2119 36.9451 40.2405 36.9333C40.3093 37.027 40.362 37.1314 40.3967 37.2423C40.4963 37.504 40.5662 37.7761 40.6049 38.0534C40.6459 38.3314 40.6543 38.6132 40.6301 38.8931C40.6279 39.0078 40.6063 39.1214 40.5663 39.2289Z" fill="#455A64"/>
<path d="M43.0211 36.7319C43.089 36.8151 43.1382 36.9119 43.1655 37.0157C43.3323 37.5103 43.2961 38.0508 43.0647 38.5187C43.0255 38.619 42.9634 38.7087 42.8834 38.7807C43.0349 38.4633 43.132 38.1227 43.1705 37.7731C43.2142 37.1853 42.9908 36.742 43.0211 36.7319Z" fill="#455A64"/>
<path d="M27.4931 61.7245C27.4931 61.7245 29.3403 48.1224 29.8793 45.6555C30.0823 44.73 30.4693 43.8548 31.0175 43.0819C31.5656 42.309 32.2636 41.6543 33.0699 41.1567L33.5821 65.8018L31.3302 68.6364L28.8113 69.6003C28.2346 69.822 27.598 69.8321 27.0145 69.6289L24.6014 68.7892L24.3965 64.1914L26.4351 63.602L27.4931 61.7245Z" fill="#263238"/>
<path d="M52.5966 40.9234C53.5209 41.283 54.3427 41.8642 54.9898 42.6159C55.6369 43.3675 56.0895 44.2666 56.3078 45.2341C57.7486 51.5834 60.2138 60.0319 60.2524 62.7573C60.3011 66.2284 58.783 68.6046 56.8015 69.0429C55.668 69.2931 47.9584 69.1671 43.772 69.0781C43.0245 69.0617 42.3079 68.777 41.753 68.276C41.198 67.7751 40.8418 67.0912 40.7493 66.3493C40.647 65.5399 40.8662 64.7227 41.3597 64.0731C41.8533 63.4235 42.5819 62.9933 43.3891 62.8749L51.8711 61.6272L50.296 52.8261L51.8543 40.6362L52.5966 40.9234Z" fill="#263238"/>
<path d="M45.2295 38.1996L48.6266 39.5884L51.8576 40.6362L51.9348 50.3038L50.0121 69.8993L43.2698 69.9245L43.2832 61.1788C43.0326 56.9629 43.3079 52.7322 44.1027 48.5842L45.1287 40.2701" fill="#263238"/>
<path d="M50.2 51.936C50.2123 51.9674 50.2207 52.0001 50.2252 52.0334C50.2403 52.109 50.2588 52.2014 50.2806 52.3155C50.3276 52.5742 50.3931 52.9268 50.4704 53.355C50.6266 54.2467 50.8365 55.4558 51.0699 56.7908C51.3033 58.1259 51.4931 59.3383 51.6425 60.23C51.7097 60.6616 51.7651 61.0142 51.8104 61.2745C51.8272 61.3904 51.8407 61.4844 51.8508 61.56C51.8556 61.5934 51.8556 61.6273 51.8508 61.6607C51.8385 61.6294 51.83 61.5967 51.8256 61.5633C51.8088 61.4878 51.7903 61.3954 51.7668 61.2812C51.7198 61.0226 51.6543 60.6716 51.5737 60.2417C51.4158 59.3635 51.2026 58.1494 50.9742 56.8059C50.7458 55.4625 50.5426 54.2484 50.4032 53.3668C50.336 52.9352 50.2823 52.5826 50.2353 52.3223C50.2202 52.2064 50.2084 52.1124 50.1983 52.0368C50.194 52.0033 50.1946 51.9694 50.2 51.936Z" fill="#263238"/>
<path d="M53.3825 42.297C53.2984 42.3357 53.2114 42.3677 53.1222 42.3927C52.8865 42.4788 52.6561 42.5786 52.432 42.6916C51.6956 43.0704 51.057 43.6147 50.5664 44.2819C50.4263 44.4699 50.3032 44.6699 50.1986 44.8797C50.108 45.078 50.0345 45.2836 49.9786 45.4943C49.8834 45.854 49.8215 46.2216 49.7939 46.5926C49.7653 46.9083 49.7603 47.1669 49.7586 47.3449C49.7647 47.4372 49.7647 47.5297 49.7586 47.622C49.738 47.5311 49.7278 47.4381 49.7284 47.3449C49.7143 47.0926 49.7143 46.8398 49.7284 46.5875C49.7473 46.2112 49.8035 45.8377 49.8963 45.4725C49.9514 45.2554 50.0256 45.0435 50.118 44.8394C50.2237 44.624 50.349 44.4188 50.4925 44.2265C50.9905 43.5468 51.6471 42.9991 52.4052 42.6312C52.6339 42.5217 52.8709 42.4302 53.1138 42.3574C53.201 42.3279 53.2911 42.3076 53.3825 42.297Z" fill="#263238"/>
<path d="M43.1943 62.9101C43.2336 62.9114 43.273 62.9086 43.3118 62.9017L43.6477 62.8597L44.887 62.6918L48.971 62.0856L51.94 61.6288H51.9282C52.3066 61.6832 52.6627 61.8406 52.9576 62.0839C53.1883 62.2682 53.3801 62.4965 53.5218 62.7556C53.6413 62.9842 53.7262 63.2292 53.7737 63.4827C53.7764 63.4655 53.7764 63.4479 53.7737 63.4307C53.7737 63.3954 53.7737 63.345 53.7536 63.2796C53.7181 63.0893 53.6548 62.9054 53.5655 62.7338C53.4267 62.4642 53.2347 62.2254 53.0013 62.0319C52.6991 61.7754 52.3317 61.6079 51.94 61.5482H51.9282L48.9626 61.9949L44.8836 62.628L43.6494 62.8295L43.3135 62.89C43.2731 62.8923 43.2332 62.8991 43.1943 62.9101Z" fill="#263238"/>
<path d="M43.8759 69.0814C43.904 69.0767 43.9312 69.0677 43.9565 69.0546C44.0335 69.0269 44.1082 68.9932 44.1799 68.9538C44.4458 68.8122 44.6832 68.6226 44.8801 68.3946C45.1719 68.0546 45.3887 67.6569 45.5166 67.2275C45.675 66.7021 45.7168 66.1485 45.6392 65.6053C45.5507 65.0602 45.3189 64.5485 44.9675 64.1225C44.6859 63.7759 44.3368 63.4903 43.9414 63.2829C43.6781 63.1421 43.395 63.0419 43.1018 62.9857C42.9993 62.9638 42.9154 62.9638 42.86 62.9554C42.8321 62.9517 42.8039 62.9517 42.776 62.9554C43.1746 63.022 43.5597 63.153 43.9162 63.3433C44.2979 63.5555 44.634 63.8408 44.9053 64.183C45.2414 64.5991 45.4631 65.0958 45.5485 65.6238C45.6233 66.1514 45.5849 66.689 45.436 67.2006C45.3153 67.6209 45.1095 68.0119 44.8314 68.3493C44.6424 68.5771 44.4151 68.7703 44.1597 68.9202C43.9817 69.026 43.8726 69.0714 43.8759 69.0814Z" fill="#263238"/>
<g opacity="0.2">
<path opacity="0.2" d="M50.3259 52.5641L49.0598 62.0201L50.6635 61.6607L51.1605 57.5347L50.3259 52.5641Z" fill="black"/>
</g>
<g opacity="0.3">
<path opacity="0.3" d="M24.4334 64.1931C25.1952 64.0554 25.9756 64.0554 26.7374 64.1931C27.0633 64.2662 27.3695 64.4091 27.6348 64.612C27.9001 64.815 28.1182 65.0731 28.2739 65.3686C28.5727 65.9238 28.6655 66.5668 28.5359 67.1839C28.4267 67.7162 28.3125 68.267 27.923 68.6449C27.3486 69.2024 26.7827 69.3821 26.0405 69.2511L24.6131 68.7876L24.4334 64.1931Z" fill="black"/>
</g>
<path d="M25.6625 69.1554C25.6927 69.1725 25.7248 69.186 25.7582 69.1957C25.8515 69.2296 25.9476 69.2554 26.0453 69.2729C26.4064 69.3473 26.7806 69.3276 27.1318 69.2158C27.3746 69.1365 27.5986 69.0085 27.7901 68.8397C28.0068 68.6437 28.185 68.4091 28.3157 68.1478C28.4598 67.8601 28.561 67.5529 28.6163 67.236C28.6899 66.8969 28.6979 66.5469 28.6398 66.2049C28.5653 65.8673 28.4366 65.5441 28.2586 65.2477C28.1051 64.98 27.8978 64.7469 27.6499 64.5631C27.4019 64.3793 27.1186 64.2488 26.8178 64.1797C26.5709 64.1272 26.3195 64.0991 26.0672 64.0957C25.7043 64.0927 25.3418 64.1163 24.9824 64.1662L24.6902 64.2082C24.6557 64.2103 24.6217 64.2176 24.5894 64.2301C24.6234 64.2341 24.6578 64.2341 24.6919 64.2301L24.9857 64.2066C25.3445 64.1705 25.7051 64.1571 26.0655 64.1662C26.3126 64.1739 26.5583 64.2054 26.7993 64.2603C27.0736 64.3266 27.3324 64.4452 27.5617 64.6096C28.047 64.9454 28.4014 65.5617 28.5475 66.2267C28.6034 66.557 28.596 66.895 28.5256 67.2225C28.4735 67.531 28.3768 67.8303 28.2385 68.1109C28.1137 68.3641 27.9429 68.5919 27.7347 68.7826C27.5523 68.947 27.3387 69.0732 27.1067 69.1537C26.7663 69.2683 26.4032 69.2983 26.0487 69.241C25.8002 69.1974 25.6658 69.147 25.6625 69.1554Z" fill="#263238"/>
<g opacity="0.3">
<path opacity="0.3" d="M42.9859 62.9656C43.6576 63.1503 44.3713 63.3585 44.8331 63.8825C45.3028 64.4616 45.5767 65.1748 45.6156 65.9194C45.6546 66.6641 45.4564 67.4019 45.0497 68.0269C44.8389 68.3708 44.5558 68.6647 44.2202 68.8884C43.8753 69.0621 43.4827 69.117 43.1035 69.0446C42.0959 68.8766 41.2361 68.0639 40.9372 67.0798C40.7905 66.5626 40.7535 66.0205 40.8284 65.4881C40.9033 64.9558 41.0885 64.4449 41.3721 63.9883C41.6442 63.5802 42.5174 63.1134 42.9842 62.9656" fill="black"/>
</g>
<path d="M55.2952 65.3081C55.2657 65.2425 55.2415 65.1745 55.223 65.1049C55.181 64.9739 55.1205 64.7842 55.0383 64.5525C54.8398 63.9462 54.5461 63.3754 54.1684 62.8614C53.7795 62.353 53.2559 61.9638 52.6571 61.738C52.4059 61.6559 52.1471 61.5997 51.8846 61.5701C51.9559 61.561 52.0282 61.561 52.0995 61.5701C52.2961 61.5831 52.4902 61.6209 52.6772 61.6826C53.2955 61.8972 53.8365 62.2898 54.2322 62.811C54.6197 63.331 54.9135 63.9147 55.1004 64.5357C55.176 64.7724 55.228 64.9656 55.2683 65.0999C55.286 65.1679 55.295 65.2379 55.2952 65.3081Z" fill="#455A64"/>
<path d="M49.4662 47.9343C49.4838 47.9776 49.4967 48.0227 49.5049 48.0687C49.5267 48.1661 49.5586 48.2971 49.5972 48.4616C49.6762 48.7975 49.7836 49.3013 49.9129 49.9075C50.1715 51.13 50.5057 52.8261 50.8349 54.7052C51.164 56.5843 51.4192 58.2921 51.5889 59.5314C51.6745 60.1494 51.74 60.6515 51.782 60.9991C51.8004 61.167 51.8156 61.2997 51.8273 61.3988C51.8391 61.4978 51.8391 61.5382 51.8374 61.5398C51.8234 61.4944 51.8138 61.4477 51.8088 61.4004C51.7937 61.303 51.7736 61.1704 51.7467 61.0041C51.6946 60.6498 51.6208 60.1511 51.5284 59.5398C51.342 58.3039 51.075 56.5977 50.7475 54.7203C50.4201 52.8429 50.096 51.1451 49.8525 49.9192C49.7316 49.313 49.6342 48.8193 49.5636 48.4683C49.5317 48.3004 49.5066 48.1711 49.4881 48.0737C49.477 48.0279 49.4697 47.9813 49.4662 47.9343Z" fill="#455A64"/>
<path d="M52.3344 41.1349C52.3344 41.1483 52.148 41.2541 51.8608 41.4607C51.4891 41.7295 51.1508 42.0418 50.8533 42.391C50.5561 42.7417 50.3029 43.1275 50.0993 43.5396C49.9431 43.857 49.8692 44.0635 49.8558 44.0585C49.8594 44.0064 49.8719 43.9553 49.8927 43.9074C49.9346 43.7727 49.9851 43.6409 50.0439 43.5127C50.2344 43.0878 50.4843 42.692 50.7861 42.3373C51.0891 41.982 51.4401 41.6706 51.8289 41.412C51.9463 41.3337 52.0686 41.263 52.195 41.2004C52.238 41.1718 52.285 41.1497 52.3344 41.1349Z" fill="#455A64"/>
<path d="M32.1007 63.5801C32.0986 63.5656 32.0986 63.5509 32.1007 63.5364C32.1007 63.5045 32.1007 63.4625 32.1007 63.4121C32.1007 63.2963 32.1007 63.135 32.1007 62.9319C32.0923 62.5154 32.0907 61.9125 32.0436 61.1703C32.0184 60.7992 31.9798 60.3928 31.9143 59.9612C31.8488 59.5296 31.7464 59.0729 31.6272 58.596C31.3921 57.6421 31.0562 56.5976 30.9857 55.4524C30.9513 54.3772 31.089 53.3035 31.3938 52.2718C31.6473 51.318 31.9294 50.475 32.1326 49.7529C32.2995 49.1893 32.4352 48.6169 32.539 48.0384C32.5793 47.8335 32.5944 47.6723 32.6129 47.5648C32.6129 47.5144 32.6263 47.4741 32.6314 47.4405C32.6364 47.4069 32.6314 47.3985 32.6415 47.4002C32.643 47.4142 32.643 47.4283 32.6415 47.4422C32.6415 47.4758 32.6415 47.5161 32.6314 47.5665C32.6196 47.6756 32.6096 47.8385 32.5743 48.0434C32.4757 48.6289 32.3405 49.2077 32.1696 49.7764C31.9748 50.4951 31.6994 51.3398 31.4492 52.2953C31.1543 53.3184 31.0217 54.3814 31.0562 55.4456C31.1268 56.5775 31.4559 57.6169 31.6893 58.5741C31.8062 59.0268 31.8992 59.4853 31.9681 59.9478C32.0319 60.3827 32.0671 60.7874 32.0873 61.1636C32.1276 61.9092 32.1209 62.507 32.1175 62.9302C32.1175 63.1334 32.1175 63.2946 32.1091 63.4104V63.5347C32.1087 63.5502 32.1058 63.5655 32.1007 63.5801Z" fill="#455A64"/>
<path d="M49.5719 44.124L49.5182 44.1106L49.367 44.0636C49.1721 44.0071 48.9726 43.9678 48.7709 43.946C48.0254 43.8777 47.2741 43.9805 46.5744 44.2466C46.0905 44.4245 45.6234 44.6454 45.1789 44.9066C44.6953 45.182 44.1965 45.5077 43.6676 45.8453C43.1179 46.2069 42.5439 46.5301 41.9497 46.8125C41.3076 47.1184 40.6161 47.3072 39.9077 47.3701C39.1937 47.4111 38.4807 47.275 37.8321 46.9738C37.2353 46.6947 36.6638 46.3643 36.1242 45.9863C35.6037 45.6371 35.1167 45.2995 34.6247 45.0308C34.1781 44.7742 33.6992 44.5788 33.2006 44.4498C32.7881 44.3503 32.3616 44.3219 31.9395 44.3658C31.6211 44.4002 31.3103 44.4859 31.0192 44.6194C30.7728 44.7398 30.5463 44.8973 30.3475 45.0862C30.3579 45.0717 30.3697 45.0582 30.3828 45.0459C30.408 45.0208 30.4449 44.9805 30.4953 44.9334C30.6478 44.7998 30.8171 44.6869 30.9991 44.5976C31.2919 44.4559 31.6064 44.3639 31.9294 44.3255C32.3575 44.2764 32.7908 44.3008 33.2107 44.3977C33.7159 44.5251 34.2017 44.72 34.6549 44.9771C35.1469 45.2441 35.6423 45.58 36.1662 45.9276C36.7036 46.3011 37.2721 46.6275 37.8657 46.9032C38.5005 47.194 39.1972 47.3243 39.8942 47.2827C40.5932 47.2216 41.2756 47.0362 41.9094 46.7353C42.5006 46.4555 43.0718 46.1351 43.6189 45.7764C44.1495 45.4406 44.6499 45.1181 45.1386 44.8427C45.588 44.5822 46.0601 44.363 46.5492 44.1878C47.2576 43.9242 48.0179 43.8299 48.7692 43.9124C48.9722 43.9385 49.1724 43.9835 49.367 44.0468L49.5165 44.1022C49.536 44.1065 49.5547 44.1139 49.5719 44.124Z" fill="#FAFAFA"/>
<path d="M55.9901 45.909C55.94 45.9778 55.8838 46.0418 55.8222 46.1005C55.7547 46.1741 55.6824 46.2432 55.6056 46.307C55.5091 46.3967 55.4077 46.4808 55.3016 46.5589C55.1747 46.6564 55.0424 46.7467 54.9053 46.8293C54.7496 46.9269 54.5887 47.016 54.4234 47.0963C54.0429 47.2777 53.6444 47.4184 53.2344 47.5161C52.8224 47.6067 52.4019 47.654 51.98 47.6572C51.796 47.6564 51.6121 47.6458 51.4292 47.6253C51.2701 47.6111 51.112 47.5876 50.9557 47.5547C50.8096 47.5312 50.6836 47.4892 50.5711 47.4607C50.4746 47.436 50.3799 47.4051 50.2873 47.3683C50.2064 47.3433 50.1282 47.3101 50.0539 47.2693C50.0539 47.2508 50.3897 47.3919 50.9674 47.4926C51.1223 47.5219 51.2787 47.5421 51.4359 47.5531C51.6039 47.5749 51.7886 47.5715 51.98 47.5766C52.3952 47.5683 52.8086 47.5193 53.2143 47.4305C53.6187 47.3345 54.0125 47.1983 54.3898 47.0241C54.5577 46.9368 54.7256 46.8562 54.8701 46.7672C55.0066 46.6879 55.1389 46.6016 55.2664 46.5085C55.7349 46.1677 55.975 45.8956 55.9901 45.909Z" fill="#FAFAFA"/>
<path d="M32.0203 49.1148C31.8896 49.1393 31.7559 49.1433 31.624 49.1266C31.3038 49.1055 30.9876 49.0428 30.6836 48.9402C30.3798 48.8374 30.0903 48.6963 29.8221 48.5204C29.7066 48.4545 29.6023 48.3706 29.5131 48.2719C29.8932 48.5044 30.2947 48.7001 30.7121 48.8562C31.1388 48.9844 31.5769 49.071 32.0203 49.1148Z" fill="#FAFAFA"/>
<path d="M49.8306 50.1644C49.6404 50.0254 49.4393 49.9018 49.2294 49.7949C48.6402 49.5361 47.9978 49.421 47.3553 49.4591C46.5392 49.4708 45.5871 49.6858 44.5442 49.9628C43.5014 50.2399 42.3612 50.5825 41.1319 50.8126C40.5343 50.9287 39.9285 50.9983 39.32 51.0208C38.7529 51.0388 38.1852 51.0118 37.6223 50.9402C36.6712 50.815 35.7321 50.6117 34.8145 50.3323C34.0303 50.1005 33.4056 49.8822 32.9673 49.7311L32.4719 49.5548L32.3443 49.5061C32.3157 49.4943 32.3006 49.4876 32.3023 49.4859C32.3178 49.4884 32.3329 49.4924 32.3477 49.4977L32.4786 49.538L32.9824 49.7059C33.4174 49.847 34.0437 50.0552 34.8296 50.2802C35.7465 50.5489 36.6831 50.7455 37.6307 50.868C38.1877 50.9353 38.7491 50.96 39.3099 50.9419C39.9144 50.9175 40.5161 50.8479 41.1101 50.7336C42.3326 50.5036 43.4712 50.1593 44.5174 49.894C45.5636 49.6287 46.5224 49.412 47.347 49.407C47.9983 49.376 48.6474 49.5045 49.2378 49.7815L49.3806 49.857L49.5015 49.9343C49.5653 49.9719 49.6259 50.0145 49.6828 50.0619L49.7886 50.1492L49.8306 50.1644Z" fill="#FAFAFA"/>
<path d="M20.0571 69.0025C20.0571 69.0025 21.8119 69.2611 22.4836 69.5332C23.2124 69.8271 24.1125 69.6558 24.7238 69.2595C25.0713 69.0394 25.3964 68.7857 25.6944 68.5021L27.9379 68.5139C28.2692 68.1434 28.4916 67.6885 28.5805 67.1995C28.6694 66.7105 28.6214 66.2065 28.4417 65.7431C28.3252 65.4211 28.1549 65.1213 27.9379 64.8564C27.6776 64.5625 27.2662 64.3207 26.5374 64.1847L23.8606 64.7053C23.8606 64.7053 20.4668 64.6482 19.0982 64.5844C18.7692 64.5689 18.4439 64.6589 18.1696 64.8413C17.8488 65.0546 17.4861 65.3451 17.5147 65.5248C17.5348 65.6608 17.3131 66.5323 17.9731 67.0949C17.9731 67.0949 17.3786 67.5466 17.6859 67.9715L17.8337 68.1595C17.8337 68.1595 17.4307 68.6633 17.6272 68.885C17.8236 69.1067 19.5701 70.1847 20.2065 69.9496C20.843 69.7145 20.3342 69.1201 20.0571 69.0076" fill="#B78876"/>
<path d="M18.4331 66.1931C18.508 66.2143 18.5811 66.2418 18.6514 66.2754C18.7891 66.3308 18.9872 66.4097 19.2408 66.4971C19.3667 66.539 19.5061 66.5844 19.6556 66.6264C19.805 66.6683 19.9696 66.707 20.1392 66.7657C20.3237 66.8201 20.4894 66.9248 20.6178 67.068C20.688 67.1477 20.7358 67.2444 20.7565 67.3486C20.7771 67.4527 20.7698 67.5604 20.7353 67.6608C20.69 67.7612 20.611 67.8426 20.512 67.8909C20.4188 67.9334 20.3187 67.959 20.2165 67.9664C20.0285 67.9733 19.8404 67.9593 19.6556 67.9244C19.3462 67.8687 19.043 67.7827 18.7504 67.6675C18.5002 67.5735 18.3021 67.4845 18.1661 67.424C18.0937 67.3955 18.024 67.3606 17.9578 67.3199C18.0331 67.3396 18.1067 67.3654 18.1778 67.3972C18.3172 67.4509 18.5137 67.5315 18.7672 67.6188C19.0596 67.7248 19.3608 67.8046 19.6673 67.8573C19.8462 67.89 20.0281 67.9024 20.2097 67.8942C20.3027 67.8876 20.3937 67.8643 20.4784 67.8254C20.5629 67.7858 20.6299 67.7164 20.6665 67.6306C20.6959 67.5428 20.7018 67.4488 20.6835 67.3581C20.6653 67.2673 20.6235 67.1829 20.5624 67.1134C20.4427 66.98 20.2888 66.8819 20.1174 66.8296C19.9494 66.7708 19.7899 66.7322 19.6388 66.6851C19.4876 66.6381 19.3499 66.5911 19.224 66.5458C18.9721 66.4534 18.774 66.3661 18.6396 66.3006C18.5679 66.2706 18.4988 66.2346 18.4331 66.1931Z" fill="#AA6550"/>
<path d="M18.6181 64.9219C18.6921 64.9451 18.7644 64.9732 18.8347 65.0058C18.9724 65.0629 19.1706 65.1435 19.4208 65.2325C19.671 65.3215 19.9716 65.4189 20.3091 65.5079C20.4963 65.5411 20.6733 65.6169 20.8263 65.7296C20.9072 65.7999 20.9597 65.8972 20.9741 66.0033C20.9872 66.1103 20.9691 66.2188 20.9221 66.3157C20.8745 66.4081 20.8084 66.4897 20.7277 66.5554C20.6471 66.621 20.5537 66.6692 20.4535 66.6969C20.2718 66.7519 20.0797 66.7634 19.8927 66.7305C19.5861 66.6636 19.286 66.5698 18.9959 66.45L18.3998 66.23C18.3262 66.2061 18.2548 66.1757 18.1865 66.1394C18.2626 66.1545 18.3373 66.1759 18.4099 66.2032L19.006 66.4013C19.2953 66.512 19.5929 66.5996 19.896 66.6633C20.0726 66.693 20.2536 66.6815 20.425 66.6297C20.5154 66.604 20.5996 66.56 20.6724 66.5005C20.7452 66.441 20.805 66.3673 20.8482 66.2838C20.8938 66.2033 20.911 66.1099 20.897 66.0185C20.8829 65.9271 20.8385 65.8431 20.7709 65.78C20.6272 65.6741 20.4612 65.6023 20.2856 65.5701C19.9498 65.476 19.6441 65.3736 19.3956 65.2779C19.1471 65.1822 18.9506 65.0932 18.8163 65.0294C18.747 64.9998 18.6807 64.9638 18.6181 64.9219Z" fill="#AA6550"/>
<path d="M25.6626 65.4861L24.1093 64.8496C24.1093 64.8496 19.7986 62.727 19.723 62.8345C19.6475 62.942 19.4124 62.9269 19.4527 63.4592C19.493 63.9915 22.0068 65.1133 22.0841 65.3064C22.1613 65.4995 22.0068 66.4181 22.9237 67.1032C23.8406 67.7884 24.5224 67.8186 24.5224 67.8186" fill="#B78876"/>
<path d="M24.5272 67.812H24.4886C24.4525 67.8094 24.4166 67.805 24.3811 67.7986C24.2433 67.7754 24.1079 67.74 23.9764 67.6928C23.7676 67.6186 23.5658 67.5258 23.3735 67.4157C23.1167 67.2733 22.8782 67.1002 22.6632 66.9001C22.4055 66.6467 22.2265 66.3242 22.1476 65.9715C22.1069 65.7783 22.08 65.5825 22.067 65.3854C22.0639 65.3623 22.0594 65.3393 22.0536 65.3166C22.0435 65.2997 22.0297 65.2854 22.0133 65.2746C21.9729 65.2438 21.9309 65.2152 21.8874 65.189C21.8 65.1352 21.7077 65.0832 21.6136 65.0294C21.2408 64.8212 20.8428 64.6096 20.4381 64.3678C20.2383 64.2469 20.0368 64.1193 19.842 63.9748C19.7425 63.9015 19.6493 63.82 19.5632 63.7313C19.5178 63.6849 19.4783 63.633 19.4457 63.5769C19.4298 63.5462 19.4184 63.5134 19.4121 63.4795C19.4097 63.447 19.4097 63.4145 19.4121 63.3821C19.4002 63.252 19.4264 63.1213 19.4877 63.0059C19.5237 62.9504 19.572 62.9039 19.6287 62.8699C19.6512 62.8561 19.6716 62.8391 19.6892 62.8195C19.6892 62.8195 19.6892 62.8195 19.7043 62.8044C19.7138 62.7981 19.7248 62.7946 19.7362 62.7943H19.7664L19.8135 62.8061C20.0486 62.885 20.2618 62.9841 20.4852 63.0781C20.9117 63.2679 21.3248 63.4593 21.706 63.644C22.4801 64.0118 23.1737 64.351 23.7547 64.6398C23.8991 64.7104 24.0368 64.7826 24.1695 64.8414L24.549 65.0009L25.1586 65.2561L25.5415 65.4241L25.6405 65.4694L25.6724 65.4862L25.6372 65.4761L25.5364 65.4392L25.1468 65.2864L24.5322 65.0412L24.1493 64.8884C24.015 64.8296 23.879 64.7591 23.7312 64.6885L21.6774 63.7078C21.2895 63.5265 20.8815 63.335 20.4549 63.147C20.2433 63.0546 20.025 62.9538 19.8017 62.88L19.7614 62.8699H19.7429C19.7429 62.8699 19.7429 62.8598 19.7429 62.8531C19.7916 62.8867 19.7547 62.8632 19.7648 62.8716C19.7424 62.8976 19.7164 62.9202 19.6875 62.9387C19.6397 62.9674 19.5989 63.0064 19.5683 63.0529C19.5161 63.1568 19.4935 63.2729 19.5028 63.3888C19.4993 63.4467 19.5109 63.5046 19.5364 63.5567C19.5657 63.6069 19.6012 63.6532 19.6422 63.6944C19.7253 63.7798 19.8152 63.8584 19.9108 63.9295C20.1023 64.0722 20.3021 64.1999 20.5003 64.3191C20.8983 64.5609 21.2946 64.7742 21.6758 64.9908C21.7698 65.0445 21.8622 65.0966 21.9512 65.1587C21.9948 65.1873 22.0402 65.2141 22.0822 65.2477C22.1088 65.2655 22.1298 65.2906 22.1426 65.3199C22.1511 65.3461 22.1567 65.3732 22.1594 65.4005C22.1715 65.5963 22.1967 65.7909 22.235 65.9833C22.3103 66.3257 22.4815 66.6397 22.7287 66.8884C22.9387 67.0875 23.1715 67.2611 23.4222 67.4056C23.6115 67.5171 23.8098 67.6126 24.015 67.6911C24.1444 67.7409 24.2775 67.7807 24.413 67.8103C24.4583 67.8204 24.4953 67.8254 24.5188 67.8288L24.5272 67.812Z" fill="#AA6550"/>
<path d="M19.7214 67.9143C19.7795 67.9236 19.8361 67.9411 19.8893 67.9664C20.0352 68.0292 20.1714 68.1123 20.294 68.2132C20.38 68.283 20.4583 68.3618 20.5274 68.4483C20.5705 68.4991 20.603 68.5579 20.6232 68.6213C20.6433 68.6847 20.6508 68.7515 20.645 68.8178C20.6292 68.8914 20.5932 68.9592 20.541 69.0135C20.4887 69.0678 20.4224 69.1064 20.3494 69.1251C20.1982 69.1627 20.0392 69.1545 19.8927 69.1016C19.3975 68.9435 18.9185 68.7388 18.4619 68.4903C18.3244 68.4154 18.1915 68.3324 18.0639 68.2418C18.0151 68.2112 17.9696 68.1757 17.9279 68.136C17.9809 68.1582 18.0316 68.1858 18.0791 68.2183C18.1748 68.2754 18.3142 68.3543 18.4888 68.445C18.9474 68.6761 19.4228 68.872 19.9111 69.031C20.0435 69.0791 20.187 69.0878 20.3242 69.0562C20.3854 69.0422 20.4414 69.0113 20.486 68.9671C20.5305 68.9229 20.5617 68.8671 20.5761 68.806C20.5811 68.7482 20.5746 68.6899 20.557 68.6346C20.5394 68.5793 20.5111 68.528 20.4737 68.4836C20.4098 68.399 20.3372 68.3213 20.2571 68.2518C20.0934 68.1172 19.9134 68.0038 19.7214 67.9143Z" fill="#AA6550"/>
<path d="M44.4165 63.6271L41.6491 63.6842C41.6491 63.6842 37.5013 62.1846 36.6482 62.329C35.8791 62.4566 33.0663 64.3257 32.5155 64.6968C32.4535 64.7365 32.4063 64.7955 32.3811 64.8647C32.3268 65.011 32.3315 65.1727 32.3941 65.3156C32.4568 65.4584 32.5726 65.5714 32.717 65.6305L32.7758 65.6557L32.7506 65.7396C32.7172 65.8483 32.7024 65.9619 32.7069 66.0755C32.7137 66.1614 32.7477 66.2429 32.8039 66.3083C32.86 66.3737 32.9356 66.4195 33.0195 66.4391C33.1034 66.4587 33.1914 66.4512 33.2708 66.4175C33.3501 66.3838 33.4167 66.3258 33.4609 66.2518L33.3551 66.4399C33.3118 66.5165 33.2914 66.6039 33.2963 66.6918L33.3064 66.8597C33.3114 66.9526 33.3444 67.0417 33.401 67.1155C33.4577 67.1892 33.5354 67.2441 33.6238 67.2728C33.7082 67.3002 33.7986 67.3028 33.8844 67.2801C33.9702 67.2575 34.0476 67.2107 34.1074 67.1452C34.4634 66.7539 35.2342 65.9697 35.7548 65.8807C36.3203 65.8128 36.8898 65.7841 37.4593 65.795C37.5751 65.7958 37.688 65.8314 37.7833 65.8973C37.8786 65.9632 37.9517 66.0563 37.9933 66.1645C37.6843 66.1863 35.5281 67.3097 34.7657 67.7128C34.6476 67.7717 34.5456 67.8585 34.4684 67.9655C34.3912 68.0726 34.3411 68.1967 34.3224 68.3274C34.2938 68.5658 34.4147 68.8161 34.8866 68.7052C35.8942 68.4684 37.7246 67.6305 37.7246 67.6305C37.7246 67.6305 38.6667 67.3618 39.2762 67.7984C40.1327 68.403 40.5256 68.6246 41.2628 68.3811C41.7102 68.2313 42.1394 68.0319 42.5424 67.7867L45.0513 68.0302C45.0513 68.0302 46.5861 65.5213 44.4165 63.6271Z" fill="#B78876"/>
<path d="M38.0103 64.3845C38.0103 64.4013 37.7148 64.3072 37.2312 64.277C36.5982 64.2343 35.9642 64.3417 35.3806 64.5903C34.797 64.8389 34.2803 65.2218 33.8726 65.7077C33.5603 66.0789 33.4259 66.3543 33.4125 66.3459C33.4347 66.2777 33.4657 66.2128 33.5048 66.1528C33.6002 65.9841 33.7092 65.8235 33.8306 65.6725C34.2334 65.1685 34.7548 64.7722 35.3483 64.519C35.9417 64.2658 36.5886 64.1636 37.2312 64.2216C37.4244 64.2379 37.616 64.2704 37.8038 64.319C37.8746 64.3342 37.9437 64.3561 38.0103 64.3845Z" fill="#AA6550"/>
<path d="M37.5702 63.3769C37.3064 63.2977 37.0341 63.2504 36.7591 63.2359C36.0922 63.2327 35.4379 63.4178 34.8716 63.7699C34.3104 64.1304 33.7989 64.5628 33.3501 65.0562L32.9337 65.4995C32.8855 65.5564 32.8327 65.6092 32.7758 65.6574C32.8142 65.5931 32.8599 65.5334 32.9118 65.4794C33.0025 65.3686 33.1385 65.2107 33.3098 65.0193C33.7512 64.5097 34.2636 64.0664 34.8313 63.7027C35.4088 63.3421 36.0801 63.1604 36.7607 63.1805C36.9658 63.1895 37.1687 63.2268 37.3636 63.2913C37.4164 63.3074 37.468 63.327 37.5181 63.3501C37.5369 63.3559 37.5545 63.365 37.5702 63.3769Z" fill="#AA6550"/>
<path d="M26.029 23.6367C25.1184 21.5197 23.5267 19.7676 21.5068 18.6582C19.4868 17.5489 17.1542 17.146 14.8791 17.5134C12.604 17.8809 10.5169 18.9976 8.9488 20.6865C7.38075 22.3753 6.42165 24.5394 6.22372 26.8355C6.02578 29.1315 6.60035 31.4279 7.85624 33.3601C9.11213 35.2924 10.9774 36.7499 13.156 37.5013C15.3346 38.2527 17.7018 38.2549 19.8818 37.5076C22.0618 36.7604 23.9299 35.3064 25.1894 33.3765L29.1861 33.311L26.5798 30.1725C27.1134 27.9921 26.92 25.6971 26.029 23.6367Z" fill="#FAFAFA"/>
<path d="M12.4266 18.206C12.369 18.2246 12.3128 18.2476 12.2587 18.2749L11.7818 18.5016C11.676 18.5537 11.5568 18.604 11.4308 18.6695L11.0278 18.913L10.5593 19.2002L10.0555 19.5797C9.19941 20.2377 8.45734 21.0319 7.859 21.9307C7.05697 23.1161 6.505 24.4526 6.23681 25.8585C5.92792 27.5714 6.04323 29.334 6.57267 30.9921C6.7232 31.4426 6.9027 31.8829 7.11004 32.3103C7.22087 32.5252 7.31323 32.7519 7.44589 32.9602L7.83716 33.5899C8.40697 34.4431 9.09958 35.2076 9.8926 35.8586C10.7303 36.5341 11.6613 37.085 12.6567 37.4942C13.7063 37.9015 14.8126 38.1439 15.9363 38.2129C17.1016 38.2917 18.2716 38.1638 19.3923 37.8351C19.6781 37.7598 19.9586 37.6656 20.2319 37.553C20.514 37.4568 20.7904 37.3447 21.0598 37.2171C21.6049 36.9557 22.1268 36.6484 22.6198 36.2986C23.6814 35.5423 24.5926 34.5947 25.3067 33.5043L25.2126 33.5563L29.1321 33.4572H29.3638L29.2194 33.2759L26.7005 30.1255L26.7223 30.2213C27.1102 28.6283 27.1183 26.9665 26.7458 25.3698C26.5765 24.6254 26.3177 23.9042 25.975 23.222C25.8229 22.888 25.6461 22.5659 25.4461 22.2581L25.1606 21.8014C25.0615 21.6536 24.944 21.5193 24.8398 21.3782C23.3336 19.4224 21.1816 18.0655 18.7676 17.5494C17.8759 17.3506 16.961 17.2755 16.0488 17.3261L15.4712 17.363L14.9455 17.447L14.4636 17.5259C14.3141 17.5595 14.1731 17.6032 14.0387 17.6384C13.7717 17.7157 13.535 17.7661 13.3334 17.8416L12.8297 18.0364L12.5223 18.1657C12.4875 18.1773 12.4542 18.1931 12.4233 18.2128C12.4602 18.2073 12.4964 18.1972 12.5307 18.1825L12.8397 18.0784L13.3435 17.9004C13.5433 17.8332 13.7835 17.7862 14.0505 17.7157C15.9988 17.2486 18.0408 17.3566 19.929 18.0267C21.8172 18.6967 23.4706 19.9 24.6887 21.4907C24.7911 21.6301 24.9053 21.7627 25.0011 21.9072L25.2798 22.3572C25.4751 22.6599 25.6469 22.9771 25.7937 23.306C26.1276 23.9762 26.3791 24.6844 26.5426 25.4152C26.9015 26.9805 26.8883 28.6082 26.504 30.1675L26.4906 30.2196L26.5258 30.2632C27.3386 31.2809 28.1782 32.3327 29.0448 33.4186L29.1321 33.2305L25.211 33.3246H25.1505L25.1152 33.3766C24.0889 34.9421 22.654 36.197 20.9657 37.0055C20.702 37.1329 20.4312 37.245 20.1547 37.3414C19.8864 37.452 19.611 37.544 19.3301 37.6168C18.2335 37.9361 17.0892 38.0594 15.9498 37.9812C14.8506 37.9137 13.7684 37.6781 12.7407 37.2826C11.7636 36.8822 10.8496 36.3426 10.0269 35.6806C9.2504 35.0443 8.57146 34.2974 8.01181 33.4639C7.88083 33.2574 7.7532 33.0525 7.62558 32.8493C7.49795 32.6461 7.40727 32.4228 7.28972 32.2129C7.08413 31.794 6.9063 31.3621 6.75739 30.9198C6.26912 29.4372 6.12484 27.8628 6.33549 26.3161C6.54614 24.7694 7.1062 23.2909 7.97319 21.9928C8.55626 21.0984 9.28047 20.3045 10.1176 19.6418L10.6046 19.2573L11.0631 18.9634L11.4577 18.7098C11.582 18.6393 11.6995 18.5856 11.7935 18.5318L12.2604 18.2883C12.3182 18.266 12.3738 18.2384 12.4266 18.206Z" fill="#263238"/>
<path d="M19.4806 33.0178L20.0784 33.0167C20.4123 33.016 20.6825 32.7448 20.6818 32.411L20.6643 23.2791C20.6636 22.9452 20.3925 22.6751 20.0586 22.6757L19.4608 22.6768C19.1269 22.6775 18.8568 22.9487 18.8574 23.2825L18.8749 32.4144C18.8756 32.7483 19.1467 33.0185 19.4806 33.0178Z" fill="#E0E0E0"/>
<path d="M16.5215 33.0239L17.1193 33.0228C17.4532 33.0221 17.7234 32.7509 17.7227 32.4171L17.7052 23.2852C17.7045 22.9513 17.4334 22.6812 17.0995 22.6818L16.5017 22.6829C16.1678 22.6836 15.8976 22.9548 15.8983 23.2886L15.9158 32.4205C15.9165 32.7544 16.1876 33.0246 16.5215 33.0239Z" fill="#E0E0E0"/>
<path d="M13.1732 33.0292L13.7711 33.028C14.1049 33.0274 14.3751 32.7562 14.3744 32.4223L14.3569 23.2904C14.3563 22.9565 14.0851 22.6864 13.7512 22.687L13.1534 22.6882C12.8195 22.6888 12.5494 22.96 12.55 23.2939L12.5676 32.4258C12.5682 32.7597 12.8394 33.0298 13.1732 33.0292Z" fill="#E0E0E0"/>
<path d="M19.7536 33.0173C19.6779 33.0075 19.6028 32.9935 19.5286 32.9753C19.3169 32.9159 19.1363 32.7769 19.0248 32.5874C18.944 32.4536 18.9011 32.3004 18.9005 32.1441C18.9005 31.9677 18.9005 31.778 18.9005 31.5731C18.9005 31.1617 18.9005 30.6965 18.9005 30.181C18.9005 29.1482 18.9005 27.9207 18.9005 26.5605C18.9005 25.8787 18.9005 25.1633 18.9005 24.4211V23.8602C18.8873 23.6758 18.8992 23.4906 18.9358 23.3094C18.9956 23.1371 19.1087 22.9884 19.2588 22.8848C19.4088 22.7812 19.5879 22.728 19.7702 22.7331C19.9525 22.7381 20.1284 22.8011 20.2725 22.9129C20.4165 23.0247 20.5212 23.1794 20.5714 23.3547C20.5976 23.5382 20.6066 23.7237 20.5983 23.9089C20.5983 24.097 20.5983 24.285 20.5983 24.4698C20.5983 25.212 20.5983 25.9274 20.5983 26.6092C20.5983 27.9711 20.6117 29.1969 20.6168 30.2314C20.6168 30.7452 20.6168 31.2121 20.6285 31.6218C20.6285 31.8267 20.6285 32.0198 20.6285 32.1911C20.6215 32.3474 20.5709 32.4986 20.4824 32.6277C20.359 32.8089 20.172 32.9372 19.9585 32.9871C19.8107 33.019 19.7301 33.0106 19.7301 33.0173C19.8078 33.0275 19.8867 33.0246 19.9635 33.0089C20.1875 32.9668 20.3863 32.8391 20.5177 32.6529C20.6154 32.5188 20.6736 32.3599 20.6856 32.1944C20.6856 32.0164 20.6856 31.8284 20.6856 31.6218C20.6856 31.2121 20.6856 30.7452 20.6856 30.2314C20.6856 29.1969 20.6856 27.9711 20.6856 26.6092C20.6856 25.9274 20.6856 25.212 20.6856 24.4698V23.6301C20.6893 23.5302 20.6797 23.4303 20.6571 23.3329C20.6062 23.1309 20.4894 22.9517 20.3251 22.8236C20.1609 22.6956 19.9585 22.626 19.7503 22.6259C19.5424 22.6168 19.3372 22.6757 19.1659 22.7939C18.9966 22.9131 18.8715 23.0849 18.8099 23.2825C18.7809 23.3795 18.7668 23.4803 18.7679 23.5814V23.8652C18.7679 24.0533 18.7679 24.2414 18.7679 24.4261C18.7679 25.1683 18.7679 25.8837 18.7763 26.5655C18.7763 27.9257 18.7897 29.1533 18.7948 30.1877C18.7948 30.7016 18.8031 31.1667 18.8048 31.5781C18.8048 31.783 18.8048 31.9728 18.8048 32.1491C18.807 32.3147 18.8552 32.4763 18.9442 32.6159C19.064 32.8104 19.2561 32.9493 19.4782 33.0022C19.568 33.0262 19.6618 33.0314 19.7536 33.0173Z" fill="#263238"/>
<path d="M16.7947 33.0222C16.7185 33.0127 16.6428 32.9992 16.568 32.9819C16.3863 32.9295 16.2267 32.819 16.1136 32.6674C16.0005 32.5158 15.9401 32.3314 15.9416 32.1422C15.9416 31.9659 15.9416 31.7762 15.9416 31.5713C15.9416 31.1615 15.9416 30.6947 15.9416 30.1808C15.9416 29.1464 15.9416 27.9205 15.9416 26.5586V23.8651C15.9275 23.6813 15.9394 23.4964 15.9769 23.316C16.0357 23.1428 16.1483 22.9929 16.2984 22.8884C16.4484 22.7838 16.628 22.73 16.8108 22.7349C16.9936 22.7398 17.1701 22.8031 17.3143 22.9155C17.4586 23.0279 17.5631 23.1835 17.6125 23.3596C17.6389 23.5431 17.6473 23.7287 17.6377 23.9138C17.6377 24.1035 17.6377 24.2899 17.6377 24.4763C17.6377 25.2169 17.6377 25.9323 17.6377 26.6141C17.6377 27.976 17.6511 29.2035 17.6562 30.2363C17.6562 30.7518 17.6562 31.217 17.6663 31.6284C17.6663 31.8316 17.6663 32.0247 17.6663 32.1977C17.6592 32.354 17.6086 32.5052 17.5202 32.6343C17.3953 32.8148 17.2081 32.9428 16.9945 32.9936C16.8485 33.0239 16.7662 33.0155 16.7678 33.0222C16.8446 33.0348 16.9229 33.0348 16.9996 33.0222C17.2238 32.9786 17.4228 32.8505 17.5554 32.6645C17.6536 32.5313 17.7119 32.3728 17.7234 32.2077C17.7318 32.028 17.7234 31.84 17.7234 31.6351C17.7234 31.2237 17.7234 30.7568 17.7234 30.243C17.7234 29.2102 17.7234 27.9827 17.7234 26.6208C17.7234 25.939 17.7234 25.2236 17.7234 24.4814V23.9205C17.7234 23.8265 17.7234 23.7324 17.7234 23.6367C17.7278 23.5368 17.7182 23.4367 17.6948 23.3395C17.6443 23.1376 17.5278 22.9584 17.3638 22.8303C17.1998 22.7023 16.9978 22.6326 16.7897 22.6325C16.5821 22.6222 16.377 22.6811 16.2065 22.7999C16.036 22.9188 15.9098 23.0908 15.8476 23.2891C15.8194 23.3862 15.8058 23.4869 15.8073 23.588V23.8718C15.8073 24.0616 15.8073 24.248 15.8073 24.4344C15.8073 25.1749 15.8073 25.8903 15.8073 26.5721C15.8073 27.934 15.8207 29.1598 15.8275 30.1943C15.8275 30.7081 15.8275 31.175 15.8375 31.5847C15.8375 31.7896 15.8375 31.981 15.8375 32.1557C15.8392 32.3211 15.8868 32.4827 15.9752 32.6225C16.0959 32.8168 16.2884 32.9556 16.5109 33.0087C16.6032 33.035 16.7003 33.0396 16.7947 33.0222Z" fill="#263238"/>
<path d="M13.4463 33.0289C13.37 33.0192 13.2943 33.0052 13.2196 32.9869C13.0392 32.9349 12.8806 32.8257 12.7677 32.6758C12.6547 32.5259 12.5935 32.3434 12.5932 32.1557C12.5932 31.9794 12.5932 31.7896 12.5932 31.5847C12.5932 31.1733 12.5932 30.7082 12.5932 30.1943C12.5932 29.1599 12.5932 27.934 12.5932 26.5721V23.8752C12.5791 23.6914 12.591 23.5065 12.6285 23.3261C12.6872 23.1529 12.7999 23.003 12.9499 22.8985C13.1 22.7939 13.2795 22.7401 13.4624 22.745C13.6452 22.7499 13.8216 22.8132 13.9659 22.9256C14.1102 23.038 14.2147 23.1936 14.2641 23.3697C14.2904 23.5532 14.2989 23.7388 14.2893 23.9239C14.2893 24.112 14.2893 24.3 14.2893 24.4848C14.2893 25.227 14.2893 25.9424 14.2893 26.6242C14.2893 27.9861 14.3027 29.2136 14.3077 30.2464C14.3077 30.7602 14.3077 31.2271 14.3178 31.6385C14.3178 31.8417 14.3178 32.0348 14.3178 32.2061C14.3108 32.3624 14.2601 32.5136 14.1717 32.6427C14.0472 32.8239 13.86 32.9526 13.6461 33.0037C13.5 33.034 13.4177 33.0256 13.4194 33.0323C13.4961 33.0449 13.5744 33.0449 13.6511 33.0323C13.8442 32.9944 14.0195 32.8939 14.1497 32.7463C14.2799 32.5988 14.3579 32.4125 14.3716 32.2162C14.3716 32.0381 14.3716 31.8501 14.3716 31.6452C14.3716 31.2338 14.3716 30.7669 14.3716 30.2531C14.3716 29.2186 14.3716 27.9928 14.3716 26.6309C14.3716 25.9491 14.3716 25.2337 14.3716 24.4915V23.6518C14.3743 23.552 14.3647 23.4521 14.343 23.3546C14.2919 23.1528 14.175 22.9737 14.0108 22.8457C13.8466 22.7177 13.6444 22.648 13.4362 22.6476C13.2286 22.6374 13.0235 22.6963 12.8531 22.8151C12.6826 22.9339 12.5563 23.1059 12.4941 23.3042C12.4667 23.4015 12.4532 23.5021 12.4538 23.6031V23.8752C12.4538 24.0649 12.4538 24.2513 12.4538 24.4361C12.4538 25.1783 12.4538 25.8937 12.4538 26.5755C12.4538 27.9374 12.4673 29.1632 12.474 30.1977C12.474 30.7115 12.474 31.1784 12.484 31.5881C12.484 31.793 12.484 31.9827 12.484 32.1591C12.4857 32.3244 12.5334 32.4861 12.6217 32.6259C12.7425 32.8202 12.935 32.959 13.1574 33.0121C13.2511 33.0403 13.35 33.046 13.4463 33.0289Z" fill="#263238"/>
<path d="M18.0744 24.7149C18.0751 24.9661 18.0012 25.2118 17.8622 25.421C17.7232 25.6301 17.5252 25.7934 17.2934 25.89C17.0616 25.9867 16.8063 26.0124 16.5599 25.9639C16.3134 25.9155 16.0869 25.795 15.909 25.6177C15.731 25.4405 15.6096 25.2144 15.5602 24.9682C15.5107 24.722 15.5354 24.4666 15.6312 24.2344C15.7269 24.0022 15.8894 23.8036 16.098 23.6637C16.3066 23.5239 16.552 23.4491 16.8032 23.4487C17.1396 23.4483 17.4624 23.5814 17.7008 23.8188C17.9391 24.0562 18.0735 24.3785 18.0744 24.7149Z" fill="#C1C1C1"/>
<path d="M14.731 27.8568C14.7313 28.1079 14.6572 28.3535 14.5179 28.5624C14.3787 28.7714 14.1807 28.9344 13.9488 29.0308C13.717 29.1272 13.4617 29.1526 13.2154 29.104C12.9691 29.0553 12.7427 28.9347 12.5649 28.7574C12.3871 28.5801 12.2659 28.354 12.2166 28.1078C12.1673 27.8616 12.1921 27.6063 12.2879 27.3742C12.3837 27.1421 12.5461 26.9437 12.7547 26.8039C12.9633 26.6641 13.2087 26.5893 13.4597 26.589C13.6265 26.5888 13.7916 26.6214 13.9457 26.685C14.0998 26.7486 14.2399 26.8419 14.3579 26.9596C14.476 27.0774 14.5697 27.2172 14.6337 27.3711C14.6977 27.5251 14.7307 27.6901 14.731 27.8568Z" fill="#C1C1C1"/>
<path d="M20.8982 30.2304C21.1558 29.5783 20.8361 28.8408 20.184 28.5831C19.5319 28.3255 18.7944 28.6452 18.5368 29.2973C18.2791 29.9494 18.5989 30.6869 19.251 30.9445C19.903 31.2022 20.6405 30.8824 20.8982 30.2304Z" fill="#C1C1C1"/>
<path d="M10.4535 69.9412H35.782L32.5142 52.1643C32.458 51.8588 32.2965 51.5826 32.0578 51.3838C31.8192 51.185 31.5183 51.0762 31.2077 51.0762H8.44845C8.25279 51.0761 8.05953 51.1193 7.8825 51.2026C7.70546 51.286 7.54902 51.4074 7.42436 51.5582C7.2997 51.709 7.2099 51.8855 7.16137 52.075C7.11285 52.2646 7.10679 52.4625 7.14365 52.6547L10.4535 69.9412Z" fill="#455A64"/>
<path d="M35.782 69.9412H45.3892L45.3505 69.9126C44.4933 69.271 43.4586 68.9102 42.3883 68.8799L35.5184 68.6783L35.782 69.9412Z" fill="#455A64"/>
<path d="M29.6979 51.0997C29.6979 51.0997 29.7684 51.0879 29.9027 51.0862C30.0985 51.0889 30.291 51.1366 30.4653 51.2256C30.7399 51.367 30.9718 51.5792 31.137 51.8402C31.3464 52.1936 31.4871 52.5833 31.5518 52.9889C31.6341 53.4389 31.7063 53.9377 31.797 54.47C31.8877 55.0023 31.9851 55.5716 32.0976 56.1694C32.3192 57.3634 32.5795 58.6732 32.865 60.0469C33.4359 62.7925 33.9649 65.2745 34.3125 67.078C34.4805 67.9798 34.6198 68.7103 34.7122 69.2157C34.7559 69.4642 34.7911 69.659 34.818 69.7984C34.8297 69.8606 34.8398 69.9093 34.8465 69.9496C34.8496 69.9667 34.8541 69.9835 34.86 69.9999C34.863 69.9827 34.863 69.9651 34.86 69.9479C34.86 69.9076 34.8482 69.8572 34.8398 69.7951C34.818 69.654 34.7894 69.4592 34.7508 69.2107C34.6719 68.7069 34.5476 67.9697 34.3814 67.0662C34.0455 65.2577 33.5317 62.7723 32.9607 60.0267C32.6769 58.6547 32.4116 57.3399 32.1866 56.1526C32.0724 55.5565 31.9716 54.9889 31.8776 54.4565C31.7835 53.9242 31.7096 53.4288 31.6206 52.9754C31.5507 52.5635 31.4031 52.1685 31.1857 51.8117C31.0113 51.5455 30.7682 51.3314 30.4821 51.192C30.3022 51.1034 30.1032 51.0607 29.9027 51.0678C29.8333 51.0691 29.7644 51.0798 29.6979 51.0997Z" fill="#263238"/>
<path d="M21.0928 60.9746C21.5709 60.4966 21.5709 59.7214 21.0928 59.2434C20.6147 58.7653 19.8396 58.7653 19.3615 59.2434C18.8835 59.7214 18.8835 60.4966 19.3615 60.9746C19.8396 61.4527 20.6147 61.4527 21.0928 60.9746Z" fill="#F5F5F5"/>
<path d="M77.0418 69.9245C77.0418 69.948 60.6622 69.9682 40.4621 69.9682C20.2621 69.9682 3.87909 69.948 3.87909 69.9245C3.87909 69.901 20.247 69.8876 40.4621 69.8876C60.6773 69.8876 77.0418 69.901 77.0418 69.9245Z" fill="#263238"/>
</svg>
