<svg width="66" height="70" viewBox="0 0 66 70" fill="none" xmlns="http://www.w3.org/2000/svg">
<path d="M64.4092 8.90149V19.2529H49.5393L49.0034 8.97399L64.4092 8.90149Z" fill="#E0E0E0"/>
<path d="M49.0034 8.97249V19.231H63.8734V8.97249L49.0034 8.97249Z" fill="white"/>
<path d="M63.9432 19.3019H48.9282V8.90002H63.9385L63.9432 19.3019ZM49.0748 19.1616H63.8029V9.04975H49.0748V19.1616Z" fill="#E0E0E0"/>
<path d="M62.2633 10.2473H50.6147V17.9573H62.2633V10.2473Z" fill="white"/>
<path d="M62.263 10.2475H62.2047H62.0392H61.3994L58.9991 10.2569L50.6145 10.2743L50.6476 10.2396C50.6476 12.6037 50.6476 15.2057 50.6476 17.948L50.6114 17.9118H62.2599L62.2299 17.9417C62.2299 15.595 62.2426 13.6722 62.2457 12.3326C62.2457 11.6628 62.2457 11.1395 62.2536 10.7818C62.2536 10.6037 62.2536 10.4665 62.2536 10.3736C62.2536 10.2806 62.2536 10.2317 62.2536 10.2317C62.2536 10.2317 62.2536 10.2774 62.2536 10.3673C62.2536 10.4571 62.2536 10.5942 62.2536 10.7691C62.2536 11.1269 62.2536 11.647 62.2615 12.3137C62.2615 13.658 62.2693 15.5871 62.2757 17.9417V17.9701H62.2473L50.5988 17.978H50.5625V17.9417C50.5625 15.1994 50.5625 12.5832 50.5625 10.2333V10.2002H50.5972L59.0038 10.216L61.3962 10.2254H62.0266H62.2426L62.263 10.2475Z" fill="#E0E0E0"/>
<path d="M49.0034 8.94409C49.0944 8.98652 49.18 9.03941 49.2587 9.1017C49.4163 9.21202 49.6181 9.36805 49.8419 9.54614C50.0657 9.72423 50.2627 9.89445 50.4014 10.019C50.4815 10.0819 50.553 10.155 50.6141 10.2364C50.3311 10.0402 50.0581 9.82976 49.7962 9.60603C49.5178 9.40283 49.253 9.18172 49.0034 8.94409Z" fill="#E0E0E0"/>
<path d="M63.8737 8.97388C63.627 9.21382 63.3637 9.43606 63.0857 9.63897C62.8246 9.86095 62.5481 10.0642 62.2583 10.2473C62.5047 10.0071 62.7681 9.78481 63.0463 9.58223C63.3064 9.35884 63.583 9.15548 63.8737 8.97388Z" fill="#E0E0E0"/>
<path d="M63.8611 19.2324L62.2031 17.8896L63.8611 19.2324Z" fill="white"/>
<path d="M62.2031 17.8896C62.5014 18.0846 62.7863 18.2995 63.0558 18.5327C63.3394 18.7478 63.6085 18.9816 63.8611 19.2324C63.5624 19.0381 63.2775 18.8232 63.0085 18.5894C62.7244 18.3748 62.4553 18.141 62.2031 17.8896Z" fill="#E0E0E0"/>
<path d="M49.0034 19.2324C49.2446 18.9934 49.5033 18.7727 49.7773 18.572C50.0357 18.3525 50.3096 18.1518 50.5968 17.9716C50.3548 18.2092 50.0962 18.4294 49.823 18.6303C49.5646 18.8505 49.2907 19.0517 49.0034 19.2324Z" fill="#E0E0E0"/>
<path d="M52.98 12.6494V15.231H60.3086V12.6494H52.98Z" fill="#E0E0E0"/>
<path d="M23.3035 3.0985C23.3035 3.0985 23.2909 3.0985 23.2673 3.08747L23.1617 3.04649L22.7645 2.88889L21.3082 2.25847L16.5155 0.170213L16.35 0.0977148H16.3847L11.6881 2.10559L10.2696 2.70134L9.88193 2.85894C9.83775 2.87922 9.79186 2.89557 9.74481 2.9078C9.78685 2.88322 9.83056 2.86163 9.87562 2.84318L10.2555 2.66982L11.6739 2.0394L16.3595 0.00788009L16.3768 0L16.3941 0.00788009L16.5596 0.0803782L21.3413 2.19228L22.7881 2.84161L23.179 3.02127L23.2799 3.07013C23.2884 3.07904 23.2963 3.08852 23.3035 3.0985Z" fill="#E0E0E0"/>
<path d="M30.7785 2.41138H0V25.4578H30.7785V2.41138Z" fill="#E0E0E0"/>
<path d="M29.819 3.48303H1.07666V24.5106H29.819V3.48303Z" fill="#FAFAFA"/>
<path d="M7.4248 12.6746C7.4248 12.6746 7.45475 16.2049 7.63442 17.2813L12.0615 17.0717C12.0615 17.0717 11.6722 13.6044 11.822 12.6746H7.4248Z" fill="#E0E0E0"/>
<path d="M9.60434 13.1694C9.60434 13.1694 9.60434 13.1694 9.62168 13.1694H9.66896C9.73058 13.1671 9.79229 13.1703 9.85335 13.1789C9.95082 13.1935 10.0458 13.2216 10.1355 13.2624C10.2532 13.3212 10.3573 13.4038 10.4412 13.5051C10.5432 13.6298 10.6159 13.7758 10.654 13.9322C10.6879 14.1155 10.6716 14.3045 10.6067 14.4791C10.5734 14.5735 10.5317 14.6648 10.4822 14.7518C10.4333 14.8416 10.3829 14.9299 10.3404 15.0276C10.2519 15.2284 10.1919 15.4406 10.1623 15.658V15.6722H10.1481L9.71151 15.6801H9.25288H9.23712V15.669C9.21801 15.4529 9.14543 15.2449 9.02593 15.0638C8.97235 14.974 8.91403 14.8889 8.85887 14.8022C8.80371 14.7155 8.74697 14.6446 8.70127 14.5485C8.61953 14.3813 8.59515 14.1919 8.63192 14.0095C8.65712 13.8521 8.71511 13.7017 8.80213 13.5682C8.87781 13.4612 8.97633 13.3724 9.09055 13.3081C9.17581 13.2614 9.267 13.2264 9.36163 13.2041C9.42116 13.1894 9.48177 13.1794 9.54287 13.1742H9.59015C9.60119 13.1742 9.60592 13.1742 9.60592 13.1742H9.59015H9.54287C9.48275 13.1814 9.42324 13.193 9.36478 13.2088C9.27158 13.2332 9.18202 13.2697 9.09843 13.3176C8.98778 13.3812 8.89295 13.469 8.82105 13.5745C8.73903 13.7065 8.68536 13.854 8.66344 14.0079C8.62905 14.1847 8.6534 14.3679 8.73279 14.5296C8.78109 14.6157 8.83369 14.6993 8.89039 14.7801C8.94398 14.8637 9.00387 14.9504 9.05745 15.0418C9.18068 15.2273 9.25546 15.4408 9.27495 15.6627L9.25919 15.6454H9.71781H10.1544L10.1386 15.6612C10.1696 15.4409 10.2311 15.2261 10.3214 15.0229C10.364 14.9251 10.416 14.8322 10.4649 14.7439C10.515 14.6591 10.5562 14.5693 10.5878 14.476C10.652 14.3032 10.6668 14.116 10.6303 13.9354C10.5947 13.7827 10.5252 13.64 10.427 13.5177C10.3459 13.4178 10.2451 13.3357 10.1307 13.2766C10.0433 13.2349 9.95049 13.2057 9.85493 13.1899C9.7944 13.1807 9.73333 13.1754 9.67211 13.1742H9.60749L9.60434 13.1694Z" fill="white"/>
<path d="M9.8334 15.628C9.83308 15.6232 9.83308 15.6185 9.8334 15.6138V15.5728C9.8334 15.5366 9.81921 15.483 9.80818 15.4152C9.78927 15.2781 9.75932 15.0779 9.73883 14.8305C9.73883 14.769 9.73883 14.7044 9.7278 14.6366C9.71677 14.5689 9.7278 14.4979 9.7278 14.4239C9.73004 14.3477 9.74718 14.2728 9.77824 14.2032C9.81115 14.1277 9.87139 14.0675 9.94687 14.0346C9.98711 14.0177 10.0314 14.013 10.0743 14.0211C10.1172 14.0293 10.1567 14.0498 10.188 14.0803C10.2043 14.0961 10.2172 14.1149 10.2261 14.1358C10.2351 14.1566 10.2398 14.179 10.24 14.2016C10.2386 14.2475 10.2225 14.2916 10.1943 14.3277C10.1665 14.3652 10.1296 14.3951 10.0871 14.4144C10.0456 14.4342 10.0016 14.4485 9.95633 14.457C9.86458 14.4767 9.77119 14.4878 9.67737 14.4901C9.5831 14.4933 9.48873 14.4885 9.39526 14.4759C9.34952 14.4698 9.30492 14.4571 9.26287 14.4381C9.22077 14.4194 9.18275 14.3926 9.15097 14.3593C9.1193 14.3263 9.09699 14.2855 9.08635 14.241C9.07717 14.1964 9.0827 14.1499 9.10211 14.1087C9.12076 14.0681 9.15395 14.0361 9.1951 14.0188C9.23548 14.0022 9.2808 14.0022 9.32118 14.0188C9.35939 14.0366 9.39206 14.0644 9.41575 14.0992C9.43787 14.1327 9.45339 14.1702 9.46145 14.2095C9.47617 14.2838 9.48408 14.3592 9.48509 14.4349C9.48509 14.5799 9.49928 14.7154 9.50558 14.8399C9.51819 15.0874 9.52765 15.2875 9.53553 15.4278C9.53553 15.4956 9.53553 15.5492 9.53553 15.5854V15.6264C9.53587 15.6311 9.53587 15.6359 9.53553 15.6406C9.53484 15.6359 9.53484 15.6311 9.53553 15.6264C9.53553 15.6169 9.53553 15.6027 9.53553 15.5854C9.53553 15.5681 9.53553 15.4956 9.52449 15.4278C9.52449 15.2891 9.50558 15.0874 9.4914 14.8399C9.4914 14.717 9.47721 14.5815 9.46776 14.4349C9.46651 14.3598 9.45913 14.285 9.44569 14.2111C9.43674 14.1735 9.42127 14.1378 9.39999 14.1055C9.37718 14.0735 9.34688 14.0475 9.31173 14.0299C9.27428 14.0149 9.23255 14.0149 9.1951 14.0299C9.15689 14.0455 9.12633 14.0755 9.10999 14.1134C9.09059 14.1513 9.08501 14.1948 9.09423 14.2363C9.10451 14.2784 9.12571 14.317 9.1557 14.3482C9.22029 14.4113 9.30399 14.4512 9.39368 14.4617C9.57844 14.4848 9.7657 14.4784 9.94845 14.4428C9.99315 14.4341 10.0366 14.4198 10.0777 14.4002C10.1172 14.381 10.1517 14.353 10.1786 14.3183C10.2053 14.2846 10.2202 14.2431 10.2211 14.2001C10.2216 14.1791 10.2176 14.1583 10.2095 14.1391C10.2013 14.1198 10.1892 14.1024 10.1738 14.0882C10.1443 14.0597 10.1071 14.0404 10.0669 14.0326C10.0266 14.0248 9.98493 14.0287 9.94687 14.044C9.87747 14.0764 9.82167 14.1322 9.78927 14.2016C9.75879 14.2703 9.74167 14.3441 9.73883 14.4191C9.73883 14.4916 9.73883 14.5626 9.73883 14.6288C9.73883 14.6949 9.73884 14.7611 9.74829 14.8242C9.7672 15.0716 9.79557 15.2702 9.81449 15.4073C9.81449 15.4767 9.83025 15.5287 9.83497 15.5649V15.6059C9.83277 15.613 9.83223 15.6206 9.8334 15.628Z" fill="white"/>
<path d="M9.25 15.6518C9.25 15.6518 9.25 15.707 9.26103 15.7984C9.27206 15.8898 9.27364 16.0332 9.28152 16.1814V16.1719L9.57939 16.5155H9.56521L9.90879 16.4966H9.8946L10.0664 16.287L10.1515 16.1814V16.1956C10.1515 15.9938 10.142 15.8015 10.1373 15.6282L10.1562 15.6455H9.5132H9.25788C9.27832 15.6435 9.29891 15.6435 9.31935 15.6455L9.50059 15.6361L10.1562 15.6108H10.1736V15.6298C10.1736 15.8047 10.1846 15.9954 10.1893 16.1971L10.1042 16.3011L9.93243 16.5108L9.58727 16.5281H9.57782L9.28625 16.1798C9.28625 16.0222 9.28625 15.8961 9.28625 15.7858C9.2706 15.7422 9.25848 15.6974 9.25 15.6518Z" fill="white"/>
<path d="M10.1387 16.1497L10.1056 16.1355C10.0764 16.1221 10.0464 16.1106 10.0158 16.1008C9.9146 16.0654 9.80765 16.0493 9.70054 16.0536C9.59492 16.0567 9.49076 16.0791 9.39322 16.1198C9.36352 16.1316 9.33457 16.1453 9.30653 16.1607L9.27344 16.1765C9.28198 16.1678 9.29215 16.1608 9.30338 16.156C9.33075 16.139 9.35918 16.1237 9.38849 16.1103C9.48802 16.0666 9.59504 16.0425 9.7037 16.0394C9.81108 16.0371 9.91795 16.0547 10.0189 16.0914C10.0492 16.1026 10.0786 16.1157 10.1072 16.1308C10.1182 16.1361 10.1288 16.1424 10.1387 16.1497Z" fill="white"/>
<path d="M10.1388 16.0126L10.1057 15.9984C10.0853 15.9889 10.0553 15.9763 10.0159 15.9622C9.8146 15.8926 9.59478 15.8993 9.3981 15.9811C9.36027 15.9968 9.33033 16.011 9.30984 16.022C9.28935 16.0331 9.2799 16.0394 9.27832 16.0378L9.30827 16.0173C9.33554 16.0006 9.36398 15.9858 9.39337 15.9732C9.49265 15.9287 9.59983 15.9046 9.70858 15.9023C9.8161 15.8979 9.92337 15.9156 10.0238 15.9543C10.0547 15.9652 10.0847 15.9784 10.1136 15.9937C10.1226 15.9991 10.1311 16.0055 10.1388 16.0126Z" fill="white"/>
<path d="M10.1309 15.8801C10.1309 15.8801 10.1183 15.8801 10.0978 15.8675C10.0774 15.8549 10.0474 15.8454 10.008 15.8312C9.90662 15.7967 9.79985 15.7807 9.6928 15.7839C9.58449 15.7859 9.47754 15.8084 9.37759 15.8501C9.33977 15.8659 9.30982 15.8801 9.28933 15.8911C9.27971 15.898 9.26908 15.9033 9.25781 15.9069L9.28776 15.8864C9.31468 15.869 9.34317 15.8543 9.37286 15.8423C9.47221 15.7978 9.57928 15.7732 9.68807 15.7698C9.79547 15.7673 9.90238 15.7849 10.0033 15.8218C10.0336 15.8334 10.0631 15.8471 10.0915 15.8627L10.1309 15.8801Z" fill="white"/>
<path d="M2.49316 6.89832C2.49316 6.89832 2.52311 10.4287 2.70278 11.5051L7.12988 11.2971C7.12988 11.2971 6.7406 7.82976 6.89032 6.89832H2.49316Z" fill="#EBEBEB"/>
<path d="M6.21742 8.38136C5.72607 8.4543 5.23087 8.49851 4.73437 8.51374C4.23978 8.55843 3.74301 8.57422 3.24658 8.56103C3.73784 8.48704 4.23307 8.4423 4.72964 8.42706C5.22428 8.38331 5.72103 8.36805 6.21742 8.38136Z" fill="white"/>
<path d="M6.22524 9.12992C5.73376 9.20184 5.23862 9.24603 4.74218 9.26231C4.24754 9.30605 3.75079 9.32131 3.25439 9.30801C3.74575 9.23507 4.24094 9.19086 4.73745 9.17563C5.23204 9.13093 5.72884 9.11567 6.22524 9.12992Z" fill="white"/>
<path d="M5.47197 9.86282C5.19496 9.92358 4.91237 9.95528 4.62878 9.95739C4.34635 9.9861 4.06173 9.9861 3.7793 9.95739C4.05698 9.8975 4.34 9.86582 4.62406 9.86282C4.90596 9.83414 5.19006 9.83414 5.47197 9.86282Z" fill="white"/>
<path d="M2.27734 17.2844C2.27734 17.2844 2.30729 20.8132 2.48696 21.8912L6.91406 21.6816C6.91406 21.6816 6.52478 18.2143 6.6745 17.2844H2.27734Z" fill="#EBEBEB"/>
<path d="M6.0143 18.7674C5.52283 18.8394 5.02769 18.8836 4.53124 18.8998C4.0366 18.9436 3.53985 18.9588 3.04346 18.9455C3.53481 18.8726 4.03001 18.8284 4.52651 18.8131C5.02104 18.7675 5.5179 18.7522 6.0143 18.7674Z" fill="white"/>
<path d="M6.01576 19.5147C5.5244 19.5875 5.02921 19.6317 4.53271 19.647C4.03812 19.6917 3.54132 19.707 3.04492 19.6928C3.53628 19.6198 4.03147 19.5756 4.52798 19.5604C5.02262 19.5166 5.51937 19.5014 6.01576 19.5147Z" fill="white"/>
<path d="M5.2625 20.249C4.98533 20.3088 4.70284 20.3405 4.41931 20.3436C4.13686 20.3719 3.85228 20.3719 3.56982 20.3436C3.84749 20.2838 4.13056 20.2526 4.41458 20.2506C4.69644 20.2214 4.98053 20.2208 5.2625 20.249Z" fill="white"/>
<path d="M14.3828 7.83459L14.821 18.0158L27.5317 18.1687L26.9612 7.96856L14.3828 7.83459Z" fill="#EBEBEB"/>
<path d="M26.8615 7.76196H14.2358V17.2954H26.8615V7.76196Z" fill="#F5F5F5"/>
<path d="M26.8634 17.2954C26.8634 17.2954 26.8634 17.234 26.8634 17.1173C26.8634 17.0007 26.8634 16.8305 26.8634 16.6099C26.8634 16.1623 26.8634 15.5066 26.8555 14.6808C26.8555 13.0181 26.8445 10.6398 26.8366 7.76195L26.8713 7.79662H14.2472L14.2897 7.75407C14.2897 11.182 14.2897 14.4286 14.2897 17.2876L14.2503 17.2482L23.3567 17.2671L25.9462 17.2781H26.6349H26.813H26.8744H26.8177H26.6443H25.9635L23.3819 17.2876L14.2503 17.3065H14.2109V17.2671C14.2109 14.4081 14.2109 11.1615 14.2109 7.73358V7.68945H14.2551H26.8792H26.9154V7.7257C26.9075 10.613 26.9012 12.9991 26.8965 14.6603C26.8965 15.4877 26.8965 16.1355 26.887 16.5815C26.887 16.799 26.887 16.966 26.887 17.0827C26.887 17.1993 26.8634 17.2954 26.8634 17.2954Z" fill="#E0E0E0"/>
<path d="M20.8762 9.78101H15.7588V16.2223H20.8762V9.78101Z" fill="#F5F5F5"/>
<path d="M20.8747 16.2223C20.874 16.2112 20.874 16.2002 20.8747 16.1892V16.0977C20.8747 16.0126 20.8747 15.896 20.8747 15.7463C20.8747 15.4311 20.8747 14.9882 20.8637 14.424C20.8637 13.2908 20.8527 11.6864 20.8448 9.78097L20.8826 9.82037H15.7652C15.7557 9.82983 15.8471 9.73842 15.8093 9.77782V10.2191C15.8093 10.3673 15.8093 10.5138 15.8093 10.6604V11.5288C15.8093 12.1009 15.8093 12.6588 15.8093 13.1994C15.8093 14.2821 15.8093 15.2955 15.8093 16.216L15.7731 16.1797L19.4783 16.1986L20.5185 16.2081H20.7943C20.8574 16.2081 20.8905 16.2081 20.8905 16.2081C20.8611 16.2103 20.8316 16.2103 20.8022 16.2081H20.5327L19.502 16.2175L15.7731 16.2364H15.7368V16.2002C15.7368 15.2798 15.7368 14.2664 15.7368 13.1836C15.7368 12.6431 15.7368 12.0804 15.7368 11.513V9.78412L15.7809 9.73999H20.8984H20.9378V9.77782C20.9378 11.6943 20.9236 13.3066 20.9188 14.4461C20.9188 15.0071 20.9188 15.45 20.9078 15.7589C20.9078 15.906 20.9078 16.021 20.9078 16.1041C20.9078 16.1387 20.9078 16.1687 20.9078 16.1907C20.9078 16.2128 20.8747 16.2238 20.8747 16.2223Z" fill="#E0E0E0"/>
<path d="M25.7618 8.30737H15.9541V9.23566H25.7618V8.30737Z" fill="#F5F5F5"/>
<path d="M25.7603 9.23576C25.7581 9.2148 25.7581 9.19367 25.7603 9.17271C25.7603 9.12701 25.7603 9.06712 25.7603 8.99147C25.7603 8.83387 25.7603 8.60219 25.7509 8.30747L25.7682 8.3248C24.1133 8.34056 20.3435 8.3516 15.9605 8.3516L16.0046 8.30747V9.23261L15.9605 9.18847L22.9077 9.20739L24.9944 9.22H25.5617H25.7099H25.7635H25.7162H25.5728H25.0148L22.9392 9.23261L15.9542 9.24994H15.9116V8.31062L15.9542 8.26807C20.3371 8.26807 24.107 8.27752 25.7619 8.29328H25.7792V8.31062C25.7792 8.61007 25.7761 8.84175 25.7698 9.00565C25.7698 9.07973 25.7698 9.13647 25.7698 9.18217C25.7698 9.22788 25.7603 9.23733 25.7603 9.23576Z" fill="#E0E0E0"/>
<path d="M25.7635 9.78101H21.5034V13.6628H25.7635V9.78101Z" fill="#F5F5F5"/>
<path d="M25.7604 13.6626C25.7586 13.638 25.7586 13.6132 25.7604 13.5886V13.3774C25.7604 13.1882 25.7604 12.9219 25.751 12.5893C25.751 11.9069 25.7399 10.9424 25.7321 9.78399L25.7699 9.82181H21.5146L21.5571 9.77926V11.8281C21.5571 12.479 21.5571 13.0889 21.5571 13.6658L21.5051 13.6201L24.5784 13.639L25.4499 13.65H25.6816H25.7652C25.7405 13.6523 25.7157 13.6523 25.6911 13.65H25.4657L24.602 13.6595L21.5051 13.68H21.4673V13.6406C21.4673 13.0716 21.4673 12.4538 21.4673 11.8029V10.8242C21.4673 10.654 21.4673 10.4806 21.4673 10.3072V9.78241L21.5114 9.73828H25.7667H25.803V9.77453C25.7951 10.9424 25.7888 11.9148 25.7841 12.6114C25.7841 12.9424 25.7841 13.2056 25.7746 13.3994C25.7746 13.4835 25.7746 13.5513 25.7746 13.6027C25.7721 13.6232 25.7674 13.6433 25.7604 13.6626Z" fill="#E0E0E0"/>
<path d="M25.7635 14.271H21.5034V16.2221H25.7635V14.271Z" fill="#F5F5F5"/>
<path d="M25.7602 16.2223C25.7567 16.175 25.7567 16.1276 25.7602 16.0804V15.6896C25.7602 15.3444 25.7492 14.8637 25.7429 14.2711L25.7744 14.3026L21.5191 14.3152C21.4797 14.3546 21.5711 14.2617 21.5616 14.2727V15.2735C21.5616 15.5997 21.5616 15.9165 21.5616 16.2191L21.5207 16.1781L24.5672 16.197L25.4545 16.2096H25.694H25.7807C25.755 16.2119 25.7292 16.2119 25.7035 16.2096H25.4734L24.5939 16.2207L21.5207 16.2396H21.4797V16.1986C21.4797 15.896 21.4797 15.5792 21.4797 15.253C21.4797 15.0954 21.4797 14.9252 21.4797 14.7565V14.2522C21.4702 14.2522 21.5632 14.1687 21.5238 14.2081L25.7791 14.2191H25.8107V14.249C25.8028 14.8495 25.798 15.3381 25.7933 15.6864C25.7933 15.844 25.7933 15.9748 25.7854 16.071C25.7811 16.122 25.7726 16.1726 25.7602 16.2223Z" fill="#E0E0E0"/>
<path d="M20.7501 9.79199C19.1662 11.9811 17.3427 14.0347 15.7588 16.2222L20.7501 9.79199Z" fill="white"/>
<path d="M15.7588 16.2221C15.7693 16.1964 15.7836 16.1725 15.8013 16.1512L15.9337 15.9542C16.0519 15.7839 16.2269 15.5428 16.4459 15.2481C16.8872 14.6555 17.5161 13.8549 18.2206 12.9802C18.9251 12.1055 19.5618 11.3111 20.0141 10.7296L20.5468 10.0408L20.6934 9.85329C20.7281 9.81232 20.747 9.79025 20.7501 9.79183C20.7395 9.81793 20.7252 9.84235 20.7076 9.86432C20.6713 9.91791 20.6288 9.98253 20.5752 10.0598C20.457 10.23 20.282 10.4711 20.063 10.7674C19.6232 11.3584 18.9928 12.159 18.2883 13.0353C17.5838 13.9116 16.9471 14.7028 16.4948 15.2843L15.9621 15.9746C15.9022 16.0487 15.8549 16.1102 15.8155 16.1606C15.7761 16.211 15.7619 16.2237 15.7588 16.2221Z" fill="#E0E0E0"/>
<path d="M20.8743 16.2222C20.8554 16.2379 19.6955 14.8037 18.2818 13.0291C16.868 11.2545 15.738 9.79665 15.7601 9.78089C15.7821 9.76513 16.939 11.1993 18.3527 12.9755C19.7664 14.7517 20.8948 16.208 20.8743 16.2222Z" fill="#E0E0E0"/>
<path d="M14.821 9.79514C14.821 9.95349 14.774 10.1083 14.6861 10.2399C14.5981 10.3716 14.473 10.4742 14.3267 10.5348C14.1804 10.5954 14.0195 10.6113 13.8642 10.5804C13.7089 10.5495 13.5662 10.4732 13.4542 10.3613C13.3423 10.2493 13.266 10.1066 13.2351 9.95133C13.2042 9.79602 13.2201 9.63504 13.2807 9.48875C13.3413 9.34245 13.4439 9.21741 13.5755 9.12944C13.7072 9.04146 13.862 8.99451 14.0204 8.99451C14.2327 8.99451 14.4363 9.07886 14.5865 9.22901C14.7366 9.37915 14.821 9.5828 14.821 9.79514Z" fill="#E0E0E0"/>
<path d="M27.9162 7.85178C27.9162 8.01013 27.8692 8.16492 27.7813 8.29658C27.6933 8.42825 27.5683 8.53086 27.422 8.59146C27.2757 8.65206 27.1147 8.66792 26.9594 8.63702C26.8041 8.60613 26.6614 8.52988 26.5494 8.41791C26.4375 8.30594 26.3612 8.16328 26.3303 8.00797C26.2994 7.85267 26.3153 7.69169 26.3759 7.54539C26.4365 7.39909 26.5391 7.27405 26.6708 7.18608C26.8024 7.0981 26.9572 7.05115 27.1156 7.05115C27.3279 7.05115 27.5316 7.1355 27.6817 7.28565C27.8319 7.43579 27.9162 7.63944 27.9162 7.85178Z" fill="#E0E0E0"/>
<path d="M51.1502 63.3696V66.9583H50.5513V67.3491H51.1502V69.751H62.3511V67.5651H61.5221V67.0922H62.3511V66.3783H62.7199V66.0536H62.2818V63.3744L51.1502 63.3696Z" fill="#F5F5F5"/>
<path d="M59.3774 63.3807V69.7101H62.3514V67.5241H61.5224V67.0891L62.3514 67.1033V66.3893H62.7281L62.7202 66.0205L62.2821 66.0095V63.3696L59.3774 63.3807Z" fill="#E0E0E0"/>
<path d="M59.5889 67.297C59.5889 67.319 57.5621 67.3364 55.0625 67.3364C52.5629 67.3364 50.5361 67.319 50.5361 67.297C50.5361 67.2749 52.5629 67.2576 55.0625 67.2576C57.5621 67.2576 59.5889 67.2749 59.5889 67.297Z" fill="#E0E0E0"/>
<path d="M59.5889 66.9329C59.5889 66.955 57.5621 66.9723 55.0625 66.9723C52.5629 66.9723 50.5361 66.955 50.5361 66.9329C50.5361 66.9109 52.5629 66.892 55.0625 66.892C57.5621 66.892 59.5889 66.9109 59.5889 66.9329Z" fill="#E0E0E0"/>
<path d="M60.17 65.9447C60.17 65.9667 58.1432 65.9841 55.6436 65.9841C53.144 65.9841 51.1172 65.9667 51.1172 65.9447C51.1172 65.9226 53.144 65.9053 55.6436 65.9053C58.1432 65.9053 60.17 65.9289 60.17 65.9447Z" fill="#E0E0E0"/>
<path d="M60.2272 68.6241C60.2272 68.6462 58.2004 68.6651 55.7008 68.6651C53.2012 68.6651 51.1729 68.6462 51.1729 68.6241C51.1729 68.6021 53.1996 68.5847 55.7008 68.5847C58.202 68.5847 60.2272 68.6036 60.2272 68.6241Z" fill="#E0E0E0"/>
<path d="M17.3317 51.9826H25.877C26.1654 51.9826 26.442 51.868 26.646 51.664C26.8499 51.4601 26.9645 51.1835 26.9645 50.8951V48.2615C26.9645 48.0206 26.917 47.782 26.8248 47.5595C26.7326 47.3369 26.5975 47.1347 26.4272 46.9643C26.2568 46.794 26.0546 46.6588 25.832 46.5666C25.6094 46.4745 25.3709 46.427 25.13 46.427H17.2671L17.3317 51.9826Z" fill="#EBEBEB"/>
<path d="M25.7338 53.639H8.93158C8.71308 53.6373 8.50408 53.5494 8.35002 53.3945C8.19595 53.2396 8.1093 53.03 8.10889 52.8115C8.1093 52.5918 8.19678 52.3812 8.35216 52.2258C8.50753 52.0704 8.71815 51.983 8.93789 51.9825H25.7338C25.9534 51.983 26.1638 52.0705 26.3189 52.2259C26.4741 52.3813 26.5612 52.592 26.5612 52.8115C26.5612 53.031 26.474 53.2414 26.3189 53.3966C26.1637 53.5518 25.9532 53.639 25.7338 53.639Z" fill="#EBEBEB"/>
<path d="M5.50658 29.9227L14.7501 29.7651L20.6177 51.9416L8.10863 52.0598L3.3805 32.6209C3.30205 32.2993 3.29782 31.9641 3.36813 31.6407C3.43845 31.3172 3.58146 31.014 3.78633 30.754C3.9912 30.494 4.25256 30.284 4.55061 30.14C4.84865 29.996 5.17557 29.9217 5.50658 29.9227Z" fill="#E0E0E0"/>
<path d="M10.1121 53.6392L7.34619 69.7116H8.10427L11.7402 53.6392H10.1121Z" fill="#EBEBEB"/>
<path d="M16.6317 53.6392L13.6924 69.7116H14.4505L18.2598 53.6392H16.6317Z" fill="#E0E0E0"/>
<path d="M23.844 53.6392L27.1222 69.7116H26.3641L22.2144 53.6392H23.844Z" fill="#EBEBEB"/>
<path d="M13.6924 29.7588L18.2629 51.9589H21.7712L18.1069 32.3435C17.9725 31.6177 17.5883 30.9618 17.0209 30.4897C16.4534 30.0176 15.7386 29.759 15.0005 29.7588H13.6924Z" fill="#EBEBEB"/>
<path d="M65.2593 69.7998C65.2593 69.8218 50.6793 69.8407 32.6966 69.8407C14.714 69.8407 0.130859 69.8218 0.130859 69.7998C0.130859 69.7777 14.7077 69.7588 32.6966 69.7588C50.6856 69.7588 65.2593 69.7761 65.2593 69.7998Z" fill="#263238"/>
<path d="M23.9523 69.8455H11.9019L12.8128 61.0732L23.9523 61.0007V69.8455Z" fill="#C1C1C1"/>
<g opacity="0.4">
<path opacity="0.4" d="M23.9523 69.8455H11.9019L12.8128 61.0732L23.9523 61.0007V69.8455Z" fill="black"/>
</g>
<path d="M25.7096 61.0007H13.6592V69.8439H25.7096V61.0007Z" fill="#C1C1C1"/>
<g opacity="0.2">
<path opacity="0.2" d="M25.7096 61.0007H13.6592V69.8439H25.7096V61.0007Z" fill="black"/>
</g>
<path d="M25.8105 65.2829C25.8105 65.305 23.0997 65.3239 19.7569 65.3239C16.4141 65.3239 13.7002 65.305 13.7002 65.2829C13.7002 65.2608 16.411 65.2404 19.7569 65.2404C23.1029 65.2404 25.8105 65.2593 25.8105 65.2829Z" fill="#263238"/>
<path d="M15.8056 66.1339C15.751 65.6938 15.751 65.2486 15.8056 64.8085C15.8603 65.2486 15.8603 65.6938 15.8056 66.1339Z" fill="#263238"/>
<path d="M24.184 66.0867C24.1294 65.694 24.1294 65.2957 24.184 64.9031C24.2387 65.2957 24.2387 65.694 24.184 66.0867Z" fill="#263238"/>
<path d="M21.5304 61.0464C21.5304 61.0464 21.5304 60.9503 21.502 60.7848C21.46 60.5503 21.3687 60.3273 21.2341 60.1307C21.0354 59.8389 20.76 59.6076 20.4382 59.4625C20.0416 59.2879 19.6103 59.2065 19.1773 59.2245C18.7418 59.2281 18.312 59.3242 17.9165 59.5066C17.5963 59.6563 17.3193 59.8845 17.1111 60.1701C16.9716 60.3631 16.8715 60.5816 16.8164 60.8132C16.7786 60.9787 16.777 61.0732 16.7691 61.0732C16.7667 61.0502 16.7667 61.0269 16.7691 61.0039C16.7694 60.9378 16.7757 60.8718 16.7881 60.8069C16.8322 60.5663 16.9274 60.3379 17.067 60.1371C17.2747 59.8369 17.5572 59.5963 17.8866 59.4389C18.2882 59.2484 18.7265 59.1473 19.171 59.1426C19.6161 59.1242 20.0593 59.2105 20.465 59.3947C20.7963 59.5487 21.0775 59.7929 21.2766 60.0992C21.4114 60.3039 21.4972 60.5369 21.5272 60.7801C21.533 60.8456 21.533 60.9115 21.5272 60.9771C21.5322 60.9998 21.5333 61.0233 21.5304 61.0464Z" fill="#263238"/>
<path d="M17.0101 26.8904C17.5859 26.62 18.2334 26.5415 18.8572 26.6667C19.1929 26.7218 19.5428 26.8243 19.7697 27.0733C19.9967 27.3223 20.0408 27.7683 19.7792 27.9842C19.6103 28.0985 19.4069 28.1504 19.2039 28.1308C18.7153 28.1308 18.1748 28.0394 17.7855 28.3325C17.5633 28.4996 17.4151 28.7785 17.1551 28.8605C17.022 28.8911 16.8826 28.8777 16.7579 28.8223C16.6331 28.7668 16.5297 28.6724 16.4632 28.5532C16.3369 28.3103 16.3087 28.0282 16.3844 27.7652C16.4143 27.581 16.4864 27.4063 16.5949 27.2546C16.7034 27.1029 16.8455 26.9783 17.0101 26.8904Z" fill="#C1C1C1"/>
<path d="M15.7245 24.405C16.0681 24.8967 16.7348 24.7344 17.0453 24.4349C17.3557 24.1355 17.485 23.7005 17.6048 23.2876C17.8758 22.342 18.1501 21.3491 17.9483 20.3861C17.8993 20.0945 17.7712 19.8219 17.578 19.5981C17.4799 19.4879 17.3546 19.4055 17.2146 19.359C17.0747 19.3126 16.925 19.3037 16.7805 19.3333C16.4432 19.4216 16.2336 19.7509 16.0823 20.0662C15.6369 20.9923 15.4038 22.0062 15.3999 23.0338C15.3999 23.5067 15.4535 24.0126 15.7245 24.4066" fill="#C1C1C1"/>
<path d="M14.7801 25.1094C14.9568 24.879 15.0745 24.609 15.1228 24.3227C15.1712 24.0365 15.1488 23.7427 15.0575 23.4672C14.8707 22.9136 14.5341 22.4226 14.0851 22.0487C13.5762 21.598 12.984 21.251 12.342 21.0274C12.0923 20.9256 11.8233 20.8798 11.554 20.8935C11.4202 20.9011 11.2903 20.9415 11.1757 21.011C11.0611 21.0805 10.9654 21.1771 10.8968 21.2922C10.7124 21.6421 10.8968 22.066 11.078 22.4112C11.4137 23.0214 11.7968 23.6042 12.2238 24.1543C12.5658 24.5972 12.9598 25.0337 13.4846 25.2323C14.0095 25.4309 14.5516 25.4088 14.829 25.0463" fill="#C1C1C1"/>
<path d="M15.701 31.8075C15.7185 31.7341 15.729 31.6592 15.7325 31.5837C15.7483 31.4261 15.7672 31.2181 15.7908 30.9754C15.8214 30.6759 15.8672 30.3782 15.9279 30.0834C16.0073 29.7242 16.1159 29.372 16.2526 29.0306C16.3856 28.6888 16.5666 28.3678 16.79 28.077C16.9721 27.8402 17.2047 27.6469 17.4709 27.5112C17.6494 27.422 17.8409 27.3614 18.0383 27.3316C18.1132 27.3288 18.1877 27.3183 18.2605 27.3001C18.1851 27.2919 18.109 27.2919 18.0335 27.3001C17.8273 27.3175 17.6257 27.3709 17.4378 27.4577C17.1574 27.5899 16.9115 27.7851 16.7191 28.0282C16.4862 28.3228 16.2987 28.6505 16.1628 29.0006C16.0271 29.3476 15.9216 29.7056 15.8476 30.0707C15.7899 30.3696 15.7505 30.6717 15.7294 30.9754C15.7104 31.2339 15.7026 31.4482 15.6994 31.5869C15.6922 31.6603 15.6927 31.7343 15.701 31.8075Z" fill="#263238"/>
<path d="M15.7415 31.3396C15.7462 31.305 15.7462 31.2701 15.7415 31.2355V30.9392C15.7415 30.6839 15.7415 30.3088 15.7541 29.8533C15.7761 28.9345 15.8565 27.9479 16.0078 26.5547C16.1528 25.2466 16.3467 23.7178 16.5515 22.7312C16.5957 22.5058 16.6398 22.3041 16.6808 22.126C16.7218 21.9479 16.7549 21.795 16.788 21.6705C16.8211 21.546 16.8384 21.4593 16.8573 21.3837C16.8671 21.3503 16.8729 21.316 16.8746 21.2812C16.8584 21.3121 16.8462 21.345 16.8384 21.379L16.7533 21.6611C16.7155 21.784 16.6761 21.9369 16.6319 22.115C16.5878 22.2931 16.5358 22.4932 16.4885 22.7186C16.2342 23.89 16.0432 25.0743 15.9164 26.2663C15.7588 27.6611 15.6958 28.9314 15.6895 29.8518C15.6895 30.312 15.6895 30.6839 15.7052 30.9408C15.7052 31.0606 15.7178 31.1583 15.7225 31.2371C15.7256 31.2718 15.7319 31.3061 15.7415 31.3396Z" fill="#263238"/>
<path d="M15.7482 28.8887C15.7572 28.7839 15.7572 28.6784 15.7482 28.5735C15.7372 28.375 15.7088 28.0881 15.6537 27.7367C15.586 27.3252 15.495 26.9179 15.381 26.5168C15.2481 26.0232 15.0774 25.5406 14.8704 25.0731C14.5171 24.2112 14.0097 23.4207 13.3731 22.7406C13.2629 22.6236 13.145 22.514 13.0201 22.4128C12.9665 22.3671 12.9192 22.3214 12.8625 22.2851L12.7254 22.1906C12.6433 22.1308 12.5563 22.0781 12.4653 22.033C12.7655 22.2677 13.0503 22.5215 13.318 22.7926C13.9337 23.4787 14.4278 24.2649 14.779 25.1173C14.9814 25.5824 15.1525 26.0604 15.2912 26.5483C15.4085 26.9455 15.5052 27.3485 15.5812 27.7556C15.6458 28.1039 15.682 28.386 15.7041 28.5846C15.7113 28.6869 15.7261 28.7886 15.7482 28.8887Z" fill="#263238"/>
<path d="M13.3809 33.2119L13.6251 36.5752H17.9467L18.1925 33.2119H13.3809Z" fill="#263238"/>
<path d="M18.7076 31.8849H12.9629V33.2103H18.7076V31.8849Z" fill="#263238"/>
<path d="M12.9629 36.4459V36.8131H13.2324H18.613V36.4459H12.9629Z" fill="#455A64"/>
<path d="M13.4972 37.4609L13.2324 36.8131H18.4066L18.0977 37.4609H13.4972Z" fill="#455A64"/>
<path d="M18.1124 34.3104C18.1124 34.3104 18.1124 34.3214 18.0919 34.3419L18.0273 34.427L17.7767 34.7423L17.7641 34.758L17.7546 34.7423L17.1352 33.8865H17.1715L16.5616 34.7486L16.5427 34.7769L16.5222 34.7501C16.2968 34.4838 16.0494 34.1938 15.8003 33.8912H15.8413L15.8019 33.9416L15.1557 34.7501L15.1337 34.7769L15.1148 34.7486L14.5048 33.888H14.5411L13.7909 34.7423L13.7767 34.758L13.7672 34.7407L13.5324 34.3451L13.4725 34.2411C13.4646 34.2294 13.4582 34.2166 13.4536 34.2032C13.4631 34.2134 13.4715 34.2245 13.4788 34.2363L13.545 34.3372L13.7925 34.7249H13.7688L14.5064 33.8597L14.5253 33.8376L14.5427 33.8612C14.7286 34.1213 14.9351 34.4113 15.1573 34.7186H15.1148L15.7594 33.9069L15.7988 33.8581L15.8193 33.8313L15.8413 33.8565C16.0935 34.1591 16.3362 34.4507 16.5616 34.7186H16.5206L17.1352 33.8597L17.1542 33.8344L17.1715 33.8597L17.7767 34.7249H17.7546C17.865 34.5941 17.9532 34.4885 18.0163 34.4097L18.0872 34.3293C18.0948 34.322 18.1033 34.3157 18.1124 34.3104Z" fill="#E0E0E0"/>
<path d="M18.2524 33.1898C18.2524 33.2039 17.1697 33.2165 15.8348 33.2165C14.4998 33.2165 13.4155 33.2039 13.4155 33.1898C13.4155 33.1756 14.4983 33.163 15.8316 33.163C17.1649 33.163 18.2524 33.174 18.2524 33.1898Z" fill="#455A64"/>
<path d="M18.4714 36.8493C18.4714 36.8651 17.2941 36.8761 15.8426 36.8761C14.3911 36.8761 13.2153 36.8651 13.2153 36.8493C13.2153 36.8335 14.3911 36.8225 15.8426 36.8225C17.2941 36.8225 18.4714 36.8351 18.4714 36.8493Z" fill="#263238"/>
<path d="M40.8265 37.5349H53.479V36.9203H40.8265V37.5349Z" fill="#263238"/>
<path d="M55.4397 37.535L57.8132 28.6429H47.933L45.7848 37.535H55.4397Z" fill="#263238"/>
<path d="M46.3774 36.8622H55.2017L57.2569 29.0544H48.3853L46.3774 36.8622Z" fill="#455A64"/>
<path d="M55.2637 36.9457H46.2803L48.3291 28.9788H57.363L55.2637 36.9457ZM46.4789 36.7881H55.1471L57.1597 29.1364H48.4552L46.4789 36.7881Z" fill="#263238"/>
<path d="M15.3893 39.2623H14.751V69.7682H15.3893V39.2623Z" fill="#455A64"/>
<path d="M16.0294 39.3491H15.3911V69.7667H16.0294V39.3491Z" fill="#263238"/>
<path d="M54.754 39.2623H54.1157V69.7682H54.754V39.2623Z" fill="#455A64"/>
<path d="M55.3927 39.3491H54.7544V69.7667H55.3927V39.3491Z" fill="#263238"/>
<path d="M64.3081 37.4894H7.34521V39.9921H64.3081V37.4894Z" fill="#455A64"/>
<path d="M54.4357 39.9922H33.0693V44.134H54.4357V39.9922Z" fill="#455A64"/>
<path d="M44.7054 41.7763C44.7054 41.8698 44.6777 41.9612 44.6257 42.039C44.5738 42.1167 44.4999 42.1773 44.4135 42.2131C44.3271 42.2489 44.2321 42.2583 44.1403 42.24C44.0486 42.2218 43.9644 42.1767 43.8983 42.1106C43.8321 42.0445 43.7871 41.9602 43.7689 41.8685C43.7506 41.7768 43.76 41.6817 43.7958 41.5953C43.8315 41.5089 43.8921 41.4351 43.9699 41.3831C44.0477 41.3312 44.1391 41.3035 44.2326 41.3035C44.358 41.3035 44.4782 41.3533 44.5669 41.442C44.6556 41.5306 44.7054 41.6509 44.7054 41.7763Z" fill="#263238"/>
<path d="M59.0898 39.9921C59.0898 40.0142 51.6824 40.0331 42.5571 40.0331C33.4318 40.0331 26.0244 40.0142 26.0244 39.9921C26.0244 39.9701 33.4318 39.9512 42.5571 39.9512C51.6824 39.9512 59.0898 39.9701 59.0898 39.9921Z" fill="#263238"/>
<path d="M39.374 10.55C39.4591 10.55 40.6112 10.7423 40.6112 10.7423L42.1699 12.7061L42.4047 13.078L40.3022 14.4224L39.374 13.0481L38.5859 12.5359C38.7032 12.4463 38.843 12.3907 38.9898 12.3754C39.1366 12.3602 39.2848 12.3857 39.4181 12.4492C39.7288 12.5798 40.063 12.6453 40.4 12.6415L40.1226 11.8534L39.2684 11.6832L39.374 10.55Z" fill="#EB996E"/>
<path d="M39.4723 9.17571C39.505 9.16715 39.5392 9.16556 39.5725 9.17104C39.6059 9.17652 39.6377 9.18896 39.6659 9.20753C39.6942 9.22611 39.7182 9.25041 39.7364 9.27887C39.7547 9.30733 39.7667 9.3393 39.7718 9.37271C39.8995 10.1781 40.2856 12.602 40.4022 13.3128C40.412 13.3694 40.4004 13.4276 40.3694 13.476C40.3385 13.5245 40.2906 13.5596 40.2352 13.5744L38.3801 14.093C38.3481 14.1021 38.3145 14.1042 38.2816 14.099C38.2487 14.0939 38.2174 14.0817 38.1896 14.0633C38.1619 14.0449 38.1385 14.0206 38.1211 13.9923C38.1036 13.9639 38.0925 13.9322 38.0886 13.8991L37.5811 9.87547C37.5735 9.81659 37.5878 9.75697 37.6212 9.70788C37.6546 9.6588 37.7048 9.62366 37.7623 9.60912L39.4723 9.17571Z" fill="#263238"/>
<path d="M38.2272 13.5966L40.1184 13.0687L39.6173 9.72116C39.6106 9.67607 39.5945 9.6329 39.5699 9.59449C39.5454 9.55608 39.513 9.52329 39.4749 9.49828C39.4368 9.47328 39.3938 9.45662 39.3488 9.44939C39.3038 9.44217 39.2578 9.44455 39.2138 9.45638L37.6992 9.85827L38.2272 13.5966Z" fill="#EBEBEB"/>
<path d="M40.0785 11.1475L39.229 11.7779C39.229 11.7779 39.2999 12.0017 39.4292 12.0174C39.7044 11.9814 39.9764 11.9235 40.2424 11.8441L40.0785 11.1475Z" fill="#EB996E"/>
<path d="M39.9765 10.6384L39.086 11.0293C39.086 11.0293 39.0293 11.3193 39.3618 11.2783L39.064 11.4926C39.064 11.4926 39.138 11.6219 39.51 11.6376C39.8819 11.6534 40.2428 11.1365 40.2428 11.1365L39.9765 10.6384Z" fill="#EB996E"/>
<path d="M40.8602 11.6296C40.8602 11.6406 40.7515 11.6202 40.6333 11.5098C40.5682 11.4489 40.4998 11.3915 40.4284 11.338C40.3883 11.3085 40.3413 11.2898 40.2919 11.2838C40.2425 11.2777 40.1923 11.2844 40.1463 11.3034C39.8991 11.4457 39.6408 11.568 39.374 11.669C39.6046 11.4939 39.8541 11.3454 40.1179 11.2261C40.1783 11.2015 40.2442 11.1939 40.3086 11.2041C40.3655 11.2175 40.4191 11.2421 40.4662 11.2766C40.54 11.3335 40.6076 11.3979 40.668 11.4689C40.7282 11.5268 40.7925 11.5806 40.8602 11.6296Z" fill="#D1734A"/>
<path d="M40.6853 13.8488C40.5326 13.6644 40.4378 13.4392 40.4125 13.2012C40.3873 12.9632 40.4328 12.723 40.5434 12.5107C40.5003 12.735 40.4839 12.9635 40.4946 13.1916C40.5316 13.4175 40.5956 13.6381 40.6853 13.8488Z" fill="#D1734A"/>
<path d="M40.5748 11.0308C40.5638 11.0402 40.5165 10.9725 40.403 10.9362C40.2513 10.8939 40.0889 10.9125 39.9507 10.9882C39.7837 11.0686 39.6355 11.1711 39.5173 11.2199C39.3991 11.2688 39.3156 11.2798 39.314 11.2703C39.3124 11.2609 39.3833 11.2325 39.4905 11.1679C39.5977 11.1033 39.7364 10.9993 39.9176 10.9142C40.0031 10.8713 40.0964 10.8462 40.1918 10.8401C40.2714 10.8354 40.3509 10.85 40.4235 10.8826C40.5417 10.941 40.5748 11.0276 40.5748 11.0308Z" fill="#D1734A"/>
<path d="M40.501 16.6147L45.133 19.5887L43.9052 23.1002C43.9052 23.1002 40.7358 22.1214 40.7941 22.019C40.8524 21.9166 40.501 16.6147 40.501 16.6147Z" fill="#C1C1C1"/>
<path d="M39.3032 64.145L38.5735 67.5004C38.5735 67.5004 41.7398 69.368 41.6657 70L35.1094 68.8212L36.0298 63.5461L39.3032 64.145Z" fill="#263238"/>
<path d="M35.1094 68.8212L35.2229 68.2932L41.4671 69.6218C41.4671 69.6218 41.7351 69.8015 41.6657 70.0001L35.1094 68.8212Z" fill="#455A64"/>
<path d="M31.8451 64.5137L31.7363 67.9447C31.7363 67.9447 35.1895 69.2055 35.2304 69.8438L28.5685 69.8738L28.5181 64.5152L31.8451 64.5137Z" fill="#263238"/>
<g opacity="0.6">
<path opacity="0.6" d="M28.5688 69.874L28.5846 69.3334L34.966 69.5083C34.966 69.5083 35.2639 69.636 35.2308 69.844L28.5688 69.874Z" fill="#455A64"/>
</g>
<path d="M32.8117 8.23971L33.491 16.1199L37.4311 15.8047C37.4547 15.3445 37.4216 13.5636 37.4216 13.5636C37.4216 13.5636 39.0623 13.3083 39.0828 11.6723C39.0922 10.8749 38.9788 9.22947 38.859 7.74641C38.7972 6.95472 38.4276 6.21876 37.8295 5.69638C37.2314 5.174 36.4524 4.9068 35.6596 4.95209C35.2549 4.97568 34.859 5.08011 34.4952 5.25922C34.1315 5.43833 33.8074 5.68849 33.5419 5.99493C33.2764 6.30138 33.0751 6.65789 32.9497 7.04343C32.8242 7.42898 32.7773 7.83574 32.8117 8.23971Z" fill="#EB996E"/>
<path d="M37.4234 13.5336C36.6659 13.5474 35.9215 13.3356 35.2847 12.9253C35.2847 12.9253 35.7906 14.1057 37.4265 13.9576L37.4234 13.5336Z" fill="#D1734A"/>
<path d="M38.2274 8.89206C38.2278 8.95328 38.2043 9.01224 38.1619 9.0564C38.1196 9.10056 38.0616 9.12642 38.0004 9.12847C37.9706 9.13083 37.9407 9.1272 37.9123 9.1178C37.884 9.10839 37.8578 9.09341 37.8353 9.07373C37.8128 9.05404 37.7945 9.03006 37.7815 9.00319C37.7684 8.97632 37.7609 8.94711 37.7593 8.91728C37.7588 8.85633 37.7821 8.79759 37.8241 8.75348C37.8662 8.70936 37.9238 8.68333 37.9847 8.68088C38.0145 8.67852 38.0446 8.68214 38.073 8.69152C38.1014 8.7009 38.1277 8.71587 38.1503 8.73553C38.1729 8.75519 38.1914 8.77916 38.2046 8.80604C38.2178 8.83292 38.2256 8.86216 38.2274 8.89206Z" fill="#263238"/>
<path d="M38.5106 8.56105C38.4822 8.59257 38.3041 8.46019 38.0519 8.46176C37.7998 8.46334 37.6154 8.58785 37.5886 8.5579C37.5618 8.52796 37.6043 8.48856 37.6847 8.43024C37.7941 8.35484 37.9238 8.31469 38.0567 8.31519C38.188 8.31472 38.3161 8.35613 38.4223 8.43339C38.4995 8.49171 38.5263 8.54845 38.5106 8.56105Z" fill="#263238"/>
<path d="M35.8055 8.89219C35.8063 8.95325 35.7832 9.01222 35.7411 9.05642C35.6989 9.10063 35.6412 9.12654 35.5801 9.1286C35.5503 9.13095 35.5202 9.12734 35.4918 9.11795C35.4633 9.10857 35.437 9.09361 35.4144 9.07394C35.3918 9.05428 35.3734 9.03031 35.3602 9.00343C35.3469 8.97655 35.3392 8.94731 35.3374 8.91741C35.3374 8.85631 35.361 8.79757 35.4033 8.7535C35.4456 8.70943 35.5033 8.68344 35.5644 8.681C35.5941 8.67886 35.624 8.68264 35.6522 8.69213C35.6805 8.70161 35.7066 8.71661 35.729 8.73625C35.7514 8.75589 35.7697 8.77979 35.7829 8.80656C35.796 8.83333 35.8037 8.86243 35.8055 8.89219Z" fill="#263238"/>
<path d="M36.033 8.60847C36.0047 8.63842 35.8266 8.50761 35.5744 8.50918C35.3222 8.51076 35.1378 8.63527 35.111 8.60374C35.0842 8.57222 35.1268 8.53598 35.2072 8.47766C35.3159 8.40103 35.4461 8.36076 35.5791 8.36261C35.7106 8.36158 35.8388 8.40304 35.9448 8.48081C36.022 8.53913 36.0472 8.59429 36.033 8.60847Z" fill="#263238"/>
<path d="M36.9504 10.4776C37.0834 10.4361 37.221 10.4112 37.3601 10.4035C37.4232 10.4035 37.4846 10.3846 37.4957 10.3405C37.5008 10.2741 37.486 10.2077 37.4531 10.1498C37.3917 9.99216 37.3286 9.83456 37.2624 9.65962C36.9977 8.96143 36.8069 8.38775 36.8353 8.37829C36.8637 8.36884 37.1001 8.92518 37.3649 9.62179C37.4279 9.79516 37.4894 9.95906 37.5461 10.1151C37.5868 10.1931 37.5991 10.2828 37.5808 10.3688C37.5714 10.3916 37.5569 10.4119 37.5383 10.4281C37.5196 10.4442 37.4975 10.4558 37.4736 10.4618C37.4382 10.4718 37.4017 10.4771 37.3649 10.4776C37.2273 10.4956 37.0879 10.4956 36.9504 10.4776Z" fill="#263238"/>
<path d="M36.2062 10.6526C36.2472 10.6526 36.2472 10.9237 36.482 11.1254C36.7169 11.3272 37.0069 11.283 37.01 11.3287C37.0132 11.3744 36.9454 11.3807 36.8209 11.3839C36.6603 11.3849 36.5046 11.329 36.3812 11.2263C36.2588 11.1292 36.18 10.9875 36.1621 10.8323C36.1621 10.7188 36.1873 10.651 36.2062 10.6526Z" fill="#263238"/>
<path d="M36.099 7.62018C36.0738 7.68953 35.8216 7.65643 35.5253 7.69268C35.229 7.72893 34.991 7.80931 34.9516 7.74784C34.9343 7.7179 34.9753 7.65328 35.073 7.59024C35.2014 7.50843 35.347 7.45721 35.4984 7.44054C35.6497 7.42388 35.8029 7.4422 35.9461 7.4941C36.0549 7.5335 36.1084 7.58866 36.099 7.62018Z" fill="#263238"/>
<path d="M38.4192 7.8314C38.3751 7.88971 38.2001 7.8314 37.9921 7.8314C37.784 7.8314 37.6059 7.8708 37.565 7.81091C37.5476 7.78096 37.576 7.72422 37.6532 7.66906C37.7571 7.60446 37.8779 7.57208 38.0001 7.576C38.1224 7.57993 38.2408 7.61999 38.3404 7.69113C38.4145 7.74471 38.4381 7.8046 38.4192 7.8314Z" fill="#263238"/>
<path d="M34.5857 6.44132H34.5763C34.3172 6.64863 34.1479 6.94777 34.1035 7.27663V7.30972C34.0389 7.78254 34.0515 8.25535 33.9821 8.72816C33.9128 9.20098 33.752 9.67379 33.4053 9.989C33.2634 10.1214 33.0129 10.2128 32.8962 10.0583C32.8563 9.99411 32.836 9.91961 32.8379 9.844C32.7497 8.71398 32.4408 7.71162 32.4439 6.53431C32.4422 6.37604 32.4784 6.21964 32.5494 6.07818C32.6204 5.93672 32.7242 5.81428 32.8521 5.72107C33.0995 5.54456 33.4006 5.36016 33.6764 5.49097C33.9522 5.62178 34.3068 6.13557 34.5196 6.35307" fill="#263238"/>
<path d="M33.365 8.9819C33.3366 8.96929 32.2381 8.64778 32.2728 9.76992C32.3074 10.8921 33.428 10.6241 33.428 10.5926C33.428 10.5611 33.365 8.9819 33.365 8.9819Z" fill="#EB996E"/>
<path d="M33.0718 10.1782C33.0718 10.1782 33.0529 10.1924 33.0214 10.2081C32.9754 10.2297 32.9229 10.2325 32.8748 10.216C32.801 10.1725 32.7401 10.1102 32.6983 10.0354C32.6565 9.96065 32.6353 9.87613 32.6369 9.79048C32.6311 9.69422 32.6467 9.59788 32.6826 9.50837C32.6916 9.47254 32.7092 9.43945 32.7339 9.41199C32.7587 9.38452 32.7897 9.36351 32.8244 9.35077C32.8467 9.3443 32.8706 9.3456 32.8921 9.35448C32.9135 9.36336 32.9314 9.37928 32.9426 9.39963C32.9584 9.43115 32.9521 9.45321 32.9584 9.45479C32.9647 9.45636 32.9804 9.43587 32.971 9.39017C32.9637 9.36228 32.947 9.33777 32.9237 9.32082C32.8917 9.29943 32.8531 9.29046 32.8149 9.29561C32.7693 9.30677 32.7272 9.32922 32.6925 9.36089C32.6578 9.39256 32.6316 9.43243 32.6164 9.47685C32.5717 9.57563 32.5523 9.68392 32.5596 9.79206C32.5738 10.019 32.6967 10.2255 32.8591 10.2649C32.8896 10.2726 32.9214 10.2733 32.9523 10.2671C32.9831 10.2608 33.0121 10.2476 33.0372 10.2286C33.0718 10.205 33.0766 10.1798 33.0718 10.1782Z" fill="#D1734A"/>
<path d="M33.6406 5.66437C33.3648 5.2152 34.1213 4.5706 34.6745 4.40354C35.2277 4.23648 35.9574 4.4981 36.5075 4.68092C36.8558 4.79597 37.2009 4.95673 37.5681 4.94254C37.8125 4.91651 38.0519 4.85547 38.2789 4.7613C38.5057 4.66538 38.7498 4.6171 38.996 4.61946C39.119 4.62206 39.2389 4.65824 39.3428 4.72407C39.4467 4.78991 39.5306 4.8829 39.5855 4.99298C39.6785 5.21993 39.5461 5.53198 39.3018 5.56508C39.3797 5.52276 39.4666 5.49988 39.5553 5.4984C39.6439 5.49693 39.7316 5.51689 39.8108 5.5566C39.8901 5.59631 39.9585 5.65458 40.0104 5.72645C40.0623 5.79833 40.096 5.88168 40.1088 5.9694C40.1215 6.05713 40.1128 6.14663 40.0835 6.23028C40.0542 6.31393 40.0051 6.38926 39.9404 6.44985C39.8757 6.51044 39.7973 6.5545 39.7119 6.57826C39.6265 6.60203 39.5366 6.60481 39.4499 6.58636C39.6075 6.465 39.8534 6.66516 39.8329 6.86374C39.8115 6.9618 39.7649 7.0526 39.6978 7.12721C39.6306 7.20182 39.5452 7.25767 39.4499 7.28927C38.9771 7.49416 38.4365 7.42796 37.9527 7.26563C37.4688 7.1033 37.0197 6.84956 36.5342 6.67462C36.0488 6.49967 35.2498 6.18447 34.7691 6.35941C34.4145 6.48549 34.167 6.9126 33.9669 6.81803C33.8724 6.7676 33.7911 6.69568 33.7295 6.60809C33.6679 6.52049 33.6278 6.41966 33.6123 6.3137C33.5858 6.10374 33.5932 5.89088 33.6343 5.68328" fill="#263238"/>
<path d="M39.4354 5.52888C39.426 5.52888 39.3787 5.61084 39.2574 5.74165C39.0857 5.92439 38.872 6.06236 38.6348 6.14354C38.2861 6.2689 37.9023 6.25364 37.5647 6.10099C37.1833 5.9292 36.857 5.58247 36.4772 5.26726C36.129 4.94097 35.6888 4.72969 35.2164 4.66206C35.0213 4.63815 34.8234 4.65908 34.6377 4.72326C34.452 4.78745 34.2833 4.89319 34.1447 5.03243C34.0552 5.12969 33.9865 5.24409 33.9426 5.36872C33.8987 5.49334 33.8806 5.62558 33.8894 5.75741C33.8955 5.82824 33.912 5.89779 33.9382 5.96387C33.9587 6.008 33.9713 6.03007 33.9745 6.02849C33.9532 5.93885 33.939 5.84769 33.9319 5.75583C33.9321 5.50619 34.0287 5.26625 34.2014 5.08602C34.3355 4.95931 34.4963 4.86435 34.6719 4.80815C34.8476 4.75196 35.0337 4.73596 35.2164 4.76135C35.6656 4.83277 36.0829 5.03759 36.4142 5.34921C36.783 5.66442 37.1202 6.01588 37.5284 6.19397C37.8294 6.32258 38.1637 6.3508 38.482 6.27443C38.8002 6.19807 39.0854 6.02119 39.2952 5.77002C39.34 5.71647 39.3791 5.65836 39.4118 5.59665C39.4291 5.5541 39.4386 5.53046 39.4354 5.52888Z" fill="#455A64"/>
<path d="M33.0782 8.933C33.0782 8.933 33.1271 8.90148 33.1697 8.81322C33.225 8.68531 33.2446 8.54478 33.2264 8.4066C33.2012 8.04569 32.8812 7.65798 32.8403 7.15838C32.8118 6.92761 32.8553 6.69367 32.9648 6.48856C33.0604 6.32651 33.2066 6.20028 33.3809 6.12922C33.4992 6.07932 33.6285 6.06139 33.7559 6.07721C33.8458 6.09297 33.8946 6.11346 33.8994 6.104C33.8618 6.06946 33.8155 6.046 33.7654 6.03623C33.6295 6.00084 33.4861 6.00744 33.3541 6.05515C33.1575 6.12444 32.9906 6.25906 32.8812 6.43655C32.7555 6.65895 32.7041 6.91574 32.7347 7.16941C32.7638 7.41579 32.8369 7.65494 32.9506 7.87548C33.0406 8.04694 33.1069 8.22987 33.1476 8.41921C33.1786 8.59352 33.1543 8.77315 33.0782 8.933Z" fill="#455A64"/>
<path d="M39.6612 67.0229C39.6612 67.0229 43.0765 50.2696 43.0797 49.9354L36.9788 46.7172L34.6147 66.3783L39.6612 67.0229Z" fill="#263238"/>
<path d="M31.9796 67.584L36.6967 38.5486V32.2854L29.8661 32.774C29.7841 33.0183 28.0615 67.6219 28.0615 67.6219L28.7266 67.584H31.9796Z" fill="#263238"/>
<path d="M40.4046 31.8425L43.0792 49.9355L37.0997 48.4855L34.6631 32.432L40.4046 31.8425Z" fill="#263238"/>
<path d="M41.4352 39.636C41.4352 39.636 42.4753 38.7423 42.5778 38.0694C42.6802 37.3964 41.3311 26.5643 41.3311 26.5643L40.6424 17.6092C40.6424 17.7668 40.6613 16.4807 40.4533 16.4035C39.8229 16.1655 38.5274 15.7337 38.5274 15.7337L37.7866 15.0686C37.7866 15.0686 39.1168 20.755 39.3753 22.3089L41.4352 39.636Z" fill="#C1C1C1"/>
<path d="M32.8957 14.4509L31.7767 15.1964L27.5797 16.8465L29.4441 23.8772L29.1936 27.9623L28.9556 30.5549C28.9556 30.5549 27.7058 36.9742 26.6025 40.8749C26.6025 40.8749 27.8334 43.2074 28.8452 43.5321L29.2661 43.7827L30.7664 32.7961L32.0541 31.0624C32.1786 30.8954 32.2936 30.7236 32.4024 30.5471C32.7176 30.0317 33.4394 28.8607 34.0147 27.9576C34.7743 26.7646 35.7483 24.0538 35.4599 22.8969C35.1715 21.7401 32.8957 14.4509 32.8957 14.4509Z" fill="#C1C1C1"/>
<path d="M30.0439 38.6887C31.0266 37.8935 31.8428 36.9124 32.4458 35.8014L30.0439 38.6887Z" fill="#263238"/>
<path d="M32.8948 14.4508L33.9051 20.9331C33.8776 21.7619 33.7404 22.5833 33.4969 23.376L31.6939 29.2073C31.6939 29.2073 30.2754 32.3862 30.7656 32.7928C31.2557 33.1994 35.0682 32.7928 35.0682 32.7928L40.2282 32.0442C40.3433 32.0273 40.4475 31.9669 40.5194 31.8754C40.5912 31.7839 40.6252 31.6683 40.6143 31.5525L39.8483 23.6376C39.5899 23.0907 39.4843 21.9717 39.3755 21.5745L37.7869 15.0702L37.4622 15.0277L36.7561 15.5115L36.3842 15.5415L33.262 14.03L32.8948 14.4508Z" fill="#EBEBEB"/>
<path d="M31.954 28.3609C32.7877 25.762 33.8673 21.5366 33.8673 21.5366C34.203 23.7431 33.8358 26.0047 33.0147 28.0851C32.3433 29.7809 31.5316 31.0638 30.9737 32.8022L30.9564 32.8731C30.9564 32.8731 30.6412 32.8904 30.6632 32.4255C30.6853 31.9606 31.136 30.5768 31.4371 29.8108C31.7381 29.0449 31.954 28.3609 31.954 28.3609Z" fill="#E0E0E0"/>
<path d="M36.9359 16.0615H36.2345L36.0249 17.0213L36.638 17.7636L37.2558 17.7022L37.4575 17.0135L37.292 16.6289L36.9359 16.0615Z" fill="#C1C1C1"/>
<path d="M41.0261 21.6659C41.2467 21.71 43.6833 23.3491 44.569 23.1726C45.4547 22.9961 46.1718 22.1608 46.2664 22.0489C46.7692 21.4531 46.454 20.216 46.309 19.7494C46.2736 19.6356 46.2255 19.5262 46.1655 19.4232L42.4035 12.9614L40.186 14.3089L42.4871 18.5059L41.0261 21.6659Z" fill="#C1C1C1"/>
<path d="M22.8809 29.4784C22.7351 29.0972 22.6718 28.6893 22.6952 28.2818C22.7185 27.8743 22.828 27.4764 23.0164 27.1143C23.5271 26.1041 24.3372 24.4729 24.5074 23.937C24.7595 23.1411 27.1173 17.034 27.5791 16.8448L29.6279 23.7621L27.2481 28.7739L30.0377 34.03L27.713 36.5359C27.713 36.5359 23.3143 30.402 22.9518 29.6439C22.9266 29.5893 22.903 29.5341 22.8809 29.4784Z" fill="#C1C1C1"/>
<path d="M30.1478 38.1308C30.5878 37.7191 30.9786 37.258 31.3125 36.7565C31.3094 36.7498 31.3078 36.7426 31.3078 36.7352C31.3078 36.7279 31.3094 36.7206 31.3125 36.7139C31.3179 36.7061 31.3249 36.6995 31.3331 36.6946C31.3412 36.6897 31.3504 36.6866 31.3598 36.6856C31.4933 36.4786 31.6154 36.2645 31.7255 36.0441C31.3362 35.7904 30.8271 35.4137 31.3803 35.3286C32.0627 35.2309 32.5497 34.8999 32.6191 34.7187C32.6884 34.5374 32.4615 34.3751 32.2818 34.4901C32.075 34.5962 31.8543 34.6726 31.6262 34.7171C31.444 34.76 31.2559 34.7718 31.0698 34.7518C30.8539 34.7281 29.9666 34.3436 29.809 34.3152L28.1494 36.0614C28.1494 36.0614 29.4244 37.4184 30.1478 38.1308Z" fill="#EB996E"/>
<path d="M41.0099 21.8582C40.9827 21.7961 40.9631 21.731 40.9516 21.6643C40.9185 21.5382 40.8775 21.3491 40.8318 21.1237C40.7151 20.527 40.6293 19.9247 40.5749 19.3191C40.5207 18.7134 40.4986 18.1053 40.5087 17.4972C40.5087 17.264 40.5213 17.0764 40.5308 16.9456C40.5321 16.8779 40.5395 16.8103 40.5528 16.7439C40.564 16.8111 40.5672 16.8793 40.5623 16.9472C40.5623 17.0938 40.5623 17.2782 40.5623 17.4972C40.5623 17.9701 40.5891 18.6005 40.6521 19.3128C40.7152 20.0252 40.8097 20.6556 40.8854 21.1143C40.9216 21.3302 40.9532 21.513 40.9784 21.658C40.9952 21.7236 41.0057 21.7906 41.0099 21.8582Z" fill="#263238"/>
<path d="M42.9392 22.2317C42.9392 22.2317 42.9203 22.2317 42.8856 22.2191C42.8369 22.2013 42.79 22.1792 42.7453 22.1529C42.5813 22.0513 42.444 21.9119 42.345 21.7463C42.2066 21.5013 42.1096 21.235 42.0582 20.9583C41.9775 20.6241 41.9149 20.2858 41.8706 19.9449C41.8045 19.2167 41.7493 18.5627 41.713 18.0867C41.6973 17.8613 41.6847 17.6722 41.6736 17.5225C41.6661 17.4533 41.6661 17.3836 41.6736 17.3145C41.6913 17.3816 41.703 17.4501 41.7083 17.5193C41.7241 17.6769 41.7461 17.8566 41.7714 18.0804C41.8234 18.5532 41.888 19.2136 41.9526 19.9354C41.9983 20.2948 42.0661 20.6352 42.1338 20.9409C42.1794 21.2156 42.2677 21.4815 42.3955 21.7289C42.4873 21.8906 42.6131 22.0304 42.7643 22.1387C42.8777 22.2002 42.9471 22.2254 42.9392 22.2317Z" fill="#263238"/>
<g opacity="0.3">
<path opacity="0.3" d="M41.6689 17.3208C41.4769 18.047 41.3441 18.7875 41.2717 19.5351C41.2053 19.9813 41.2288 20.4363 41.341 20.8732C41.4766 21.3019 41.7934 21.6975 42.2284 21.8188C42.0298 20.3563 41.8548 18.8911 41.7035 17.4232" fill="black"/>
</g>
<g opacity="0.3">
<path opacity="0.3" d="M28.7646 31.4911C28.7646 31.4911 29.5022 33.0025 29.9104 33.7937C30.7615 30.2775 29.6819 26.577 30.0334 22.9773L29.4187 24.2176L29.2453 27.0876L29.113 28.7708C29.113 28.7708 28.9869 30.5817 28.7646 31.4911Z" fill="black"/>
</g>
<path d="M29.3599 16.911C29.4075 16.972 29.4492 17.0375 29.4844 17.1064C29.5238 17.1711 29.5679 17.2514 29.6152 17.346C29.6625 17.4406 29.7208 17.5493 29.7728 17.6722C29.9013 17.9595 30.0123 18.2542 30.1053 18.5548C30.3296 19.2936 30.4422 20.0617 30.4395 20.8338C30.4386 21.1501 30.417 21.466 30.3748 21.7794C30.3622 21.9134 30.337 22.0331 30.3181 22.1372C30.2992 22.2412 30.2803 22.3326 30.2629 22.4051C30.2489 22.4817 30.2272 22.5566 30.1983 22.6289C30.2026 22.5514 30.2136 22.4744 30.2314 22.3988C30.244 22.3247 30.2598 22.2412 30.274 22.1293C30.2882 22.0174 30.3071 21.9055 30.3181 21.7731C30.3505 21.4626 30.3658 21.1506 30.3638 20.8385C30.3589 20.4572 30.33 20.0767 30.2771 19.699C30.2189 19.3219 30.1373 18.9487 30.0328 18.5816C29.9447 18.2821 29.8395 17.988 29.7176 17.7006C29.6703 17.5761 29.6152 17.4689 29.5726 17.3712C29.5301 17.2735 29.4891 17.1931 29.4544 17.1269C29.4157 17.0583 29.3841 16.986 29.3599 16.911Z" fill="#263238"/>
<path d="M27.2259 28.8165C27.2149 28.8243 27.1093 28.6589 26.9107 28.3988C26.6458 28.0711 26.3316 27.7867 25.9793 27.5556C25.7906 27.4281 25.5625 27.3722 25.3362 27.398C25.1525 27.4319 24.9786 27.5062 24.8272 27.6155C24.5608 27.7983 24.4158 27.9418 24.4048 27.9307C24.4304 27.8897 24.4623 27.853 24.4993 27.822C24.5914 27.73 24.6899 27.6447 24.7941 27.5667C24.9489 27.4495 25.1284 27.3692 25.3189 27.3318C25.5626 27.2971 25.8105 27.3532 26.0155 27.4894C26.3767 27.7242 26.6932 28.0215 26.9501 28.3673C27.028 28.4711 27.0995 28.5796 27.1644 28.692C27.1913 28.73 27.212 28.772 27.2259 28.8165Z" fill="#263238"/>
<path d="M26.7059 27.1599C27.0187 27.6373 27.1982 28.1895 27.226 28.7596C27.2008 28.7596 27.1393 28.3908 26.9943 27.9511C26.8493 27.5114 26.6885 27.1741 26.7059 27.1599Z" fill="#263238"/>
<path d="M28.7158 31.3932C28.7611 31.4568 28.8006 31.5243 28.834 31.5949L29.1335 32.1607C29.3841 32.6414 29.7261 33.3112 30.1059 34.063L30.1201 34.0898L30.0996 34.1103L29.942 34.2679C29.3226 34.9125 28.7599 35.4941 28.3486 35.9101L27.8584 36.4018C27.8008 36.4647 27.7381 36.5227 27.6709 36.5752C27.7179 36.5058 27.7706 36.4404 27.8285 36.3798L28.3013 35.8707C28.7016 35.442 29.2595 34.8558 29.8774 34.2112L30.035 34.0535V34.1008C29.6567 33.3475 29.3226 32.6824 29.0893 32.1859L28.8135 31.6091C28.774 31.5405 28.7413 31.4682 28.7158 31.3932Z" fill="#263238"/>
<path d="M31.7857 28.2224C31.7816 28.1768 31.7816 28.1309 31.7857 28.0853C31.7857 27.9891 31.7857 27.8599 31.7857 27.696C31.7936 27.3508 31.8046 26.8622 31.8188 26.2633C31.833 25.6645 31.8488 24.9395 31.8819 24.1404C31.9019 23.2694 32.0204 22.4033 32.2349 21.5589C32.354 21.1261 32.5211 20.708 32.7329 20.3122L32.7629 20.3721C32.5667 20.3385 32.3884 20.2377 32.2585 20.0868C32.1348 19.9455 32.0448 19.7779 31.9953 19.5967C31.9232 19.2614 31.8956 18.918 31.9134 18.5754C31.9134 17.934 31.9134 17.3603 31.9134 16.8812C31.9134 16.4021 31.9134 16.0285 31.9134 15.7574C31.9134 15.6314 31.9134 15.5305 31.9134 15.4548C31.9097 15.4203 31.9097 15.3854 31.9134 15.3508C31.9193 15.3852 31.922 15.42 31.9213 15.4548C31.9213 15.5305 31.9213 15.6314 31.9291 15.7574C31.9291 16.0285 31.9386 16.4084 31.9465 16.8796C31.9543 17.3508 31.9575 17.9324 31.9638 18.5754C31.948 18.9113 31.9767 19.2478 32.0489 19.5762C32.096 19.7452 32.1806 19.9014 32.2964 20.0333C32.4138 20.1701 32.5755 20.2616 32.7534 20.2917L32.8101 20.3012L32.7833 20.3516C32.5745 20.7418 32.4101 21.1541 32.2932 21.5809C32.0811 22.4195 31.9616 23.2789 31.937 24.1436C31.9008 24.9411 31.8803 25.6613 31.8551 26.2665C31.8298 26.8717 31.8109 27.3508 31.7967 27.6975L31.7778 28.0868C31.7827 28.1319 31.7853 28.1771 31.7857 28.2224Z" fill="#263238"/>
<path d="M38.5391 15.8267C38.5548 15.8541 38.5675 15.8832 38.5769 15.9133C38.599 15.9795 38.6305 16.0709 38.6667 16.1671L38.993 17.1127C39.1285 17.5178 39.2908 17.9984 39.4658 18.5312C39.5525 18.8038 39.6596 19.0812 39.74 19.3885C39.7832 19.5483 39.7902 19.7158 39.7605 19.8787C39.7451 19.9656 39.7123 20.0485 39.6641 20.1224C39.6159 20.1963 39.5533 20.2598 39.48 20.3089L39.4926 20.2506C39.625 20.4476 39.7652 20.6572 39.896 20.881C40.0927 21.1978 40.2414 21.542 40.3373 21.9023C40.411 22.2417 40.4349 22.5899 40.4083 22.9362C40.3704 23.5902 40.3279 24.1781 40.2932 24.6698C40.2585 25.1616 40.2286 25.5556 40.2065 25.8408C40.1955 25.9716 40.186 26.0772 40.1797 26.156C40.1781 26.1932 40.1728 26.2302 40.164 26.2664C40.1602 26.2292 40.1602 26.1917 40.164 26.1545C40.164 26.0741 40.1718 25.9669 40.1766 25.8393C40.1908 25.5524 40.2112 25.1537 40.2365 24.6667C40.2617 24.1797 40.2979 23.5808 40.3358 22.933C40.3576 22.5945 40.3327 22.2545 40.2617 21.9228C40.166 21.5709 40.0194 21.2348 39.8267 20.9252C39.6975 20.7077 39.5588 20.4996 39.4264 20.2947L39.4027 20.2601L39.439 20.238C39.503 20.1949 39.5576 20.1394 39.5996 20.0746C39.6416 20.0099 39.6701 19.9373 39.6833 19.8613C39.7114 19.7096 39.7055 19.5535 39.6659 19.4043C39.5903 19.108 39.4831 18.8227 39.398 18.5532C39.2246 18.0126 39.0686 17.5304 38.9362 17.1237C38.8038 16.7171 38.7077 16.4035 38.6352 16.1781C38.6021 16.0725 38.5769 15.9858 38.5564 15.9196C38.5484 15.8891 38.5426 15.858 38.5391 15.8267Z" fill="#263238"/>
<path d="M32.405 35.4106C32.3876 35.4572 32.3631 35.5008 32.3325 35.5399C32.2821 35.6203 32.2064 35.7337 32.1103 35.8724C31.9164 36.1498 31.6374 36.5265 31.3222 36.9331C31.007 37.3397 30.7013 37.6959 30.4775 37.9481C30.3656 38.0742 30.2726 38.175 30.2064 38.2428C30.1402 38.3106 30.1024 38.3468 30.0977 38.3437C30.1999 38.192 30.312 38.0472 30.4334 37.9102C30.6461 37.6486 30.9393 37.2798 31.2576 36.8827C31.576 36.4855 31.8581 36.1073 32.063 35.8378C32.1675 35.6881 32.2818 35.5454 32.405 35.4106Z" fill="#455A64"/>
<path d="M34.8746 33.3776C34.8746 33.3776 34.8746 33.4075 34.8746 33.4658C34.8746 33.5241 34.8589 33.614 34.8463 33.7259C34.8211 33.956 34.7817 34.2917 34.7328 34.7219C34.6304 35.5872 34.4775 36.8401 34.2758 38.3847C33.877 41.4753 33.2718 45.7385 32.6209 50.4477C32.2962 52.8039 31.9905 55.0482 31.7446 57.0939C31.68 57.6045 31.628 58.1041 31.5555 58.5879C31.483 59.0718 31.4089 59.5336 31.3396 59.9906L30.9582 62.5123C30.7265 64.0537 30.5437 65.3003 30.4239 66.164C30.364 66.5942 30.3199 66.9299 30.2931 67.1585C30.2805 67.2719 30.271 67.3586 30.2679 67.4169C30.2664 67.439 30.2664 67.4611 30.2679 67.4831C30.2679 67.502 30.2789 67.4831 30.2789 67.4831C30.2789 67.4831 30.2663 67.4831 30.2679 67.4752C30.2649 67.4533 30.2649 67.431 30.2679 67.4091C30.2679 67.3507 30.2758 67.2625 30.2868 67.149C30.3073 66.9205 30.3467 66.5832 30.4018 66.1514C30.5122 65.2861 30.6855 64.0379 30.9093 62.4965C31.0244 61.7243 31.1489 60.8811 31.2813 59.9749C31.3506 59.521 31.42 59.0529 31.4925 58.5706C31.565 58.0883 31.6154 57.5887 31.68 57.0781C31.929 55.0292 32.2253 52.7865 32.5484 50.4303C33.1993 45.7196 33.8092 41.4595 34.2285 38.3705C34.4318 36.8291 34.5957 35.5793 34.7107 34.7125C34.7659 34.2822 34.81 33.9481 34.84 33.7164C34.8557 33.6061 34.8668 33.5194 34.8746 33.4579C34.8825 33.3965 34.8746 33.3776 34.8746 33.3776Z" fill="#455A64"/>
<path d="M38.4712 66.8667C38.4734 66.8382 38.4771 66.8098 38.4822 66.7816C38.4917 66.7218 38.5043 66.6382 38.5216 66.5295C38.561 66.3057 38.6162 65.9826 38.6792 65.5665C38.8258 64.7265 39.0386 63.5177 39.3002 62.0251L41.3869 50.3419C41.4475 50.0647 41.4646 49.7797 41.4373 49.4972C41.4011 49.2166 41.3538 48.933 41.3128 48.6556C41.2277 48.0977 41.1431 47.5487 41.0591 47.0086C40.8888 45.9306 40.7202 44.8904 40.5563 43.9007C40.2269 41.9211 39.9085 40.1418 39.6249 38.6509C39.3412 37.1599 39.0906 35.9574 38.9015 35.13C38.8116 34.7155 38.7297 34.3955 38.6792 34.1844C38.6556 34.0788 38.6367 33.9952 38.6225 33.9369C38.6083 33.8786 38.6052 33.8518 38.6052 33.8518C38.615 33.8792 38.6235 33.9071 38.6304 33.9353L38.6966 34.1812C38.7517 34.3971 38.8384 34.7155 38.933 35.1268C39.1316 35.9511 39.39 37.1536 39.6816 38.643C39.9732 40.1323 40.2962 41.9117 40.6272 43.8912C40.7943 44.881 40.9629 45.9211 41.1347 46.9992C41.2188 47.5403 41.3039 48.0892 41.39 48.6461C41.4326 48.9267 41.4783 49.204 41.5161 49.4909C41.5438 49.7823 41.5263 50.0763 41.4641 50.3624C40.643 54.9188 39.9007 59.0448 39.3617 62.0346C39.089 63.5255 38.8684 64.7328 38.7155 65.5712C38.6383 65.9873 38.5768 66.3104 38.5358 66.5326C38.5153 66.6398 38.498 66.7233 38.487 66.7816C38.4759 66.84 38.4712 66.8667 38.4712 66.8667Z" fill="#455A64"/>
<path d="M36.6968 38.3436C36.7204 38.3436 36.4414 40.2223 36.0742 42.5328C35.707 44.8432 35.3934 46.7171 35.3745 46.7171C35.3555 46.7171 35.6313 44.8385 35.997 42.528C36.3626 40.2175 36.6747 38.3405 36.6968 38.3436Z" fill="#455A64"/>
<path d="M32.0361 67.5318C31.9848 67.5468 31.9319 67.5558 31.8785 67.5586C31.7792 67.5697 31.6342 67.5838 31.4545 67.598C31.0968 67.6264 30.6003 67.6532 30.0518 67.6611C29.5034 67.669 29.0054 67.6611 28.646 67.6437C28.4663 67.6437 28.3213 67.628 28.2221 67.6185C28.1687 67.6194 28.1155 67.612 28.0645 67.5965C28.2579 67.5816 28.4521 67.5784 28.646 67.587C29.0054 67.587 29.5002 67.587 30.0487 67.5791C30.5972 67.5712 31.0905 67.5539 31.4498 67.5397C31.6448 67.5239 31.8407 67.5213 32.0361 67.5318Z" fill="#455A64"/>
<path d="M39.6611 67.0231C39.5942 67.026 39.5272 67.0224 39.461 67.012L38.9188 66.9553C38.4618 66.9033 37.8313 66.8245 37.1347 66.7346C36.4381 66.6448 35.8077 66.5581 35.3522 66.4919L34.8132 66.41C34.7466 66.402 34.6808 66.3888 34.6162 66.3706C34.6835 66.3642 34.7514 66.3668 34.8179 66.3784C34.9456 66.3895 35.1332 66.4084 35.3601 66.4336C35.8172 66.4856 36.4491 66.5628 37.1458 66.6527C37.8424 66.7425 38.4712 66.8308 38.9267 66.897L39.4657 66.9805C39.5323 66.9869 39.5979 67.0012 39.6611 67.0231Z" fill="#455A64"/>
<path d="M33.0103 15.4988C33.0715 15.5304 33.1296 15.5679 33.1836 15.6107L33.647 15.9259C34.041 16.1954 34.5926 16.5563 35.223 16.9156C35.4594 17.0512 35.6958 17.1773 35.9039 17.2907L35.8471 17.316C35.9795 16.7927 36.0961 16.3435 36.1813 16.0268C36.2222 15.8786 36.2569 15.7557 36.2853 15.6548C36.2953 15.6096 36.3107 15.5657 36.331 15.524C36.3299 15.5704 36.323 15.6164 36.3105 15.6611C36.2884 15.7636 36.2616 15.8881 36.2301 16.0378C36.156 16.353 36.0504 16.81 35.9149 17.3349L35.9039 17.3821L35.8597 17.3601C35.6438 17.2482 35.4106 17.1221 35.1742 16.9866C34.6336 16.678 34.1106 16.3396 33.6076 15.9732C33.4153 15.8329 33.2624 15.7131 33.1584 15.6296C33.1044 15.5916 33.0547 15.5477 33.0103 15.4988Z" fill="#263238"/>
<path d="M38.2111 16.6589C37.9916 16.8345 37.7587 16.9926 37.5145 17.1317L37.4798 17.1538L37.4609 17.1159L37.2481 16.7014C37.0905 16.3862 36.9408 16.0868 36.8415 15.8724C36.7797 15.7598 36.73 15.641 36.6934 15.5178C36.7713 15.6201 36.8379 15.7305 36.8919 15.8472C37.0054 16.0537 37.1583 16.3421 37.3206 16.6636L37.5334 17.0876L37.4798 17.0718C37.7133 16.9167 37.9577 16.7787 38.2111 16.6589Z" fill="#263238"/>
<path d="M37.1836 16.5044C37.1415 16.5457 37.095 16.5822 37.0449 16.6131C36.9582 16.6778 36.8353 16.7707 36.6981 16.8574C36.561 16.9441 36.4365 17.0339 36.3451 17.0938C36.2953 17.1283 36.2425 17.1583 36.1875 17.1837C36.2296 17.142 36.2761 17.105 36.3262 17.0733C36.4145 17.0103 36.5374 16.9236 36.6729 16.8306L37.026 16.5942C37.0758 16.5598 37.1285 16.5297 37.1836 16.5044Z" fill="#263238"/>
<path d="M36.7101 16.8307C36.5977 16.7423 36.4923 16.6454 36.3949 16.5407C36.2931 16.4429 36.1988 16.3375 36.1128 16.2255C36.2222 16.3139 36.3244 16.4109 36.4185 16.5155C36.5237 16.6129 36.6212 16.7183 36.7101 16.8307Z" fill="#263238"/>
<path d="M33.7414 30.8116C33.7879 31.2056 33.8981 31.5893 34.0676 31.948C34.2602 32.2944 34.5083 32.607 34.802 32.8731C34.694 32.8226 34.5962 32.7526 34.5136 32.6666C34.0856 32.2746 33.8117 31.7424 33.7414 31.1663C33.7203 31.049 33.7203 30.9289 33.7414 30.8116Z" fill="#263238"/>
<path d="M34.6588 32.8889C34.1341 32.8442 33.6428 32.6133 33.2734 32.238C33.2892 32.2191 33.5603 32.435 33.9417 32.6131C34.3231 32.7912 34.6635 32.8637 34.6588 32.8889Z" fill="#263238"/>
<path d="M37.7383 27.844C37.7654 27.8972 37.785 27.954 37.7966 28.0126C37.8297 28.123 37.8722 28.2837 37.9195 28.4854C38.0172 28.8842 38.1323 29.4405 38.2237 30.0615C38.3151 30.6824 38.3671 31.2467 38.3908 31.658C38.4018 31.8629 38.4081 32.0284 38.4081 32.1434C38.4159 32.2025 38.4159 32.2624 38.4081 32.3215C38.3934 32.2638 38.385 32.2046 38.3829 32.145C38.3703 32.0126 38.3561 31.8519 38.3388 31.6612C38.3009 31.2546 38.241 30.6919 38.1496 30.0741C38.0582 29.4563 37.951 28.8999 37.8691 28.4981C37.8313 28.3105 37.7982 28.1513 37.7714 28.0252C37.7537 27.9662 37.7426 27.9054 37.7383 27.844Z" fill="#263238"/>
<path d="M36.6889 17.9244C36.4841 19.5619 36.3328 23.1254 36.276 24.7786C36.2287 26.1593 36.2335 27.5415 36.2382 28.9236C36.2382 29.3697 36.2382 29.8299 36.4289 30.2349C36.7583 30.9646 37.5637 31.3381 38.3028 31.6344L36.6889 17.9244Z" fill="#E0E0E0"/>
<path d="M38.5263 31.398L39.3726 29.3239L37.256 17.7021L36.6382 17.7636C36.6382 17.7636 36.7249 29.8424 36.6965 29.9512L38.5263 31.398Z" fill="#C1C1C1"/>
<path d="M37.2341 17.7021C37.1387 17.7324 37.0394 17.7488 36.9394 17.751C36.841 17.764 36.7414 17.764 36.6431 17.751C36.7405 17.7341 36.839 17.7247 36.9378 17.7226C37.036 17.7096 37.135 17.7028 37.2341 17.7021Z" fill="#263238"/>
</svg>
