<?xml version="1.0" encoding="utf-8"?>
<!-- Generator: Adobe Illustrator 19.1.0, SVG Export Plug-In . SVG Version: 6.00 Build 0)  -->
<svg version="1.1" id="Layer_1" xmlns="http://www.w3.org/2000/svg" xmlns:xlink="http://www.w3.org/1999/xlink" x="0px" y="0px"
	 width="512px" height="512px" viewBox="-139 51 512 512" style="enable-background:new -139 51 512 512;" xml:space="preserve">
<g>
	<path d="M321.5,220.6c-11.2-26.4-27.2-50.2-47.6-70.6s-44.1-36.4-70.6-47.6c-27.4-11.6-56.5-17.5-86.4-17.5c-30,0-59,5.9-86.4,17.5
		C4.1,113.6-19.6,129.6-40,150s-36.4,44.1-47.6,70.6c-11.6,27.4-17.5,56.5-17.5,86.4c0,30,5.9,59,17.5,86.4
		c11.2,26.4,27.2,50.2,47.6,70.6s44.1,36.4,70.6,47.6c27.4,11.6,56.5,17.5,86.4,17.5c30,0,59-5.9,86.4-17.5
		c26.4-11.2,50.2-27.2,70.6-47.6s36.4-44.1,47.6-70.6c11.6-27.4,17.5-56.5,17.5-86.4C339,277,333.1,248,321.5,220.6z M117,507
		C6.5,507-83,417.5-83,307S6.5,107,117,107s200,89.5,200,200S227.4,507,117,507z"/>
	<circle cx="117" cy="307" r="24"/>
</g>
</svg>
