<svg xmlns="http://www.w3.org/2000/svg" enable-background="new 0 0 413.184 413.184" viewBox="0 0 413.184 413.184">
    <path fill="#010002" d="M206.584 0C103.578 0 22.886 34.79 22.886 79.213v43.236c0 44.406 80.692 79.197 183.698 79.197 103.013 0 183.714-34.79 183.714-79.197V79.213C390.298 34.79 309.597 0 206.584 0zM374.04 122.441c0 37.091-88.244 62.94-167.457 62.94-79.197 0-167.441-25.849-167.441-62.94V79.205c0-37.099 88.236-62.956 167.441-62.956S374.04 42.106 374.04 79.205v43.236z"/>
    <path fill="#010002" d="M31.015 173.992c-4.495 0-8.129 3.642-8.129 8.129v43.236c0 44.406 80.692 79.197 183.698 79.197 103.013 0 183.714-34.79 183.714-79.197v-43.236c0-4.487-3.633-8.129-8.129-8.129-4.495 0-8.129 3.642-8.129 8.129v43.236c0 37.091-88.244 62.94-167.457 62.94-79.197 0-167.441-25.849-167.441-62.94v-43.236c.001-4.487-3.632-8.129-8.127-8.129z"/>
    <path fill="#010002" d="M22.886 333.995c0 44.406 80.692 79.189 183.698 79.189 103.013 0 183.714-34.782 183.714-79.189v-43.236c0-4.487-3.633-8.129-8.129-8.129-4.495 0-8.129 3.642-8.129 8.129v43.236c0 37.083-88.244 62.931-167.457 62.931-79.197 0-167.441-25.849-167.441-62.931v-43.236c0-4.487-3.633-8.129-8.129-8.129s-8.129 3.642-8.129 8.129c.002 0 .002 43.236.002 43.236z"/>
</svg>
