<svg xmlns="http://www.w3.org/2000/svg" width="512" height="512" enable-background="new -139 51 512 512" viewBox="-139 51 512 512">
    <path d="M285.2 366.1c-10.6-7.7-23.7-11.2-36.4-14.5-1.5-.4-2.9-.8-4.3-1.2-2.6-.7-4.3-4-5.6-7.1 22.3-14.8 38.9-40.6 38.9-63.1v-20.5c0-25.1-8-46.3-23.1-61.5-13.5-13.5-31.7-21.2-51.2-21.5h-.2c-19.5.3-37.7 7.9-51.2 21.5-15.1 15.2-23.1 36.4-23.1 61.5v20.5c0 22.5 16.7 48.3 38.9 63.1-1.3 3.1-3.1 6.4-5.6 7.1-1.4.4-2.9.8-4.3 1.2-12.7 3.4-25.8 6.9-36.4 14.5-12.9 9.3-19.1 22.6-19.1 40.6v17.7c0 7.1 5.8 12.9 12.9 12.9h71.9c4.1 0 7.5-3.4 7.5-7.5s-3.4-7.5-7.5-7.5h-69.8v-15.6c0-23.4 12.8-31.3 34.3-37.8l38.6 22.6c4.7 3 8.9 4.6 13 4.6s8.3-1.5 13-4.6l38.6-22.6c21.6 6.5 34.4 14.4 34.4 37.8v15.6h-68.9c-4.1 0-7.5 3.4-7.5 7.5s3.4 7.5 7.5 7.5h71c7.1 0 12.9-5.8 12.9-12.9v-17.7c0-18.1-6.3-31.3-19.2-40.6zm-81.8-174.3c26.7.5 55.2 19.1 59 58.9-5.1-1.8-8-4.8-11-7.8-3.9-3.9-8.9-9.1-17.7-9.1-2.1 0-4.4.3-7 .9-3.4.9-6.4 1.7-8.9 2.3-7.5 2-11.3 3-14.4 3-3.1 0-6.9-1-14.4-3-2.5-.7-5.5-1.5-8.9-2.3-13.4-3.4-19.9 3.2-24.7 8.1-3 3.1-5.9 6-11 7.8 3.7-39.7 32.3-58.3 59-58.8zm-59.5 88.4v-14c11.9-2.5 17.9-8.6 22.1-12.9 4.2-4.3 5.3-5.4 10.2-4.1 3.4.9 6.3 1.6 8.8 2.3 8.5 2.3 13.2 3.5 18.2 3.5 5.1 0 9.8-1.2 18.3-3.5 2.5-.7 5.4-1.4 8.8-2.3 5-1.3 6-.3 10.2 4.1 4.2 4.3 10.3 10.5 22.2 12.9v14c0 21.6-21.2 48.4-45.3 57.3-10.5 3.9-17.9 3.9-28.3 0-24-8.9-45.2-35.7-45.2-57.3zm64.8 98.4c-.1.1-.2.1-.3.2-4.6 3-5.4 3-10 0-.1-.1-.2-.1-.3-.2l-27-15.9c5.1-3 8.1-8 10.1-12.3 1 .4 1.9.8 2.9 1.1 6.9 2.6 13.1 3.8 19.4 3.8 6.2 0 12.5-1.3 19.4-3.8 1-.4 1.9-.7 2.9-1.1 1.9 4.3 5 9.3 10.1 12.3l-27.2 15.9zM43.8 366.1c-10.6-7.7-23.7-11.2-36.4-14.5-1.5-.4-2.9-.8-4.3-1.2-2.6-.7-4.3-4-5.6-7.1 22.3-14.8 38.9-40.6 38.9-63.1v-20.5c0-25.1-8-46.3-23.1-61.5-13.5-13.5-31.7-21.2-51.2-21.5h-.2c-19.5.3-37.7 7.9-51.2 21.5-15.1 15.2-23.1 36.4-23.1 61.5v20.5c0 22.5 16.7 48.3 38.9 63.1-1.3 3.1-3.1 6.4-5.6 7.1-1.4.4-2.9.8-4.3 1.2-12.7 3.4-25.8 6.9-36.4 14.5-12.9 9.3-19.1 22.6-19.1 40.6v17.7c0 7.1 5.8 12.9 12.9 12.9h70.9c4.1 0 7.5-3.4 7.5-7.5s-3.4-7.5-7.5-7.5H-124v-15.6c0-23.4 12.8-31.3 34.3-37.8l38.6 22.6c4.7 3 8.9 4.6 13 4.6s8.3-1.5 13-4.6l38.6-22.6c21.6 6.5 34.3 14.4 34.3 37.8v15.6h-67.7c-4.1 0-7.5 3.4-7.5 7.5s3.4 7.5 7.5 7.5H50c7.1 0 12.9-5.8 12.9-12.9v-17.7c0-18.1-6.2-31.3-19.1-40.6zM-38 191.8c26.7.5 55.2 19.1 59 58.9-5.1-1.8-8-4.7-11-7.8-4.8-4.9-11.3-11.6-24.7-8.1-3.5.9-6.4 1.7-9 2.4-7.5 2-11.2 3-14.3 3-3.1 0-6.9-1-14.4-3-2.5-.7-5.5-1.5-8.9-2.3-13.4-3.4-19.9 3.2-24.7 8.1-3 3.1-5.9 6-11 7.8 3.7-39.9 32.3-58.5 59-59zm-59.5 88.4v-14c11.9-2.5 17.9-8.6 22.1-12.9 4.2-4.3 5.3-5.4 10.2-4.1 3.4.9 6.3 1.6 8.8 2.3 8.5 2.3 13.2 3.5 18.2 3.5 5.1 0 9.7-1.2 18.2-3.5 2.5-.7 5.4-1.4 8.9-2.3 5-1.3 6-.3 10.3 4.1 4.2 4.3 10.3 10.4 22.1 12.9v14c0 21.6-21.2 48.4-45.3 57.3-10.4 3.9-17.8 3.9-28.3 0-24-8.9-45.2-35.7-45.2-57.3zm64.7 98.4c-.1.1-.2.1-.3.2-4.6 3-5.4 3-10 0-.1-.1-.2-.1-.3-.2l-27.1-15.9c5.1-3 8.1-8 10.1-12.3 1 .4 1.9.8 2.9 1.1 6.9 2.6 13.1 3.8 19.4 3.8 6.2 0 12.5-1.3 19.4-3.8 1-.4 1.9-.7 2.9-1.1 1.9 4.3 5 9.3 10.1 12.3l-27.1 15.9z"/>
</svg>
