<svg width="14" height="14" viewBox="0 0 14 14" fill="none" xmlns="http://www.w3.org/2000/svg">
<path d="M0.29325 1.70725L5.58625 7.00025L0.29325 12.2932C-0.09775 12.6842 -0.09775 13.3173 0.29325 13.7073C0.68425 14.0973 1.31725 14.0983 1.70725 13.7073L7.00025 8.41425L12.2932 13.7073C12.6842 14.0983 13.3173 14.0983 13.7073 13.7073C14.0973 13.3163 14.0983 12.6832 13.7073 12.2932L8.41425 7.00025L13.7073 1.70725C14.0983 1.31625 14.0983 0.68325 13.7073 0.29325C13.3163 -0.09675 12.6832 -0.09775 12.2932 0.29325L7.00025 5.58625L1.70725 0.29325C1.31625 -0.09775 0.68325 -0.09775 0.29325 0.29325C-0.09675 0.68425 -0.09775 1.31725 0.29325 1.70725Z" fill="#A6A6A6"/>
</svg>
