<svg width="18" height="16" viewBox="0 0 18 16" fill="none" xmlns="http://www.w3.org/2000/svg">
<path d="M6.54545 3.2V2.4C6.54545 2.1792 6.63627 1.98 6.78518 1.8344C6.93409 1.6888 7.13782 1.6 7.36364 1.6H10.6364C10.8622 1.6 11.0659 1.6888 11.2148 1.8344C11.3637 1.98 11.4545 2.1792 11.4545 2.4V3.2H6.54545ZM6.54545 14.4V4.8H11.4545V14.4H6.54545ZM4.90909 4.8V14.4H2.45455C2.22873 14.4 2.025 14.3112 1.87609 14.1656C1.72718 14.02 1.63636 13.8208 1.63636 13.6V5.6C1.63636 5.3792 1.72718 5.18 1.87609 5.0344C2.025 4.8888 2.22873 4.8 2.45455 4.8H4.90909ZM13.0909 3.2V2.4C13.0909 1.7376 12.8152 1.136 12.3717 0.7032C11.9283 0.2704 11.3138 0 10.6364 0H7.36364C6.68618 0 6.07091 0.2696 5.62827 0.7032C5.18564 1.1368 4.90909 1.7376 4.90909 2.4V3.2H2.45455C1.77709 3.2 1.16182 3.4696 0.719182 3.9032C0.276545 4.3368 0 4.9376 0 5.6V13.6C0 14.2624 0.275727 14.864 0.719182 15.2968C1.16264 15.7296 1.77709 16 2.45455 16H15.5455C16.2229 16 16.8382 15.7304 17.2808 15.2968C17.7235 14.8632 18 14.2624 18 13.6V5.6C18 4.9376 17.7243 4.336 17.2808 3.9032C16.8374 3.4704 16.2229 3.2 15.5455 3.2H13.0909ZM13.0909 14.4V4.8H15.5455C15.7713 4.8 15.975 4.8888 16.1239 5.0344C16.2728 5.18 16.3636 5.3792 16.3636 5.6V13.6C16.3636 13.8208 16.2728 14.02 16.1239 14.1656C15.975 14.3112 15.7713 14.4 15.5455 14.4H13.0909Z" fill="#A6A6A6"/>
</svg>
