<svg width="16" height="16" viewBox="0 0 16 16" fill="none" xmlns="http://www.w3.org/2000/svg">
<path d="M0.8 0C0.3584 0 0 0.3584 0 0.8V6.4C0 6.8416 0.3584 7.2 0.8 7.2H6.4C6.8416 7.2 7.2 6.8416 7.2 6.4V0.8C7.2 0.3584 6.8416 0 6.4 0H0.8ZM1.6 1.6H5.6V5.6H1.6V1.6ZM9.6 0C9.1584 0 8.8 0.3584 8.8 0.8V6.4C8.8 6.8416 9.1584 7.2 9.6 7.2H15.2C15.6416 7.2 16 6.8416 16 6.4V0.8C16 0.3584 15.6416 0 15.2 0H9.6ZM10.4 1.6H14.4V5.6H10.4V1.6ZM9.6 8.8C9.1584 8.8 8.8 9.1584 8.8 9.6V15.2C8.8 15.6416 9.1584 16 9.6 16H15.2C15.6416 16 16 15.6416 16 15.2V9.6C16 9.1584 15.6416 8.8 15.2 8.8H9.6ZM10.4 10.4H14.4V14.4H10.4V10.4ZM0.8 8.8C0.3584 8.8 0 9.1584 0 9.6V15.2C0 15.6416 0.3584 16 0.8 16H6.4C6.8416 16 7.2 15.6416 7.2 15.2V9.6C7.2 9.1584 6.8416 8.8 6.4 8.8H0.8ZM1.6 10.4H5.6V14.4H1.6V10.4Z" fill="#A6A6A6"/>
</svg>
