<svg width="18" height="18" viewBox="0 0 18 18" fill="none" xmlns="http://www.w3.org/2000/svg">
<path d="M18 9C18 6.51518 16.992 4.26355 15.3638 2.63618C13.7356 1.00882 11.4848 0 9 0C6.51518 0 4.26355 1.008 2.63618 2.63618C1.00882 4.26436 0 6.51518 0 9C0 11.4848 1.008 13.7365 2.63618 15.3638C4.26436 16.9912 6.51518 18 9 18C11.4848 18 13.7365 16.992 15.3638 15.3638C16.9912 13.7356 18 11.4848 18 9ZM16.3636 9C16.3636 11.034 15.5405 12.8733 14.2069 14.2069C12.8733 15.5405 11.034 16.3636 9 16.3636C6.966 16.3636 5.12673 15.5405 3.79309 14.2069C2.45945 12.8733 1.63636 11.034 1.63636 9C1.63636 6.966 2.45945 5.12673 3.79309 3.79309C5.12673 2.45945 6.966 1.63636 9 1.63636C11.034 1.63636 12.8733 2.45945 14.2069 3.79309C15.5405 5.12673 16.3636 6.966 16.3636 9ZM7.39064 6.81709C7.54036 6.39082 7.848 6.066 8.22682 5.88436C8.60564 5.70273 9.05073 5.66591 9.477 5.81645C9.85173 5.94818 10.1471 6.201 10.3361 6.51927C10.4858 6.77045 10.5685 7.06336 10.5701 7.36773C10.5701 7.49455 10.5382 7.62055 10.4744 7.74736C10.4089 7.87827 10.3083 8.01327 10.1733 8.14827C9.59318 8.72836 8.67518 9.04173 8.67518 9.04173C8.24645 9.18491 8.01491 9.648 8.15809 10.0767C8.30127 10.5055 8.76436 10.737 9.19309 10.5938C9.19309 10.5938 10.4564 10.1798 11.331 9.30518C11.5593 9.07691 11.7769 8.80282 11.9389 8.47882C12.1025 8.15155 12.2073 7.77682 12.2073 7.35873C12.204 6.76064 12.0404 6.183 11.7434 5.68227C11.3645 5.04573 10.7697 4.53518 10.0211 4.27173C9.16855 3.97227 8.27427 4.04673 7.51991 4.40836C6.76555 4.77 6.147 5.42127 5.84755 6.27382C5.697 6.70009 5.92118 7.16727 6.34746 7.317C6.77373 7.46673 7.24091 7.24255 7.39064 6.81709ZM9 13.9091C9.45164 13.9091 9.81818 13.5425 9.81818 13.0909C9.81818 12.6393 9.45164 12.2727 9 12.2727C8.54836 12.2727 8.18182 12.6393 8.18182 13.0909C8.18182 13.5425 8.54836 13.9091 9 13.9091Z" fill="#A6A6A6"/>
</svg>
