<svg width="16" height="16" viewBox="0 0 16 16" fill="none" xmlns="http://www.w3.org/2000/svg">
<path d="M5.60001 14.4H2.4C2.1792 14.4 1.98 14.3112 1.8344 14.1656C1.6888 14.02 1.6 13.8208 1.6 13.6V2.4C1.6 2.1792 1.6888 1.98 1.8344 1.8344C1.98 1.6888 2.1792 1.6 2.4 1.6H5.60001C6.04161 1.6 6.40001 1.2416 6.40001 0.8C6.40001 0.3584 6.04161 0 5.60001 0H2.4C1.7376 0 1.136 0.2696 0.703201 0.7032C0.2704 1.1368 0 1.7376 0 2.4V13.6C0 14.2624 0.2696 14.864 0.703201 15.2968C1.1368 15.7296 1.7376 16 2.4 16H5.60001C6.04161 16 6.40001 15.6416 6.40001 15.2C6.40001 14.7584 6.04161 14.4 5.60001 14.4ZM13.2688 7.2H5.60001C5.15841 7.2 4.80001 7.5584 4.80001 8C4.80001 8.4416 5.15841 8.8 5.60001 8.8H13.2688L10.6344 11.4344C10.3216 11.7472 10.3216 12.2536 10.6344 12.5656C10.9472 12.8776 11.4536 12.8784 11.7656 12.5656L15.7656 8.5656C15.8392 8.492 15.8984 8.404 15.9392 8.3064C16.0592 8.0168 16.0016 7.6704 15.7656 7.4344L11.7656 3.4344C11.4528 3.1216 10.9464 3.1216 10.6344 3.4344C10.3224 3.7472 10.3216 4.2536 10.6344 4.5656L13.2688 7.2Z" fill="#A6A6A6"/>
</svg>
