<svg width="17" height="14" viewBox="0 0 17 14" fill="none" xmlns="http://www.w3.org/2000/svg">
<path d="M1.54545 3.82744L8.05723 8.41556C8.31995 8.59833 8.67155 8.60689 8.94355 8.41556L15.4545 3.82744V11.6667C15.4545 11.8782 15.3695 12.0719 15.2266 12.215C15.0836 12.3581 14.892 12.4444 14.6818 12.4444H2.31818C2.108 12.4444 1.91559 12.3589 1.77341 12.215C1.63123 12.0711 1.54545 11.8782 1.54545 11.6667V3.82744ZM0 2.32011C0 2.32789 0 2.33567 0 2.34344V11.6667C0 12.3107 0.262727 12.8948 0.68 13.3156C1.09727 13.7363 1.67836 14 2.31818 14H14.6818C15.3216 14 15.902 13.7356 16.32 13.3156C16.738 12.8956 17 12.3107 17 11.6667V2.34267C17 2.33489 17 2.32711 17 2.31933C16.9961 1.68078 16.735 1.10211 16.32 0.684445C15.902 0.264445 15.3216 0 14.6818 0H2.31818C1.67836 0 1.09805 0.264445 0.68 0.684445C0.265045 1.10211 0.00386364 1.68078 0 2.32011ZM15.3726 1.98644L8.5 6.82811L1.62736 1.98644C1.66445 1.91178 1.71391 1.84411 1.77264 1.785C1.91559 1.64111 2.108 1.55556 2.31818 1.55556H14.6818C14.892 1.55556 15.0844 1.64111 15.2266 1.785C15.2853 1.84411 15.3348 1.91256 15.3719 1.98644H15.3726Z" fill="#333333"/>
</svg>
