<svg width="16" height="18" viewBox="0 0 16 18" fill="none" xmlns="http://www.w3.org/2000/svg">
<path d="M12 5.728C12 9.01014 12.7576 11.0632 13.4808 12.2743H2.51915C3.24235 11.0632 3.99996 9.01014 3.99996 5.728C3.99996 4.59795 4.44716 3.57591 5.17116 2.83454C5.89516 2.09317 6.89517 1.63657 7.99997 1.63657C9.10477 1.63657 10.104 2.09399 10.8288 2.83454C11.5536 3.57509 12 4.59795 12 5.728ZM13.6 5.728C13.6 4.14625 12.972 2.71343 11.96 1.67748C10.948 0.641536 9.54638 0 7.99997 0C6.45356 0 5.05276 0.642354 4.03996 1.67748C3.02715 2.71262 2.39995 4.14625 2.39995 5.728C2.39995 10.7416 0.485543 12.3127 0.349543 12.4167C-0.0128587 12.6687 -0.108859 13.1728 0.134342 13.5467C0.287942 13.7816 0.539143 13.9092 0.799944 13.9109H15.2C15.6416 13.9109 16 13.5443 16 13.0926C16 12.8152 15.8656 12.5705 15.6568 12.4208C15.516 12.3144 13.6 10.7433 13.6 5.728ZM8.69197 15.9549C8.58077 16.1505 8.40477 16.2814 8.20557 16.3354C8.00637 16.3894 7.78957 16.3657 7.59837 16.2528C7.46877 16.1759 7.37197 16.0711 7.31117 15.9607C7.09197 15.5679 6.60396 15.4312 6.21996 15.6554C5.83596 15.8796 5.70236 16.3788 5.92156 16.7716C6.12156 17.1308 6.41996 17.445 6.79597 17.6684C7.36877 18.0088 8.02397 18.0784 8.61677 17.9172C9.20957 17.756 9.74398 17.3624 10.076 16.7765C10.2976 16.3853 10.1672 15.8846 9.78558 15.6579C9.40398 15.4312 8.91357 15.5646 8.69197 15.9549Z" fill="#333333"/>
</svg>
