<svg width="20" height="14" viewBox="0 0 20 14" fill="none" xmlns="http://www.w3.org/2000/svg">
<path d="M18.3333 4.32512V9.67488L14.7667 7L18.3333 4.32512ZM2.5 0C1.81 0 1.18333 0.294875 0.7325 0.769125C0.281667 1.24338 0 1.9005 0 2.625V11.375C0 12.0995 0.280833 12.7575 0.7325 13.2309C1.18417 13.7043 1.81 14 2.5 14H11.6667C12.3567 14 12.9833 13.7051 13.4342 13.2309C13.885 12.7566 14.1667 12.0995 14.1667 11.375V8.70012L18.6825 12.0872C19.0567 12.3681 19.5775 12.2771 19.845 11.8843C19.95 11.7285 20.0008 11.5491 20 11.375V2.625C20 2.142 19.6267 1.75 19.1667 1.75C18.985 1.75 18.8167 1.81125 18.6825 1.91275L14.1667 5.29988V2.625C14.1667 1.9005 13.8858 1.2425 13.4342 0.769125C12.9825 0.29575 12.3567 0 11.6667 0H2.5ZM2.5 1.75H11.6667C11.8967 1.75 12.1042 1.84713 12.2558 2.00638C12.4075 2.16563 12.5 2.3835 12.5 2.625V11.375C12.5 11.6165 12.4075 11.8344 12.2558 11.9936C12.1042 12.1529 11.8967 12.25 11.6667 12.25H2.5C2.27 12.25 2.0625 12.1529 1.91083 11.9936C1.75917 11.8344 1.66667 11.6165 1.66667 11.375V2.625C1.66667 2.3835 1.75917 2.16563 1.91083 2.00638C2.0625 1.84713 2.27 1.75 2.5 1.75Z" fill="#333333"/>
</svg>
