<svg width="150" height="150" viewBox="0 0 150 150" fill="none" xmlns="http://www.w3.org/2000/svg">
<mask id="mask0" mask-type="alpha" maskUnits="userSpaceOnUse" x="0" y="0" width="150" height="150">
<circle cx="75" cy="75" r="75" fill="#222222"/>
</mask>
<g mask="url(#mask0)">
<path fill-rule="evenodd" clip-rule="evenodd" d="M75 0C116.42 0 150 33.5782 150 75C150 116.422 116.42 150 75 150C33.5782 150 0 116.422 0 75C0 33.5782 33.5782 0 75 0Z" fill="#8F9BB3" fill-opacity="0.15"/>
<path opacity="0.3" fill-rule="evenodd" clip-rule="evenodd" d="M124.64 119.894L124.627 119.879H124.612C119.956 115.531 110.183 112.271 105.225 110.069C101.065 108.229 92.5132 105.642 91.185 104.452C90.2755 103.623 89.0046 100.387 88.7864 98.7423C88.4686 96.2537 91.1577 94.695 92.025 92.3646C92.8923 89.9905 92.3291 90.3055 92.9795 87.4023C97.9964 85.9869 100.237 74.3741 96.9982 74.0878C98.1123 68.1246 99.1814 59.9878 97.62 54.5237C95.7409 46.7878 86.3291 40.8955 74.9809 40.8955C63.1118 40.8955 53.3523 47.3305 52.1236 55.5832C50.9673 60.9887 51.9654 68.4969 53.0059 74.0878C49.7823 74.3741 52.095 86.0155 57.1118 87.431C57.7473 90.3341 57.1118 89.9905 57.9927 92.3646C58.8464 94.695 61.5354 96.2537 61.2177 98.7423C61.0009 100.387 59.7436 103.623 58.8191 104.452C57.5018 105.633 48.9668 108.224 44.7941 110.069C39.8209 112.257 30.0191 115.546 25.3786 119.894C25.3786 119.894 25.3786 119.879 25.3636 119.879L21.8223 127.244C35.1368 141.259 54.0314 149.997 74.9945 149.997C95.9577 149.997 114.854 141.259 128.168 127.244L124.64 119.894Z" fill="#6B83B3"/>
</g>
</svg>
